<svg width="85" height="84" viewBox="0 0 85 84" fill="none" xmlns="http://www.w3.org/2000/svg">
<g clip-path="url(#clip0_4_2139)">
<path d="M73.1225 46.9478C75.3965 47.6752 76.7918 49.1923 76.9847 51.6388C77.1005 53.0876 76.5958 54.3762 75.5746 55.4183C70.2756 60.8218 64.9736 66.2224 59.6538 71.6052C58.41 72.864 56.8544 73.4073 55.091 73.4044C47.3756 73.4014 39.6571 73.4222 31.9416 73.3866C30.3564 73.3806 29.1333 73.9032 28.1418 75.1412C27.0909 76.4535 25.9509 77.6916 24.8704 78.9801C23.7334 80.3369 22.3055 81.002 20.5272 80.9961C15.4568 80.9812 10.3864 80.9842 5.31596 80.9961C3.51103 80.999 2.13359 80.2687 1.38549 78.612C0.646302 76.979 0.990664 75.4619 2.18702 74.1555C6.92496 69.0043 11.6599 63.8502 16.4216 58.7228C19.1231 55.8161 22.4005 53.815 26.2241 52.7165C26.3161 52.6898 26.4022 52.6423 26.417 52.6363C22.7567 39.1008 27.1176 29.0329 39.2742 22.133C37.7305 19.3808 37.2941 16.3554 38.2144 13.1726C38.9387 10.6609 40.3815 8.64197 42.4981 7.11295C46.6156 4.13506 52.3747 4.33101 56.2963 7.49891C60.108 10.5777 62.1326 16.5602 58.9681 22.2162C68.9575 27.4148 73.7133 35.5944 73.1225 46.9448V46.9478ZM43.0918 70.8659C47.049 70.8659 51.0062 70.854 54.9634 70.8718C56.2251 70.8778 57.2581 70.4591 58.1398 69.5477C60.0635 67.5555 62.0198 65.593 63.9613 63.6186C67.1674 60.3557 70.3736 57.0898 73.5827 53.8299C74.2476 53.1529 74.6098 52.3751 74.4168 51.4161C74.0161 49.4417 71.7896 48.6846 70.1984 50.0029C66.6776 52.9243 63.1717 55.8636 59.6806 58.8207C59.4401 59.0226 59.2798 59.4294 59.256 59.756C59.0453 62.4399 56.9702 64.4945 54.2955 64.5123C49.2517 64.5449 44.2051 64.5241 39.1584 64.5182C38.9179 64.5182 38.6537 64.4855 38.4429 64.3816C37.8937 64.1144 37.6414 63.6453 37.7602 63.0426C37.8997 62.333 38.3865 61.9975 39.0901 61.9946C40.895 61.9857 42.7 61.9916 44.5049 61.9886C47.6962 61.9886 50.8845 61.9946 54.0758 61.9857C55.6462 61.9797 56.7416 60.8842 56.703 59.3967C56.6674 58.0102 55.4651 56.9443 53.8858 56.9414C49.3349 56.9325 44.784 56.9236 40.233 56.9473C39.0931 56.9532 38.1075 56.6534 37.2139 55.9408C36.0621 55.0264 34.7233 54.4979 33.2567 54.4326C27.5956 54.1772 22.6379 55.9438 18.7104 60.041C13.7499 65.2189 8.95551 70.5571 4.08992 75.8241C3.6179 76.3348 3.37151 76.8989 3.68915 77.5788C3.99789 78.2408 4.55896 78.4635 5.26253 78.4635C10.3834 78.4576 15.5013 78.4576 20.6222 78.4635C21.5544 78.4635 22.2847 78.1043 22.8814 77.3977C23.9976 76.0735 25.1642 74.7939 26.2537 73.4489C27.7143 71.6467 29.5727 70.8303 31.8852 70.854C35.6198 70.8956 39.3543 70.8659 43.0889 70.8659H43.0918ZM58.3565 56.5851C60.0338 55.1837 61.6666 53.8239 63.2904 52.4523C63.4537 52.3157 63.5695 52.1079 63.6704 51.9149C65.3714 48.6787 65.977 45.2376 65.3774 41.6392C63.8159 32.284 55.0614 26.2748 45.7784 28.1333C35.311 30.2294 29.5756 41.9955 34.4026 51.52C34.554 51.8169 34.934 52.0336 35.2546 52.1969C36.3916 52.7759 37.5405 53.34 38.7042 53.8625C39.2237 54.0971 39.7877 54.3732 40.334 54.3791C44.7365 54.4207 49.1389 54.3999 53.5414 54.4059C54.0342 54.4059 54.5329 54.4266 55.0168 54.5098C56.3943 54.7384 57.466 55.4984 58.3565 56.5851ZM31.6893 51.8792C27.9934 42.7912 31.4459 34.6206 36.1215 30.4224C41.9341 25.2029 48.7293 23.6235 55.9371 26.5954C65.7098 30.6213 69.1772 38.4327 67.7641 48.5926C68.4707 48.1443 69.2485 47.6781 69.9936 47.1615C70.2133 47.0072 70.4804 46.7162 70.4834 46.4876C70.4983 44.7121 70.6645 42.907 70.3973 41.1672C68.5449 29.0478 57.4719 21.0612 45.437 23.0801C32.7194 25.2148 24.71 38.3288 28.6079 50.6293C28.9225 51.6249 29.6083 52.0712 30.6651 51.9683C30.9828 51.9386 31.3034 51.9149 31.6863 51.8822L31.6893 51.8792ZM45.3421 20.4645C45.3421 19.645 45.3777 18.8048 45.3213 17.9705C45.3035 17.7211 45.0927 17.3916 44.873 17.2639C43.2789 16.3227 42.5129 14.7106 42.8989 13.0034C43.2848 11.3081 44.7632 10.1146 46.6275 10.073C48.284 10.0344 49.9405 10.0404 51.597 10.0701C53.4761 10.1027 54.9396 11.2547 55.3493 12.9618C55.7709 14.7135 55.0287 16.3109 53.3752 17.2698C53.1941 17.3737 52.9774 17.6024 52.9685 17.7805C52.9269 18.689 52.9507 19.6005 52.9507 20.4912C54.1708 20.7732 55.3167 21.0345 56.4418 21.2958C58.7929 17.9586 58.4278 13.33 55.6046 10.3313C52.7221 7.2703 48.0494 6.65275 44.4722 8.85871C40.426 11.3527 39.0753 16.6463 41.465 20.7376C41.5986 20.9662 41.94 21.278 42.127 21.2423C43.1868 21.0404 44.2318 20.7465 45.348 20.4645H45.3421ZM49.0766 15.1351C49.89 15.1351 50.7064 15.15 51.5198 15.1292C52.3658 15.1084 52.9002 14.6274 52.9269 13.9179C52.9536 13.1845 52.3955 12.6293 51.5257 12.6174C49.9227 12.5937 48.3166 12.5907 46.7106 12.6174C45.8556 12.6323 45.3628 13.1311 45.3599 13.8733C45.3599 14.6215 45.8497 15.0995 46.7047 15.1262C47.4943 15.15 48.284 15.1322 49.0736 15.1322L49.0766 15.1351ZM47.9248 17.7241V20.2062H50.3531V17.7241H47.9248Z" fill="#152296"/>
<path d="M53.5005 46.8386C52.6307 48.1539 51.4996 49.0179 49.9619 49.2524C47.8185 49.579 46.0908 48.8308 44.9122 47.0375C43.7277 45.2354 43.8019 43.3709 44.8944 41.5093C45.1408 41.0907 45.307 40.5681 45.3219 40.0842C45.3753 38.5789 45.3278 37.0677 45.3456 35.5595C45.3723 33.2912 46.9635 31.6256 49.095 31.6018C51.2354 31.5781 52.9156 33.2971 52.9424 35.5654C52.9602 37.1479 52.9246 38.7303 52.9602 40.3128C52.9691 40.678 53.1561 41.0432 53.2808 41.3994C53.5687 42.2278 53.9369 43.0383 54.1387 43.8875C54.2367 44.3001 54.3792 44.4664 54.7532 44.5674C55.8724 44.8702 56.9886 45.1908 58.1018 45.5174C59.0013 45.7817 59.4021 46.3844 59.2002 47.1504C59.0073 47.8837 58.3097 48.2044 57.4072 47.952C56.1247 47.5927 54.8453 47.2246 53.4975 46.8386H53.5005ZM49.1217 41.7587C47.7324 41.7646 46.6162 42.8661 46.6014 44.2467C46.5865 45.6332 47.7591 46.8119 49.1455 46.806C50.517 46.7971 51.6362 45.6748 51.648 44.2972C51.6569 42.8602 50.5556 41.7557 49.1217 41.7587ZM50.3953 39.2558C50.3953 37.9257 50.4279 36.6224 50.3804 35.3219C50.3567 34.642 49.7926 34.1492 49.1633 34.1581C48.528 34.167 47.9788 34.4787 47.9432 35.1141C47.866 36.5036 47.9194 37.899 47.9194 39.2529H50.3953V39.2558Z" fill="#152296"/>
</g>
<defs>
<clipPath id="clip0_4_2139">
<rect width="76" height="76" fill="white" transform="translate(1 5)"/>
</clipPath>
</defs>
</svg>
