<svg width="84" height="85" viewBox="0 0 84 85" fill="none" xmlns="http://www.w3.org/2000/svg">
<mask id="path-1-inside-1_4_2143" fill="white">
<path d="M77.5647 62.0887H76.6875C75.9994 62.1002 75.3186 61.9457 74.703 61.6382C74.2382 61.4011 73.7546 61.1747 73.2875 60.9744C70.718 59.8836 67.9559 59.3193 65.1646 59.3147C64.1992 59.3128 63.235 59.3794 62.2791 59.5138L62.0515 59.5423C61.3899 59.6419 60.7144 59.5929 60.0741 59.3988L58.597 58.959V9.92742C58.5951 8.35595 57.97 6.84938 56.8588 5.73818C55.7476 4.62698 54.241 4.00188 52.6696 4H28.9599C27.3884 4.00188 25.8818 4.62698 24.7706 5.73818C23.6594 6.84938 23.0343 8.35595 23.0325 9.92742V60.9032C23.0343 62.4747 23.6594 63.9813 24.7706 65.0925C25.8818 66.2037 27.3884 66.8288 28.9599 66.8306C29.2743 66.8306 29.5758 66.7057 29.7981 66.4834C30.0205 66.2611 30.1454 65.9596 30.1454 65.6452C30.1454 65.3308 30.0205 65.0292 29.7981 64.8069C29.5758 64.5846 29.2743 64.4597 28.9599 64.4597C28.0167 64.4597 27.1121 64.085 26.4451 63.418C25.7781 62.7511 25.4034 61.8465 25.4034 60.9032V9.92742C25.4034 8.98419 25.7781 8.07959 26.4451 7.41263C27.1121 6.74566 28.0167 6.37097 28.9599 6.37097H30.7903L33.2798 9.69032C33.6121 10.1309 34.0419 10.4885 34.5355 10.7353C35.0291 10.9821 35.5731 11.1113 36.1249 11.1129H46.5145C47.1756 11.1153 47.824 10.9324 48.3864 10.585C48.9488 10.2376 49.4026 9.73956 49.6964 9.14737L51.0846 6.37097H52.6696C53.6128 6.37097 54.5174 6.74566 55.1843 7.41263C55.8513 8.07959 56.226 8.98419 56.226 9.92742V58.2537L51.9974 56.9911C50.3673 56.3397 48.5677 56.2449 46.8782 56.7214C45.1887 57.198 43.704 58.2192 42.6546 59.6265C42.4323 59.9403 42.3115 60.3147 42.3084 60.6993C42.308 61.0265 42.395 61.3478 42.5605 61.63C42.726 61.9123 42.964 62.1451 43.2497 62.3045C43.3045 62.3341 43.3611 62.3603 43.4192 62.3827L55.4045 66.7548L49.1605 69.1056C48.8125 69.2382 48.4749 69.3967 48.1505 69.5798C47.0335 70.1016 45.8174 70.377 44.5846 70.3871H23.0325C21.7758 70.3902 20.5715 70.8908 19.6829 71.7794C18.7943 72.668 18.2937 73.8724 18.2905 75.129C18.2927 75.7499 18.529 76.3471 18.9523 76.8014C19.3755 77.2556 19.9546 77.5335 20.5738 77.5794L50.1089 79.7726C50.3733 79.7915 50.6353 79.801 50.8973 79.801C51.598 79.8017 52.2972 79.7342 52.9849 79.5995L68.932 76.407C69.2369 76.3433 69.5476 76.3122 69.8591 76.3145H77.5647C77.8791 76.3145 78.1807 76.1896 78.403 75.9673C78.6253 75.745 78.7502 75.4434 78.7502 75.129V63.2742C78.7502 62.9598 78.6253 62.6583 78.403 62.4359C78.1807 62.2136 77.8791 62.0887 77.5647 62.0887ZM47.572 8.08636C47.4731 8.28433 47.3207 8.45066 47.1321 8.56652C46.9436 8.68238 46.7263 8.74314 46.505 8.74194H36.1249C35.9409 8.74194 35.7594 8.69909 35.5948 8.61678C35.4302 8.53448 35.287 8.41497 35.1766 8.26774L33.754 6.37097H48.4326L47.572 8.08636ZM76.3792 73.9436H69.8591C69.3863 73.9411 68.9146 73.9888 68.4519 74.0858L52.5226 77.2736C51.7843 77.4183 51.03 77.4638 50.2796 77.4087L20.7445 75.2144C20.7334 75.2142 20.7225 75.2119 20.7124 75.2075C20.7022 75.2032 20.693 75.1968 20.6853 75.1889C20.6776 75.181 20.6715 75.1716 20.6674 75.1613C20.6634 75.1511 20.6613 75.1401 20.6615 75.129C20.6598 74.7802 20.7363 74.4354 20.8855 74.1201C21.0346 73.8048 21.2526 73.5269 21.5233 73.3069C21.9441 72.9486 22.4798 72.7538 23.0325 72.7581H44.5846C46.2066 72.7505 47.8064 72.3807 49.2672 71.6757C49.4954 71.5431 49.7331 71.4278 49.9785 71.3307L56.9622 68.7037C57.3484 68.5636 57.684 68.3114 57.9261 67.9794C58.1681 67.6474 58.3055 67.2507 58.3208 66.8401C58.3351 66.4113 58.2178 65.9883 57.9847 65.628C57.7516 65.2677 57.4138 64.9874 57.0167 64.8248L45.0588 60.4587C45.6126 59.8977 46.2788 59.4601 47.0136 59.1748C48.369 58.6522 49.8736 58.6717 51.215 59.2293L59.4043 61.6738C60.3693 61.9642 61.3866 62.0379 62.3834 61.8895L62.5932 61.8635C65.9064 61.4219 69.2775 61.8682 72.3616 63.1568C72.786 63.3358 73.2093 63.5362 73.6194 63.7496C74.4758 64.1869 75.4182 64.4294 76.3792 64.4597V73.9436Z"/>
</mask>
<path d="M77.5647 62.0887H76.6875C75.9994 62.1002 75.3186 61.9457 74.703 61.6382C74.2382 61.4011 73.7546 61.1747 73.2875 60.9744C70.718 59.8836 67.9559 59.3193 65.1646 59.3147C64.1992 59.3128 63.235 59.3794 62.2791 59.5138L62.0515 59.5423C61.3899 59.6419 60.7144 59.5929 60.0741 59.3988L58.597 58.959V9.92742C58.5951 8.35595 57.97 6.84938 56.8588 5.73818C55.7476 4.62698 54.241 4.00188 52.6696 4H28.9599C27.3884 4.00188 25.8818 4.62698 24.7706 5.73818C23.6594 6.84938 23.0343 8.35595 23.0325 9.92742V60.9032C23.0343 62.4747 23.6594 63.9813 24.7706 65.0925C25.8818 66.2037 27.3884 66.8288 28.9599 66.8306C29.2743 66.8306 29.5758 66.7057 29.7981 66.4834C30.0205 66.2611 30.1454 65.9596 30.1454 65.6452C30.1454 65.3308 30.0205 65.0292 29.7981 64.8069C29.5758 64.5846 29.2743 64.4597 28.9599 64.4597C28.0167 64.4597 27.1121 64.085 26.4451 63.418C25.7781 62.7511 25.4034 61.8465 25.4034 60.9032V9.92742C25.4034 8.98419 25.7781 8.07959 26.4451 7.41263C27.1121 6.74566 28.0167 6.37097 28.9599 6.37097H30.7903L33.2798 9.69032C33.6121 10.1309 34.0419 10.4885 34.5355 10.7353C35.0291 10.9821 35.5731 11.1113 36.1249 11.1129H46.5145C47.1756 11.1153 47.824 10.9324 48.3864 10.585C48.9488 10.2376 49.4026 9.73956 49.6964 9.14737L51.0846 6.37097H52.6696C53.6128 6.37097 54.5174 6.74566 55.1843 7.41263C55.8513 8.07959 56.226 8.98419 56.226 9.92742V58.2537L51.9974 56.9911C50.3673 56.3397 48.5677 56.2449 46.8782 56.7214C45.1887 57.198 43.704 58.2192 42.6546 59.6265C42.4323 59.9403 42.3115 60.3147 42.3084 60.6993C42.308 61.0265 42.395 61.3478 42.5605 61.63C42.726 61.9123 42.964 62.1451 43.2497 62.3045C43.3045 62.3341 43.3611 62.3603 43.4192 62.3827L55.4045 66.7548L49.1605 69.1056C48.8125 69.2382 48.4749 69.3967 48.1505 69.5798C47.0335 70.1016 45.8174 70.377 44.5846 70.3871H23.0325C21.7758 70.3902 20.5715 70.8908 19.6829 71.7794C18.7943 72.668 18.2937 73.8724 18.2905 75.129C18.2927 75.7499 18.529 76.3471 18.9523 76.8014C19.3755 77.2556 19.9546 77.5335 20.5738 77.5794L50.1089 79.7726C50.3733 79.7915 50.6353 79.801 50.8973 79.801C51.598 79.8017 52.2972 79.7342 52.9849 79.5995L68.932 76.407C69.2369 76.3433 69.5476 76.3122 69.8591 76.3145H77.5647C77.8791 76.3145 78.1807 76.1896 78.403 75.9673C78.6253 75.745 78.7502 75.4434 78.7502 75.129V63.2742C78.7502 62.9598 78.6253 62.6583 78.403 62.4359C78.1807 62.2136 77.8791 62.0887 77.5647 62.0887ZM47.572 8.08636C47.4731 8.28433 47.3207 8.45066 47.1321 8.56652C46.9436 8.68238 46.7263 8.74314 46.505 8.74194H36.1249C35.9409 8.74194 35.7594 8.69909 35.5948 8.61678C35.4302 8.53448 35.287 8.41497 35.1766 8.26774L33.754 6.37097H48.4326L47.572 8.08636ZM76.3792 73.9436H69.8591C69.3863 73.9411 68.9146 73.9888 68.4519 74.0858L52.5226 77.2736C51.7843 77.4183 51.03 77.4638 50.2796 77.4087L20.7445 75.2144C20.7334 75.2142 20.7225 75.2119 20.7124 75.2075C20.7022 75.2032 20.693 75.1968 20.6853 75.1889C20.6776 75.181 20.6715 75.1716 20.6674 75.1613C20.6634 75.1511 20.6613 75.1401 20.6615 75.129C20.6598 74.7802 20.7363 74.4354 20.8855 74.1201C21.0346 73.8048 21.2526 73.5269 21.5233 73.3069C21.9441 72.9486 22.4798 72.7538 23.0325 72.7581H44.5846C46.2066 72.7505 47.8064 72.3807 49.2672 71.6757C49.4954 71.5431 49.7331 71.4278 49.9785 71.3307L56.9622 68.7037C57.3484 68.5636 57.684 68.3114 57.9261 67.9794C58.1681 67.6474 58.3055 67.2507 58.3208 66.8401C58.3351 66.4113 58.2178 65.9883 57.9847 65.628C57.7516 65.2677 57.4138 64.9874 57.0167 64.8248L45.0588 60.4587C45.6126 59.8977 46.2788 59.4601 47.0136 59.1748C48.369 58.6522 49.8736 58.6717 51.215 59.2293L59.4043 61.6738C60.3693 61.9642 61.3866 62.0379 62.3834 61.8895L62.5932 61.8635C65.9064 61.4219 69.2775 61.8682 72.3616 63.1568C72.786 63.3358 73.2093 63.5362 73.6194 63.7496C74.4758 64.1869 75.4182 64.4294 76.3792 64.4597V73.9436Z" fill="#152296" stroke="#ECECFF" stroke-width="0.4" mask="url(#path-1-inside-1_4_2143)"/>
<path d="M31.5886 30.8681L31.645 30.7684L31.5386 30.7259C30.4601 30.2962 29.5348 29.5535 28.8818 28.5936C28.2289 27.6336 27.878 26.5003 27.8744 25.3394C27.8745 23.7939 28.4884 22.3117 29.5812 21.2189C30.6741 20.1261 32.1563 19.5121 33.7018 19.5121C35.2474 19.5121 36.7296 20.1261 37.8224 21.2189C38.9153 22.3118 39.5293 23.794 39.5293 25.3395V25.3397V25.3398V25.3399V25.3401V25.3402V25.3404V25.3405V25.3406V25.3408V25.3409V25.3411V25.3412V25.3413V25.3415V25.3416V25.3418V25.3419V25.342V25.3422V25.3423V25.3424V25.3426V25.3427V25.3429V25.343V25.3431V25.3433V25.3434V25.3436V25.3437V25.3438V25.344V25.3441V25.3443V25.3444V25.3445V25.3447V25.3448V25.3449V25.3451V25.3452V25.3454V25.3455V25.3456V25.3458V25.3459V25.3461V25.3462V25.3463V25.3465V25.3466V25.3468V25.3469V25.347V25.3472V25.3473V25.3474V25.3476V25.3477V25.3479V25.348V25.3481V25.3483V25.3484V25.3486V25.3487V25.3488V25.349V25.3491V25.3493V25.3494V25.3495V25.3497V25.3498V25.3499V25.3501V25.3502V25.3504V25.3505V25.3506V25.3508V25.3509V25.3511V25.3512V25.3513V25.3515V25.3516V25.3518V25.3519V25.352V25.3522V25.3523V25.3524V25.3526V25.3527V25.3529V25.353V25.3531V25.3533V25.3534V25.3536V25.3537V25.3538V25.354V25.3541V25.3543V25.3544V25.3545V25.3547V25.3548V25.3549V25.3551V25.3552V25.3554V25.3555V25.3556V25.3558V25.3559V25.3561V25.3562V25.3563V25.3565V25.3566V25.3568V25.3569V25.357V25.3572V25.3573V25.3575V25.3576V25.3577V25.3579V25.358V25.3581V25.3583V25.3584V25.3586V25.3587V25.3588V25.359V25.3591V25.3593V25.3594V25.3595V25.3597V25.3598V25.36V25.3601V25.3602V25.3604V25.3605V25.3606V25.3608V25.3609V25.3611V25.3612V25.3613V25.3615V25.3616V25.3618V25.3619V25.362V25.3622V25.3623V25.3625V25.3626V25.3627V25.3629V25.363V25.3631V25.3633V25.3634V25.3636V25.3637V25.3638V25.364V25.3641V25.3643V25.3644V25.3645V25.3647V25.3648V25.365V25.3651V25.3652V25.3654V25.3655V25.3656V25.3658V25.3659V25.3661V25.3662V25.3663V25.3665V25.3666V25.3668V25.3669V25.367V25.3672V25.3673V25.3675V25.3676V25.3677V25.3679V25.368V25.3681V25.3683V25.3684V25.3686V25.3687V25.3688V25.369V25.3691V25.3693V25.3694V25.3695V25.3697V25.3698V25.37V25.3701V25.3702V25.3704V25.3705V25.3706V25.3708V25.3709V25.3711V25.3712V25.3713V25.3715V25.3716V25.3718V25.3719V25.372V25.3722V25.3723V25.3725V25.3726V25.3727V25.3729V25.373V25.3731V25.3733V25.3734V25.3736V25.3737V25.3738V25.374V25.3741V25.3743V25.3744V25.3745V25.3747V25.3748V25.375V25.3751V25.3752V25.3754V25.3755V25.3756V25.3758V25.3759V25.3761V25.3762V25.3763V25.3765V25.3766V25.3768V25.3769V25.377V25.3772V25.3773V25.3775V25.3776V25.3777V25.3779V25.378V25.3781V25.3783V25.3784V25.3786V25.3787V25.3788V25.379V25.3791V25.3793V25.3794V25.3795V25.3797V25.3798V25.38V25.3801V25.3802V25.3804V25.3805V25.3807V25.3808V25.3809V25.3811V25.3812V25.3813V25.3815V25.3816V25.3818V25.3819V25.382V25.3822V25.3823V25.3825V25.3826V25.3827V25.3829V25.383V25.3832V25.3833V25.3834V25.3836V25.3837V25.3838V25.384V25.3841V25.3843V25.3844V25.3845V25.3847V25.3848V25.385V25.3851V25.3852V25.3854V25.3855V25.3857V25.3858V25.3859V25.3861V25.3862V25.3863V25.3865V25.3866V25.3868V25.3869V25.387V25.3872V25.3873V25.3875V25.3876V25.3877V25.3879V25.388V25.3882V25.3883V25.3884V25.3886V25.3887V25.3888V25.389V25.3891V25.3893V25.3894V25.3895V25.3897V25.3898V25.39V25.3901V25.3902V25.3904V25.3905V25.3907V25.3908V25.3909V25.3911V25.3912V25.3913V25.3915V25.3916V25.3918V25.3919V25.392V25.3922V25.3923V25.3925V25.3926V25.3927V25.3929V25.393V25.3932V25.3933V25.3934V25.3936V25.3937V25.3938V25.394V25.3941V25.3943V25.3944V25.3945V25.3947V25.3948V25.395V25.3951V25.3952V25.3954V25.3955V25.3957V25.3958V25.3959V25.3961V25.3962V25.3963V25.3965V25.3966V25.3968V25.3969V25.397V25.3972V25.3973V25.3975V25.3976V25.3977V25.3979V25.398V25.3982V25.3983V25.3984V25.3986V25.3987V25.3988V25.399V25.3991V25.3993V25.3994V25.3995V25.3997V25.3998V25.4V25.4001V25.4002V25.4004V25.4005V25.4007V25.4008V25.4009V25.4011V25.4012V25.4013V25.4015V25.4016V25.4018V25.4019V25.402V25.4022V25.4023V25.4025V25.4026V25.4027V25.4029V25.403V25.4032V25.4033V25.4034V25.4036V25.4037V25.4039V25.404V25.4041V25.4043V25.4044V25.4045V25.4047V25.4048V25.405V25.4051V25.4052V25.4054V25.4055V25.4057V25.4058V25.4059V25.4061V25.4062V25.4064V25.4065V25.4066V25.4068V25.4069V25.407V25.4072V25.4073V25.4075V25.4076V25.4077V25.4079V25.408V25.4082V25.4083V25.4084V25.4086V25.4087V25.4089V25.409V25.4091V25.4093V25.4094V25.4095V25.4097V25.4098V25.41V25.4101V25.4102V25.4104V25.4105V25.4107V25.5229L39.6407 25.51C41.6331 25.2799 43.6498 25.6228 45.4541 26.4985C47.2584 27.3742 48.7755 28.7464 49.8274 30.454C50.8793 32.1617 51.4223 34.1339 51.3927 36.1393C51.3631 38.1447 50.7621 40.1 49.6602 41.7759L49.6107 41.8512L49.6805 41.9082C50.2508 42.3742 50.7019 42.9693 50.9964 43.6443C51.2908 44.3193 51.4202 45.0547 51.3738 45.7897C51.3273 46.5246 51.1065 47.238 50.7294 47.8705C50.3524 48.5031 49.83 49.0367 49.2056 49.4272C48.5812 49.8177 47.8728 50.0537 47.139 50.1158C46.4052 50.1779 45.6671 50.0643 44.986 49.7843C44.3049 49.5043 43.7003 49.066 43.2223 48.5058C42.7443 47.9456 42.4067 47.2795 42.2374 46.5628L42.2166 46.4748L42.127 46.4866C40.1867 46.7428 38.2134 46.453 36.4287 45.6496C34.6441 44.8463 33.1187 43.5612 32.0241 41.9389C30.9294 40.3165 30.3087 38.421 30.2318 36.4654C30.1549 34.5098 30.6247 32.5714 31.5886 30.8681ZM44.4047 45.9369L44.3212 45.9672L44.3414 46.0537C44.4678 46.5959 44.7736 47.0796 45.2093 47.4263C45.6451 47.773 46.1851 47.9624 46.7419 47.9637L46.7427 47.9637C47.2509 47.9607 47.7458 47.8012 48.1599 47.5067C48.5741 47.2123 48.8874 46.7973 49.0572 46.3184C49.2269 45.8394 49.2449 45.3198 49.1087 44.8302C48.9724 44.3407 48.6886 43.9051 48.2957 43.5827L48.2268 43.5261L48.1627 43.5882C47.0899 44.6276 45.8092 45.4281 44.4047 45.9369ZM49.2131 36.0089V36.0088C49.2106 33.7822 48.325 31.6475 46.7505 30.0731C45.1761 28.4987 43.0414 27.613 40.8149 27.6105H40.8147C39.1537 27.6105 37.5299 28.1031 36.1488 29.0259C34.7677 29.9487 33.6913 31.2604 33.0556 32.795C32.42 34.3296 32.2537 36.0182 32.5777 37.6473C32.9018 39.2765 33.7016 40.7729 34.8762 41.9474C36.0507 43.122 37.5472 43.9218 39.1763 44.2459C40.8054 44.57 42.4941 44.4036 44.0287 43.768C45.5633 43.1323 46.8749 42.0559 47.7977 40.6748C48.7206 39.2937 49.2131 37.6699 49.2131 36.0089ZM37.3583 25.3401L37.3583 25.3399C37.3606 24.6486 37.1669 23.9709 36.7997 23.3852C36.4325 22.7996 35.9067 22.33 35.2835 22.031C34.6603 21.732 33.965 21.6157 33.2784 21.6958C32.5918 21.7759 31.9419 22.0489 31.4042 22.4833C30.8665 22.9177 30.4629 23.4956 30.2402 24.15C30.0176 24.8044 29.985 25.5085 30.1463 26.1807C30.3076 26.8529 30.6561 27.4656 31.1514 27.9478C31.6468 28.4299 32.2687 28.7618 32.9449 28.9049L33.0008 28.9167L33.0393 28.8747C34.1912 27.6189 35.629 26.6597 37.2308 26.0784L37.2845 26.0589L37.2949 26.0028C37.3357 25.7842 37.3569 25.5625 37.3583 25.3401Z" fill="#152296" stroke="#ECECFF" stroke-width="0.2"/>
<path d="M49.3209 24.457C48.5575 24.9671 47.66 25.2393 46.7419 25.2393C45.5108 25.2393 44.3301 24.7503 43.4596 23.8798C42.5891 23.0092 42.1 21.8285 42.1 20.5974C42.1 19.6793 42.3722 18.7818 42.8823 18.0185C43.3924 17.2551 44.1173 16.6602 44.9655 16.3088C45.8137 15.9575 46.7471 15.8656 47.6475 16.0447C48.548 16.2238 49.3751 16.6659 50.0243 17.3151C50.6735 17.9642 51.1156 18.7914 51.2947 19.6918C51.4738 20.5923 51.3819 21.5256 51.0305 22.3738C50.6792 23.222 50.0842 23.947 49.3209 24.457ZM48.1147 18.5429C47.7084 18.2714 47.2306 18.1264 46.7419 18.1264C46.0866 18.1264 45.4581 18.3868 44.9947 18.8502C44.5313 19.3136 44.271 19.9421 44.271 20.5974C44.271 21.0861 44.4159 21.5639 44.6874 21.9702C44.9589 22.3766 45.3448 22.6933 45.7963 22.8803C46.2478 23.0673 46.7447 23.1162 47.224 23.0209C47.7033 22.9256 48.1436 22.6902 48.4892 22.3446C48.8347 21.9991 49.0701 21.5588 49.1654 21.0795C49.2608 20.6001 49.2118 20.1033 49.0248 19.6518C48.8378 19.2003 48.5211 18.8144 48.1147 18.5429Z" fill="#152296" stroke="#ECECFF" stroke-width="0.2"/>
<path d="M33.4983 56.1062C32.9231 55.2454 32.6161 54.2333 32.6161 53.198C32.6177 51.8102 33.1697 50.4796 34.151 49.4982C35.1324 48.5168 36.463 47.9648 37.8508 47.9633C38.8861 47.9633 39.8982 48.2703 40.759 48.8455C41.6199 49.4207 42.2908 50.2382 42.687 51.1947C43.0832 52.1512 43.1869 53.2038 42.9849 54.2192C42.7829 55.2346 42.2843 56.1674 41.5523 56.8994C40.8202 57.6315 39.8875 58.1301 38.872 58.3321C37.8566 58.534 36.8041 58.4304 35.8476 58.0342C34.8911 57.638 34.0735 56.967 33.4983 56.1062ZM40.3982 54.9001C40.7348 54.3962 40.9145 53.8039 40.9145 53.198C40.9145 52.3854 40.5917 51.6061 40.0172 51.0316C39.4426 50.457 38.6633 50.1342 37.8508 50.1342C37.2448 50.1342 36.6525 50.3139 36.1487 50.6506C35.6449 50.9872 35.2522 51.4657 35.0203 52.0255C34.7884 52.5853 34.7277 53.2014 34.8459 53.7957C34.9642 54.39 35.256 54.9359 35.6844 55.3643C36.1129 55.7928 36.6588 56.0846 37.2531 56.2028C37.8474 56.321 38.4634 56.2603 39.0232 56.0285C39.583 55.7966 40.0615 55.4039 40.3982 54.9001Z" fill="#152296" stroke="#ECECFF" stroke-width="0.2"/>
<path d="M44.2026 66.7306H44.1249L44.1057 66.8059C43.8524 67.8011 43.2748 68.6834 42.4641 69.3136C41.6534 69.9438 40.6559 70.286 39.629 70.286C38.6022 70.286 37.6046 69.9438 36.7939 69.3136C35.9832 68.6834 35.4056 67.8011 35.1523 66.8059L35.1332 66.7306H35.0554H33.7016C33.4137 66.7306 33.1376 66.6162 32.934 66.4127C32.7305 66.2091 32.6161 65.933 32.6161 65.6451C32.6161 65.3572 32.7305 65.0811 32.934 64.8776C33.1376 64.674 33.4137 64.5596 33.7016 64.5596H35.0554H35.1332L35.1523 64.4843C35.4056 63.4892 35.9832 62.6068 36.7939 61.9766C37.6046 61.3464 38.6022 61.0043 39.629 61.0043C40.6559 61.0043 41.6534 61.3464 42.4641 61.9766C43.2748 62.6068 43.8524 63.4892 44.1057 64.4843L44.1249 64.5596H44.2026H46.7419C47.0298 64.5596 47.3059 64.674 47.5095 64.8776C47.713 65.0811 47.8274 65.3572 47.8274 65.6451C47.8274 65.933 47.713 66.2091 47.5095 66.4127C47.3059 66.6162 47.0298 66.7306 46.7419 66.7306H44.2026ZM38.2562 67.6997C38.6626 67.9712 39.1403 68.1161 39.629 68.1161C40.2844 68.1161 40.9129 67.8558 41.3763 67.3924C41.8397 66.929 42.1 66.3005 42.1 65.6451C42.1 65.1564 41.9551 64.6787 41.6836 64.2723C41.412 63.866 41.0261 63.5493 40.5746 63.3622C40.1231 63.1752 39.6263 63.1263 39.147 63.2216C38.6676 63.317 38.2274 63.5523 37.8818 63.8979C37.5362 64.2435 37.3009 64.6837 37.2055 65.1631C37.1102 65.6424 37.1591 66.1392 37.3461 66.5907C37.5332 67.0422 37.8499 67.4281 38.2562 67.6997Z" fill="#152296" stroke="#ECECFF" stroke-width="0.2"/>
<path d="M12.3631 38.4787H12.4631V38.3787V36.0077C12.4631 35.7199 12.5775 35.4438 12.781 35.2402C12.9846 35.0366 13.2607 34.9223 13.5486 34.9223C13.8365 34.9223 14.1126 35.0366 14.3161 35.2402C14.5197 35.4438 14.6341 35.7199 14.6341 36.0077V38.3787V38.4787H14.7341H17.105C17.3929 38.4787 17.669 38.5931 17.8726 38.7966C18.0761 39.0002 18.1905 39.2763 18.1905 39.5642C18.1905 39.8521 18.0761 40.1282 17.8726 40.3318C17.669 40.5353 17.3929 40.6497 17.105 40.6497H14.7341H14.6341V40.7497V43.1207C14.6341 43.4085 14.5197 43.6846 14.3161 43.8882C14.1126 44.0918 13.8365 44.2061 13.5486 44.2061C13.2607 44.2061 12.9846 44.0918 12.781 43.8882C12.5775 43.6846 12.4631 43.4085 12.4631 43.1207V40.7497V40.6497H12.3631H9.99212C9.70424 40.6497 9.42814 40.5353 9.22457 40.3318C9.021 40.1282 8.90664 39.8521 8.90664 39.5642C8.90664 39.2763 9.021 39.0002 9.22457 38.7966C9.42814 38.5931 9.70424 38.4787 9.99212 38.4787H12.3631Z" fill="#152296" stroke="#ECECFF" stroke-width="0.2"/>
<path d="M18.2903 54.8822H18.1903V54.9822V56.1618C18.1903 56.4497 18.0759 56.7258 17.8723 56.9293C17.6688 57.1329 17.3927 57.2473 17.1048 57.2473C16.8169 57.2473 16.5408 57.1329 16.3372 56.9293C16.1337 56.7258 16.0193 56.4497 16.0193 56.1618V54.9763V54.8763H15.9193H14.7338C14.4459 54.8763 14.1698 54.7619 13.9663 54.5584C13.7627 54.3548 13.6483 54.0787 13.6483 53.7908C13.6483 53.5029 13.7627 53.2268 13.9663 53.0233C14.1698 52.8197 14.4459 52.7053 14.7338 52.7053H15.9193H16.0193V52.6053V51.4199C16.0193 51.132 16.1337 50.8559 16.3372 50.6523C16.5408 50.4487 16.8169 50.3344 17.1048 50.3344C17.3927 50.3344 17.6688 50.4487 17.8723 50.6523C18.0759 50.8559 18.1903 51.132 18.1903 51.4199V52.6113V52.7113H18.2903H19.4758C19.7636 52.7113 20.0397 52.8256 20.2433 53.0292C20.4469 53.2328 20.5612 53.5089 20.5612 53.7968C20.5612 54.0846 20.4469 54.3607 20.2433 54.5643C20.0397 54.7679 19.7636 54.8822 19.4758 54.8822H18.2903Z" fill="#152296" stroke="#ECECFF" stroke-width="0.2"/>
<path d="M41.8434 37.712H40.0284V38.582H43.5984V40.367H40.0284V41.627H37.7784V40.367H36.2784V38.582H37.7784V37.712H36.2784V35.927H37.7784V31.127H41.8434C44.1234 31.127 45.6384 32.357 45.6384 34.427C45.6384 36.482 44.1234 37.712 41.8434 37.712ZM41.6334 32.912H40.0284V35.927H41.6334C42.6834 35.927 43.3434 35.357 43.3434 34.427C43.3434 33.482 42.6834 32.912 41.6334 32.912Z" fill="#152296"/>
</svg>
