<svg width="85" height="85" viewBox="0 0 85 85" fill="none" xmlns="http://www.w3.org/2000/svg">
<g clip-path="url(#clip0_4_2119)">
<path d="M10.8684 65.2071C10.1671 61.8896 9.44383 58.6778 8.81919 55.4498C8.07676 51.6227 7.68225 47.7686 8.3151 43.8765C8.75344 41.1878 9.6219 38.6211 10.6821 36.1248C12.493 31.8668 14.3614 27.6305 16.2381 23.3996C17.0901 21.478 19.1832 20.654 21.0762 21.4265C22.9255 22.18 23.8131 24.2019 23.1118 26.148C22.7392 27.186 22.3009 28.2024 21.8625 29.2974C22.0872 29.3354 22.2762 29.376 22.468 29.4004C24.3665 29.6416 25.498 31.2651 24.9309 33.0757C24.3117 35.057 23.5857 37.003 22.9447 38.9761C22.8296 39.3312 22.8214 39.7676 22.9063 40.1362C23.4542 42.4861 24.0049 44.836 24.6323 47.1642C24.8706 48.0478 25.2432 48.9178 25.6815 49.7255C28.2869 54.531 29.1115 59.5723 27.8513 64.9117C27.8349 64.9767 27.8294 65.0445 27.802 65.2098C28.2184 65.2098 28.6157 65.2017 29.0129 65.2098C29.7745 65.2261 30.1197 65.5351 30.1225 66.2696C30.1307 69.4976 30.1307 72.7257 30.1225 75.9565C30.1225 76.6666 29.7855 76.9972 29.0705 76.9999C22.4515 77.0081 15.8354 77.0054 9.21644 76.9999C8.46852 76.9999 8.13703 76.672 8.13429 75.9131C8.12333 72.7067 8.12333 69.5004 8.13429 66.294C8.13703 65.5134 8.474 65.2207 9.29041 65.2098C9.81367 65.2017 10.3369 65.2098 10.8684 65.2098V65.2071ZM25.8103 65.1854C25.8541 65.0716 25.9062 64.9713 25.9336 64.8656C27.1226 60.3827 26.7226 55.9864 24.6514 51.8829C23.194 48.9964 22.2789 45.996 21.5858 42.8872C21.3502 41.8329 21.1146 40.7731 20.753 39.7594C20.3831 38.7214 19.3612 38.0926 18.438 38.163C17.1202 38.2633 16.4764 39.296 16.7285 40.849C17.3449 44.6571 17.9476 48.4679 18.5558 52.2759C18.6599 52.9264 18.3503 53.4116 17.7887 53.5065C17.2435 53.5986 16.7997 53.2273 16.6929 52.5524C16.06 48.5654 15.4052 44.5785 14.819 40.5834C14.5943 39.0575 15.1696 37.7971 16.4792 36.8946C16.6737 36.7618 16.8846 36.5775 16.9696 36.3715C18.4353 32.7775 19.8955 29.1809 21.3256 25.5734C21.7365 24.5353 21.2927 23.5216 20.3557 23.1394C19.4078 22.7519 18.3722 23.1584 17.9312 24.1775C15.8299 29.0237 13.6902 33.8563 11.6903 38.7431C10.2904 42.1635 9.66026 45.7521 9.9123 49.4707C10.1698 53.314 10.989 57.057 11.83 60.8001C12.1588 62.2664 12.5122 63.7273 12.8519 65.1827H25.8103V65.1854ZM28.2349 75.0918V67.1152H10.0219V75.0918H28.2349ZM21.4954 37.3716C22.0077 35.8945 22.5556 34.3468 23.0789 32.7938C23.3392 32.0213 23.1638 31.5606 22.5803 31.3221C21.931 31.0564 21.1447 31.2597 20.868 31.8777C20.2215 33.325 19.6407 34.8022 19.0626 36.1953C19.8927 36.5964 20.6406 36.9596 21.4954 37.3716Z" fill="#152296"/>
<path d="M75.1588 65.2065C75.6464 65.2065 76.1916 65.1957 76.7368 65.2065C77.4628 65.2228 77.8162 65.5236 77.8189 66.2229C77.8326 69.4753 77.8326 72.7251 77.8189 75.9775C77.8162 76.6795 77.4655 76.9939 76.7395 76.9939C70.1206 76.9993 63.5044 76.9993 56.8855 76.9939C56.1705 76.9939 55.839 76.6605 55.8362 75.9504C55.828 72.7224 55.828 69.4943 55.8362 66.2636C55.8362 65.529 56.1814 65.2228 56.9458 65.2065C57.3321 65.1984 57.7184 65.2065 58.1019 65.2065C57.9321 64.0302 57.7321 62.9027 57.6088 61.767C57.2088 58.0538 57.8882 54.468 59.5703 51.1885C61.1018 48.2016 61.8935 45.0495 62.7182 41.8621C63.1565 40.1627 63.0853 38.6286 62.3839 37.0376C61.8935 35.9264 61.5703 34.7419 61.1785 33.5873C60.3758 31.2185 61.3264 29.7061 63.8304 29.3591C63.8935 29.351 63.9537 29.3212 64.0935 29.2778C63.6798 28.2452 63.2469 27.2369 62.8661 26.2097C62.0387 23.9791 63.2469 21.7376 65.5318 21.2199C67.2687 20.8242 69.0001 21.743 69.7864 23.5129C71.3343 27.0011 72.9178 30.4758 74.3807 33.9993C75.3752 36.3926 76.2957 38.8265 77.0573 41.301C78.2217 45.0847 78.208 48.9768 77.5505 52.8391C76.8519 56.948 75.9752 61.0271 75.1588 65.2038V65.2065ZM73.0712 65.1821C73.1123 65.0602 73.1588 64.9572 73.1835 64.8487C74.0218 60.878 74.9451 56.9209 75.6656 52.9285C76.3669 49.0473 76.3176 45.1471 75.1369 41.3336C73.2821 35.3436 70.4192 29.7603 67.9454 24.0197C67.6961 23.4424 67.2084 23.1117 66.5701 23.0304C65.0414 22.8326 64.0743 24.1986 64.6879 25.7354C66.0824 29.2372 67.4933 32.7308 68.9207 36.2191C69.0302 36.4874 69.2713 36.7368 69.5124 36.9102C70.7809 37.8155 71.3589 39.0596 71.1398 40.553C70.5535 44.5697 69.896 48.5784 69.2549 52.587C69.1535 53.2212 68.7179 53.5763 68.1947 53.5058C67.6276 53.4299 67.2933 52.9421 67.3947 52.2997C67.8139 49.649 68.244 46.9982 68.6631 44.3475C68.8768 42.9896 69.1234 41.6317 69.2686 40.2657C69.3809 39.2168 68.8522 38.5039 67.9454 38.241C66.8824 37.932 65.6496 38.5283 65.2112 39.7263C64.8249 40.7779 64.6112 41.8919 64.3482 42.9869C63.7017 45.6593 63.1675 48.3643 61.8196 50.8172C60.0224 54.0831 59.1813 57.5822 59.4388 61.2982C59.5292 62.6073 59.8306 63.9001 60.0306 65.1767H73.0657L73.0712 65.1821ZM57.7266 75.0967H75.9231V67.1065H57.7266V75.0967ZM64.4633 37.3764C65.3071 36.9672 66.0742 36.5931 66.8824 36.1974C66.5728 35.4331 66.2413 34.601 65.9016 33.7716C65.6468 33.1455 65.4112 32.5086 65.1099 31.9069C64.7893 31.2672 64.0085 31.0396 63.3455 31.3296C62.7949 31.5708 62.6223 32.0261 62.8661 32.7552C63.3894 34.311 63.9373 35.8586 64.4606 37.3764H64.4633Z" fill="#152296"/>
<path d="M43.0016 37.1328C49.6671 37.1437 55.0504 42.4777 55.0477 49.0747C55.0477 55.6934 49.6205 61.0356 42.9249 61.0139C36.2703 60.9922 30.8979 55.6338 30.9116 49.0341C30.9253 42.4451 36.3306 37.1247 43.0016 37.1328ZM43.0783 38.9759C37.4867 38.8919 32.8814 43.3558 32.7801 48.9555C32.6787 54.4846 37.2046 59.0706 42.8454 59.1573C48.489 59.244 53.1108 54.7692 53.182 49.1506C53.2505 43.6106 48.7329 39.0599 43.0783 38.9759Z" fill="#152296"/>
<path d="M41.8427 16.3046C41.4208 16.7491 41.0153 17.2072 40.5742 17.63C40.1112 18.0745 39.5551 18.0854 39.177 17.7005C38.7853 17.3048 38.8017 16.7979 39.2674 16.3236C40.2537 15.3208 41.2509 14.3261 42.2536 13.3395C42.7084 12.8923 43.2508 12.8842 43.7056 13.3314C44.7111 14.3152 45.7055 15.3099 46.6918 16.3128C47.163 16.7925 47.1849 17.2912 46.7959 17.6924C46.4041 18.0962 45.8398 18.0691 45.3466 17.5921C44.9138 17.1747 44.5056 16.7302 44.0892 16.2965C44.0371 16.3236 43.9823 16.3507 43.9303 16.3778C43.9303 16.6163 43.9303 16.8521 43.9303 17.0907C43.9303 20.3404 43.9303 23.5901 43.9303 26.8426C43.9303 27.0675 43.9494 27.3006 43.9056 27.5175C43.807 28.0216 43.481 28.3306 42.9577 28.317C42.4673 28.3062 42.1605 28.0026 42.0673 27.5283C42.0235 27.3088 42.0427 27.0784 42.0427 26.8534C42.0427 23.6037 42.0427 20.3539 42.0427 17.1015C42.0427 16.863 42.0427 16.6218 42.0427 16.3832C41.9797 16.3561 41.9139 16.3318 41.8509 16.3046H41.8427Z" fill="#152296"/>
<path d="M33.2509 24.4967C33.2509 25.2339 33.2509 25.9711 33.2509 26.7056C33.2509 28.6462 33.2536 30.5869 33.2509 32.5275C33.2509 33.2701 32.9085 33.7146 32.3441 33.7363C31.7523 33.7607 31.3688 33.3027 31.366 32.5248C31.3606 30.0882 31.366 27.6488 31.366 25.2122C31.366 24.9764 31.366 24.7379 31.366 24.2798C30.7907 24.8626 30.3798 25.3016 29.9442 25.7163C29.4593 26.1798 28.8757 26.2042 28.4949 25.8003C28.1141 25.3992 28.147 24.9005 28.6182 24.4208C29.6072 23.4206 30.6017 22.4259 31.6044 21.4394C32.0482 21.0057 32.6044 21.0165 33.0591 21.4637C34.0454 22.4341 35.0262 23.4125 35.996 24.3964C36.4919 24.9005 36.522 25.429 36.1138 25.8274C35.7248 26.2069 35.144 26.1635 34.6591 25.6892C34.2372 25.2772 33.8427 24.8409 33.4345 24.4153C33.3742 24.4397 33.3167 24.4668 33.2564 24.4912L33.2509 24.4967Z" fill="#152296"/>
<path d="M54.598 24.5187C54.598 26.8387 54.598 29.1588 54.598 31.4816C54.598 31.8665 54.609 32.2486 54.5953 32.6335C54.5706 33.3192 54.2008 33.7393 53.6473 33.7393C53.0967 33.7393 52.7159 33.3057 52.7131 32.6281C52.7049 30.1237 52.7104 27.6166 52.7104 25.1122C52.7104 24.9117 52.7104 24.7138 52.7104 24.3371C52.1789 24.852 51.7598 25.2694 51.3296 25.6787C50.8064 26.1747 50.2173 26.2208 49.8256 25.8061C49.4338 25.3887 49.4859 24.8954 49.9954 24.3777C50.9543 23.4101 51.9159 22.4479 52.883 21.4912C53.3597 21.0169 53.9131 21.006 54.387 21.4722C55.3733 22.4425 56.3541 23.421 57.3267 24.4048C57.8225 24.9062 57.8527 25.4375 57.4417 25.8359C57.05 26.2181 56.4801 26.172 55.9925 25.6977C55.5733 25.2884 55.1788 24.8574 54.7733 24.4373C54.7158 24.4672 54.6583 24.497 54.598 24.5268V24.5187Z" fill="#152296"/>
</g>
<defs>
<clipPath id="clip0_4_2119">
<rect width="70" height="64" fill="white" transform="translate(8 13)"/>
</clipPath>
</defs>
</svg>
