<svg width="76" height="76" viewBox="0 0 76 76" fill="none" xmlns="http://www.w3.org/2000/svg">
<path d="M67.3955 56.4188V21.0599C67.3955 19.6167 66.2229 18.3539 64.6895 18.3539H58.9166V12.581C58.9166 11.1378 57.744 9.875 56.2106 9.875H27.8874C26.4442 9.875 25.1814 11.0476 25.1814 12.581V18.4441H12.914C11.4708 18.4441 10.208 19.6167 10.208 21.1501C10.208 33.7783 10.208 43.4298 10.208 56.509C10.208 57.9522 11.3806 59.215 12.914 59.215H32.6681C32.2171 61.019 30.5935 62.3721 28.6992 62.3721C28.158 62.3721 27.7972 62.7329 27.7972 63.2741V66.7017C27.7972 67.2429 28.158 67.6037 28.6992 67.6037H48.9945C49.5357 67.6037 49.8965 67.2429 49.8965 66.7017V63.1839C49.8965 62.6427 49.5357 62.2818 48.9945 62.2818C47.0101 62.2818 45.3864 60.9288 45.0256 59.1248H64.7797C66.2229 59.1248 67.3955 57.862 67.3955 56.4188ZM48.0023 63.9957V65.7997H29.6012V63.9957C32.1269 63.6349 34.1113 61.5602 34.5623 59.0346H43.1314C43.4922 61.6504 45.4766 63.6349 48.0023 63.9957ZM27.8874 11.679H56.3008C56.7518 11.679 57.2028 12.0398 57.2028 12.581V40.5434C57.2028 41.8062 56.1204 42.8886 54.8576 42.8886H26.2638C26.7148 42.2572 26.9854 41.4454 26.9854 40.5434C26.9854 13.8438 26.9854 62.6427 26.9854 12.4908C26.9854 12.0398 27.3462 11.679 27.8874 11.679ZM25.1814 40.5434C25.1814 41.8062 24.099 42.8886 22.8362 42.8886C21.5733 42.8886 20.4909 41.8062 20.4909 40.5434V37.2961H25.1814C25.1814 37.8373 25.1814 40.7238 25.1814 40.5434ZM12.914 20.2481H25.1814V35.5823H19.5889C19.0477 35.5823 18.6869 35.9431 18.6869 36.4843V40.5434C18.6869 42.7984 20.5811 44.6926 22.8362 44.6926C22.9264 44.6926 22.9264 44.6926 22.9264 44.6926H23.0166H54.7674C57.0224 44.6926 58.9166 42.7984 58.9166 40.5434V20.2481H64.6895C65.1405 20.2481 65.5915 20.6089 65.5915 21.1501V49.0223H12.012V21.0599C12.012 20.6089 12.3728 20.2481 12.914 20.2481ZM12.012 56.4188V50.7361H65.5915V56.4188C65.5915 56.8698 65.2307 57.3208 64.6895 57.3208H12.914C12.3728 57.3208 12.012 56.96 12.012 56.4188Z" fill="#152296"/>
<path d="M40.6072 53.1719H36.9992C36.458 53.1719 36.0972 53.5327 36.0972 54.0739C36.0972 54.6151 36.458 54.9759 36.9992 54.9759H40.6072C41.1484 54.9759 41.5092 54.6151 41.5092 54.0739C41.5092 53.5327 41.0582 53.1719 40.6072 53.1719Z" fill="#152296"/>
<path d="M25.3623 53.1719H23.5583C23.0171 53.1719 22.6562 53.5327 22.6562 54.0739C22.6562 54.6151 23.0171 54.9759 23.5583 54.9759H25.3623C25.9035 54.9759 26.2643 54.6151 26.2643 54.0739C26.2643 53.5327 25.9035 53.1719 25.3623 53.1719Z" fill="#152296"/>
<path d="M18.2363 53.1719H16.4323C15.8911 53.1719 15.5303 53.5327 15.5303 54.0739C15.5303 54.6151 15.8911 54.9759 16.4323 54.9759H18.2363C18.7775 54.9759 19.1383 54.6151 19.1383 54.0739C19.1383 53.5327 18.7775 53.1719 18.2363 53.1719Z" fill="#152296"/>
<path d="M30.8649 17.4525H53.2348C53.776 17.4525 54.1368 17.0917 54.1368 16.5504C54.1368 16.0092 53.776 15.6484 53.2348 15.6484H30.8649C30.3237 15.6484 29.9629 16.0092 29.9629 16.5504C29.9629 17.0917 30.4139 17.4525 30.8649 17.4525Z" fill="#152296"/>
<path d="M53.2351 22.8633H40.8776C40.3364 22.8633 39.9756 23.2241 39.9756 23.7653C39.9756 24.3065 40.3364 24.6673 40.8776 24.6673H53.2351C53.7764 24.6673 54.1372 24.3065 54.1372 23.7653C54.1372 23.2241 53.6862 22.8633 53.2351 22.8633Z" fill="#152296"/>
<path d="M30.8649 24.6673H35.826C36.3672 24.6673 36.728 24.3065 36.728 23.7653C36.728 23.2241 36.3672 22.8633 35.826 22.8633H30.8649C30.3237 22.8633 29.9629 23.2241 29.9629 23.7653C29.9629 24.3065 30.4139 24.6673 30.8649 24.6673Z" fill="#152296"/>
<path d="M53.2356 29.9902H49.6276C49.0864 29.9902 48.7256 30.351 48.7256 30.8922C48.7256 31.4335 49.0864 31.7943 49.6276 31.7943H53.2356C53.7768 31.7943 54.1377 31.4335 54.1377 30.8922C54.1377 30.351 53.6866 29.9902 53.2356 29.9902Z" fill="#152296"/>
<path d="M30.8649 31.7943H44.2147C44.7559 31.7943 45.1167 31.4335 45.1167 30.8922C45.1167 30.351 44.7559 29.9902 44.2147 29.9902H30.8649C30.3237 29.9902 29.9629 30.351 29.9629 30.8922C29.9629 31.3433 30.4139 31.7943 30.8649 31.7943Z" fill="#152296"/>
<path d="M53.2339 37.1152H42.6803C42.1391 37.1152 41.7783 37.476 41.7783 38.0172C41.7783 38.5585 42.1391 38.9193 42.6803 38.9193H53.2339C53.7751 38.9193 54.1359 38.5585 54.1359 38.0172C54.1359 37.5662 53.6849 37.1152 53.2339 37.1152Z" fill="#152296"/>
<path d="M30.8649 38.9193H37.7202C38.2614 38.9193 38.6222 38.5585 38.6222 38.0172C38.6222 37.476 38.2614 37.1152 37.7202 37.1152H30.8649C30.3237 37.1152 29.9629 37.476 29.9629 38.0172C29.9629 38.5585 30.4139 38.9193 30.8649 38.9193Z" fill="#152296"/>
</svg>
