<svg width="84" height="85" viewBox="0 0 84 85" fill="none" xmlns="http://www.w3.org/2000/svg">
<g clip-path="url(#clip0_4_2123)">
<path d="M35.5082 36.6448C33.445 36.6448 31.476 36.635 29.507 36.6513C28.7954 36.6578 28.1358 36.5992 27.8141 35.8344C27.4892 35.0598 27.9344 34.5585 28.4347 34.0606C32.5157 29.9792 36.5934 25.8946 40.6712 21.81C41.7402 20.7392 42.2633 20.7327 43.316 21.7904C47.4327 25.9109 51.5462 30.0378 55.6662 34.155C56.2153 34.7017 56.5954 35.3331 56.0626 36.0069C55.7929 36.3486 55.2113 36.6025 54.7629 36.6187C52.7127 36.6838 50.6559 36.648 48.505 36.648C48.505 37.3087 48.4855 37.9239 48.505 38.5357C48.7617 46.1061 49.8111 53.5398 52.5112 60.6643C54.5809 66.1257 57.5215 70.9849 62.2198 74.6204C62.8826 75.1346 62.9768 75.8897 62.5285 76.4853C62.0606 77.1069 61.3035 77.1883 60.5919 76.648C57.5734 74.3567 55.1755 71.5122 53.239 68.2705C49.9703 62.7994 48.1508 56.8173 47.0461 50.5878C46.1785 45.6895 45.7886 40.7522 45.8926 35.7758C45.9219 34.4479 46.3215 34.0475 47.6602 34.0443C48.9826 34.0443 50.3018 34.0443 51.4975 34.0443C48.3198 30.858 45.1031 27.6391 41.9481 24.4755C38.8711 27.561 35.6609 30.7766 32.454 33.9922C32.5287 34.002 32.7172 34.0378 32.9056 34.041C34.1793 34.0475 35.4497 34.028 36.7234 34.0508C37.5584 34.0671 38.0848 34.5358 38.0946 35.3429C38.218 46.373 36.7364 57.0744 31.4987 66.9784C29.5525 70.6562 26.9888 73.8588 23.6909 76.4365C23.5642 76.5374 23.4407 76.6448 23.3043 76.7327C22.6414 77.1655 21.9364 77.0744 21.4912 76.5048C21.0493 75.9385 21.0981 75.1769 21.7122 74.6952C28.9026 69.0256 31.9601 61.0744 33.8674 52.5146C34.9559 47.6326 35.4432 42.6724 35.5115 37.6733C35.5147 37.3771 35.5115 37.0809 35.5115 36.6578L35.5082 36.6448Z" fill="#152296"/>
<path d="M69.9592 34.0389C66.6353 30.7094 63.4413 27.5068 60.1889 24.2489C60.0394 24.379 59.8575 24.519 59.6918 24.685C58.4831 25.8892 57.2874 27.1065 56.0689 28.3042C55.4126 28.9486 54.6848 28.9877 54.1259 28.4539C53.5378 27.8974 53.5671 27.1358 54.2396 26.4523C55.8577 24.8119 57.4856 23.1813 59.1199 21.5638C59.8802 20.8119 60.5268 20.8152 61.3001 21.5865C65.5176 25.7981 69.7253 30.0227 73.9362 34.2407C74.3911 34.6964 74.6575 35.1976 74.3781 35.842C74.1019 36.4799 73.5756 36.6557 72.9257 36.6524C70.8755 36.6394 68.8252 36.6492 66.8562 36.6492C66.8562 38.423 66.762 40.1252 66.8725 41.8144C67.2981 48.3335 68.4093 54.7224 70.7683 60.8445C72.838 66.2114 75.746 71.0023 80.3729 74.5857C81.0747 75.1293 81.1819 75.9006 80.701 76.506C80.2201 77.1146 79.4793 77.1764 78.758 76.6264C75.2034 73.9153 72.5391 70.4686 70.4563 66.5434C67.6458 61.248 66.0504 55.5556 65.0822 49.6712C64.3251 45.0593 63.9839 40.4149 64.0847 35.7411C64.1139 34.462 64.5266 34.0454 65.8002 34.0389C67.1422 34.0357 68.4873 34.0389 69.9527 34.0389H69.9592Z" fill="#152296"/>
<path d="M23.8661 24.1985C20.5617 27.5085 17.3677 30.7111 14.1153 33.9723C14.333 33.9951 14.5247 34.0342 14.7164 34.0342C15.9608 34.0407 17.2085 34.0244 18.453 34.0407C19.3465 34.0504 19.8891 34.5061 19.8988 35.3426C20.0223 46.3434 18.5407 57.022 13.3387 66.9032C11.3892 70.6102 8.81262 73.8389 5.4887 76.4296C5.36198 76.5305 5.23851 76.6379 5.10205 76.7258C4.44246 77.1554 3.73414 77.0643 3.289 76.4947C2.84711 75.9284 2.8991 75.1668 3.50995 74.6851C10.7036 69.0155 13.7579 61.0675 15.6684 52.5045C16.7569 47.6225 17.2443 42.6623 17.3125 37.6631C17.3157 37.367 17.3125 37.0675 17.3125 36.6444C17.0266 36.6444 16.7699 36.6444 16.5099 36.6444C14.6969 36.6444 12.8839 36.6379 11.0676 36.6477C10.4177 36.6509 9.89135 36.4719 9.61842 35.834C9.33899 35.1863 9.60867 34.6884 10.0636 34.2327C14.2778 30.0179 18.4887 25.7966 22.7029 21.585C23.473 20.8169 24.1195 20.8072 24.8831 21.559C26.5207 23.1766 28.1485 24.8072 29.7634 26.4475C30.436 27.131 30.4587 27.8958 29.8739 28.4524C29.3117 28.9862 28.5839 28.9471 27.9308 28.2994C26.5694 26.9487 25.2275 25.5785 23.8629 24.1985H23.8661Z" fill="#152296"/>
</g>
<defs>
<clipPath id="clip0_4_2123">
<rect width="78" height="56" fill="white" transform="translate(3 21)"/>
</clipPath>
</defs>
</svg>
