<svg width="84" height="85" viewBox="0 0 84 85" fill="none" xmlns="http://www.w3.org/2000/svg">
<g clip-path="url(#clip0_7_32)">
<path d="M41.6144 11.5045C58.3573 11.2211 72.0759 24.2593 72.3705 40.482C72.6676 56.8453 59.4701 70.2264 42.8173 70.5575C25.96 70.891 12.2463 57.8313 12.0028 41.4729C11.7593 25.0739 25.0591 11.8428 41.6144 11.5045ZM70.4298 40.975C70.3738 25.6717 57.7096 13.3767 42.0333 13.41C26.5152 13.441 13.8996 25.9004 13.9435 41.1513C13.9897 56.3594 26.7124 68.7163 42.2694 68.6639C57.8216 68.6115 70.4834 56.1593 70.4274 40.975H70.4298Z" fill="#152296"/>
<path d="M53.8742 31.559C53.8742 37.8328 48.6001 42.9514 42.1377 42.9442C35.7703 42.9371 30.5107 37.8018 30.501 31.5781C30.4913 25.2448 35.7143 20.0714 42.1182 20.0762C48.6658 20.0809 53.8742 25.1686 53.8767 31.5566L53.8742 31.559ZM51.9214 31.4971C51.9263 26.2451 47.5482 21.984 42.145 21.984C36.8441 21.984 32.4538 26.2737 32.449 31.459C32.4441 36.7443 36.8002 41.034 42.1645 41.0316C47.5628 41.0292 51.9165 36.7729 51.9214 31.4995V31.4971Z" fill="#152296"/>
<path d="M63.653 55.8171C63.3876 56.1267 63.222 56.4983 62.9615 56.5817C62.6473 56.6793 62.175 56.6412 61.9071 56.465C61.3398 56.091 60.8771 55.5742 60.3463 55.143C54.7215 50.5747 48.2372 48.3977 40.9518 48.7025C34.1217 48.986 28.1512 51.4417 23.084 55.9552C22.9038 56.1148 22.7309 56.2839 22.5434 56.434C22.0443 56.8318 21.5135 56.8199 21.1312 56.4102C20.7562 56.01 20.7513 55.4312 21.2383 55.0406C22.8064 53.7902 24.3234 52.4492 26.0133 51.3774C31.2679 48.0499 37.0851 46.5303 43.3308 46.7804C50.9205 47.0853 57.5047 49.822 63.0345 54.9382C63.2683 55.155 63.4095 55.4646 63.6506 55.8147L63.653 55.8171Z" fill="#152296"/>
</g>
<defs>
<clipPath id="clip0_7_32">
<rect width="60.375" height="59.0625" fill="white" transform="translate(12 11.5)"/>
</clipPath>
</defs>
</svg>
