<svg width="85" height="84" viewBox="0 0 85 84" fill="none" xmlns="http://www.w3.org/2000/svg">
<mask id="path-1-inside-1_4_690" fill="white">
<path fill-rule="evenodd" clip-rule="evenodd" d="M26.5711 19.2581H23.2288V22.807H26.5711V19.2581ZM22.1661 17.1552H27.6308C28.217 17.1552 28.6936 17.6244 28.6936 18.2051V23.8569C28.6936 24.4376 28.2169 24.9069 27.6308 24.9069H22.1661C21.5829 24.9069 21.1063 24.4376 21.1063 23.8569V18.2051C21.1063 17.6244 21.583 17.1552 22.1661 17.1552ZM30.9586 19.918C30.3725 19.918 29.8988 19.4458 29.8988 18.8651C29.8988 18.2844 30.3725 17.8152 30.9586 17.8152H43.3122C43.8983 17.8152 44.372 18.2844 44.372 18.8651C44.372 19.4458 43.8983 19.918 43.3122 19.918H30.9586ZM30.9586 24.247V24.2441C30.3725 24.2441 29.8988 23.7748 29.8988 23.1941C29.8988 22.6134 30.3725 22.1442 30.9586 22.1442H46.2193C46.8054 22.1442 47.282 22.6134 47.282 23.1941C47.282 23.7748 46.8054 24.2441 46.2193 24.2441L30.9586 24.247ZM56.8556 34.1167V28.8228C56.8556 28.245 57.3322 27.7728 57.9183 27.7728C61.453 27.7728 64.3215 30.6118 64.3215 34.1167C64.3215 34.6975 63.8449 35.1667 63.2617 35.1667H57.9154C57.3322 35.1667 56.8556 34.6974 56.8556 34.1167ZM58.9782 30.0047V33.0667H62.0687C61.678 31.5621 60.4968 30.3918 58.9782 30.0047ZM53.9338 37.0174V32.9053C52.4418 33.2808 51.2695 34.4246 50.8639 35.894C50.4554 37.3634 50.8758 38.9384 51.9652 40.0178C53.0516 41.0971 54.6413 41.5136 56.1274 41.1088C57.6105 40.707 58.7621 39.5456 59.144 38.0673H54.9906C54.4045 38.0673 53.9309 37.5981 53.9309 37.0174H53.9338ZM56.0564 31.7234L56.0534 31.7204C56.0534 31.1397 55.5798 30.6676 54.9936 30.6676C52.4033 30.6676 50.0677 32.2161 49.076 34.586C48.0842 36.9558 48.6349 39.6864 50.4643 41.5019C52.2968 43.3144 55.0528 43.8599 57.4447 42.8774C59.8366 41.8948 61.3998 39.5808 61.3998 37.0144C61.3998 36.4337 60.9231 35.9645 60.337 35.9645H56.0505V31.7234L56.0564 31.7234ZM27.4243 61.9564H24.9228V67.1038H27.4243V61.9564ZM23.8631 59.8535H28.4871H28.4842C29.0703 59.8535 29.5469 60.3228 29.5469 60.9035V68.1507C29.5469 68.7315 29.0703 69.2036 28.4842 69.2036H23.8601H23.8631C23.2769 69.2036 22.8003 68.7314 22.8003 68.1507V60.9035C22.8003 60.3227 23.277 59.8535 23.8631 59.8535ZM35.6271 59.5221H33.1256V67.101H35.6271V59.5221ZM32.0658 57.4192H36.6899C37.276 57.4192 37.7496 57.8914 37.7496 58.472V68.151C37.7496 68.7318 37.276 69.2039 36.6899 69.2039H32.0658C31.4797 69.2039 31.006 68.7317 31.006 68.151V58.472C31.006 57.8913 31.4797 57.4221 32.0658 57.4221V57.4192ZM43.8298 53.1517H41.3283L41.3313 67.1007H43.8328L43.8298 53.1547V53.1517ZM40.2685 51.0488V51.0517C39.6824 51.0517 39.2088 51.5239 39.2088 52.1017V68.1507C39.2088 68.7315 39.6824 69.2036 40.2685 69.2036H44.8926C45.4787 69.2036 45.9524 68.7314 45.9524 68.1507V52.1047C45.9524 51.524 45.4787 51.0547 44.8926 51.0547L40.2685 51.0488ZM23.1701 56.1755L30.5827 50.7056L33.3358 52.7381C33.7177 53.0167 34.2387 53.0108 34.6147 52.7234L45.6299 44.5964C45.8815 44.4409 46.0562 44.1887 46.1124 43.8983C46.1687 43.6109 46.1006 43.3118 45.923 43.0742C45.7454 42.8395 45.4789 42.687 45.1829 42.6548C44.8869 42.6254 44.5908 42.7193 44.3688 42.9128L33.9659 50.5886L31.2306 48.5737C30.8546 48.2863 30.3336 48.2804 29.9517 48.559L21.9087 54.4894C21.4558 54.8384 21.364 55.4837 21.7074 55.9412C22.0508 56.4017 22.6991 56.5014 23.1698 56.1729L23.1701 56.1755ZM68.2883 57.3692V61.7247L68.6982 61.7247C70.6047 61.7774 72.0922 61.5428 73.9247 61.0295C74.9253 60.7128 75.544 60.4195 75.544 60.223V56.199C73.229 57.0612 70.7601 57.2186 68.2853 57.1277L68.2883 57.3692ZM68.2883 50.9197V55.2751V54.9539C70.1947 55.0067 72.0922 55.0904 73.9247 54.58C74.9282 54.2603 75.541 53.97 75.544 53.7706V49.7465C73.229 50.6117 71.1731 51.0136 68.6982 50.9197L68.2883 50.9197ZM68.2883 44.4702L68.4914 48.8273L68.2853 48.8227C70.1917 48.8755 72.0922 48.6409 73.9247 48.1276C74.9282 47.8079 75.541 47.5175 75.544 47.3181V43.297C73.229 44.1622 70.9662 44.5611 68.4914 44.4702L68.2883 44.4702ZM68.2883 39.3698L68.4914 42.3748C70.3978 42.4276 72.0922 42.1913 73.9247 41.678C74.9253 41.3613 75.544 41.068 75.544 40.8715C75.544 40.675 74.9253 40.3817 73.9247 40.0649C72.0922 39.5517 70.6047 39.317 68.6982 39.3698L68.2883 39.3698ZM66.1657 23.2734V71.4033L18.3981 71.4004V12.6094H56.385V22.2291C56.385 22.8098 56.8586 23.279 57.4447 23.279L66.1657 23.2734ZM64.8306 21.1705L58.5044 14.2693V21.1705H64.8306ZM16.2756 45.2557C14.6297 45.2616 12.9897 45.4933 11.4088 45.945C10.4083 46.2617 9.78956 46.555 9.78956 46.7515C9.78956 46.948 10.4083 47.2413 11.4088 47.5581C12.9896 48.0097 14.6297 48.2414 16.2756 48.2473V45.2557ZM9.78956 53.201C9.78956 53.3976 10.4083 53.6908 11.4088 54.0076C12.9896 54.4593 14.6297 54.691 16.2756 54.6968V50.3473C14.0583 50.3648 11.8588 49.9689 9.78956 49.1799V53.201ZM9.78956 59.6506C9.78956 59.8471 10.4083 60.1403 11.4088 60.4571C12.9896 60.9088 14.6297 61.1405 16.2756 61.1463V56.7997C14.0583 56.8144 11.8588 56.4184 9.78956 55.6294V59.6506ZM16.2756 69.699C14.4136 69.6872 12.5575 69.4203 10.7694 68.9012C8.86006 68.2999 7.66699 67.3174 7.66699 66.1002V46.7512C7.66699 45.5341 8.85999 44.5544 10.7694 43.9502V43.9473C12.5575 43.4311 14.4136 43.1613 16.2756 43.1525V11.5529C16.2756 10.9722 16.7522 10.5 17.3384 10.5H57.4449C57.7646 10.5 58.0695 10.6437 58.2708 10.893L67.9719 21.4723V21.4693C68.1762 21.6688 68.2887 21.9386 68.2887 22.2202V37.2691C70.4083 37.2163 72.5249 37.4862 74.5645 38.0669C76.4739 38.6681 77.667 39.6507 77.667 40.8679V60.2169C77.667 61.434 76.474 62.4136 74.5645 63.0178V63.0208C72.5249 63.6015 70.4082 63.8713 68.2857 63.8185V72.4471C68.2857 73.0278 67.812 73.5 67.2259 73.5H17.3386C16.7525 73.5 16.2759 73.0278 16.2759 72.4471L16.2756 69.699ZM9.78956 66.1031C9.78956 66.3055 10.4023 66.5929 11.4088 66.9126C12.9896 67.3614 14.6297 67.596 16.2756 67.6019V63.2493C14.0583 63.264 11.8588 62.8681 9.78956 62.082V66.1031Z"/>
</mask>
<path fill-rule="evenodd" clip-rule="evenodd" d="M26.5711 19.2581H23.2288V22.807H26.5711V19.2581ZM22.1661 17.1552H27.6308C28.217 17.1552 28.6936 17.6244 28.6936 18.2051V23.8569C28.6936 24.4376 28.2169 24.9069 27.6308 24.9069H22.1661C21.5829 24.9069 21.1063 24.4376 21.1063 23.8569V18.2051C21.1063 17.6244 21.583 17.1552 22.1661 17.1552ZM30.9586 19.918C30.3725 19.918 29.8988 19.4458 29.8988 18.8651C29.8988 18.2844 30.3725 17.8152 30.9586 17.8152H43.3122C43.8983 17.8152 44.372 18.2844 44.372 18.8651C44.372 19.4458 43.8983 19.918 43.3122 19.918H30.9586ZM30.9586 24.247V24.2441C30.3725 24.2441 29.8988 23.7748 29.8988 23.1941C29.8988 22.6134 30.3725 22.1442 30.9586 22.1442H46.2193C46.8054 22.1442 47.282 22.6134 47.282 23.1941C47.282 23.7748 46.8054 24.2441 46.2193 24.2441L30.9586 24.247ZM56.8556 34.1167V28.8228C56.8556 28.245 57.3322 27.7728 57.9183 27.7728C61.453 27.7728 64.3215 30.6118 64.3215 34.1167C64.3215 34.6975 63.8449 35.1667 63.2617 35.1667H57.9154C57.3322 35.1667 56.8556 34.6974 56.8556 34.1167ZM58.9782 30.0047V33.0667H62.0687C61.678 31.5621 60.4968 30.3918 58.9782 30.0047ZM53.9338 37.0174V32.9053C52.4418 33.2808 51.2695 34.4246 50.8639 35.894C50.4554 37.3634 50.8758 38.9384 51.9652 40.0178C53.0516 41.0971 54.6413 41.5136 56.1274 41.1088C57.6105 40.707 58.7621 39.5456 59.144 38.0673H54.9906C54.4045 38.0673 53.9309 37.5981 53.9309 37.0174H53.9338ZM56.0564 31.7234L56.0534 31.7204C56.0534 31.1397 55.5798 30.6676 54.9936 30.6676C52.4033 30.6676 50.0677 32.2161 49.076 34.586C48.0842 36.9558 48.6349 39.6864 50.4643 41.5019C52.2968 43.3144 55.0528 43.8599 57.4447 42.8774C59.8366 41.8948 61.3998 39.5808 61.3998 37.0144C61.3998 36.4337 60.9231 35.9645 60.337 35.9645H56.0505V31.7234L56.0564 31.7234ZM27.4243 61.9564H24.9228V67.1038H27.4243V61.9564ZM23.8631 59.8535H28.4871H28.4842C29.0703 59.8535 29.5469 60.3228 29.5469 60.9035V68.1507C29.5469 68.7315 29.0703 69.2036 28.4842 69.2036H23.8601H23.8631C23.2769 69.2036 22.8003 68.7314 22.8003 68.1507V60.9035C22.8003 60.3227 23.277 59.8535 23.8631 59.8535ZM35.6271 59.5221H33.1256V67.101H35.6271V59.5221ZM32.0658 57.4192H36.6899C37.276 57.4192 37.7496 57.8914 37.7496 58.472V68.151C37.7496 68.7318 37.276 69.2039 36.6899 69.2039H32.0658C31.4797 69.2039 31.006 68.7317 31.006 68.151V58.472C31.006 57.8913 31.4797 57.4221 32.0658 57.4221V57.4192ZM43.8298 53.1517H41.3283L41.3313 67.1007H43.8328L43.8298 53.1547V53.1517ZM40.2685 51.0488V51.0517C39.6824 51.0517 39.2088 51.5239 39.2088 52.1017V68.1507C39.2088 68.7315 39.6824 69.2036 40.2685 69.2036H44.8926C45.4787 69.2036 45.9524 68.7314 45.9524 68.1507V52.1047C45.9524 51.524 45.4787 51.0547 44.8926 51.0547L40.2685 51.0488ZM23.1701 56.1755L30.5827 50.7056L33.3358 52.7381C33.7177 53.0167 34.2387 53.0108 34.6147 52.7234L45.6299 44.5964C45.8815 44.4409 46.0562 44.1887 46.1124 43.8983C46.1687 43.6109 46.1006 43.3118 45.923 43.0742C45.7454 42.8395 45.4789 42.687 45.1829 42.6548C44.8869 42.6254 44.5908 42.7193 44.3688 42.9128L33.9659 50.5886L31.2306 48.5737C30.8546 48.2863 30.3336 48.2804 29.9517 48.559L21.9087 54.4894C21.4558 54.8384 21.364 55.4837 21.7074 55.9412C22.0508 56.4017 22.6991 56.5014 23.1698 56.1729L23.1701 56.1755ZM68.2883 57.3692V61.7247L68.6982 61.7247C70.6047 61.7774 72.0922 61.5428 73.9247 61.0295C74.9253 60.7128 75.544 60.4195 75.544 60.223V56.199C73.229 57.0612 70.7601 57.2186 68.2853 57.1277L68.2883 57.3692ZM68.2883 50.9197V55.2751V54.9539C70.1947 55.0067 72.0922 55.0904 73.9247 54.58C74.9282 54.2603 75.541 53.97 75.544 53.7706V49.7465C73.229 50.6117 71.1731 51.0136 68.6982 50.9197L68.2883 50.9197ZM68.2883 44.4702L68.4914 48.8273L68.2853 48.8227C70.1917 48.8755 72.0922 48.6409 73.9247 48.1276C74.9282 47.8079 75.541 47.5175 75.544 47.3181V43.297C73.229 44.1622 70.9662 44.5611 68.4914 44.4702L68.2883 44.4702ZM68.2883 39.3698L68.4914 42.3748C70.3978 42.4276 72.0922 42.1913 73.9247 41.678C74.9253 41.3613 75.544 41.068 75.544 40.8715C75.544 40.675 74.9253 40.3817 73.9247 40.0649C72.0922 39.5517 70.6047 39.317 68.6982 39.3698L68.2883 39.3698ZM66.1657 23.2734V71.4033L18.3981 71.4004V12.6094H56.385V22.2291C56.385 22.8098 56.8586 23.279 57.4447 23.279L66.1657 23.2734ZM64.8306 21.1705L58.5044 14.2693V21.1705H64.8306ZM16.2756 45.2557C14.6297 45.2616 12.9897 45.4933 11.4088 45.945C10.4083 46.2617 9.78956 46.555 9.78956 46.7515C9.78956 46.948 10.4083 47.2413 11.4088 47.5581C12.9896 48.0097 14.6297 48.2414 16.2756 48.2473V45.2557ZM9.78956 53.201C9.78956 53.3976 10.4083 53.6908 11.4088 54.0076C12.9896 54.4593 14.6297 54.691 16.2756 54.6968V50.3473C14.0583 50.3648 11.8588 49.9689 9.78956 49.1799V53.201ZM9.78956 59.6506C9.78956 59.8471 10.4083 60.1403 11.4088 60.4571C12.9896 60.9088 14.6297 61.1405 16.2756 61.1463V56.7997C14.0583 56.8144 11.8588 56.4184 9.78956 55.6294V59.6506ZM16.2756 69.699C14.4136 69.6872 12.5575 69.4203 10.7694 68.9012C8.86006 68.2999 7.66699 67.3174 7.66699 66.1002V46.7512C7.66699 45.5341 8.85999 44.5544 10.7694 43.9502V43.9473C12.5575 43.4311 14.4136 43.1613 16.2756 43.1525V11.5529C16.2756 10.9722 16.7522 10.5 17.3384 10.5H57.4449C57.7646 10.5 58.0695 10.6437 58.2708 10.893L67.9719 21.4723V21.4693C68.1762 21.6688 68.2887 21.9386 68.2887 22.2202V37.2691C70.4083 37.2163 72.5249 37.4862 74.5645 38.0669C76.4739 38.6681 77.667 39.6507 77.667 40.8679V60.2169C77.667 61.434 76.474 62.4136 74.5645 63.0178V63.0208C72.5249 63.6015 70.4082 63.8713 68.2857 63.8185V72.4471C68.2857 73.0278 67.812 73.5 67.2259 73.5H17.3386C16.7525 73.5 16.2759 73.0278 16.2759 72.4471L16.2756 69.699ZM9.78956 66.1031C9.78956 66.3055 10.4023 66.5929 11.4088 66.9126C12.9896 67.3614 14.6297 67.596 16.2756 67.6019V63.2493C14.0583 63.264 11.8588 62.8681 9.78956 62.082V66.1031Z" fill="#152296" stroke="#ECECFF" stroke-width="0.6" mask="url(#path-1-inside-1_4_690)"/>
</svg>
