<svg width="85" height="85" viewBox="0 0 85 85" fill="none" xmlns="http://www.w3.org/2000/svg">
<g clip-path="url(#clip0_7_28)">
<path d="M33.0996 46.3768C33.0996 42.8479 33.0996 39.414 33.0996 35.9771C33.0996 34.6653 33.0851 33.3564 33.1054 32.0446C33.1432 29.8008 34.8666 28.0468 37.0319 28.0141C39.2262 27.9815 41.0543 29.7118 41.1182 31.9645C41.1705 33.8669 41.1357 35.7723 41.1386 37.6777C41.1386 37.9478 41.1386 38.2179 41.1386 38.6037C42.4057 38.1021 43.6264 38.0072 44.8093 38.6512C45.966 39.2834 46.6519 40.2925 46.96 41.5687C50.3459 40.7852 51.8078 41.5598 52.886 44.6643C53.4935 44.5604 54.098 44.3853 54.7083 44.3704C56.7224 44.3229 58.4517 45.8781 58.7046 47.9231C58.7569 48.3386 58.7685 48.76 58.7685 49.1815C58.7714 53.9302 58.7453 58.6789 58.783 63.4246C58.8005 65.6149 58.6261 67.7667 57.9925 69.868C57.4025 71.8268 57.2136 73.8332 57.2863 75.8751C57.3211 76.8397 57.3066 77.8043 57.2863 78.7688C57.2659 79.591 56.8678 79.9679 56.0569 79.9946C55.9348 79.9976 55.8157 79.9946 55.6936 79.9946C48.2097 79.9946 40.7288 79.9946 33.2449 79.9946C31.9254 79.9946 31.6435 79.7008 31.6406 78.3325C31.6406 76.997 31.6348 75.6614 31.6406 74.3258C31.6435 73.4295 31.3965 72.6252 30.8617 71.9099C30.0421 70.8088 29.237 69.6929 28.4203 68.5888C27.7141 67.6361 27.2694 66.5765 27.2462 65.3775C27.2142 63.5967 27.2113 61.816 27.2317 60.0382C27.2404 59.2903 27.7112 58.8154 28.3332 58.8273C28.9551 58.8362 29.3649 59.311 29.4056 60.0738C29.4143 60.2459 29.4114 60.421 29.4114 60.5932C29.4114 61.9288 29.4318 63.2643 29.4056 64.5999C29.3824 65.7129 29.6904 66.6745 30.3763 67.5471C31.1785 68.568 31.9225 69.6365 32.6927 70.6871C33.46 71.7319 33.8175 72.9161 33.8262 74.216C33.832 75.3735 33.8262 76.528 33.8262 77.7241H55.0513C55.0687 77.5549 55.1123 77.3887 55.1036 77.2285C54.9118 73.9578 55.4 70.7851 56.2603 67.6391C56.5219 66.6804 56.5655 65.6357 56.5713 64.6296C56.6004 59.4624 56.5858 54.2922 56.5829 49.1251C56.5829 48.8787 56.5829 48.6294 56.5568 48.3831C56.4434 47.2671 55.6616 46.5459 54.6299 46.5934C53.6504 46.6379 52.9122 47.4185 52.8977 48.5107C52.8715 50.339 52.889 52.1702 52.889 54.0014C52.889 54.224 52.9035 54.4496 52.8773 54.6692C52.8047 55.2954 52.4588 55.6634 51.8339 55.6842C51.2033 55.705 50.8487 55.334 50.7266 54.7315C50.683 54.5178 50.7063 54.2893 50.7063 54.0667C50.7063 51.2234 50.7092 48.3801 50.7034 45.5339C50.7005 44.4624 50.1308 43.667 49.2676 43.483C48.0499 43.2218 47.053 44.0796 47.0443 45.4389C47.0268 48.3089 47.0414 51.1759 47.0356 54.0459C47.0356 54.3397 47.0297 54.6454 46.9513 54.9244C46.7972 55.4705 46.3991 55.7258 45.8498 55.6842C45.2976 55.6427 44.9633 55.3192 44.8761 54.7612C44.8384 54.5178 44.8529 54.2685 44.8529 54.0222C44.8529 50.3122 44.8529 46.6023 44.8529 42.8954C44.8529 41.3817 44.1554 40.4498 43.0248 40.429C41.8506 40.4082 41.1473 41.3313 41.1473 42.9013C41.1473 46.5845 41.1473 50.2707 41.1473 53.9539C41.1473 54.2002 41.156 54.4496 41.1298 54.6959C41.0659 55.2924 40.7317 55.6427 40.1446 55.6872C39.5575 55.7317 39.1622 55.4319 39.0227 54.8532C38.953 54.5712 38.9646 54.2655 38.9646 53.9687C38.9646 46.9199 38.9646 39.874 38.9617 32.8252C38.9617 32.5284 38.9704 32.2286 38.9385 31.9348C38.8309 30.9346 38.0288 30.2282 37.0551 30.2579C36.1164 30.2876 35.3782 31.0147 35.3055 31.9941C35.2852 32.2642 35.2968 32.5373 35.2968 32.8103C35.2968 40.8475 35.2706 48.8847 35.3259 56.9218C35.3346 58.0704 34.8637 58.7857 34.079 59.4208C33.5937 59.8126 33.0705 59.7948 32.6346 59.3526C32.1986 58.9104 32.123 58.3138 32.5677 57.8953C33.1083 57.3848 33.1228 56.8091 33.1199 56.1591C33.1054 54.1557 33.1286 52.1524 33.1054 50.149C33.0938 49.1844 32.4892 48.4484 31.6464 48.2673C30.8181 48.0893 29.9287 48.5196 29.6149 49.3239C29.4754 49.6801 29.4347 50.0926 29.4289 50.4785C29.4056 51.814 29.4463 53.1496 29.4027 54.4852C29.3911 54.8502 29.2719 55.3192 29.0278 55.5418C28.7895 55.7584 28.2489 55.886 27.9844 55.7525C27.6589 55.5892 27.2869 55.1233 27.2752 54.776C27.2229 52.9982 27.1677 51.2086 27.3247 49.4426C27.5281 47.1484 29.8997 45.5665 32.1201 46.0978C32.4224 46.169 32.7188 46.2699 33.1112 46.3857L33.0996 46.3768Z" fill="#152296"/>
<path d="M42.9665 25.4073C41.2488 25.4073 39.5283 25.4548 37.8135 25.3954C34.8839 25.2975 32.5588 22.8756 32.5269 19.8839C32.4891 16.45 32.4891 13.0132 32.5269 9.57925C32.5588 6.49557 34.9798 4.04999 38.0083 4.02031C41.3244 3.99063 44.6377 3.99063 47.9538 4.02031C51.02 4.04702 53.4294 6.49853 53.4613 9.62971C53.4933 13.0161 53.4933 16.3996 53.4613 19.786C53.4323 22.9112 51.1159 25.3093 48.0497 25.4013C46.3582 25.4518 44.6638 25.4102 42.9694 25.4102C42.9694 25.4102 42.9694 25.4073 42.9694 25.4043L42.9665 25.4073ZM51.2845 14.693C51.2845 13.0606 51.2845 11.4283 51.2845 9.79591C51.2845 9.74546 51.2845 9.69797 51.2845 9.64752C51.2322 7.7421 49.8168 6.26704 47.9451 6.2522C44.6522 6.22548 41.3564 6.22845 38.0635 6.2522C36.154 6.26704 34.7183 7.74507 34.7066 9.70094C34.6863 13.0399 34.6892 16.3788 34.7066 19.7177C34.7183 21.6944 36.1017 23.1546 38.0431 23.1754C41.336 23.211 44.6318 23.211 47.9247 23.1754C49.9011 23.1546 51.2671 21.6914 51.2845 19.6643C51.299 18.0082 51.2874 16.3491 51.2874 14.693H51.2845Z" fill="#152296"/>
<path d="M19.4832 25.4264C17.9341 25.4264 16.3821 25.4412 14.833 25.4264C11.3454 25.3848 9.01743 22.9897 9.00581 19.4371C8.99709 16.297 8.99709 13.154 9.00581 10.0139C9.01743 6.43158 11.3861 4.02458 14.8999 4.01568C15.5306 4.01568 16.1583 4.00677 16.789 4.01568C17.5796 4.03052 18.0417 4.4579 18.0329 5.14349C18.0242 5.82315 17.5592 6.22976 16.7571 6.24163C16.0537 6.25053 15.3533 6.23569 14.6499 6.2446C12.694 6.27428 11.2263 7.69889 11.203 9.69631C11.1652 13.059 11.1623 16.4246 11.203 19.7873C11.2292 21.7254 12.6475 23.1559 14.5424 23.1737C17.8586 23.2093 21.1776 23.2093 24.4967 23.1737C26.3073 23.1529 27.7227 21.8203 27.7605 19.9683C27.8332 16.4573 27.8332 12.9462 27.7547 9.43513C27.714 7.60985 26.2463 6.29208 24.456 6.24757C23.6829 6.22976 22.9069 6.25647 22.1309 6.23866C21.4101 6.22085 20.9393 5.74598 20.9538 5.10491C20.9684 4.49055 21.4247 4.01864 22.1047 4.02458C23.2411 4.03348 24.395 3.97412 25.5052 4.1611C27.9378 4.57365 29.8444 6.66308 29.917 9.16505C30.0246 12.869 30.0391 16.5849 29.9141 20.2889C29.8182 23.0965 27.4612 25.3047 24.7088 25.3967C22.9679 25.4531 21.2212 25.4086 19.4774 25.4086C19.4774 25.4145 19.4774 25.4204 19.4774 25.4264H19.4832Z" fill="#152296"/>
<path d="M66.4616 4.01485C68.0834 4.01485 69.708 4.00298 71.3298 4.01485C74.489 4.04453 76.9187 6.43966 76.9652 9.66877C77.0146 13.0314 77.0117 16.3941 76.9652 19.7568C76.9216 22.9355 74.5907 25.3009 71.4867 25.4107C70.7136 25.4374 69.9376 25.4345 69.1616 25.4167C68.3856 25.3988 67.9642 25.0041 67.9526 24.3363C67.941 23.6448 68.3915 23.2144 69.1878 23.1937C69.9144 23.1759 70.641 23.2026 71.3676 23.1818C73.3439 23.1284 74.7622 21.7245 74.7796 19.7063C74.8116 16.3674 74.8174 13.0285 74.7796 9.69252C74.7564 7.69213 73.2887 6.25564 71.3298 6.24674C68.0863 6.2319 64.8399 6.22893 61.5935 6.24674C59.7247 6.25564 58.2483 7.60606 58.2134 9.50554C58.1436 12.9899 58.1436 16.4802 58.2163 19.9646C58.2541 21.8165 59.6666 23.1106 61.4801 23.1759C62.23 23.2026 62.9827 23.1759 63.7326 23.1937C64.5202 23.2085 65.0143 23.6418 65.023 24.2977C65.0346 24.9626 64.5522 25.4256 63.7616 25.4137C62.602 25.3959 61.4162 25.4641 60.2943 25.2386C57.9082 24.7578 56.1266 22.7129 56.054 20.2406C55.9493 16.5603 55.9319 12.8712 56.0569 9.19093C56.1557 6.29423 58.5941 4.07124 61.4453 4.02079C63.1164 3.99111 64.7876 4.01485 66.4587 4.01485H66.4616Z" fill="#152296"/>
<path d="M18.405 15.4295C19.6286 14.1592 20.7388 12.9928 21.8665 11.8472C22.3751 11.3278 22.9564 11.2833 23.4185 11.6721C23.9155 12.0935 23.9852 12.7939 23.497 13.3044C22.0816 14.7884 20.6429 16.2516 19.1927 17.7C18.7218 18.1689 18.1231 18.1422 17.6378 17.6732C16.9199 16.9758 16.2195 16.2605 15.5365 15.5274C15.0802 15.0377 15.0947 14.364 15.519 13.9366C15.9404 13.5122 16.5944 13.5063 17.0768 13.9782C17.5128 14.4026 17.9051 14.8745 18.4079 15.4295H18.405Z" fill="#152296"/>
</g>
<defs>
<clipPath id="clip0_7_28">
<rect width="68" height="76" fill="white" transform="translate(9 4)"/>
</clipPath>
</defs>
</svg>
