<svg width="85" height="84" viewBox="0 0 85 84" fill="none" xmlns="http://www.w3.org/2000/svg">
<path d="M75.917 23.8008V29.1885C75.917 29.6601 75.5921 30.0703 75.1367 30.1728L71.3048 31.0459C71.1917 31.3535 71.0669 31.6582 70.9277 31.96L73.0249 35.3116C73.2744 35.71 73.2163 36.2315 72.8857 36.5655L69.1118 40.377C68.7812 40.7109 68.2677 40.7695 67.8703 40.5176L64.5489 38.3995C64.2531 38.5371 63.9514 38.6631 63.6439 38.7774L62.7794 42.6504C62.6779 43.1104 62.2718 43.4385 61.8048 43.4385H59.7975C59.2464 43.4385 58.7996 42.9874 58.7996 42.4307C58.7996 41.874 59.2463 41.4228 59.7975 41.4228H61.0042L61.8164 37.79C61.8948 37.4414 62.15 37.1601 62.4865 37.0517C63.0638 36.8642 63.6236 36.6299 64.1544 36.3545C64.4706 36.1904 64.8448 36.208 65.1436 36.3984L68.2589 38.3847L70.9044 35.7128L68.9377 32.5664C68.7492 32.2646 68.7318 31.8838 68.8942 31.5645C69.1756 31.0137 69.4076 30.4483 69.5875 29.8799C69.6948 29.5401 69.9733 29.2822 70.3185 29.2032L73.9124 28.3828L73.9182 24.6064L70.3243 23.7861C69.982 23.707 69.7035 23.4521 69.5962 23.1152C69.4018 22.5146 69.1669 21.9463 68.9029 21.4277C68.7405 21.1084 68.755 20.7275 68.9464 20.4258L70.9131 17.2764L68.2705 14.6075L65.1552 16.5938C64.8564 16.7842 64.4793 16.8018 64.1631 16.6377C63.6178 16.3535 63.0579 16.1191 62.4952 15.9375C62.1587 15.8291 61.9035 15.5479 61.8252 15.1992L61.0129 11.5694H59.8062C59.2551 11.5694 58.8083 11.1182 58.8083 10.5616C58.8083 10.0049 59.255 9.55372 59.8062 9.55372H61.8135C62.2805 9.55372 62.6866 9.88184 62.7881 10.3418L63.6526 14.2089C63.9572 14.3232 64.2588 14.4492 64.5576 14.5898L67.8761 12.4717C68.2706 12.2197 68.787 12.2783 69.1176 12.6094L72.8915 16.415C73.2221 16.749 73.2802 17.2675 73.0307 17.6689L70.9335 21.0263C71.0669 21.3222 71.1917 21.6269 71.3077 21.9404L75.1396 22.8135C75.5921 22.919 75.917 23.3291 75.917 23.8008ZM59.7078 32.074C59.1596 32.1297 58.7593 32.6248 58.8144 33.1785C58.8666 33.7 59.2988 34.0867 59.8064 34.0867C59.8412 34.0867 59.8731 34.0837 59.908 34.0808C63.7775 33.6882 66.6956 30.4275 66.6956 26.4931C66.6956 22.5615 63.7775 19.3008 59.908 18.9084C59.3626 18.8557 58.8695 19.257 58.8143 19.8107C58.7592 20.3644 59.1595 20.8595 59.7077 20.9152C62.5533 21.2024 64.697 23.6017 64.697 26.4933C64.697 29.3879 62.5506 31.7869 59.7078 32.074ZM57.6657 8.23239V59.8711C57.6657 61.5117 56.343 62.8506 54.7156 62.8506H51.2492C51.2405 62.8769 51.2318 62.9004 51.2231 62.9267L49.3405 68.0009V69.5713H50.3065C50.8576 69.5713 51.3044 70.0224 51.3044 70.5791V77.7392C51.3044 78.2959 50.8577 78.7471 50.3065 78.7471L29.5341 78.75C28.983 78.75 28.5362 78.2988 28.5362 77.7422V70.582C28.5362 70.0254 28.9829 69.5742 29.5341 69.5742H30.5001V67.3066L29.4123 66.0908C28.5276 65.1035 27.8605 64.0196 27.4108 62.8535L14.1171 62.8506C12.4927 62.8506 11.167 61.5147 11.167 59.8711V8.23243C11.167 6.58889 12.4897 5.25 14.1171 5.25H54.7187C56.3431 5.25 57.6657 6.58885 57.6657 8.23239ZM13.1655 8.23239V11.083H55.6667V8.23239C55.6667 7.69919 55.2402 7.26849 54.7153 7.26849H14.1166C13.5916 7.26849 13.1655 7.69916 13.1655 8.23239ZM52.2909 46.5234V52.7196H55.6673V13.1019H13.1661V52.7196H26.7354V49.3564C26.7354 47.4872 28.2409 45.9668 30.0886 45.9668C30.5731 45.9668 31.0314 46.0693 31.4462 46.2568V39.6856C31.1068 39.5274 30.7819 39.3428 30.4773 39.1377L27.5476 42.0967C28.2206 43.3887 28.0204 45.0263 26.95 46.1074C26.2887 46.7724 25.4214 47.1035 24.554 47.1035C23.6867 47.1035 22.8223 46.7724 22.1638 46.1074C20.8469 44.7774 20.8469 42.6094 22.1609 41.2764C23.2341 40.1924 24.8556 39.9903 26.1349 40.67L28.9893 37.7871C28.2641 36.9141 27.7477 35.8711 27.4983 34.7403H23.7012C23.2748 36.1348 21.9869 37.1514 20.4698 37.1514C18.6017 37.1514 17.0846 35.6162 17.0846 33.7324C17.0846 31.8457 18.6046 30.3135 20.4698 30.3135C21.9869 30.3135 23.2748 31.3301 23.7012 32.7246H27.3416C27.4228 31.4296 27.8463 30.2256 28.5222 29.2061L26.1349 26.795C25.6418 27.0557 25.0994 27.1875 24.554 27.1875C23.6867 27.1875 22.8194 26.8536 22.1609 26.1886C20.844 24.8527 20.844 22.6846 22.1609 21.3546C23.4778 20.0246 25.6244 20.0246 26.9442 21.3517C28.0174 22.4356 28.2176 24.0733 27.5446 25.3654L29.8565 27.7003C30.8485 26.8566 32.0727 26.2824 33.4157 26.0919V22.9103C32.035 22.4797 31.0285 21.1789 31.0285 19.6466C31.0285 17.7599 32.5485 16.2277 34.4136 16.2277C36.2817 16.2277 37.7988 17.7629 37.7988 19.6466C37.7988 21.1789 36.7922 22.4796 35.4115 22.9103V26.0919C36.7545 26.2853 37.9786 26.8566 38.9707 27.7003L41.2826 25.3654C40.6096 24.0733 40.8098 22.4357 41.8802 21.3546C43.2029 20.0246 45.3494 20.0246 46.6663 21.3546C47.9832 22.6846 47.9832 24.8527 46.6693 26.1856C46.0108 26.8507 45.1435 27.1846 44.2761 27.1846C43.7337 27.1846 43.1884 27.0528 42.6952 26.792L40.3109 29.2061C40.9867 30.2257 41.4103 31.4297 41.4914 32.7247H45.1318C45.5582 31.3301 46.8461 30.3136 48.3632 30.3136C50.2313 30.3136 51.7484 31.8487 51.7484 33.7325C51.7484 35.6192 50.2284 37.1514 48.3632 37.1514C46.8461 37.1514 45.5583 36.1348 45.1318 34.7403H41.3376C40.9286 36.6095 39.7945 38.2384 38.1585 39.2637V40.3037C38.5733 40.1192 39.0316 40.0137 39.5131 40.0137C40.8068 40.0137 41.9323 40.7578 42.4921 41.8447C42.9998 41.5342 43.5915 41.3555 44.2267 41.3555C45.651 41.3555 46.8722 42.2578 47.3566 43.5293C47.8265 43.2744 48.3661 43.1308 48.9346 43.1308C50.7853 43.1308 52.2909 44.6513 52.2909 46.5234ZM34.8022 32.6395C36.6529 32.6395 38.1583 34.16 38.1583 36.0291V36.6707C39.014 35.739 39.5101 34.5028 39.5101 33.1786C39.5101 30.3427 37.2272 28.034 34.4193 28.034C31.6113 28.034 29.3256 30.3397 29.3256 33.1786C29.3256 34.8661 30.1407 36.41 31.4489 37.3592V36.0291C31.4489 34.1629 32.9515 32.6395 34.8022 32.6395ZM35.803 19.6466C35.803 18.8732 35.1793 18.2462 34.4164 18.2462C33.6507 18.2462 33.0299 18.8761 33.0299 19.6466C33.0299 20.417 33.6535 21.044 34.4164 21.044C35.1822 21.044 35.803 20.4171 35.803 19.6466ZM48.3631 35.1325C49.1288 35.1325 49.7497 34.5026 49.7497 33.7321C49.7497 32.9587 49.126 32.3317 48.3631 32.3317C47.6002 32.3317 46.9794 32.9616 46.9794 33.7321C46.9794 34.5055 47.6002 35.1325 48.3631 35.1325ZM43.2984 24.7645C43.838 25.3065 44.7169 25.3065 45.2564 24.7616C45.7959 24.2138 45.7959 23.326 45.2564 22.7812C44.9866 22.5087 44.6328 22.3739 44.2789 22.3739C43.9221 22.3739 43.5653 22.5116 43.2955 22.7841C42.7589 23.3261 42.7589 24.2167 43.2984 24.7645ZM25.5373 24.7616C26.0768 24.2138 26.0768 23.326 25.5373 22.7812C25.2675 22.5087 24.9107 22.3739 24.5568 22.3739C24.2029 22.3739 23.8461 22.5087 23.5764 22.7812C23.0369 23.3261 23.0369 24.2138 23.5793 24.7616C24.1159 25.3065 24.9948 25.3065 25.5373 24.7616ZM20.4697 32.3291C19.704 32.3291 19.0831 32.9589 19.0831 33.7295C19.0831 34.5028 19.7068 35.1298 20.4697 35.1298C21.2326 35.1298 21.8534 34.5 21.8534 33.7295C21.8534 32.9589 21.2326 32.3291 20.4697 32.3291ZM25.5373 42.7C25.2646 42.4275 24.9107 42.2928 24.5568 42.2928C24.2029 42.2928 23.8491 42.4275 23.5793 42.7C23.0398 43.2478 23.0398 44.1356 23.5793 44.6804C24.1188 45.2253 24.9978 45.2253 25.5402 44.6775C26.0739 44.1355 26.0739 43.2479 25.5373 42.7ZM26.8745 60.8319C26.7846 60.2606 26.7353 59.6746 26.7353 59.0711V54.7382H13.166V59.8739C13.166 60.4042 13.5924 60.8348 14.1174 60.8348L26.8745 60.8319ZM49.3088 71.5898H30.5355V76.7343H49.3117L49.3088 71.5898ZM50.2921 46.5235C50.2921 45.7676 49.683 45.1524 48.9346 45.1524C48.2442 45.1524 47.6757 45.6768 47.5915 46.3507V52.7139C47.5915 53.2706 47.1448 53.7218 46.5937 53.7218C46.0425 53.7218 45.5958 53.2706 45.5958 52.7139V46.6729C45.5871 46.6231 45.5842 46.5733 45.5842 46.5235V44.7511C45.5842 43.9952 44.975 43.38 44.2295 43.38C43.4812 43.38 42.872 43.9952 42.872 44.7511V52.749C42.872 53.3057 42.4253 53.7569 41.8741 53.7569C41.3172 53.7569 40.8676 53.3057 40.8676 52.749V43.4003C40.8676 42.6445 40.2584 42.0322 39.5129 42.0322C38.7646 42.0322 38.1583 42.6474 38.1583 43.4003V51.7703C38.1583 52.3269 37.7116 52.7781 37.1604 52.7781C36.6092 52.7781 36.1625 52.327 36.1625 51.7703L36.1596 43.4003V36.0322C36.1596 35.2764 35.5505 34.6612 34.8021 34.6612C34.0537 34.6612 33.4475 35.2764 33.4475 36.0322V58.2126C33.4475 58.7692 33.0008 59.2204 32.4496 59.2204C31.8984 59.2204 31.4517 58.7693 31.4517 58.2126L31.4488 49.3559C31.4488 48.6 30.8397 47.9848 30.0913 47.9848C29.3429 47.9848 28.7367 48.6001 28.7367 49.3559V59.0706C28.7367 61.2591 29.4444 63.1106 30.8977 64.7336L32.2437 66.2366C32.409 66.4211 32.5018 66.6643 32.5018 66.9133V69.5676H47.3447V67.8157C47.3447 67.6956 47.365 67.5755 47.4085 67.4612L49.3549 62.2171C50.0046 60.4681 50.2947 58.8597 50.2947 56.9935V46.5228L50.2921 46.5235ZM55.6672 59.8711V54.7354H52.2907V56.9942C52.2907 58.3535 52.1544 59.5927 51.8643 60.8291H54.7187C55.2408 60.832 55.6672 60.4014 55.6672 59.8711Z" fill="#152296"/>
</svg>
