<svg width="85" height="84" viewBox="0 0 85 84" fill="none" xmlns="http://www.w3.org/2000/svg">
<g clip-path="url(#clip0_4_701)">
<path d="M17.6068 38.3666C19.3312 38.3666 20.9385 38.3666 22.5458 38.3666C24.2527 38.3666 25.9596 38.3549 27.6693 38.3754C28.1056 38.3812 28.2725 38.2406 28.2812 37.7951C28.3779 33.6511 28.9868 29.5862 30.1989 25.618C30.2194 25.5535 30.1989 25.4744 30.1989 25.5125C28.3105 24.3841 26.4778 23.291 24.4518 22.0806C23.4651 23.4111 22.3526 24.853 21.3103 26.3448C20.6428 27.2973 20.0924 27.6021 19.4542 27.183C18.8247 26.7697 18.7837 26.1719 19.4278 25.2018C25.5994 15.8997 34.2333 11.6179 45.3791 12.4649C45.9353 12.5059 46.4916 12.5909 47.0069 12.6495C50.6343 4.71022 56.601 0.824088 65.3695 2.31289C71.7314 3.3914 76.7466 8.80736 77.7801 15.1025C78.9482 22.2154 75.4145 29.1436 68.8008 32.2912C69.0379 33.7888 69.3395 35.2688 69.4976 36.7635C69.8958 40.5001 69.4976 44.1665 68.3587 47.7507C68.1186 48.5039 67.5477 48.8468 66.93 48.6505C66.3122 48.4541 66.0253 47.8504 66.2654 47.0913C66.9183 45.0105 67.3194 42.8887 67.4131 40.6525C67.1935 40.6232 67.009 40.5793 66.8275 40.5793C63.7066 40.5763 60.5827 40.5822 57.4618 40.5676C56.9933 40.5676 56.7533 40.6525 56.7415 41.1947C56.6479 45.3153 56.033 49.3539 54.8327 53.3015C54.8122 53.366 54.8327 53.4451 54.8327 53.4158C56.7152 54.5412 58.5479 55.6344 60.4627 56.7774C61.7128 55.5494 62.84 54.0313 63.8442 52.4106C63.9847 52.182 64.1077 51.9446 64.2541 51.7189C64.661 51.083 65.2436 50.8954 65.8028 51.2149C66.3503 51.5284 66.5494 52.1937 66.1454 52.7974C65.1265 54.3126 64.1867 55.9128 62.9746 57.2609C56.4078 64.5613 48.2131 67.5653 38.4726 66.3051C38.0217 66.2465 37.8432 66.3813 37.6821 66.7916C35.0589 73.4238 28.4803 77.5825 21.6587 76.9378C14.3775 76.249 8.75045 71.2111 7.30709 64.0866C5.92228 57.2492 9.37699 50.2008 15.7155 46.9331C15.9058 46.8334 16.0961 46.7309 16.3274 46.6107C15.5281 43.6976 15.2646 40.7434 15.4374 37.7541C15.5779 35.3069 16.0522 32.9184 16.869 30.606C17.1413 29.8323 17.6741 29.5334 18.3124 29.7649C18.9448 29.9935 19.1321 30.5416 18.9477 31.3299C18.5115 33.2027 18.1045 35.0812 17.7122 36.9598C17.6244 37.3819 17.6448 37.8273 17.6097 38.3695L17.6068 38.3666ZM56.6449 18.215C56.1033 15.6535 56.2702 13.136 56.4019 10.6391C56.5015 8.71651 58.1146 7.3801 60.0616 7.3508C61.3556 7.33321 62.6467 7.342 63.9408 7.34787C66.4118 7.35666 67.9927 8.89528 67.9576 11.3688C67.9254 13.643 68.2182 15.9349 67.6414 18.1827C71.184 18.7191 73.2216 21.3889 72.9581 25.0113C72.9347 25.3278 72.9552 25.6502 72.9552 26.125C77.1975 20.7207 76.9252 11.9198 70.3847 6.91998C64.2365 2.21911 55.386 3.6493 50.9271 10.0177C46.8634 15.8206 48.541 23.1122 51.334 25.9169C51.3136 24.1467 51.2316 22.403 52.268 20.8643C53.3132 19.3081 54.7829 18.4582 56.6479 18.2179L56.6449 18.215ZM33.6448 69.3882C37.3923 64.8749 37.9925 56.6865 32.3537 51.2412C26.8847 45.963 18.2333 46.1594 12.9751 51.6896C7.62914 57.3137 8.64506 65.3321 12.1203 69.3472C11.7221 65.1797 13.0688 62.2754 17.4106 61.4372C17.3287 61.0797 17.194 60.7543 17.1881 60.4232C17.1442 58.2544 17.0125 56.0769 17.1354 53.917C17.2438 52.0149 18.8335 50.6434 20.7131 50.6082C22.9557 50.5672 25.2013 50.5877 27.4439 50.5994C28.252 50.6053 28.6648 51.0068 28.697 51.8098C28.7262 52.5395 28.7292 53.2752 28.7028 54.0049C28.615 56.4814 28.9634 58.9754 28.3866 61.4665C28.4979 61.4958 28.6062 61.5368 28.7204 61.5544C31.4432 61.997 33.3462 63.9518 33.6331 66.6861C33.718 67.5038 33.6477 68.339 33.6477 69.3824L33.6448 69.3882ZM67.6004 30.2133C67.6678 30.2631 67.7322 30.313 67.7995 30.3628C68.7276 29.7649 69.6645 29.1788 70.5779 28.5545C70.698 28.4725 70.7448 28.2146 70.7448 28.0358C70.7565 26.6437 70.7975 25.2487 70.7331 23.8625C70.6628 22.3678 69.9163 21.2453 68.5051 20.709C67.4248 20.2987 66.3679 20.1961 65.2758 20.9728C63.3201 22.3678 60.6676 22.2301 58.6973 20.8057C58.504 20.665 58.3079 20.4804 58.0883 20.4335C55.7608 19.9412 53.6177 21.6058 53.5357 23.9855C53.4888 25.3278 53.5211 26.6701 53.5328 28.0153C53.5328 28.1941 53.5708 28.4578 53.6879 28.5399C54.6189 29.1759 55.5734 29.7766 56.683 30.4888C56.683 29.9789 56.683 29.7386 56.683 29.5012C56.683 28.3787 56.6713 27.2533 56.6888 26.1308C56.7006 25.363 57.1046 24.9292 57.7662 24.9263C58.4162 24.9263 58.8378 25.3689 58.8817 26.1162C58.8963 26.3829 58.8846 26.6525 58.8846 26.9221C58.8846 28.3084 58.8846 29.6946 58.8846 31.0515C60.4627 31.5849 63.4694 31.664 64.9626 31.1834C65.1499 31.1219 65.3607 30.7907 65.3724 30.5738C65.4193 29.721 65.39 28.8652 65.3929 28.0124C65.3929 27.3295 65.3695 26.6437 65.4164 25.9638C65.4632 25.3014 65.9111 24.9234 66.5172 24.9292C67.1291 24.938 67.5272 25.3249 67.5799 25.999C67.6063 26.3389 67.5916 26.6818 67.5946 27.0247C67.5946 28.0886 67.5946 29.1524 67.5946 30.2133H67.6004ZM28.3398 73.7609C29.4113 73.078 30.3189 72.5241 31.1972 71.9262C31.3612 71.8149 31.4871 71.5277 31.49 71.3196C31.5134 69.9275 31.5515 68.5354 31.4812 67.1462C31.4022 65.593 30.6117 64.447 29.1273 63.9342C28.088 63.5766 27.0692 63.4946 26.0269 64.239C24.0536 65.6516 21.4333 65.5197 19.4571 64.0836C19.2639 63.943 19.0648 63.7613 18.8423 63.7114C16.5616 63.178 14.3365 64.9013 14.2809 67.2488C14.2516 68.5911 14.2663 69.9333 14.2809 71.2756C14.2809 71.472 14.3453 71.7563 14.4829 71.85C15.3905 72.4714 16.3244 73.0546 17.4223 73.7579C17.4223 72.445 17.4223 71.4016 17.4223 70.3583C17.4223 70.0418 17.4136 69.7223 17.4282 69.4058C17.4604 68.6468 17.8703 68.1896 18.5056 68.1866C19.1409 68.1837 19.6006 68.6409 19.6152 69.3853C19.6416 70.8507 19.6386 72.3131 19.6181 73.7785C19.6123 74.2151 19.7235 74.4203 20.1949 74.5082C21.9164 74.8335 23.6262 74.8189 25.3564 74.558C26.0327 74.4555 26.1616 74.1624 26.144 73.5557C26.1059 72.2134 26.1235 70.8712 26.1352 69.5289C26.1411 68.6849 26.5744 68.1808 27.2536 68.1837C27.9241 68.1866 28.3281 68.6849 28.331 69.5494C28.3369 70.8653 28.331 72.1841 28.331 73.7609H28.3398ZM41.333 38.3285C41.371 38.1644 41.4003 38.094 41.4003 38.0237C41.4032 34.753 41.3945 31.4823 41.4179 28.2087C41.4208 27.6577 41.1046 27.6665 40.7211 27.6226C39.0757 27.435 37.4274 27.2738 35.7937 27.0071C34.6314 26.8166 33.4955 26.4708 32.3098 26.1865C31.127 30.1635 30.5122 34.1815 30.4712 38.3256H41.333V38.3285ZM54.5633 40.6467H43.6664V51.039C46.7141 51.5548 49.7004 52.0589 52.7569 52.5747C53.9046 48.8175 54.4872 44.8112 54.5633 40.6467ZM43.6605 38.3226H54.6892C54.4462 36.066 54.2208 33.8679 53.9573 31.6787C53.9339 31.4882 53.7026 31.2772 53.5181 31.1541C51.9752 30.1401 50.6578 28.8945 49.5072 27.4526C49.3549 27.2621 48.9919 27.1302 48.7401 27.1507C47.288 27.2797 45.8417 27.4936 44.3866 27.6079C43.804 27.6519 43.602 27.8131 43.6049 28.4227C43.6342 31.4941 43.6166 34.5654 43.6195 37.6368C43.6195 37.8508 43.643 38.0647 43.6576 38.3226H43.6605ZM30.3453 40.6174C30.5795 42.8594 30.7903 44.9929 31.0479 47.1206C31.0772 47.358 31.3143 47.6335 31.531 47.7771C33.0476 48.7882 34.3826 49.9927 35.4717 51.4522C35.7323 51.8039 35.9782 51.8508 36.391 51.7951C37.8373 51.5988 39.2924 51.4259 40.7474 51.3145C41.3096 51.2705 41.4208 51.0566 41.4179 50.5466C41.3974 47.4459 41.4091 44.3453 41.4062 41.2446C41.4062 41.0365 41.3681 40.8284 41.3476 40.6174H30.3423H30.3453ZM41.3623 14.7303C38.537 14.7684 33.7239 20.2753 33.1734 24.0823C35.8201 24.9175 38.5282 25.3864 41.3623 25.4421V14.7303ZM43.6693 64.2038C46.799 63.9371 50.3328 59.5381 51.8903 54.931C50.4587 54.1749 45.2678 53.3103 43.6693 53.5712V64.2038ZM56.4341 32.6517C56.5454 34.3925 56.6742 35.9927 56.7328 37.5958C56.7533 38.1819 56.9084 38.3871 57.5262 38.3812C60.5944 38.349 63.6627 38.3666 66.728 38.3666C66.9388 38.3666 67.1496 38.3373 67.5214 38.3109C67.2462 36.532 66.9798 34.8233 66.7045 33.0473C63.1445 34.0291 59.7922 33.8914 56.4341 32.6546V32.6517ZM18.3065 45.8809C21.8695 44.8904 25.2393 45.0428 28.5945 46.2502C28.4862 44.5358 28.3544 42.9356 28.2959 41.3295C28.2754 40.7229 28.0822 40.5529 27.4849 40.5588C24.4371 40.5881 21.3894 40.5705 18.3416 40.5734C18.1104 40.5734 17.8791 40.5998 17.5131 40.6203C17.7825 42.4022 18.0342 44.0786 18.3065 45.878V45.8809ZM19.2844 57.0001C19.2844 57.9496 19.22 58.8318 19.299 59.6993C19.4483 61.3903 20.6428 62.6476 22.2794 62.9436C23.8253 63.222 25.4091 62.4366 26.103 61.0093C26.7266 59.7227 26.4748 58.3629 26.4602 57.003H19.2844V57.0001ZM65.7179 14.9677C64.0198 15.0879 62.5033 14.786 61.1595 13.8072C61.0511 13.728 60.8433 13.7251 60.7027 13.7632C60.003 13.9508 59.3121 14.1618 58.5597 14.3816C58.4543 16.14 58.3664 17.9629 60.1816 19.1323C61.4669 19.9587 62.8136 19.9675 64.096 19.1381C65.5862 18.1798 65.9024 16.7115 65.7208 14.9677H65.7179ZM47.894 25.0992C47.894 24.9205 47.9116 24.8648 47.894 24.8267C46.5824 22.107 46.1022 19.2378 46.3482 16.2367C46.3599 16.0843 46.3364 15.8469 46.2369 15.7766C45.4786 15.2256 44.6647 14.786 43.6839 14.6776V25.4978C45.1244 25.3601 46.4945 25.2311 47.8998 25.0992H47.894ZM37 53.8554C38.458 56.7744 38.9293 59.6964 38.6775 62.7502C38.6658 62.882 38.701 63.0813 38.7888 63.1429C39.5559 63.688 40.3668 64.1364 41.3418 64.2448V53.4217C39.8926 53.5653 38.5224 53.703 37.0029 53.8554H37ZM58.8436 58.3277C57.1895 57.3547 55.6729 56.4667 54.0832 55.5318C52.8945 58.4889 51.5156 61.1031 49.4867 63.3539C52.9267 62.4366 55.954 60.7719 58.8436 58.3277ZM35.5215 15.5773C32.0902 16.5005 29.0542 18.1534 26.1908 20.5947C27.8333 21.556 29.3645 22.4528 30.9572 23.3877C32.1312 20.4247 33.5072 17.831 35.5215 15.5803V15.5773ZM58.6475 12.163C59.195 11.9403 59.7102 11.7996 60.1523 11.5329C61.0687 10.979 61.3468 10.9732 62.1227 11.7146C63.1357 12.6847 64.3419 12.928 65.7618 12.7169C65.7618 12.1748 65.7823 11.6677 65.7589 11.1637C65.7121 10.1379 65.1089 9.56349 64.0755 9.55177C62.9073 9.54004 61.7333 9.61038 60.5681 9.53418C58.8378 9.41988 58.2903 10.6391 58.6475 12.1601V12.163ZM26.4368 54.7171V52.8092C24.5016 52.8092 22.6278 52.7769 20.7541 52.8209C19.7499 52.8443 19.1965 53.6415 19.3546 54.7141H26.4338L26.4368 54.7171Z" fill="#152296"/>
</g>
<defs>
<clipPath id="clip0_4_701">
<rect width="71" height="75" fill="white" transform="translate(7 2)"/>
</clipPath>
</defs>
</svg>
