<svg width="84" height="84" viewBox="0 0 84 84" fill="none" xmlns="http://www.w3.org/2000/svg">
<g clip-path="url(#clip0_7_73)">
<path d="M65.9273 43.0197C67.4782 42.8836 68.8936 42.9983 70.2666 43.5213C73.5835 44.7888 75.8939 47.9829 75.9921 51.4731C76.0983 55.1982 74.0429 58.5124 70.6888 59.9693C70.2852 60.1454 70.1338 60.3402 70.1365 60.7992C70.163 63.4008 70.155 66.0025 70.1471 68.6015C70.1391 71.7876 67.9907 73.989 64.8279 73.9917C52.0384 74.0024 39.2515 74.0024 26.462 73.9917C23.2726 73.989 21.1375 71.8276 21.1322 68.6282C21.1242 61.4689 21.1242 54.3096 21.1401 47.153C21.1401 46.662 21.002 46.3392 20.6302 46.0163C16.6202 42.5527 12.6262 39.0731 8.62681 35.5962C7.8195 34.8945 7.79029 34.5342 8.49934 33.7097C14.5515 26.6785 20.601 19.65 26.6506 12.6241C27.341 11.8209 27.7128 11.8022 28.5361 12.5147C30.4959 14.2118 32.4637 15.9035 34.405 17.6246C34.7715 17.9502 35.0423 18.0062 35.4965 17.7954C39.1426 16.0957 42.8047 14.4279 46.4615 12.7495C47.5849 12.2345 47.8823 12.3466 48.4001 13.486C49.4544 15.8075 50.522 18.1263 51.5524 20.4585C51.7409 20.8881 51.9613 21.0562 52.4367 21.0455C54.0062 21.0162 55.5783 21.0455 57.1504 21.0268C57.6948 21.0188 58.1171 21.1709 58.5101 21.5685C60.8125 23.9087 63.1283 26.2329 65.4572 28.549C65.8211 28.9119 65.9353 29.3042 65.9353 29.8005C65.9246 33.9125 65.9299 38.0271 65.9299 42.1391C65.9299 42.4006 65.9299 42.6648 65.9299 43.0197H65.9273ZM58.9456 48.3298H58.2127C53.2998 48.3298 48.3895 48.3191 43.4766 48.3378C42.2842 48.3431 41.2671 47.9562 40.3855 47.1824C39.9367 46.7875 39.5064 46.3685 39.0789 45.9496C37.5864 44.4926 36.0993 43.033 34.6095 41.5761C34.0173 40.9971 33.348 40.6395 32.485 40.6475C30.2516 40.6688 28.0155 40.6448 25.7822 40.6582C23.979 40.6688 23.0017 41.6668 23.0017 43.4787C22.9991 51.8387 22.9991 60.1961 23.0017 68.5562C23.0017 70.8136 24.295 72.1185 26.539 72.1211C39.2834 72.1265 52.0277 72.1265 64.7721 72.1211C66.955 72.1211 68.2828 70.7736 68.2881 68.5855C68.2935 66.1626 68.2881 63.7397 68.2881 61.3168C68.2881 61.122 68.2669 60.9272 68.2563 60.7325C61.434 61.3835 56.4414 54.8487 58.9456 48.3325V48.3298ZM37.4616 22.9534C37.4351 23.0762 37.4032 23.1589 37.4032 23.2416C37.4005 29.2668 37.3952 35.292 37.4085 41.3173C37.4085 41.5147 37.5068 41.7629 37.6422 41.899C38.9488 43.1958 40.266 44.482 41.5964 45.7548C42.093 46.2298 42.6932 46.4646 43.4023 46.4646C48.8011 46.4566 54.2 46.4646 59.5989 46.4432C59.8778 46.4432 60.2257 46.2591 60.4195 46.0456C61.3118 45.061 62.3289 44.2472 63.5478 43.7348C63.9807 43.5534 64.0737 43.3239 64.0737 42.8943C64.0604 38.9584 64.0657 35.0225 64.0657 31.0893C64.0657 30.8732 64.0657 30.6571 64.0657 30.3955C63.7815 30.3822 63.5664 30.3635 63.3513 30.3635C62.0235 30.3609 60.6957 30.3769 59.3679 30.3582C57.7347 30.3368 56.6884 29.2802 56.6538 27.6311C56.6352 26.6758 56.6485 25.7179 56.6485 24.7626C56.6485 24.1702 56.6485 23.5778 56.6485 22.9561H37.4643L37.4616 22.9534ZM46.8732 14.628C38.7629 18.3424 30.7004 22.0355 22.6113 25.7392C24.3986 29.6751 26.1991 33.5096 27.8695 37.4001C28.3342 38.4808 28.86 38.8597 30.0418 38.817C31.8848 38.7503 33.8314 38.3874 35.5336 39.9003V38.9584C35.5336 33.4669 35.5336 27.978 35.5336 22.4864C35.5336 21.291 35.7886 21.0322 36.973 21.0322C40.9564 21.0322 44.9372 21.0322 48.9206 21.0322C49.1729 21.0322 49.4226 21.0322 49.7811 21.0322C48.7826 18.8308 47.8425 16.7574 46.8758 14.6254L46.8732 14.628ZM26.4195 38.7076C26.3239 38.4754 26.2389 38.254 26.1407 38.0405C24.3189 34.0219 22.4945 30.006 20.6727 25.99C20.2664 25.0935 20.4125 24.6932 21.2782 24.2956C23.6869 23.1882 26.1008 22.0862 28.5095 20.9815C29.9887 20.3037 31.4652 19.6233 33.0347 18.9028C31.2209 17.3258 29.4761 15.8101 27.7022 14.2705C21.8625 21.0535 16.0705 27.7832 10.26 34.5342C13.8796 37.6776 17.4461 40.7756 21.0658 43.9216C21.5385 40.0284 22.2714 39.3213 26.4195 38.7049V38.7076ZM67.1515 44.8289C63.2478 44.8449 60.154 47.9642 60.1699 51.8707C60.1858 55.7452 63.3168 58.8886 67.1383 58.8699C71.0341 58.8512 74.1624 55.6652 74.1332 51.7453C74.1066 47.9349 70.9517 44.8129 67.1489 44.8289H67.1515ZM58.5154 24.4504C58.5154 25.2215 58.5154 26.0087 58.5154 26.7959C58.5154 27.9237 59.0784 28.4877 60.2044 28.4877C60.9984 28.4877 61.7925 28.4877 62.5307 28.4877C61.179 27.1294 59.8645 25.8086 58.5154 24.4504Z" fill="#152296"/>
<path d="M45.6489 66.3066C51.3558 66.3066 57.0601 66.3066 62.767 66.3066C63.8001 66.3066 64.2276 66.5788 64.2276 67.2352C64.2276 67.8917 63.7842 68.1825 62.7724 68.1825C51.3611 68.1825 39.9499 68.1825 28.5387 68.1825C28.4271 68.1825 28.3182 68.1825 28.2067 68.1825C27.4552 68.1612 27.009 67.7903 27.0303 67.2086C27.0515 66.6509 27.4711 66.312 28.2014 66.312C31.5634 66.3066 34.9254 66.3093 38.2848 66.3093C40.7386 66.3093 43.1951 66.3093 45.6489 66.3093V66.3066Z" fill="#152296"/>
<path d="M32.4903 59.9328C33.927 59.9328 35.3637 59.9274 36.8004 59.9328C37.536 59.9354 37.9344 60.261 37.945 60.8374C37.9556 61.4377 37.5334 61.798 36.7712 61.8006C33.919 61.806 31.0696 61.806 28.2174 61.8006C27.4685 61.8006 27.0197 61.4244 27.0277 60.8427C27.0357 60.2663 27.4765 59.9328 28.2466 59.9301C29.6621 59.9248 31.0749 59.9301 32.4903 59.9301V59.9328Z" fill="#152296"/>
<path d="M50.7449 41.0907C53.7962 41.0907 56.8449 41.0907 59.8962 41.0907C60.1379 41.0907 60.3848 41.0853 60.6238 41.1254C61.1045 41.2081 61.4232 41.5603 61.3488 42.0033C61.2931 42.3288 60.977 42.6543 60.6982 42.8838C60.5442 43.0119 60.2308 42.9612 59.9918 42.9612C53.8254 42.9639 47.6591 42.9639 41.4927 42.9612C41.251 42.9612 41.0014 42.9612 40.773 42.8945C40.3083 42.7611 40.0188 42.3928 40.1569 41.9446C40.2578 41.627 40.5898 41.3415 40.8846 41.1387C41.0545 41.0213 41.3573 41.0907 41.5989 41.0907C44.6502 41.0907 47.6989 41.0907 50.7502 41.0907H50.7449Z" fill="#152296"/>
<path d="M50.753 33.8801C47.6804 33.8801 44.6079 33.8801 41.5353 33.8775C41.2724 33.8775 40.9325 33.9308 40.7625 33.7921C40.489 33.5679 40.157 33.197 40.1703 32.9008C40.1836 32.6073 40.5501 32.2791 40.8369 32.0656C40.9989 31.9429 41.3069 32.0069 41.5486 32.0069C47.6698 32.0069 53.7937 32.0069 59.9149 32.0069C60.924 32.0069 61.3835 32.3058 61.3781 32.9489C61.3728 33.5893 60.9134 33.8828 59.9016 33.8828C56.8503 33.8828 53.8016 33.8828 50.7503 33.8828L50.753 33.8801Z" fill="#152296"/>
<path d="M50.6787 38.4295C47.6513 38.4295 44.6212 38.4295 41.5938 38.4295C41.3309 38.4295 41.06 38.4295 40.805 38.3655C40.335 38.2507 40.1013 37.9199 40.1252 37.4369C40.1491 36.9539 40.4147 36.655 40.8953 36.583C41.0892 36.5536 41.291 36.559 41.4902 36.559C47.6566 36.559 53.8229 36.559 59.9893 36.559C60.1672 36.559 60.3425 36.559 60.5204 36.5723C61.0383 36.6203 61.3384 36.9352 61.3649 37.4342C61.3941 37.9332 61.1232 38.2828 60.6187 38.3842C60.3823 38.4322 60.1354 38.4322 59.8937 38.4322C56.8211 38.4348 53.7486 38.4322 50.676 38.4322L50.6787 38.4295Z" fill="#152296"/>
<path d="M47.1892 29.3263C45.309 29.3263 43.4314 29.3263 41.5513 29.3263C41.3308 29.3263 41.1078 29.329 40.89 29.2943C40.412 29.2169 40.1438 28.9207 40.1252 28.4351C40.1066 27.9174 40.3722 27.5919 40.8741 27.4932C41.0892 27.4505 41.3149 27.4558 41.5327 27.4531C45.2904 27.4531 49.0481 27.4531 52.8058 27.4531C52.8934 27.4531 52.9837 27.4531 53.0714 27.4531C53.8468 27.4771 54.2505 27.8107 54.2372 28.4191C54.2239 29.0035 53.8415 29.321 53.09 29.3237C51.1221 29.3343 49.1543 29.3263 47.1865 29.3263H47.1892Z" fill="#152296"/>
<path d="M65.4624 53.442C67.1274 51.7662 68.6677 50.2132 70.2133 48.6602C70.3832 48.4895 70.5532 48.3 70.7603 48.1826C71.1693 47.9451 71.557 48.0278 71.8783 48.364C72.1359 48.6309 72.205 48.9004 72.1014 49.2953C71.9872 49.4928 71.7827 49.7276 71.6579 49.853C69.9105 51.6115 68.1631 53.3699 66.4131 55.1257C65.7173 55.8249 65.3136 55.8275 64.6285 55.1471C63.938 54.4613 63.2502 53.7702 62.5677 53.0764C62.0711 52.5668 62.018 52.0197 62.411 51.6168C62.82 51.1979 63.3511 51.2272 63.8637 51.7422C64.3921 52.2732 64.8914 52.8336 65.4597 53.4447L65.4624 53.442Z" fill="#152296"/>
</g>
<defs>
<clipPath id="clip0_7_73">
<rect width="68" height="62" fill="white" transform="translate(8 12)"/>
</clipPath>
</defs>
</svg>
