<svg width="89" height="88" viewBox="0 0 89 88" fill="none" xmlns="http://www.w3.org/2000/svg">
<g clip-path="url(#clip0_7_19)">
<path d="M46.021 19.3822C60.1572 19.3951 71.5982 30.8399 71.6112 44.9798C71.6241 59.1424 60.1345 70.6261 45.9692 70.6099C31.8039 70.5937 20.3305 59.0809 20.3791 44.928C20.4276 30.7751 31.8784 19.3692 46.021 19.3789V19.3822ZM69.3372 45.0187C69.3502 32.1389 58.9327 21.6821 46.0599 21.6562C33.1353 21.6303 22.6692 32.0547 22.6563 44.9733C22.6401 57.8499 33.0608 68.3099 45.9336 68.3391C58.8517 68.3682 69.3243 57.9341 69.3405 45.0219L69.3372 45.0187Z" fill="#152296"/>
<path d="M13.2399 46.1341C11.3352 46.1341 9.47908 46.1341 7.62298 46.1341C7.35412 46.1341 7.06907 46.1568 6.82288 46.079C6.28193 45.9073 5.95476 45.5121 6.00659 44.9258C6.05842 44.3103 6.43741 43.8924 7.04963 43.886C9.53091 43.8568 12.0122 43.8536 14.4935 43.8892C15.1996 43.8989 15.5333 44.4334 15.543 45.3502C15.5656 48.2267 15.9446 51.058 16.8257 53.792C20.2755 64.495 27.4537 71.356 38.2437 74.4658C38.5028 74.5403 38.7717 74.5824 39.0276 74.6634C39.7338 74.8902 40.0642 75.4441 39.886 76.0823C39.7078 76.7139 39.1248 77.08 38.4186 76.8468C36.3001 76.1438 34.1039 75.5834 32.1118 74.6116C21.798 69.5743 15.679 61.3204 13.6448 50.0343C13.5314 49.3994 13.4893 48.7515 13.4245 48.1069C13.3629 47.4914 13.3111 46.8727 13.2431 46.1373L13.2399 46.1341Z" fill="#152296"/>
<path d="M44.8581 12.2402C44.8581 10.3419 44.8581 8.48574 44.8581 6.62956C44.8581 6.38661 44.8322 6.13394 44.8905 5.90394C45.0428 5.31437 45.4379 4.96128 46.0631 5.00339C46.6786 5.0455 47.0997 5.42775 47.1094 6.03999C47.1386 8.52137 47.145 11.006 47.1094 13.4874C47.0997 14.1968 46.5652 14.5337 45.6485 14.5402C42.772 14.5628 39.9442 14.9451 37.2037 15.8262C26.4948 19.2729 19.6372 26.4546 16.5276 37.245C16.453 37.5042 16.4109 37.7731 16.33 38.029C16.1064 38.7384 15.5428 39.0753 14.9144 38.8939C14.2763 38.7125 13.9102 38.1326 14.1435 37.4297C14.8529 35.2852 15.4165 33.0598 16.4045 31.0449C21.4512 20.7727 29.6919 14.6665 40.9516 12.6386C41.5865 12.5253 42.2343 12.4831 42.8789 12.4184C43.4944 12.3568 44.1131 12.305 44.8581 12.2369V12.2402Z" fill="#152296"/>
<path d="M78.7537 43.859C80.7944 43.859 82.7607 43.859 84.7269 43.859C85.378 43.859 85.8315 44.1474 85.9708 44.7855C86.0971 45.3556 85.825 45.7994 85.297 46.023C85.0605 46.1234 84.7722 46.1299 84.5066 46.1299C82.3201 46.1363 80.1369 46.1396 77.9504 46.1299C76.8393 46.1299 76.47 45.7508 76.4473 44.6106C76.2951 36.8814 73.6745 30.1143 68.4755 24.3903C64.4556 19.9653 59.4931 17.0498 53.7142 15.5241C53.4551 15.4561 53.1862 15.4107 52.9303 15.3232C52.2857 15.0997 51.9521 14.6624 52.0978 13.9595C52.2339 13.3116 52.8267 12.9293 53.5263 13.1367C55.201 13.6355 56.9211 14.0534 58.5116 14.7596C69.7842 19.758 76.4344 28.365 78.4103 40.5549C78.4978 41.0861 78.5367 41.6239 78.5917 42.1616C78.6468 42.6961 78.6922 43.2274 78.7537 43.8558V43.859Z" fill="#152296"/>
<path d="M47.132 77.7754C47.132 79.7967 47.132 81.7631 47.132 83.7294C47.132 84.3805 46.8372 84.834 46.2023 84.97C45.6322 85.0931 45.1885 84.8243 44.9682 84.293C44.8678 84.0565 44.8645 83.7682 44.8645 83.5026C44.8581 81.3193 44.8548 79.1327 44.8645 76.9461C44.8645 75.835 45.2435 75.4624 46.3837 75.4495C51.3528 75.3847 56.0562 74.2347 60.4162 71.857C68.1548 67.6328 73.1433 61.2124 75.4723 52.7154C75.5436 52.4563 75.5857 52.1874 75.6731 51.9347C75.8966 51.2901 76.3372 50.9564 77.0369 51.1022C77.6815 51.2383 78.0669 51.8343 77.8564 52.5308C77.3575 54.2056 76.9364 55.9257 76.2303 57.5162C71.2224 68.7796 62.6286 75.4495 50.4328 77.4093C49.3736 77.581 48.2981 77.649 47.1353 77.7754H47.132Z" fill="#152296"/>
<path d="M28.2148 44.9537C28.2861 35.0639 36.3324 27.1274 46.2024 27.2116C55.8554 27.2958 63.8402 35.3587 63.7721 44.9537C63.7009 54.9408 55.7355 62.8384 45.7943 62.7736C36.1348 62.7089 28.1468 54.6136 28.2148 44.9537ZM61.5014 45.0898C61.6601 36.7419 54.7249 29.6476 46.2542 29.4889C37.7479 29.3302 30.6604 36.188 30.492 44.7335C30.3235 53.3017 37.2037 60.3441 45.8979 60.4931C54.3427 60.6389 61.3395 53.7325 61.5014 45.0866V45.0898Z" fill="#152296"/>
<path d="M44.1003 46.4861C46.0017 44.7239 47.7833 43.075 49.5617 41.4229C49.7593 41.2383 49.931 41.0277 50.1318 40.8495C50.6501 40.3895 51.2169 40.3345 51.7223 40.8269C52.2211 41.316 52.2017 41.8926 51.7514 42.4174C51.4178 42.8061 51.0453 43.1592 50.6889 43.5253C48.9592 45.3037 47.2326 47.0854 45.4996 48.8573C44.6736 49.7028 44.1618 49.6996 43.3229 48.867C42.3673 47.9179 41.4117 46.9655 40.4658 46.0067C39.8309 45.362 39.7694 44.6558 40.2909 44.1699C40.7995 43.6937 41.4311 43.7618 42.0628 44.3934C42.824 45.1515 43.5626 45.9289 44.1068 46.4861H44.1003Z" fill="#152296"/>
</g>
<defs>
<clipPath id="clip0_7_19">
<rect width="80" height="80" fill="white" transform="translate(6 5)"/>
</clipPath>
</defs>
</svg>
