<svg width="76" height="76" viewBox="0 0 76 76" fill="none" xmlns="http://www.w3.org/2000/svg">
<path d="M66.7295 56.4188V21.0599C66.7295 19.6167 65.5569 18.3539 64.0235 18.3539H58.2506V12.581C58.2506 11.1378 57.078 9.875 55.5446 9.875H27.2214C25.7782 9.875 24.5154 11.0476 24.5154 12.581V18.4441H12.248C10.8048 18.4441 9.54199 19.6167 9.54199 21.1501C9.54199 33.7783 9.54199 43.4298 9.54199 56.509C9.54199 57.9522 10.7146 59.215 12.248 59.215H32.0021C31.5511 61.019 29.9274 62.3721 28.0332 62.3721C27.492 62.3721 27.1312 62.7329 27.1312 63.2741V66.7017C27.1312 67.2429 27.492 67.6037 28.0332 67.6037H48.3285C48.8697 67.6037 49.2305 67.2429 49.2305 66.7017V63.1839C49.2305 62.6427 48.8697 62.2818 48.3285 62.2818C46.344 62.2818 44.7204 60.9288 44.3596 59.1248H64.1137C65.5569 59.1248 66.7295 57.862 66.7295 56.4188ZM47.3363 63.9957V65.7997H28.9352V63.9957C31.4609 63.6349 33.4453 61.5602 33.8963 59.0346H42.4654C42.8262 61.6504 44.8106 63.6349 47.3363 63.9957ZM27.2214 11.679H55.6348C56.0858 11.679 56.5368 12.0398 56.5368 12.581V40.5434C56.5368 41.8062 55.4544 42.8886 54.1915 42.8886H25.5978C26.0488 42.2572 26.3194 41.4454 26.3194 40.5434C26.3194 13.8438 26.3194 62.6427 26.3194 12.4908C26.3194 12.0398 26.6802 11.679 27.2214 11.679ZM24.5154 40.5434C24.5154 41.8062 23.433 42.8886 22.1701 42.8886C20.9073 42.8886 19.8249 41.8062 19.8249 40.5434V37.2961H24.5154C24.5154 37.8373 24.5154 40.7238 24.5154 40.5434ZM12.248 20.2481H24.5154V35.5823H18.9229C18.3817 35.5823 18.0209 35.9431 18.0209 36.4843V40.5434C18.0209 42.7984 19.9151 44.6926 22.1701 44.6926C22.2603 44.6926 22.2603 44.6926 22.2603 44.6926H22.3506H54.1013C56.3564 44.6926 58.2506 42.7984 58.2506 40.5434V20.2481H64.0235C64.4745 20.2481 64.9255 20.6089 64.9255 21.1501V49.0223H11.346V21.0599C11.346 20.6089 11.7068 20.2481 12.248 20.2481ZM11.346 56.4188V50.7361H64.9255V56.4188C64.9255 56.8698 64.5647 57.3208 64.0235 57.3208H12.248C11.7068 57.3208 11.346 56.96 11.346 56.4188Z" fill="#152296"/>
<path d="M39.9417 53.1719H36.3337C35.7924 53.1719 35.4316 53.5327 35.4316 54.0739C35.4316 54.6151 35.7924 54.9759 36.3337 54.9759H39.9417C40.4829 54.9759 40.8437 54.6151 40.8437 54.0739C40.8437 53.5327 40.3927 53.1719 39.9417 53.1719Z" fill="#152296"/>
<path d="M24.6963 53.1719H22.8922C22.351 53.1719 21.9902 53.5327 21.9902 54.0739C21.9902 54.6151 22.351 54.9759 22.8922 54.9759H24.6963C25.2375 54.9759 25.5983 54.6151 25.5983 54.0739C25.5983 53.5327 25.2375 53.1719 24.6963 53.1719Z" fill="#152296"/>
<path d="M17.5703 53.1719H15.7663C15.2251 53.1719 14.8643 53.5327 14.8643 54.0739C14.8643 54.6151 15.2251 54.9759 15.7663 54.9759H17.5703C18.1115 54.9759 18.4723 54.6151 18.4723 54.0739C18.4723 53.5327 18.1115 53.1719 17.5703 53.1719Z" fill="#152296"/>
<path d="M30.1989 17.4515H52.5688C53.11 17.4515 53.4708 17.0907 53.4708 16.5495C53.4708 16.0083 53.11 15.6475 52.5688 15.6475H30.1989C29.6577 15.6475 29.2969 16.0083 29.2969 16.5495C29.2969 17.0907 29.7479 17.4515 30.1989 17.4515Z" fill="#152296"/>
<path d="M52.5691 22.8643H40.2116C39.6704 22.8643 39.3096 23.2251 39.3096 23.7663C39.3096 24.3075 39.6704 24.6683 40.2116 24.6683H52.5691C53.1103 24.6683 53.4711 24.3075 53.4711 23.7663C53.4711 23.2251 53.0201 22.8643 52.5691 22.8643Z" fill="#152296"/>
<path d="M30.1989 24.6683H35.1599C35.7012 24.6683 36.062 24.3075 36.062 23.7663C36.062 23.2251 35.7012 22.8643 35.1599 22.8643H30.1989C29.6577 22.8643 29.2969 23.2251 29.2969 23.7663C29.2969 24.3075 29.7479 24.6683 30.1989 24.6683Z" fill="#152296"/>
<path d="M52.5696 29.9902H48.9616C48.4204 29.9902 48.0596 30.351 48.0596 30.8922C48.0596 31.4335 48.4204 31.7943 48.9616 31.7943H52.5696C53.1108 31.7943 53.4716 31.4335 53.4716 30.8922C53.4716 30.351 53.0206 29.9902 52.5696 29.9902Z" fill="#152296"/>
<path d="M30.1989 31.7943H43.5487C44.0899 31.7943 44.4507 31.4335 44.4507 30.8922C44.4507 30.351 44.0899 29.9902 43.5487 29.9902H30.1989C29.6577 29.9902 29.2969 30.351 29.2969 30.8922C29.2969 31.3433 29.7479 31.7943 30.1989 31.7943Z" fill="#152296"/>
<path d="M52.5678 37.1152H42.0143C41.4731 37.1152 41.1123 37.476 41.1123 38.0172C41.1123 38.5585 41.4731 38.9193 42.0143 38.9193H52.5678C53.1091 38.9193 53.4699 38.5585 53.4699 38.0172C53.4699 37.5662 53.0189 37.1152 52.5678 37.1152Z" fill="#152296"/>
<path d="M30.1989 38.9202H37.0542C37.5954 38.9202 37.9562 38.5594 37.9562 38.0182C37.9562 37.477 37.5954 37.1162 37.0542 37.1162H30.1989C29.6577 37.1162 29.2969 37.477 29.2969 38.0182C29.2969 38.5594 29.7479 38.9202 30.1989 38.9202Z" fill="#152296"/>
</svg>
