<svg width="84" height="85" viewBox="0 0 84 85" fill="none" xmlns="http://www.w3.org/2000/svg">
<g clip-path="url(#clip0_4_714)">
<path d="M42.4834 75.9977C36.9465 75.9977 31.4096 76.0108 25.8701 75.9951C17.748 75.9741 11.0257 70.5234 9.35889 62.5815C9.12339 61.4589 9.02396 60.2918 9.02134 59.143C8.99779 48.0453 8.99517 36.9475 9.01087 25.8497C9.02134 17.4054 15.0004 10.4552 23.3346 9.18087C24.1928 9.05003 25.072 9.01077 25.9408 9.01077C36.9727 9.00031 48.002 8.99769 59.0339 9.00554C67.5721 9.01339 74.4252 14.8436 75.8094 23.2827C75.9533 24.1593 75.99 25.0621 75.99 25.9544C76.0004 36.9868 76.0056 48.0165 75.9952 59.0488C75.9873 67.5717 70.1286 74.4485 61.7003 75.8093C60.7792 75.9584 59.8346 75.9846 58.8978 75.9872C53.4263 76.0029 47.9549 75.9951 42.4808 75.9951L42.4834 75.9977ZM42.4337 72.8523C48.0151 72.8523 53.5964 72.868 59.1778 72.8471C66.8185 72.8183 72.8316 66.8154 72.8473 59.177C72.8683 48.0583 72.8683 36.937 72.8473 25.8183C72.8342 18.18 66.8185 12.164 59.1804 12.1509C48.0622 12.13 36.9413 12.13 25.823 12.1509C18.1849 12.164 12.1666 18.1852 12.1535 25.8157C12.1352 36.9344 12.1404 48.0557 12.164 59.1744C12.164 60.1897 12.2765 61.2286 12.5015 62.2177C13.9381 68.5111 19.352 72.8235 25.8204 72.8471C31.3573 72.8654 36.8968 72.8497 42.4337 72.8497V72.8523Z" fill="#152296"/>
<path d="M56.6134 54.0449V44.1404H59.7377V59.7338H44.1449V56.6303H54.2322C45.6076 48.0054 37.0145 39.4119 28.4161 30.8132V40.859H25.2734V25.2734H40.8584V28.3508H30.9202C39.4872 36.9181 48.0804 45.5116 56.616 54.0475L56.6134 54.0449Z" fill="#152296"/>
</g>
<defs>
<clipPath id="clip0_4_714">
<rect width="67" height="67" fill="white" transform="translate(9 9)"/>
</clipPath>
</defs>
</svg>
