<svg width="85" height="84" viewBox="0 0 85 84" fill="none" xmlns="http://www.w3.org/2000/svg">
<mask id="path-1-inside-1_7_8" fill="white">
<path fill-rule="evenodd" clip-rule="evenodd" d="M26.5708 19.2581H23.2286V22.807H26.5708V19.2581ZM22.1659 17.1552H27.6306C28.2167 17.1552 28.6933 17.6244 28.6933 18.2051V23.8569C28.6933 24.4376 28.2167 24.9069 27.6306 24.9069H22.1659C21.5827 24.9069 21.1061 24.4376 21.1061 23.8569V18.2051C21.1061 17.6244 21.5827 17.1552 22.1659 17.1552ZM30.9584 19.918C30.3722 19.918 29.8986 19.4458 29.8986 18.8651C29.8986 18.2844 30.3722 17.8152 30.9584 17.8152H43.3119C43.8981 17.8152 44.3717 18.2844 44.3717 18.8651C44.3717 19.4458 43.8981 19.918 43.3119 19.918H30.9584ZM30.9584 24.247V24.2441C30.3722 24.2441 29.8986 23.7748 29.8986 23.1941C29.8986 22.6134 30.3722 22.1442 30.9584 22.1442H46.219C46.8052 22.1442 47.2818 22.6134 47.2818 23.1941C47.2818 23.7748 46.8051 24.2441 46.219 24.2441L30.9584 24.247ZM56.8554 34.1167V28.8228C56.8554 28.245 57.332 27.7728 57.9181 27.7728C61.4527 27.7728 64.3212 30.6118 64.3212 34.1167C64.3212 34.6975 63.8446 35.1667 63.2615 35.1667H57.9151C57.3319 35.1667 56.8554 34.6974 56.8554 34.1167ZM58.9779 30.0047V33.0667H62.0685C61.6777 31.5621 60.4966 30.3918 58.9779 30.0047ZM53.9336 37.0174V32.9053C52.4415 33.2808 51.2693 34.4246 50.8637 35.894C50.4552 37.3634 50.8755 38.9384 51.9649 40.0178C53.0514 41.0971 54.641 41.5136 56.1271 41.1088C57.6102 40.707 58.7619 39.5456 59.1437 38.0673H54.9904C54.4042 38.0673 53.9306 37.5981 53.9306 37.0174H53.9336ZM56.0561 31.7234L56.0532 31.7204C56.0532 31.1397 55.5795 30.6676 54.9934 30.6676C52.4031 30.6676 50.0674 32.2161 49.0757 34.586C48.084 36.9558 48.6346 39.6864 50.4641 41.5019C52.2965 43.3144 55.0526 43.8599 57.4445 42.8774C59.8364 41.8948 61.3995 39.5808 61.3995 37.0144C61.3995 36.4337 60.9229 35.9645 60.3368 35.9645H56.0503V31.7234L56.0561 31.7234ZM27.4241 61.9564H24.9226V67.1038H27.4241V61.9564ZM23.8628 59.8535H28.4869H28.4839C29.0701 59.8535 29.5466 60.3228 29.5466 60.9035V68.1507C29.5466 68.7315 29.07 69.2036 28.4839 69.2036H23.8599H23.8628C23.2767 69.2036 22.8001 68.7314 22.8001 68.1507V60.9035C22.8001 60.3227 23.2767 59.8535 23.8628 59.8535ZM35.6268 59.5221H33.1253V67.101H35.6268V59.5221ZM32.0656 57.4192H36.6896C37.2758 57.4192 37.7494 57.8914 37.7494 58.472V68.151C37.7494 68.7318 37.2757 69.2039 36.6896 69.2039H32.0656C31.4794 69.2039 31.0058 68.7317 31.0058 68.151V58.472C31.0058 57.8913 31.4794 57.4221 32.0656 57.4221V57.4192ZM43.8296 53.1517H41.3281L41.331 67.1007H43.8325L43.8296 53.1547V53.1517ZM40.2683 51.0488V51.0517C39.6822 51.0517 39.2085 51.5239 39.2085 52.1017V68.1507C39.2085 68.7315 39.6822 69.2036 40.2683 69.2036H44.8924C45.4785 69.2036 45.9521 68.7314 45.9521 68.1507V52.1047C45.9521 51.524 45.4785 51.0547 44.8924 51.0547L40.2683 51.0488ZM23.1699 56.1755L30.5825 50.7056L33.3356 52.7381C33.7174 53.0167 34.2385 53.0108 34.6144 52.7234L45.6297 44.5964C45.8813 44.4409 46.0559 44.1887 46.1122 43.8983C46.1684 43.6109 46.1004 43.3118 45.9227 43.0742C45.7451 42.8395 45.4787 42.687 45.1827 42.6548C44.8866 42.6254 44.5906 42.7193 44.3686 42.9128L33.9657 50.5886L31.2303 48.5737C30.8544 48.2863 30.3333 48.2804 29.9515 48.559L21.9085 54.4894C21.4555 54.8384 21.3638 55.4837 21.7072 55.9412C22.0506 56.4017 22.6989 56.5014 23.1696 56.1729L23.1699 56.1755ZM68.288 57.3692V61.7247L68.698 61.7247C70.6044 61.7774 72.092 61.5428 73.9245 61.0295C74.925 60.7128 75.5437 60.4195 75.5437 60.223V56.199C73.2288 57.0612 70.7599 57.2186 68.2851 57.1277L68.288 57.3692ZM68.288 50.9197V55.2751V54.9539C70.1944 55.0067 72.092 55.0904 73.9245 54.58C74.928 54.2603 75.5408 53.97 75.5437 53.7706V49.7465C73.2288 50.6117 71.1728 51.0136 68.698 50.9197L68.288 50.9197ZM68.288 44.4702L68.4911 48.8273L68.2851 48.8227C70.1915 48.8755 72.092 48.6409 73.9245 48.1276C74.928 47.8079 75.5408 47.5175 75.5437 47.3181V43.297C73.2288 44.1622 70.9659 44.5611 68.4911 44.4702L68.288 44.4702ZM68.288 39.3698L68.4911 42.3748C70.3975 42.4276 72.092 42.1913 73.9245 41.678C74.925 41.3613 75.5437 41.068 75.5437 40.8715C75.5437 40.675 74.925 40.3817 73.9245 40.0649C72.092 39.5517 70.6044 39.317 68.698 39.3698L68.288 39.3698ZM66.1654 23.2734V71.4033L18.3979 71.4004V12.6094H56.3847V22.2291C56.3847 22.8098 56.8584 23.279 57.4445 23.279L66.1654 23.2734ZM64.8304 21.1705L58.5041 14.2693V21.1705H64.8304ZM16.2754 45.2557C14.6294 45.2616 12.9895 45.4933 11.4086 45.945C10.408 46.2617 9.78931 46.555 9.78931 46.7515C9.78931 46.948 10.408 47.2413 11.4086 47.5581C12.9894 48.0097 14.6294 48.2414 16.2754 48.2473V45.2557ZM9.78931 53.201C9.78931 53.3976 10.408 53.6908 11.4086 54.0076C12.9894 54.4593 14.6294 54.691 16.2754 54.6968V50.3473C14.0581 50.3648 11.8586 49.9689 9.78931 49.1799V53.201ZM9.78931 59.6506C9.78931 59.8471 10.408 60.1403 11.4086 60.4571C12.9894 60.9088 14.6294 61.1405 16.2754 61.1463V56.7997C14.0581 56.8144 11.8586 56.4184 9.78931 55.6294V59.6506ZM16.2754 69.699C14.4134 69.6872 12.5573 69.4203 10.7692 68.9012C8.85982 68.2999 7.66675 67.3174 7.66675 66.1002V46.7512C7.66675 45.5341 8.85974 44.5544 10.7692 43.9502V43.9473C12.5573 43.4311 14.4134 43.1613 16.2754 43.1525V11.5529C16.2754 10.9722 16.752 10.5 17.3381 10.5H57.4447C57.7644 10.5 58.0693 10.6437 58.2705 10.893L67.9717 21.4723V21.4693C68.1759 21.6688 68.2884 21.9386 68.2884 22.2202V37.2691C70.4081 37.2163 72.5246 37.4862 74.5643 38.0669C76.4737 38.6681 77.6667 39.6507 77.6667 40.8679V60.2169C77.6667 61.434 76.4737 62.4136 74.5643 63.0178V63.0208C72.5246 63.6015 70.408 63.8713 68.2854 63.8185V72.4471C68.2854 73.0278 67.8118 73.5 67.2256 73.5H17.3384C16.7522 73.5 16.2757 73.0278 16.2757 72.4471L16.2754 69.699ZM9.78931 66.1031C9.78931 66.3055 10.4021 66.5929 11.4086 66.9126C12.9894 67.3614 14.6294 67.596 16.2754 67.6019V63.2493C14.0581 63.264 11.8586 62.8681 9.78931 62.082V66.1031Z"/>
</mask>
<path fill-rule="evenodd" clip-rule="evenodd" d="M26.5708 19.2581H23.2286V22.807H26.5708V19.2581ZM22.1659 17.1552H27.6306C28.2167 17.1552 28.6933 17.6244 28.6933 18.2051V23.8569C28.6933 24.4376 28.2167 24.9069 27.6306 24.9069H22.1659C21.5827 24.9069 21.1061 24.4376 21.1061 23.8569V18.2051C21.1061 17.6244 21.5827 17.1552 22.1659 17.1552ZM30.9584 19.918C30.3722 19.918 29.8986 19.4458 29.8986 18.8651C29.8986 18.2844 30.3722 17.8152 30.9584 17.8152H43.3119C43.8981 17.8152 44.3717 18.2844 44.3717 18.8651C44.3717 19.4458 43.8981 19.918 43.3119 19.918H30.9584ZM30.9584 24.247V24.2441C30.3722 24.2441 29.8986 23.7748 29.8986 23.1941C29.8986 22.6134 30.3722 22.1442 30.9584 22.1442H46.219C46.8052 22.1442 47.2818 22.6134 47.2818 23.1941C47.2818 23.7748 46.8051 24.2441 46.219 24.2441L30.9584 24.247ZM56.8554 34.1167V28.8228C56.8554 28.245 57.332 27.7728 57.9181 27.7728C61.4527 27.7728 64.3212 30.6118 64.3212 34.1167C64.3212 34.6975 63.8446 35.1667 63.2615 35.1667H57.9151C57.3319 35.1667 56.8554 34.6974 56.8554 34.1167ZM58.9779 30.0047V33.0667H62.0685C61.6777 31.5621 60.4966 30.3918 58.9779 30.0047ZM53.9336 37.0174V32.9053C52.4415 33.2808 51.2693 34.4246 50.8637 35.894C50.4552 37.3634 50.8755 38.9384 51.9649 40.0178C53.0514 41.0971 54.641 41.5136 56.1271 41.1088C57.6102 40.707 58.7619 39.5456 59.1437 38.0673H54.9904C54.4042 38.0673 53.9306 37.5981 53.9306 37.0174H53.9336ZM56.0561 31.7234L56.0532 31.7204C56.0532 31.1397 55.5795 30.6676 54.9934 30.6676C52.4031 30.6676 50.0674 32.2161 49.0757 34.586C48.084 36.9558 48.6346 39.6864 50.4641 41.5019C52.2965 43.3144 55.0526 43.8599 57.4445 42.8774C59.8364 41.8948 61.3995 39.5808 61.3995 37.0144C61.3995 36.4337 60.9229 35.9645 60.3368 35.9645H56.0503V31.7234L56.0561 31.7234ZM27.4241 61.9564H24.9226V67.1038H27.4241V61.9564ZM23.8628 59.8535H28.4869H28.4839C29.0701 59.8535 29.5466 60.3228 29.5466 60.9035V68.1507C29.5466 68.7315 29.07 69.2036 28.4839 69.2036H23.8599H23.8628C23.2767 69.2036 22.8001 68.7314 22.8001 68.1507V60.9035C22.8001 60.3227 23.2767 59.8535 23.8628 59.8535ZM35.6268 59.5221H33.1253V67.101H35.6268V59.5221ZM32.0656 57.4192H36.6896C37.2758 57.4192 37.7494 57.8914 37.7494 58.472V68.151C37.7494 68.7318 37.2757 69.2039 36.6896 69.2039H32.0656C31.4794 69.2039 31.0058 68.7317 31.0058 68.151V58.472C31.0058 57.8913 31.4794 57.4221 32.0656 57.4221V57.4192ZM43.8296 53.1517H41.3281L41.331 67.1007H43.8325L43.8296 53.1547V53.1517ZM40.2683 51.0488V51.0517C39.6822 51.0517 39.2085 51.5239 39.2085 52.1017V68.1507C39.2085 68.7315 39.6822 69.2036 40.2683 69.2036H44.8924C45.4785 69.2036 45.9521 68.7314 45.9521 68.1507V52.1047C45.9521 51.524 45.4785 51.0547 44.8924 51.0547L40.2683 51.0488ZM23.1699 56.1755L30.5825 50.7056L33.3356 52.7381C33.7174 53.0167 34.2385 53.0108 34.6144 52.7234L45.6297 44.5964C45.8813 44.4409 46.0559 44.1887 46.1122 43.8983C46.1684 43.6109 46.1004 43.3118 45.9227 43.0742C45.7451 42.8395 45.4787 42.687 45.1827 42.6548C44.8866 42.6254 44.5906 42.7193 44.3686 42.9128L33.9657 50.5886L31.2303 48.5737C30.8544 48.2863 30.3333 48.2804 29.9515 48.559L21.9085 54.4894C21.4555 54.8384 21.3638 55.4837 21.7072 55.9412C22.0506 56.4017 22.6989 56.5014 23.1696 56.1729L23.1699 56.1755ZM68.288 57.3692V61.7247L68.698 61.7247C70.6044 61.7774 72.092 61.5428 73.9245 61.0295C74.925 60.7128 75.5437 60.4195 75.5437 60.223V56.199C73.2288 57.0612 70.7599 57.2186 68.2851 57.1277L68.288 57.3692ZM68.288 50.9197V55.2751V54.9539C70.1944 55.0067 72.092 55.0904 73.9245 54.58C74.928 54.2603 75.5408 53.97 75.5437 53.7706V49.7465C73.2288 50.6117 71.1728 51.0136 68.698 50.9197L68.288 50.9197ZM68.288 44.4702L68.4911 48.8273L68.2851 48.8227C70.1915 48.8755 72.092 48.6409 73.9245 48.1276C74.928 47.8079 75.5408 47.5175 75.5437 47.3181V43.297C73.2288 44.1622 70.9659 44.5611 68.4911 44.4702L68.288 44.4702ZM68.288 39.3698L68.4911 42.3748C70.3975 42.4276 72.092 42.1913 73.9245 41.678C74.925 41.3613 75.5437 41.068 75.5437 40.8715C75.5437 40.675 74.925 40.3817 73.9245 40.0649C72.092 39.5517 70.6044 39.317 68.698 39.3698L68.288 39.3698ZM66.1654 23.2734V71.4033L18.3979 71.4004V12.6094H56.3847V22.2291C56.3847 22.8098 56.8584 23.279 57.4445 23.279L66.1654 23.2734ZM64.8304 21.1705L58.5041 14.2693V21.1705H64.8304ZM16.2754 45.2557C14.6294 45.2616 12.9895 45.4933 11.4086 45.945C10.408 46.2617 9.78931 46.555 9.78931 46.7515C9.78931 46.948 10.408 47.2413 11.4086 47.5581C12.9894 48.0097 14.6294 48.2414 16.2754 48.2473V45.2557ZM9.78931 53.201C9.78931 53.3976 10.408 53.6908 11.4086 54.0076C12.9894 54.4593 14.6294 54.691 16.2754 54.6968V50.3473C14.0581 50.3648 11.8586 49.9689 9.78931 49.1799V53.201ZM9.78931 59.6506C9.78931 59.8471 10.408 60.1403 11.4086 60.4571C12.9894 60.9088 14.6294 61.1405 16.2754 61.1463V56.7997C14.0581 56.8144 11.8586 56.4184 9.78931 55.6294V59.6506ZM16.2754 69.699C14.4134 69.6872 12.5573 69.4203 10.7692 68.9012C8.85982 68.2999 7.66675 67.3174 7.66675 66.1002V46.7512C7.66675 45.5341 8.85974 44.5544 10.7692 43.9502V43.9473C12.5573 43.4311 14.4134 43.1613 16.2754 43.1525V11.5529C16.2754 10.9722 16.752 10.5 17.3381 10.5H57.4447C57.7644 10.5 58.0693 10.6437 58.2705 10.893L67.9717 21.4723V21.4693C68.1759 21.6688 68.2884 21.9386 68.2884 22.2202V37.2691C70.4081 37.2163 72.5246 37.4862 74.5643 38.0669C76.4737 38.6681 77.6667 39.6507 77.6667 40.8679V60.2169C77.6667 61.434 76.4737 62.4136 74.5643 63.0178V63.0208C72.5246 63.6015 70.408 63.8713 68.2854 63.8185V72.4471C68.2854 73.0278 67.8118 73.5 67.2256 73.5H17.3384C16.7522 73.5 16.2757 73.0278 16.2757 72.4471L16.2754 69.699ZM9.78931 66.1031C9.78931 66.3055 10.4021 66.5929 11.4086 66.9126C12.9894 67.3614 14.6294 67.596 16.2754 67.6019V63.2493C14.0581 63.264 11.8586 62.8681 9.78931 62.082V66.1031Z" fill="#152296" stroke="#ECECFF" stroke-width="0.6" mask="url(#path-1-inside-1_7_8)"/>
</svg>
