<svg width="46" height="44" viewBox="0 0 46 44" fill="none" xmlns="http://www.w3.org/2000/svg">
<g clip-path="url(#clip0_4_299)">
<path d="M28.5296 34.4334C24.8094 34.4334 21.0911 34.4388 17.3709 34.4334C14.6296 34.428 12.5535 32.533 12.3402 29.8043C12.2989 29.279 12.4011 28.734 12.5015 28.2105C12.6199 27.5812 12.8117 26.9662 12.9623 26.3441C13.1828 25.4387 13.1667 24.5369 12.8727 23.6495C10.7912 17.396 8.70787 11.1444 6.62279 4.89272C6.37359 4.1451 5.9451 3.84569 5.14728 3.8439C4.10205 3.84032 3.05683 3.84749 2.0098 3.84211C0.855213 3.83494 0.00540435 3.02457 2.58202e-05 1.9399C-0.00535271 0.851643 0.830113 0.019763 1.9865 0.0107988C3.83851 -0.00533684 5.69052 -0.00175115 7.54252 0.0107988C8.54652 0.0179701 9.18298 0.500246 9.50927 1.46659C10.0722 3.13393 10.6262 4.80307 11.1856 6.47221C11.4993 7.41166 11.8651 7.67162 12.8691 7.67342C22.9072 7.67342 32.9453 7.67342 42.9835 7.677C43.2793 7.677 43.5895 7.67521 43.8709 7.75051C44.9556 8.04454 45.5006 9.13638 45.1313 10.2712C44.5199 12.1412 43.8942 14.0075 43.2721 15.8739C42.2359 18.9845 41.1978 22.0969 40.1597 25.2074C39.7779 26.3549 39.1755 26.7923 37.9725 26.7923C31.3407 26.7923 24.7072 26.7923 18.0755 26.7923C17.0589 26.7923 16.7344 27.0505 16.4834 28.0509C16.3812 28.4561 16.2701 28.8595 16.1769 29.2664C16.0101 29.9979 16.4063 30.5412 17.1522 30.6129C17.3153 30.629 17.4803 30.62 17.6452 30.62C25.0389 30.62 32.4326 30.62 39.8281 30.6236C40.1095 30.6236 40.4018 30.6236 40.6725 30.6918C41.5976 30.932 42.1534 31.7944 42.0512 32.775C41.9562 33.684 41.1835 34.4155 40.2261 34.4227C37.8667 34.4424 35.5055 34.4316 33.1461 34.4334C31.6079 34.4334 30.0696 34.4334 28.5296 34.4334Z" fill="#152296"/>
<path d="M19.1149 40.1656C19.1203 42.2811 17.426 43.9933 15.3212 44.0005C13.1985 44.0094 11.4702 42.2847 11.4756 40.1638C11.4792 38.0572 13.186 36.3594 15.2997 36.3594C17.4189 36.3594 19.1113 38.0446 19.1149 40.1656Z" fill="#152296"/>
<path d="M38.2668 36.3594C40.3859 36.3684 42.0694 38.0644 42.064 40.1836C42.0586 42.3153 40.3375 44.0185 38.2058 43.9987C36.11 43.9808 34.4121 42.2489 34.4229 40.1441C34.4355 38.0393 36.1512 36.3487 38.2668 36.3594Z" fill="#152296"/>
</g>
<defs>
<clipPath id="clip0_4_299">
<rect width="45.246" height="44" fill="white"/>
</clipPath>
</defs>
</svg>
