<svg width="19" height="33" viewBox="0 0 19 33" fill="none" xmlns="http://www.w3.org/2000/svg">
<path d="M8.1 32.4475V28.4575H10.6725V32.4475H8.1ZM8.1 4.325V0.317499H10.6725V4.325H8.1ZM9.6925 29.525C8.02417 29.525 6.51917 29.2275 5.1775 28.6325C3.8475 28.0375 2.745 27.1975 1.87 26.1125C1.00667 25.0275 0.440833 23.7442 0.1725 22.2625L2.675 21.825C3.06 23.435 3.88833 24.7125 5.16 25.6575C6.44333 26.5908 7.98917 27.0575 9.7975 27.0575C11.6292 27.0575 13.1108 26.6142 14.2425 25.7275C15.3742 24.8292 15.94 23.6567 15.94 22.21C15.94 21.1367 15.625 20.2792 14.995 19.6375C14.365 18.9958 13.2975 18.4475 11.7925 17.9925L6.1925 16.2425C2.80917 15.1808 1.1175 13.1742 1.1175 10.2225C1.1175 8.84583 1.45583 7.63833 2.1325 6.6C2.82083 5.55 3.77167 4.73333 4.985 4.15C6.21 3.56667 7.63917 3.28083 9.2725 3.2925C10.8708 3.2925 12.3 3.59583 13.56 4.2025C14.8317 4.7975 15.8758 5.64333 16.6925 6.74C17.5092 7.83667 18.0517 9.1375 18.32 10.6425L15.7475 11.1325C15.5842 10.0592 15.205 9.12 14.61 8.315C14.0267 7.51 13.2742 6.88583 12.3525 6.4425C11.4308 5.9875 10.4042 5.75417 9.2725 5.7425C8.19917 5.7425 7.2425 5.92917 6.4025 6.3025C5.5625 6.67583 4.8975 7.195 4.4075 7.86C3.92917 8.51333 3.69 9.26583 3.69 10.1175C3.69 11.0508 4.0225 11.8442 4.6875 12.4975C5.36417 13.1392 6.43167 13.6817 7.89 14.125L12.7025 15.5775C14.7325 16.1842 16.1967 17.0008 17.095 18.0275C17.9933 19.0542 18.4425 20.425 18.4425 22.14C18.4425 23.6217 18.0808 24.9167 17.3575 26.025C16.6342 27.1333 15.6133 27.9967 14.295 28.615C12.9883 29.2217 11.4542 29.525 9.6925 29.525Z" fill="#152296"/>
</svg>
