<svg width="44" height="43" viewBox="0 0 44 43" fill="none" xmlns="http://www.w3.org/2000/svg">
<path d="M17.3554 29.9981L17.3549 29.9981C14.524 29.9932 12.1565 28.2143 11.9132 25.4567L17.3554 29.9981ZM17.3554 29.9981C19.5486 30.0009 21.7418 30 23.9343 29.9991C25.0302 29.9986 26.126 29.9981 27.2215 29.9981H27.2294H27.2374H27.2454H27.2534H27.2614H27.2693H27.2773H27.2853H27.2933H27.3012H27.3092H27.3172H27.3252H27.3331H27.3411H27.3491H27.3571H27.3651H27.373H27.381H27.389H27.397H27.4049H27.4129H27.4209H27.4289H27.4368H27.4448H27.4528H27.4608H27.4687H27.4767H27.4847H27.4927H27.5007H27.5086H27.5166H27.5246H27.5326H27.5405H27.5485H27.5565H27.5645H27.5724H27.5804H27.5884H27.5964H27.6043H27.6123H27.6203H27.6283H27.6362H27.6442H27.6522H27.6602H27.6681H27.6761H27.6841H27.6921H27.7H27.708H27.716H27.724H27.7319H27.7399H27.7479H27.7559H27.7638H27.7718H27.7798H27.7878H27.7957H27.8037H27.8117H27.8197H27.8277H27.8356H27.8436H27.8516H27.8595H27.8675H27.8755H27.8835H27.8914H27.8994H27.9074H27.9154H27.9233H27.9313H27.9393H27.9473H27.9552H27.9632H27.9712H27.9792H27.9871H27.9951H28.0031H28.0111H28.019H28.027H28.035H28.043H28.0509H28.0589H28.0669H28.0749H28.0828H28.0908H28.0988H28.1068H28.1147H28.1227H28.1307H28.1386H28.1466H28.1546H28.1626H28.1705H28.1785H28.1865H28.1945H28.2024H28.2104H28.2184H28.2264H28.2343H28.2423H28.2503H28.2582H28.2662H28.2742H28.2822H28.2901H28.2981H28.3061H28.3141H28.322H28.33H28.338H28.346H28.3539H28.3619H28.3699H28.3778H28.3858H28.3938H28.4018H28.4097H28.4177H28.4257H28.4337H28.4416H28.4496H28.4576H28.4655H28.4735H28.4815H28.4895H28.4974H28.5054H28.5134H28.5214H28.5293H28.5373H28.5453H28.5532H28.5612H28.5692H28.5772H28.5851H28.5931H28.6011H28.609H28.617H28.625H28.633H28.6409H28.6489H28.6569H28.6649H28.6728H28.6808H28.6888H28.6967H28.7047H28.7127H28.7207H28.7286H28.7366H28.7446H28.7525H28.7605H28.7685H28.7765H28.7844H28.7924H28.8004H28.8083H28.8163H28.8243H28.8323H28.8402H28.8482H28.8562H28.8641H28.8721H28.8801H28.8881H28.896H28.904H28.912H28.9199H28.9279H28.9359H28.9439H28.9518H28.9598H28.9678H28.9757H28.9837H28.9917H28.9997H29.0076H29.0156H29.0236H29.0315H29.0395H29.0475H29.0555H29.0634H29.0714H29.0794H29.0873H29.0953H29.1033H29.1113H29.1192H29.1272H29.1352H29.1431H29.1511H29.1591H29.167H29.175H29.183H29.191H29.1989H29.2069H29.2149H29.2228H29.2308H29.2388H29.2468H29.2547H29.2627H29.2707H29.2786H29.2866H29.2946H29.3025H29.3105H29.3185H29.3265H29.3344H29.3424H29.3504H29.3583H29.3663H29.3743H29.3822H29.3902H29.3982H29.4062H29.4141H29.4221H29.4301H29.438H29.446H29.454H29.462H29.4699H29.4779H29.4859H29.4938H29.5018H29.5098H29.5177H29.5257H29.5337H29.5416H29.5496H29.5576H29.5656H29.5735H29.5815H29.5895H29.5974H29.6054H29.6134H29.6213H29.6293H29.6373H29.6453H29.6532H29.6612H29.6692H29.6771H29.6851H29.6931H29.701H29.709H29.717H29.725H29.7329H29.7409H29.7489H29.7568H29.7648H29.7728H29.7807H29.7887H29.7967H29.8046H29.8126H29.8206H29.8286H29.8365H29.8445H29.8525H29.8604H29.8684H29.8764H29.8843H29.8923H29.9003H29.9082H29.9162H29.9242H29.9322H29.9401H29.9481H29.9561H29.964H29.972H29.98H29.9879H29.9959H30.0039H30.0118H30.0198H30.0278H30.0358H30.0437H30.0517H30.0597H30.0676H30.0756H30.0836H30.0915H30.0995H30.1075H30.1154H30.1234H30.1314H30.1393H30.1473H30.1553H30.1633H30.1712H30.1792H30.1872H30.1951H30.2031H30.2111H30.219H30.227H30.235H30.2429H30.2509H30.2589H30.2668H30.2748H30.2828H30.2908H30.2987H30.3067H30.3147H30.3226H30.3306H30.3386H30.3465H30.3545H30.3625H30.3704H30.3784H30.3864H30.3943H30.4023H30.4103H30.4183H30.4262H30.4342H30.4422H30.4501H30.4581H30.4661H30.474H30.482H30.49H30.4979H30.5059H30.5139H30.5218H30.5298H30.5378H30.5457H30.5537H30.5617H30.5697H30.5776H30.5856H30.5936H30.6015H30.6095H30.6175H30.6254H30.6334H30.6414H30.6493H30.6573H30.6653H30.6732H30.6812H30.6892H30.6971H30.7051H30.7131H30.7211H30.729H30.737H30.745H30.7529H30.7609H30.7689H30.7768H30.7848H30.7928H30.8007H30.8087H30.8167H30.8246H30.8326H30.8406H30.8485H30.8565H30.8645H30.8725H30.8804H30.8884H30.8964H30.9043H30.9123H30.9203H30.9282H30.9362H30.9442H30.9521H30.9601H30.9681H30.976H30.984H30.992H30.9999H31.0079H31.0159H31.0238H31.0318H31.0398H31.0478H31.0557H31.0637H31.0717H31.0796H31.0876H31.0956H31.1035H31.1115H31.1195H31.1274H31.1354H31.1434H31.1513H31.1593H31.1673H31.1752H31.1832H31.1912H31.1991H31.2071H31.2151H31.2231H31.231H31.239H31.247H31.2549H31.2629H31.2709H31.2788H31.2868H31.2948H31.3027H31.3034C31.9088 29.9977 32.5155 29.9981 33.1232 29.9986C34.6028 29.9996 36.0874 30.0007 37.5691 29.9897C38.8322 29.9809 40.0156 29.1106 40.1683 27.8149L40.1684 27.8145C40.3231 26.4976 39.4539 25.3831 38.1808 25.0899L38.1742 25.0884M17.3554 29.9981L38.1742 25.0884M8.67395 1.00849L8.67428 1.00849C9.25751 1.01218 9.82357 1.13952 10.313 1.46267C10.8081 1.78959 11.1376 2.25944 11.3412 2.7941L11.3412 2.79413C11.6603 3.63224 11.9768 4.47283 12.2927 5.31164C12.4699 5.7823 12.6469 6.2524 12.824 6.72119L12.8244 6.72225C12.8844 6.88153 12.9268 6.95165 12.9456 6.97769C12.979 6.98838 13.0925 7.01597 13.3776 7.01648C13.3779 7.01648 13.3782 7.01648 13.3784 7.01648L13.3769 8.01648L8.67395 1.00849ZM8.67395 1.00849C7.03411 0.99863 5.39206 0.995798 3.74879 1.00849L8.67395 1.00849ZM41.0148 7.10394L41.0177 7.10462C41.7378 7.27775 42.3442 7.70569 42.6943 8.327C43.0466 8.95222 43.0946 9.69574 42.837 10.3978L42.8365 10.3992C42.396 11.5941 41.947 12.7876 41.4994 13.977C41.3964 14.2508 41.2935 14.5245 41.1907 14.7978C40.2746 17.2367 39.357 19.6769 38.4393 22.1157C38.2249 22.6871 37.8993 23.2105 37.3493 23.5642C36.8133 23.9088 36.1949 24.007 35.5694 24.007H35.5351H35.5007H35.4664H35.432H35.3977H35.3633H35.329H35.2946H35.2603H35.2259H35.1916H35.1572H35.1229H35.0885H35.0542H35.0198H34.9854H34.9511H34.9167H34.8824H34.848H34.8137H34.7793H34.745H34.7106H34.6763H34.6419H34.6076H34.5732H34.5389H34.5045H34.4702H34.4358H34.4014H34.3671H34.3327H34.2984H34.264H34.2297H34.1953H34.161H34.1266H34.0923H34.0579H34.0236H33.9892H33.9549H33.9205H33.8861H33.8518H33.8174H33.7831H33.7487H33.7144H33.68H33.6457H33.6113H33.577H33.5426H33.5083H33.4739H33.4395H33.4052H33.3708H33.3365H33.3021H33.2678H33.2334H33.1991H33.1647H33.1304H33.096H33.0616H33.0273H32.9929H32.9586H32.9242H32.8899H32.8555H32.8212H32.7868H32.7525H32.7181H32.6837H32.6494H32.615H32.5807H32.5463H32.512H32.4776H32.4433H32.4089H32.3746H32.3402H32.3058H32.2715H32.2371H32.2028H32.1684H32.1341H32.0997H32.0654H32.031H31.9966H31.9623H31.9279H31.8936H31.8592H31.8249H31.7905H31.7562H31.7218H31.6875H31.6531H31.6187H31.5844H31.55H31.5157H31.4813H31.447H31.4126H31.3783H31.3439H31.3095H31.2752H31.2408H31.2065H31.1721H31.1378H31.1034H31.0691H31.0347H31.0003H30.966H30.9316H30.8973H30.8629H30.8286H30.7942H30.7599H30.7255H30.6911H30.6568H30.6224H30.5881H30.5537H30.5194H30.485H30.4506H30.4163H30.3819H30.3476H30.3132H30.2789H30.2445H30.2102H30.1758H30.1414H30.1071H30.0727H30.0384H30.004H29.9697H29.9353H29.901H29.8666H29.8322H29.7979H29.7635H29.7292H29.6948H29.6605H29.6261H29.5917H29.5574H29.523H29.4887H29.4543H29.42H29.3856H29.3513H29.3169H29.2825H29.2482H29.2138H29.1795H29.1451H29.1108H29.0764H29.042H29.0077H28.9733H28.939H28.9046H28.8703H28.8359H28.8015H28.7672H28.7328H28.6985H28.6641H28.6298H28.5954H28.5611H28.5267H28.4923H28.458H28.4236H28.3893H28.3549H28.3206H28.2862H28.2518H28.2175H28.1831H28.1488H28.1144H28.0801H28.0457H28.0113H27.977H27.9426H27.9083H27.8739H27.8396H27.8052H27.7709H27.7365H27.7021H27.6678H27.6334H27.5991H27.5647H27.5304H27.496H27.4616H27.4273H27.3929H27.3586H27.3242H27.2899H27.2555H27.2211H27.1868H27.1524H27.1181H27.0837H27.0494H27.015H26.9806H26.9463H26.9119H26.8776H26.8432H26.8089H26.7745H26.7401H26.7058H26.6714H26.6371H26.6027H26.5684H26.534H26.4997H26.4653H26.4309H26.3966H26.3622H26.3279H26.2935H26.2592H26.2248H26.1904H26.1561H26.1217H26.0874H26.053H26.0187H25.9843H25.9499H25.9156H25.8812H25.8469H25.8125H25.7782H25.7438H25.7094H25.6751H25.6407H25.6064H25.572H25.5377H25.5033H25.469H25.4346H25.4002H25.3659H25.3315H25.2972H25.2628H25.2285H25.1941H25.1597H25.1254H25.091H25.0567H25.0223H24.988H24.9536H24.9192H24.8849H24.8505H24.8162H24.7818H24.7475H24.7131H24.6787H24.6444H24.61H24.5757H24.5413H24.507H24.4726H24.4383H24.4039H24.3695H24.3352H24.3008H24.2665H24.2321H24.1978H24.1634H24.129H24.0947H24.0603H24.026H23.9916H23.9573H23.9229H23.8886H23.8542H23.8198H23.7855H23.7511H23.7168H23.6824H23.6481H23.6137H23.5793H23.545H23.5106H23.4763H23.4419H23.4076H23.3732H23.3389H23.3045H23.2701H23.2358H23.2014H23.1671H23.1327H23.0984H23.064H23.0296H22.9953H22.9609H22.9266H22.8922H22.8579H22.8235H22.7892H22.7548H22.7204H22.6861H22.6517H22.6174H22.583H22.5487H22.5143H22.48H22.4456H22.4112H22.3769H22.3425H22.3082H22.2738H22.2395H22.2051H22.1708H22.1364H22.102H22.0677H22.0333H21.999H21.9646H21.9303H21.8959H21.8616H21.8272H21.7928H21.7585H21.7241H21.6898H21.6554H21.6211H21.5867H21.5524H21.518H21.4837H21.4493H21.4149H21.3806H21.3462H21.3119H21.2775H21.2432H21.2088H21.1745H21.1401H21.1057H21.0714H21.037H21.0027H20.9683H20.934H20.8996H20.8653H20.8309H20.7966H20.7622H20.7278H20.6935H20.6591H20.6248H20.5904H20.5561H20.5217H20.4874H20.453H20.4187H20.3843H20.3499H20.3156H20.2812H20.2469H20.2125H20.1782H20.1438H20.1095H20.0751H20.0408H20.0064H19.9721H19.9377H19.9033H19.869H19.8346H19.8003H19.7659H19.7316H19.6972H19.6629H19.6285H19.5942H19.5598H19.5255H19.4911H19.4567H19.4224H19.388H19.3537H19.3193H19.285H19.2506H19.2163H19.1819H19.1476H19.1132H19.0789H19.0445H19.0102H18.9758H18.9414H18.9071H18.8727H18.8384H18.804H18.7697H18.7353H18.701H18.6666H18.6323H18.5979H18.5636H18.5292H18.4949H18.4605H18.4262H18.3918H18.3574H18.3231H18.2887H18.2544H18.22H18.1857H18.1513H18.117H18.0826H18.0483H18.0139H17.9796C17.7935 24.007 17.6821 24.0176 17.6158 24.0299C17.5974 24.0706 17.569 24.1437 17.5344 24.266L17.534 24.2673C17.4989 24.3907 17.4655 24.5045 17.4335 24.6135C17.3935 24.7501 17.3556 24.8792 17.3194 25.01C17.3484 25.0106 17.3798 25.0101 17.4223 25.0096C17.4663 25.0089 17.5221 25.0082 17.5992 25.0082C24.1354 25.0082 30.6718 25.0082 37.2099 25.011L41.0148 7.10394ZM41.0148 7.10394C40.6535 7.01821 40.2793 7.01884 40.0436 7.01924C40.0284 7.01926 40.0137 7.01929 39.9997 7.01929L41.0148 7.10394ZM17.2677 25.1953L17.2696 25.1958C17.2678 25.2028 17.2674 25.2062 17.2674 25.2062C17.2674 25.2062 17.2678 25.2029 17.2677 25.1965L17.2348 25.188L17.2328 25.1875L16.3011 24.9469M17.2677 25.1953L17.2349 25.1869L17.2329 25.1863L16.3011 24.9469M17.2677 25.1953C17.2676 25.1882 17.2668 25.1778 17.2643 25.1644C17.2603 25.1429 17.2531 25.1202 17.2427 25.0978C17.2421 25.0965 17.2414 25.0952 17.2408 25.0939C17.231 25.0736 17.2185 25.0537 17.2036 25.0354C17.1792 25.0056 17.1595 24.9923 17.1517 24.988L17.2677 25.1953ZM16.3011 24.9469C16.1537 25.5204 16.504 25.9463 17.1633 26.0026L35.5694 23.007H17.9796C17.0809 23.007 16.794 23.2094 16.5721 23.9938C16.542 24.0997 16.511 24.2054 16.48 24.3112C16.418 24.5226 16.356 24.7341 16.3011 24.9469ZM38.1742 25.0884C37.825 25.0105 37.4705 25.0108 37.2419 25.011M38.1742 25.0884L37.2419 25.011M37.2419 25.011C37.2311 25.011 37.2205 25.011 37.2103 25.011L37.2419 25.011ZM12.495 22.3907L12.4946 22.3922L3.74843 1.0085C2.32505 1.01866 0.991435 1.98265 1.00004 3.52658L1.00004 3.5266C1.00872 5.07895 2.37053 6.00474 3.77125 6.01246L3.77221 6.01246C4.26494 6.01471 4.77415 6.01414 5.27968 6.01358C5.70902 6.0131 6.1357 6.01262 6.5474 6.01387L6.54844 6.01388C6.75615 6.01429 6.83411 6.04401 6.8503 6.05149C6.85125 6.05263 6.85255 6.05427 6.85422 6.05653C6.86447 6.07034 6.8887 6.10797 6.91879 6.18803L6.91885 6.18821C8.76201 11.0895 10.6036 15.9908 12.4435 20.8934C12.624 21.3771 12.6386 21.8679 12.495 22.3907ZM7.85486 5.83622C7.63455 5.25004 7.25574 5.01528 6.55044 5.01388C6.12401 5.01258 5.69757 5.01308 5.27099 5.01358C4.77321 5.01416 4.27521 5.01474 3.77676 5.01247L7.85486 5.83622ZM12.9564 6.99077C12.9564 6.99096 12.955 6.98968 12.9522 6.98633C12.9551 6.9889 12.9565 6.99058 12.9564 6.99077ZM12.0737 23.9115L13.0519 24.1189L12.0745 23.9076C12.0744 23.9082 12.0743 23.9088 12.0741 23.9094C12.074 23.9101 12.0738 23.9108 12.0737 23.9115Z" stroke="#152296" stroke-width="2"/>
<path d="M14.9829 41.9982C12.7887 42.0071 11.0025 40.2253 11.0078 38.0313L14.9829 41.9982ZM14.9829 41.9982C17.1655 41.9908 18.916 40.215 18.9109 38.0332L14.9829 41.9982ZM18.9109 38.033C18.9071 35.8414 17.1507 34.0938 14.9628 34.0938C12.7814 34.0938 11.012 35.8486 11.0078 38.031L18.9109 38.033Z" stroke="#152296" stroke-width="2"/>
<path d="M33.0001 38.0132L33.0001 38.0124C33.0131 35.8302 34.7924 34.0829 36.9749 34.0938M33.0001 38.0132L36.9146 41.9969C39.1172 42.0169 40.899 40.2525 40.9045 38.0513M33.0001 38.0132C32.989 40.1852 34.7387 41.9779 36.9139 41.9969L33.0001 38.0132ZM36.9749 34.0938C39.1643 34.1033 40.9101 35.8627 40.9045 38.0513M36.9749 34.0938C36.9751 34.0938 36.9752 34.0938 36.9754 34.0938L36.9703 35.0938M36.9749 34.0938C36.9748 34.0938 36.9747 34.0938 36.9745 34.0938L36.9703 35.0938M40.9045 38.0513L39.9045 38.0488M40.9045 38.0513L39.9045 38.0488M39.9045 38.0488C39.9004 39.696 38.5704 41.0121 36.9232 40.9969L36.9703 35.0938M39.9045 38.0488C39.9087 36.4113 38.6078 35.1007 36.9703 35.0938" stroke="#152296" stroke-width="2"/>
</svg>
