<svg width="52" height="52" viewBox="0 0 52 52" fill="none" xmlns="http://www.w3.org/2000/svg">
<path d="M18.1169 0C19.1488 1.43646 19.8942 2.98785 21.0981 4.13702C24.8247 7.87182 29.4686 8.84862 34.5138 7.87182C36.1764 7.52707 37.7244 6.78011 39.3297 6.20552C39.6736 6.09061 39.9603 5.97569 40.247 6.32044C44.1455 10.2276 48.0441 14.1348 51.9427 18.042C52 18.0994 52 18.1569 52 18.2718C51.5987 18.4442 51.1974 18.6166 50.796 18.7889C46.7828 20.8575 44.6615 24.2475 43.9162 28.6144C43.2856 32.2917 43.9735 35.8541 45.6362 39.1867C45.8082 39.589 45.9802 39.8762 45.5788 40.2785C41.6803 44.1282 37.7817 48.0354 33.9405 51.8851C33.8831 51.9425 33.8258 51.9425 33.7685 52C33.7111 51.8851 33.5965 51.7702 33.5391 51.6552C31.5325 47.0011 27.806 44.6453 22.9901 43.8409C19.3782 43.2663 15.9956 44.0133 12.785 45.6796C12.3837 45.8519 12.1544 45.9669 11.753 45.6221C7.9118 41.6575 4.01323 37.7503 0.114664 33.8431C0.0573319 33.7856 0.0573319 33.7282 0 33.6707C0.687982 33.326 1.49063 32.9812 2.12128 32.579C6.19184 29.9359 8.02646 26.0287 8.31312 21.3171C8.48512 18.2718 7.7398 15.3989 6.36384 12.6983C6.19184 12.2961 6.07718 12.0663 6.4785 11.6641C10.3197 7.81436 14.161 3.96464 18.0022 0.114917C18.0595 0.0574586 18.1742 0 18.1169 0ZM43.1709 38.095C34.2845 29.6486 33.3098 19.6508 38.011 8.90608C29.6979 17.6398 19.8368 18.6166 9.11577 14.0199C17.8875 22.5812 18.7475 32.579 13.9316 43.3812C20.0662 35.5094 32.2205 32.5215 43.1709 38.095Z" fill="#152296"/>
</svg>
