<svg width="51" height="47" viewBox="0 0 51 47" fill="none" xmlns="http://www.w3.org/2000/svg">
<path d="M12.5639 21.0661C13.6332 19.1617 14.6608 17.3619 15.6507 15.5433C15.9436 15.0034 16.3057 14.746 16.9356 14.7816C17.7141 14.8255 18.4947 14.792 19.3381 14.792C19.3381 14.3965 19.3297 14.0533 19.3381 13.7101C19.3883 11.7931 20.8951 10.2549 22.81 10.2236C24.7437 10.1922 26.6815 10.1901 28.6152 10.2236C30.528 10.257 32.0013 11.7764 32.0787 13.7226C32.0913 14.0512 32.0787 14.3818 32.0787 14.7899C32.7359 14.7899 33.3574 14.813 33.9769 14.7837C34.5189 14.7564 34.8495 14.9866 35.1049 15.4512C36.1219 17.295 37.1599 19.1282 38.2272 21.0326C38.4365 20.6727 38.6186 20.3629 38.7923 20.0511C39.5017 18.7829 40.5753 18.1425 42.036 18.1488C43.727 18.1572 45.4179 18.1446 47.1089 18.153C48.8856 18.1634 50.0827 19.3689 50.0889 21.1561C50.0994 24.4522 50.1015 27.7461 50.1015 31.0422C50.1015 32.595 49.8483 34.0976 49.0928 35.4788C48.4168 36.7178 47.4144 37.5528 46.0102 37.8562C45.893 37.8813 45.7779 37.9274 45.6711 37.9609C45.6523 38.0069 45.6293 38.0362 45.6272 38.0697C45.5644 39.319 45.4619 39.4153 44.202 39.4153C42.5299 39.4153 40.8578 39.4153 39.1229 39.4153C39.1125 39.6204 39.0978 39.8046 39.0957 39.9866C39.0957 41.9392 39.0957 43.8917 39.0957 45.8442C39.0957 46.719 38.8153 46.9994 37.9342 46.9994C29.5842 46.9994 21.232 46.9994 12.882 46.9994C11.9695 46.9994 11.7142 46.7337 11.7121 45.8003C11.7121 43.8833 11.7121 41.9643 11.7121 40.0473C11.7121 39.859 11.7121 39.6706 11.7121 39.4132H10.5883C9.17569 39.4132 7.76309 39.4132 6.35257 39.4132C5.40874 39.4132 5.20575 39.2081 5.17435 38.2455C5.17226 38.1597 5.15971 38.0739 5.14924 37.9567C4.91276 37.8939 4.67837 37.8395 4.44817 37.7683C2.64004 37.2075 1.62505 35.8765 1.15418 34.1458C0.873755 33.1161 0.72517 32.0237 0.706335 30.9543C0.654016 27.7127 0.693779 24.4689 0.700057 21.2272C0.704242 19.3417 1.88037 18.1614 3.76593 18.1551C5.38781 18.1509 7.0097 18.1697 8.62948 18.1488C10.1739 18.13 11.3082 18.7724 12.0344 20.1369C12.1872 20.4257 12.3567 20.7061 12.5618 21.064L12.5639 21.0661ZM43.3356 33.631C43.2101 33.3903 43.1285 33.2229 43.0385 33.0596C42.2976 31.737 41.5317 30.429 40.8285 29.0876C40.5606 28.577 40.3053 28.2693 39.6943 28.5184C39.5561 28.5749 39.3845 28.5539 39.2276 28.5539C36.9611 28.5539 34.6947 28.5707 32.4261 28.5498C30.8608 28.5351 29.7558 27.4176 29.7746 25.9234C29.7914 24.4647 30.9173 23.389 32.4554 23.3786C33.6588 23.3702 34.8621 23.3786 36.0654 23.3723C36.2705 23.3723 36.4882 23.3535 36.6807 23.2886C37.2143 23.1086 37.3106 22.8386 37.0406 22.3552C36.0215 20.5303 34.9918 18.7117 33.9873 16.8785C33.8094 16.5541 33.6044 16.4599 33.2507 16.4599C28.0188 16.4704 22.789 16.4725 17.5572 16.4579C17.1679 16.4579 16.9775 16.5918 16.7975 16.9224C15.8013 18.741 14.778 20.5429 13.7672 22.351C13.4763 22.87 13.5767 23.1358 14.146 23.3116C14.3239 23.366 14.5227 23.3765 14.711 23.3765C15.9667 23.3828 17.2223 23.3702 18.478 23.3849C19.4448 23.3974 20.1856 23.8474 20.6712 24.674C21.6945 26.4131 20.4535 28.5267 18.3733 28.556C16.1069 28.5874 13.8404 28.5665 11.5719 28.5602C11.3124 28.5602 11.0361 28.5581 10.7955 28.4744C10.4795 28.3656 10.3351 28.4556 10.1823 28.7339C9.35148 30.2449 8.49973 31.7433 7.66054 33.248C7.59985 33.3568 7.56427 33.4824 7.50568 33.6268H43.3335L43.3356 33.631ZM13.4407 39.4404V45.2771H37.3797V39.4404H13.4407ZM6.87785 37.6951H43.9007V35.3491H6.87785V37.6951ZM48.3959 29.6087C48.4085 29.4078 48.4252 29.255 48.4252 29.1043C48.4252 26.4738 48.4294 23.8411 48.4252 21.2105C48.4252 20.2813 47.9794 19.8376 47.0461 19.8356C45.3907 19.8314 43.7354 19.8439 42.08 19.8293C41.245 19.8209 40.6527 20.1641 40.2572 20.9008C39.7801 21.7902 39.2778 22.6649 38.7839 23.546C38.2 24.5882 37.296 25.0653 36.1157 25.0591C34.9123 25.0528 33.7111 25.0528 32.5078 25.0591C31.8444 25.0632 31.4656 25.3981 31.4614 25.961C31.4572 26.524 31.8318 26.8735 32.4952 26.8756C34.7261 26.8839 36.9569 26.8756 39.1857 26.8818C39.7633 26.8818 40.1819 26.6454 40.4853 26.1598C40.908 25.4797 41.3475 24.81 41.7807 24.1361C42.193 23.4958 42.6346 23.3179 43.0992 23.6046C43.5889 23.9059 43.614 24.3747 43.1808 25.057C42.9192 25.4671 42.6994 25.9171 42.3813 26.2791C41.7703 26.9802 41.8582 27.5683 42.2872 28.3844C42.7936 29.3471 43.3628 29.7301 44.4553 29.6359C45.7486 29.525 47.0586 29.6108 48.3938 29.6108L48.3959 29.6087ZM2.38053 29.5438C2.48517 29.5731 2.53121 29.6003 2.57935 29.6003C4.21797 29.6045 5.85659 29.6129 7.49521 29.5961C7.6438 29.5961 7.8447 29.4538 7.92841 29.3199C8.25907 28.7883 8.53949 28.2254 8.86596 27.6896C9.02083 27.4343 9.02501 27.2439 8.85131 26.9907C8.39091 26.3147 7.95771 25.6199 7.52033 24.9272C7.17084 24.3705 7.2399 23.8829 7.69403 23.6088C8.12722 23.3451 8.57926 23.4895 8.92456 24.019C9.38078 24.72 9.83491 25.4211 10.2744 26.1326C10.5967 26.6537 11.0403 26.8986 11.6598 26.8944C13.8383 26.8818 16.0169 26.8944 18.1954 26.8881C18.9279 26.8881 19.3402 26.5386 19.3297 25.9589C19.3192 25.3855 18.907 25.0653 18.1599 25.0653C16.9754 25.0632 15.7888 25.0653 14.6043 25.0653C13.4616 25.0653 12.5911 24.584 12.0218 23.5878C11.53 22.7256 11.032 21.8676 10.5736 20.9887C10.1572 20.1913 9.53774 19.8251 8.63576 19.8397C7.03272 19.8628 5.42967 19.846 3.82453 19.846C2.79281 19.846 2.37635 20.2687 2.37426 21.3088C2.37426 23.8892 2.37426 26.4675 2.37426 29.0478V29.548L2.38053 29.5438ZM30.4066 14.7292C30.4066 14.5242 30.4066 14.3546 30.4066 14.1851C30.4108 12.5946 29.7097 11.8915 28.1193 11.8915C26.466 11.8915 24.8106 11.8915 23.1573 11.8915C22.9502 11.8915 22.7367 11.8915 22.5358 11.9354C21.345 12.1845 20.7758 13.2832 21.0876 14.7271H30.4066V14.7292ZM6.81088 31.3206H2.42239C2.31147 33.2731 3.2574 35.9811 5.17645 36.1443C5.17645 35.799 5.20575 35.4558 5.17017 35.1168C5.10739 34.5162 5.26225 34.0056 5.58663 33.4949C6.02192 32.8127 6.38396 32.0865 6.81088 31.3206ZM45.5372 36.1632C47.2951 35.9581 48.8668 33.0701 48.331 31.3247H44.0116C44.7524 32.8964 46.119 34.2023 45.5372 36.1632Z" fill="#152296"/>
<path d="M44.7914 7.5957C47.3362 7.5957 49.4206 9.67171 49.4311 12.2144C49.4394 14.7696 47.3195 16.8854 44.7684 16.8645C42.2153 16.8436 40.1539 14.7655 40.1602 12.2186C40.1664 9.67799 42.2571 7.59361 44.7935 7.5957H44.7914ZM44.7789 15.1694C46.4175 15.1736 47.7506 13.8551 47.7527 12.2249C47.7527 10.6072 46.407 9.2699 44.781 9.27409C43.1779 9.27828 41.8511 10.5946 41.8386 12.1977C41.826 13.8279 43.1486 15.1652 44.7789 15.1694Z" fill="#152296"/>
<path d="M6.07954 16.8595C3.56406 16.9244 1.45457 14.884 1.37504 12.312C1.2997 9.83 3.36734 7.65354 5.85771 7.59704C8.44226 7.53635 10.579 9.55585 10.6396 12.1153C10.6982 14.681 8.66827 16.7926 6.07954 16.8595ZM5.99165 15.1665C7.61771 15.1749 8.96335 13.8418 8.96126 12.222C8.96126 10.6232 7.64283 9.28798 6.04815 9.27124C4.4179 9.2524 3.07645 10.5604 3.05343 12.1927C3.03041 13.8125 4.3614 15.1581 5.99165 15.1665Z" fill="#152296"/>
<path d="M21.0929 4.5918C21.1139 2.04283 23.215 -0.0289915 25.7451 0.000306961C28.3276 0.0316982 30.3596 2.11608 30.3324 4.7069C30.3052 7.24959 28.2104 9.29421 25.6551 9.2691C23.1124 9.24398 21.072 7.15332 21.0929 4.5918ZM22.7713 4.64203C22.7713 6.28274 24.0939 7.59908 25.7284 7.59071C27.3377 7.58234 28.6478 6.27018 28.654 4.65877C28.6603 3.01596 27.3523 1.68916 25.72 1.68288C24.0877 1.6766 22.7713 2.99712 22.7713 4.64203Z" fill="#152296"/>
</svg>
