<svg width="56" height="56" viewBox="0 0 56 56" fill="none" xmlns="http://www.w3.org/2000/svg">
<rect width="56" height="56" rx="16" fill="#E41A2B"/>
<path d="M22.4607 10C23.1705 10.9945 23.6832 12.0685 24.5112 12.8641C27.0744 15.4497 30.2684 16.126 33.7385 15.4497C34.882 15.211 35.9467 14.6939 37.0508 14.2961C37.2874 14.2166 37.4846 14.137 37.6818 14.3757C40.3632 17.0807 43.0446 19.7856 45.726 22.4906C45.7655 22.5304 45.7655 22.5702 45.7655 22.6497C45.4894 22.7691 45.2134 22.8884 44.9374 23.0077C42.1771 24.4398 40.7181 26.7867 40.2055 29.8099C39.7717 32.3558 40.2449 34.8221 41.3884 37.1293C41.5067 37.4077 41.625 37.6066 41.349 37.8851C38.6676 40.5503 35.9862 43.2552 33.3442 45.9204C33.3047 45.9602 33.2653 45.9602 33.2259 46C33.1864 45.9204 33.1076 45.8409 33.0681 45.7613C31.688 42.5392 29.1249 40.9083 25.8125 40.3514C23.3283 39.9536 21.0017 40.4707 18.7935 41.6243C18.5175 41.7436 18.3597 41.8232 18.0837 41.5845C15.4417 38.8398 12.7603 36.1348 10.0789 33.4298C10.0394 33.3901 10.0394 33.3503 10 33.3105C10.4732 33.0718 11.0253 32.8331 11.459 32.5547C14.2587 30.7249 15.5206 28.0199 15.7177 24.758C15.836 22.6497 15.3234 20.6608 14.377 18.7912C14.2587 18.5127 14.1799 18.3536 14.4559 18.0751C17.0979 15.4099 19.7399 12.7448 22.3819 10.0796C22.4213 10.0398 22.5002 10 22.4607 10ZM39.6928 36.3735C33.5808 30.526 32.9104 23.6044 36.1439 16.1657C30.4261 22.2122 23.6437 22.8884 16.2698 19.7061C22.303 25.6331 22.8945 32.5547 19.5822 40.0331C23.8015 34.5834 32.1612 32.5149 39.6928 36.3735Z" fill="#FCFDFF"/>
</svg>
