<svg width="250" height="250" viewBox="0 0 250 250" fill="none" xmlns="http://www.w3.org/2000/svg">
<path d="M54.0537 73.0878V204.967C54.0537 206.784 55.5237 208.254 57.3403 208.254H154.847C156.664 208.254 158.134 206.784 158.134 204.967V73.0878C158.134 71.2708 156.664 69.801 154.847 69.801H136.212C134.72 63.5333 129.109 58.8431 122.391 58.8431H119.445V57.2706C119.445 49.9077 113.455 43.918 106.092 43.918C98.7292 43.918 92.7399 49.9077 92.7399 57.2706V58.8431H89.7966C83.0786 58.8431 77.4679 63.5333 75.9756 69.801H57.3403C55.5237 69.801 54.0537 71.2708 54.0537 73.0878ZM89.7966 65.4164H96.0267C97.8433 65.4164 99.3133 63.9466 99.3133 62.13V57.2706C99.3133 53.531 102.353 50.4916 106.092 50.4916C109.832 50.4916 112.871 53.531 112.871 57.2706V62.13C112.871 63.9466 114.341 65.4164 116.158 65.4164H122.391C125.443 65.4164 128.085 67.2111 129.317 69.801H82.8701C84.1028 67.2111 86.7442 65.4164 89.7966 65.4164ZM60.6272 76.3746H78.842H133.346H151.561V201.681H60.6272V76.3746Z" fill="#152296"/>
<path d="M136.767 93.3535H75.4136C73.597 93.3535 72.127 94.8233 72.127 96.6399C72.127 98.4565 73.597 99.9268 75.4136 99.9268H136.767C138.584 99.9268 140.054 98.4565 140.054 96.6399C140.054 94.8233 138.584 93.3535 136.767 93.3535Z" fill="#152296"/>
<path d="M136.767 114.549H75.4136C73.597 114.549 72.127 116.019 72.127 117.836C72.127 119.652 73.597 121.122 75.4136 121.122H136.767C138.584 121.122 140.054 119.652 140.054 117.836C140.054 116.019 138.584 114.549 136.767 114.549Z" fill="#152296"/>
<path d="M136.767 135.742H75.4136C73.597 135.742 72.127 137.212 72.127 139.029C72.127 140.846 73.597 142.315 75.4136 142.315H136.767C138.584 142.315 140.054 140.846 140.054 139.029C140.054 137.212 138.584 135.742 136.767 135.742Z" fill="#152296"/>
<path d="M136.767 156.93H75.4136C73.597 156.93 72.127 158.399 72.127 160.217C72.127 162.033 73.597 163.503 75.4136 163.503H136.767C138.584 163.503 140.054 162.033 140.054 160.217C140.054 158.399 138.584 156.93 136.767 156.93Z" fill="#152296"/>
<path d="M193.16 186.874C193.347 186.46 193.465 186.009 193.465 185.524V86.9222C193.465 79.9766 187.813 74.3242 180.864 74.3242C173.918 74.3242 168.266 79.9766 168.266 86.9222V185.524C168.266 186.009 168.383 186.46 168.571 186.874C168.58 186.895 168.576 186.921 168.586 186.943L177.898 206.39C178.447 207.533 179.599 208.258 180.864 208.258C182.128 208.258 183.28 207.533 183.829 206.39L193.144 186.943C193.154 186.921 193.15 186.895 193.16 186.874ZM180.864 197.361L176.77 188.811H184.959L180.864 197.361ZM186.891 182.237H174.839V113.216H186.891V182.237ZM186.891 106.643H174.839V86.9222C174.839 83.6003 177.542 80.8979 180.864 80.8979C184.189 80.8979 186.891 83.6003 186.891 86.9222V106.643Z" fill="#152296"/>
</svg>
