<svg width="250" height="250" viewBox="0 0 250 250" fill="none" xmlns="http://www.w3.org/2000/svg">
<path d="M168.814 204.969V47.2067C168.814 45.3901 167.344 43.9199 165.528 43.9199H47.2058C45.3889 43.9199 43.9189 45.3901 43.9189 47.2067V204.969C43.9189 206.786 45.3889 208.256 47.2058 208.256H165.528C167.344 208.256 168.814 206.786 168.814 204.969ZM162.241 201.683H50.4924V50.4936H162.241V201.683Z" fill="#152296"/>
<path d="M72.3718 128.281H134.271C136.087 128.281 137.557 126.811 137.557 124.994V80.6231C137.557 78.8069 136.087 77.3362 134.271 77.3362H120.783V65.695C120.783 63.8784 119.313 62.4082 117.497 62.4082H89.1488C87.332 62.4082 85.862 63.8784 85.862 65.695V77.3362H72.3718C70.555 77.3362 69.085 78.8069 69.085 80.6231V124.994C69.085 126.811 70.555 128.281 72.3718 128.281ZM92.4354 68.9819H114.21V77.3362H92.4354V68.9819ZM75.6584 83.9099H89.1488H117.497H130.984V121.707H75.6584V83.9099Z" fill="#152296"/>
<path d="M63.5368 148.777H149.197C151.014 148.777 152.484 147.307 152.484 145.49C152.484 143.673 151.014 142.203 149.197 142.203H63.5368C61.7202 142.203 60.25 143.673 60.25 145.49C60.25 147.307 61.7202 148.777 63.5368 148.777Z" fill="#152296"/>
<path d="M63.5368 169.271H149.197C151.014 169.271 152.484 167.801 152.484 165.984C152.484 164.167 151.014 162.697 149.197 162.697H63.5368C61.7202 162.697 60.25 164.167 60.25 165.984C60.25 167.801 61.7202 169.271 63.5368 169.271Z" fill="#152296"/>
<path d="M63.5368 189.765H149.197C151.014 189.765 152.484 188.295 152.484 186.478C152.484 184.661 151.014 183.191 149.197 183.191H63.5368C61.7202 183.191 60.25 184.661 60.25 186.478C60.25 188.295 61.7202 189.765 63.5368 189.765Z" fill="#152296"/>
<path d="M207.968 86.2687L198.451 64.9056C197.925 63.7212 196.747 62.957 195.45 62.957C194.153 62.957 192.975 63.7212 192.449 64.9056L182.929 86.2687C182.925 86.277 182.927 86.2869 182.924 86.2951C182.747 86.6981 182.644 87.1389 182.644 87.6074V195.453C182.644 202.514 188.389 208.257 195.45 208.257C202.512 208.257 208.254 202.514 208.254 195.453V87.6074C208.254 87.1389 208.15 86.6981 207.974 86.2951C207.97 86.2869 207.972 86.277 207.968 86.2687ZM195.45 74.3191L199.905 84.3206H190.993L195.45 74.3191ZM201.68 195.453C201.68 198.887 198.884 201.683 195.45 201.683C192.013 201.683 189.217 198.887 189.217 195.453V178.676H201.68V195.453ZM201.68 172.102H189.217V90.8942H201.68V172.102Z" fill="#152296"/>
</svg>
