<svg width="250" height="250" viewBox="0 0 250 250" fill="none" xmlns="http://www.w3.org/2000/svg">
<path d="M196 43.9199H56.1767C49.4171 43.9199 43.9189 49.418 43.9189 56.1748V196.001C43.9189 202.758 49.4171 208.256 56.1767 208.256H196C202.757 208.256 208.255 202.758 208.255 196.001V56.1748C208.255 49.418 202.757 43.9199 196 43.9199ZM201.681 196.001C201.681 199.134 199.133 201.683 196 201.683H56.1767C53.0408 201.683 50.4924 199.134 50.4924 196.001V80.0742H201.681V196.001ZM201.681 73.5005H50.4924V56.1748C50.4924 53.0422 53.0408 50.4936 56.1767 50.4936H196C199.133 50.4936 201.681 53.0422 201.681 56.1748V73.5005Z" fill="#152296"/>
<path d="M69.1179 58.7129H64.4607C62.6438 58.7129 61.1738 60.1831 61.1738 61.9997C61.1738 63.8163 62.6438 65.2865 64.4607 65.2865H69.1179C70.9345 65.2865 72.4045 63.8163 72.4045 61.9997C72.4045 60.1831 70.9345 58.7129 69.1179 58.7129Z" fill="#152296"/>
<path d="M85.2837 58.7129H80.6265C78.8098 58.7129 77.3398 60.1831 77.3398 61.9997C77.3398 63.8163 78.8098 65.2865 80.6265 65.2865H85.2837C87.1003 65.2865 88.5705 63.8163 88.5705 61.9997C88.5705 60.1831 87.1003 58.7129 85.2837 58.7129Z" fill="#152296"/>
<path d="M101.44 58.7129H96.7856C94.969 58.7129 93.499 60.1831 93.499 61.9997C93.499 63.8163 94.969 65.2865 96.7856 65.2865H101.44C103.256 65.2865 104.726 63.8163 104.726 61.9997C104.726 60.1831 103.256 58.7129 101.44 58.7129Z" fill="#152296"/>
<path d="M187.717 58.7129H126.505C124.689 58.7129 123.219 60.1831 123.219 61.9997C123.219 63.8163 124.689 65.2865 126.505 65.2865H187.717C189.534 65.2865 191.004 63.8163 191.004 61.9997C191.004 60.1831 189.534 58.7129 187.717 58.7129Z" fill="#152296"/>
<path d="M132.188 119.144C139.862 121.301 145.887 127.428 147.915 135.137C148.294 136.582 149.6 137.59 151.093 137.59H170.476C171.433 137.59 172.338 137.175 172.964 136.45C173.586 135.728 173.865 134.768 173.728 133.824C170.643 112.865 154.511 96.5826 133.584 93.3052C132.656 93.1675 131.671 93.4306 130.939 94.0566C130.211 94.6793 129.79 95.594 129.79 96.5537V115.979C129.79 117.452 130.769 118.745 132.188 119.144ZM136.363 100.572C151.334 104.344 162.879 116.005 166.496 131.016H153.51C150.624 123.014 144.32 116.611 136.363 113.604V100.572Z" fill="#152296"/>
<path d="M126.091 189.087C149.798 189.087 170.275 171.395 173.729 147.932C173.867 146.988 173.591 146.029 172.965 145.306C172.339 144.581 171.434 144.167 170.478 144.167H151.094C149.602 144.167 148.295 145.175 147.917 146.619C145.304 156.543 136.33 163.477 126.091 163.477C113.634 163.477 103.498 153.34 103.498 140.881C103.498 130.465 110.578 121.449 120.715 118.958C122.185 118.599 123.218 117.28 123.218 115.768V96.4329C123.218 95.4827 122.807 94.5804 122.092 93.9548C121.376 93.3321 120.438 93.0401 119.482 93.1782C95.7689 96.4391 77.8877 116.946 77.8877 140.881C77.8877 167.463 99.5115 189.087 126.091 189.087ZM116.645 100.377V113.309C104.913 117.312 96.9245 128.305 96.9245 140.881C96.9245 156.964 110.007 170.05 126.091 170.05C138.455 170.05 149.387 162.228 153.511 150.741H166.491C162.007 169.097 145.272 182.513 126.091 182.513C103.135 182.513 84.4611 163.836 84.4611 140.881C84.4611 121.491 98.0542 104.704 116.645 100.377Z" fill="#152296"/>
</svg>
