<svg width="72" height="73" viewBox="0 0 72 73" fill="none" xmlns="http://www.w3.org/2000/svg">
<g clip-path="url(#clip0_4_791)">
<path d="M62.747 18.5242V18.5239C62.747 18.0283 62.6979 17.5261 62.5852 17.0541C61.959 14.4397 59.7968 12.7555 57.0449 12.7534C52.0493 12.7488 47.0527 12.7497 42.0565 12.7506C40.058 12.7509 38.0596 12.7513 36.0614 12.7513C33.8982 12.7513 31.7351 12.7505 29.572 12.7497C24.7054 12.7478 19.8391 12.746 14.9726 12.7534C11.6662 12.7595 9.26383 15.184 9.26181 18.5198L9.26181 18.5198C9.25548 27.7902 9.25759 37.0585 9.26181 46.329L9.26181 46.3291C9.26181 46.8248 9.31092 47.327 9.42369 47.799C10.0461 50.3855 12.2205 52.0957 14.916 52.1039H14.9161C19.3108 52.1188 23.7035 52.1145 28.0965 52.0996M62.747 18.5242L28.0973 52.3496M62.747 18.5242C62.7576 27.7946 62.7597 37.0628 62.7513 46.3331V46.3332C62.7492 49.6645 60.3323 52.0978 57.036 52.106C52.6958 52.1167 48.3559 52.1167 44.0139 52.0975H44.0128C43.7496 52.0975 43.5144 52.1383 43.3001 52.2453C43.0853 52.3524 42.9111 52.5162 42.7543 52.7306M62.747 18.5242L42.9561 52.8781M28.0965 52.0996L28.0973 52.3496M28.0965 52.0996C28.0963 52.0996 28.0962 52.0996 28.0961 52.0996L28.0973 52.3496M28.0965 52.0996C28.3473 52.0985 28.5747 52.1357 28.7828 52.2383C28.9919 52.3414 29.1616 52.5005 29.3127 52.7109M28.0973 52.3496C28.5487 52.3475 28.8418 52.4839 29.1097 52.8568M29.3127 52.7109L29.1097 52.8568M29.3127 52.7109C30.8503 54.8507 32.3903 56.9858 33.9805 59.082M29.3127 52.7109C29.3127 52.711 29.3127 52.711 29.3127 52.711L29.1097 52.8568M29.1097 52.8568L33.9805 59.082M33.9805 59.082C33.9804 59.0819 33.9803 59.0818 33.9803 59.0817L33.7814 59.2332L33.9806 59.0821C33.9805 59.0821 33.9805 59.0821 33.9805 59.082ZM33.9805 59.082C34.3017 59.5034 34.7798 59.884 35.2596 60.0853L35.2599 60.0854C36.2058 60.4836 37.2479 60.1286 37.9452 59.2004M33.9805 59.082L35.1629 60.3159C36.2364 60.7677 37.3943 60.35 38.1452 59.3505M37.9452 59.2004L38.1452 59.3505M37.9452 59.2004C37.9453 59.2004 37.9453 59.2003 37.9453 59.2003L38.1452 59.3505M37.9452 59.2004C39.5584 57.0505 41.1648 54.8968 42.7543 52.7306M38.1452 59.3505C39.7587 57.2001 41.3658 55.0455 42.9561 52.8781M42.9561 52.8781L42.7543 52.7306M42.9561 52.8781L42.7546 52.7302C42.7545 52.7304 42.7544 52.7305 42.7543 52.7306M58.0058 49.4093H57.3465H57.1295H57.1193H57.1091H57.099H57.0888H57.0786H57.0685H57.0584H57.0482H57.0381H57.0279H57.0178H57.0077H56.9976H56.9874H56.9773H56.9672H56.9571H56.947H56.9369H56.9268H56.9167H56.9066H56.8966H56.8865H56.8764H56.8663H56.8563H56.8462H56.8361H56.8261H56.816H56.806H56.7959H56.7859H56.7758H56.7658H56.7558H56.7458H56.7357H56.7257H56.7157H56.7057H56.6957H56.6857H56.6757H56.6657H56.6557H56.6457H56.6357H56.6257H56.6157H56.6057H56.5958H56.5858H56.5758H56.5659H56.5559H56.546H56.536H56.5261H56.5161H56.5062H56.4962H56.4863H56.4764H56.4664H56.4565H56.4466H56.4367H56.4268H56.4168H56.4069H56.397H56.3871H56.3772H56.3673H56.3574H56.3476H56.3377H56.3278H56.3179H56.308H56.2982H56.2883H56.2784H56.2686H56.2587H56.2489H56.239H56.2292H56.2193H56.2095H56.1996H56.1898H56.18H56.1702H56.1603H56.1505H56.1407H56.1309H56.1211H56.1113H56.1015H56.0916H56.0818H56.0721H56.0623H56.0525H56.0427H56.0329H56.0231H56.0133H56.0036H55.9938H55.984H55.9743H55.9645H55.9547H55.945H55.9352H55.9255H55.9157H55.906H55.8963H55.8865H55.8768H55.867H55.8573H55.8476H55.8379H55.8281H55.8184H55.8087H55.799H55.7893H55.7796H55.7699H55.7602H55.7505H55.7408H55.7311H55.7214H55.7117H55.7021H55.6924H55.6827H55.673H55.6634H55.6537H55.644H55.6344H55.6247H55.615H55.6054H55.5957H55.5861H55.5764H55.5668H55.5572H55.5475H55.5379H55.5283H55.5186H55.509H55.4994H55.4897H55.4801H55.4705H55.4609H55.4513H55.4417H55.4321H55.4225H55.4129H55.4033H55.3937H55.3841H55.3745H55.3649H55.3553H55.3457H55.3362H55.3266H55.317H55.3074H55.2979H55.2883H55.2787H55.2692H55.2596H55.2501H55.2405H55.231H55.2214H55.2119H55.2023H55.1928H55.1832H55.1737H55.1642H55.1546H55.1451H55.1356H55.126H55.1165H55.107H55.0975H55.088H55.0784H55.0689H55.0594H55.0499H55.0404H55.0309H55.0214H55.0119H55.0024H54.9929H54.9834H54.974H54.9645H54.955H54.9455H54.936H54.9265H54.9171H54.9076H54.8981H54.8887H54.8792H54.8697H54.8603H54.8508H54.8414H54.8319H54.8224H54.813H54.8035H54.7941H54.7847H54.7752H54.7658H54.7563H54.7469H54.7375H54.728H54.7186H54.7092H54.6997H54.6903H54.6809H54.6715H54.6621H54.6526H54.6432H54.6338H54.6244H54.615H54.6056H54.5962H54.5868H54.5774H54.568H54.5586H54.5492H54.5398H54.5304H54.521H54.5117H54.5023H54.4929H54.4835H54.4741H54.4647H54.4554H54.446H54.4366H54.4273H54.4179H54.4085H54.3992H54.3898H54.3804H54.3711H54.3617H54.3524H54.343H54.3337H54.3243H54.315H54.3056H54.2963H54.2869H54.2776H54.2682H54.2589H54.2496H54.2402H54.2309H54.2216H54.2122H54.2029H54.1936H54.1842H54.1749H54.1656H54.1563H54.147H54.1376H54.1283H54.119H54.1097H54.1004H54.0911H54.0818H54.0725H54.0632H54.0539H54.0446H54.0353H54.026H54.0167H54.0074H53.9981H53.9888H53.9795H53.9702H53.9609H53.9516H53.9423H53.933H53.9238H53.9145H53.9052H53.8959H53.8866H53.8774H53.8681H53.8588H53.8495H53.8403H53.831H53.8217H53.8125H53.8032H53.7939H53.7847H53.7754H53.7661H53.7569H53.7476H53.7384H53.7291H53.7199H53.7106H53.7014H53.6921H53.6829H53.6736H53.6644H53.6551H53.6459H53.6366H53.6274H53.6181H53.6089H53.5997H53.5904H53.5812H53.5719H53.5627H53.5535H53.5443H53.535H53.5258H53.5166H53.5073H53.4981H53.4889H53.4797H53.4704H53.4612H53.452H53.4428H53.4335H53.4243H53.4151H53.4059H53.3967H53.3875H53.3782H53.369H53.3598H53.3506H53.3414H53.3322H53.323H53.3138H53.3046H53.2953H53.2861H53.2769H53.2677H53.2585H53.2493H53.2401H53.2309H53.2217H53.2125H53.2033H53.1941H53.1849H53.1757H53.1665H53.1574H53.1482H53.139H53.1298H53.1206H53.1114H53.1022H53.093H53.0838H53.0746H53.0655H53.0563H53.0471H53.0379H53.0287H53.0195H53.0103H53.0012H52.992H52.9828H52.9736H52.9644H52.9553H52.9461H52.9369H52.9277H52.9185H52.9094H52.9002H52.891H52.8818H52.8727H52.8635H52.8543H52.8451H52.836H52.8268H52.8176H52.8085H52.7993H52.7901H52.781H52.7718H52.7626H52.7534H52.7443H52.7351H52.7259H52.7168H52.7076H52.6984H52.6893H52.6801H52.6709H52.6618H52.6526H52.6435H52.6343H52.6251H52.616H52.6068H52.5976H52.5885H52.5793H52.5702H52.561H52.5518H52.5427H52.5335H52.5243H52.5152H52.506H52.4969H52.4877H52.4785H52.4694H52.4602H52.4511H52.4419H52.4328H52.4236H52.4144H52.4053H52.3961H52.387H52.3778H52.3686H52.3595H52.3503H52.3412H52.332H52.3229H52.3137H52.3045H52.2954H52.2862H52.2771H52.2679C51.4252 49.4093 50.5821 49.4104 49.7389 49.4116C47.7705 49.4143 45.801 49.4169 43.832 49.405C42.5251 49.397 41.5182 49.9061 40.7383 50.9654C39.7175 52.3533 38.6878 53.7339 37.6585 55.1139C37.3455 55.5336 37.0324 55.9533 36.7197 56.3732C36.7196 56.3732 36.7196 56.3733 36.7195 56.3734L36.5191 56.224C36.4077 56.3746 36.2952 56.523 36.1709 56.6863L58.0058 49.4093ZM58.0058 49.4093L57.5123 48.9721M58.0058 49.4093L57.5123 48.9721M57.5123 48.9721C54.7925 46.5632 52.0504 44.1816 49.3216 41.8114L49.3026 41.7949C46.5672 39.4191 43.8453 37.0549 41.171 34.6849L40.9982 34.5318M57.5123 48.9721L40.9982 34.5318M40.9982 34.5318L40.8319 34.6918M40.9982 34.5318L40.8319 34.6918M40.8319 34.6918C39.4013 36.0676 37.9398 37.1001 35.9823 37.092C34.0317 37.0839 32.5913 36.0129 31.1808 34.6937L31.0145 34.5382M40.8319 34.6918L31.0145 34.5382M31.0145 34.5382L30.8442 34.6892M31.0145 34.5382L30.8442 34.6892M30.8442 34.6892C27.7501 37.431 24.6708 40.1587 21.5776 42.8988C19.3045 44.9123 17.0238 46.9325 14.7242 48.97L14.2308 49.4071M30.8442 34.6892L14.2308 49.4071M14.2308 49.4071H14.8899M14.2308 49.4071H14.8899M14.8899 49.4071H15.6387C16.8275 49.4071 18.0167 49.4085 19.2062 49.4099C22.1812 49.4134 25.1576 49.4169 28.1326 49.3986L28.1328 49.3986M14.8899 49.4071L28.1328 49.3986M28.1328 49.3986C29.5482 49.3885 30.6099 49.9196 31.4329 51.0733L31.4329 51.0733M28.1328 49.3986L31.4329 51.0733M31.4329 51.0733C32.3785 52.3986 33.3426 53.7118 34.3055 55.0234M31.4329 51.0733L34.3055 55.0234M34.3055 55.0234C34.7032 55.5651 35.1008 56.1066 35.4967 56.6486L34.3055 55.0234ZM58.7209 16.0965V16.0877L58.7202 16.0789C58.718 16.0467 58.7151 16.0143 58.7125 15.9843C58.7099 15.9536 58.7074 15.9252 58.7055 15.8978L58.6911 15.6946L58.4893 15.6676C58.324 15.6455 58.1635 15.6176 57.9978 15.5889C57.9036 15.5726 57.8076 15.556 57.7081 15.5399C57.4415 15.4969 57.1634 15.4608 56.8808 15.4608C44.949 15.4517 33.0187 15.4519 21.0874 15.4522C19.099 15.4522 17.1105 15.4523 15.1219 15.4523C15.0827 15.4523 15.0423 15.4511 14.9978 15.4496L14.987 15.4493C14.9467 15.448 14.903 15.4465 14.8593 15.4462C14.7727 15.4454 14.6749 15.4483 14.5745 15.4668C14.3461 15.4668 14.1153 15.5623 13.9358 15.6365C13.9259 15.6406 13.9161 15.6447 13.9065 15.6486C13.688 15.7387 13.5187 15.8036 13.3627 15.8036C13.3478 15.8036 13.2935 15.8041 13.2356 15.8383C13.2094 15.8561 13.1616 15.9049 13.142 15.936C13.1272 15.9694 13.1133 16.0349 13.1129 16.0657C13.116 16.1303 13.1433 16.1746 13.151 16.1869C13.1622 16.2046 13.1732 16.217 13.1786 16.223C13.19 16.2353 13.2001 16.2438 13.2036 16.2467C13.2084 16.2506 13.2124 16.2536 13.2148 16.2554C13.2228 16.2614 13.2302 16.266 13.232 16.2672C13.2381 16.2711 13.2451 16.2753 13.2512 16.279L13.3033 16.3097L13.3131 16.3155C13.3546 16.3399 13.4082 16.3713 13.4651 16.4054C13.5961 16.4839 13.7174 16.5603 13.7595 16.5953C17.1255 19.419 20.4921 22.2426 23.8586 25.0663C27.2253 27.8901 30.592 30.7139 33.9582 33.5376C34.6228 34.0952 35.3091 34.3933 36.0169 34.3916C36.7245 34.3898 37.4129 34.0884 38.0823 33.527L40.7482 31.2916C45.9576 26.9236 51.1682 22.5545 56.3789 18.187C56.9526 17.7064 57.5239 17.2245 58.0952 16.7425C58.2741 16.5916 58.453 16.4407 58.632 16.2898L58.7209 16.2149V16.0987V16.0965ZM11.9972 47.237V47.7924L12.413 47.4241C17.903 42.5608 23.2855 37.7934 28.6954 33.0026L28.9127 32.8102L28.6903 32.6238C25.5208 29.9676 22.3656 27.3222 19.2143 24.6801C16.9448 22.7773 14.6772 20.8761 12.4078 18.9738L11.9972 18.6296V19.1654V47.237ZM59.6044 47.422L60.0201 47.7901V47.2348V19.1739V18.638L59.6094 18.9824C57.736 20.5535 55.866 22.1217 53.9969 23.689C50.4457 26.667 46.8978 29.6423 43.3354 32.6303L43.1132 32.8167L43.3303 33.009C48.7339 37.7956 54.1164 42.563 59.6044 47.422Z" fill="#152296" stroke="white" stroke-width="0.5"/>
</g>
<defs>
<clipPath id="clip0_4_791">
<rect width="54" height="48" fill="white" transform="translate(9 12.5)"/>
</clipPath>
</defs>
</svg>
