<svg width="100" height="128" viewBox="0 0 100 128" fill="none" xmlns="http://www.w3.org/2000/svg">
<path d="M58.8663 13.1796L58.1179 13.1826C57.4499 13.1853 56.9582 13.1853 56.4705 13.1853M58.8663 13.1796L4.99945 13.2893L4.99782 12.5393L5.00186 13.2893C5.0015 13.2893 5.00115 13.2893 5.0008 13.2893C16.4367 13.2644 27.8725 13.2419 39.3084 13.2194C45.0291 13.2081 50.7497 13.1968 56.4705 13.1853M58.8663 13.1796L58.8649 12.4312M58.8663 13.1796L58.8649 12.4312M56.4705 13.1853C56.4705 13.1853 56.4704 13.1853 56.4704 13.1853H56.4699V12.4353L56.4714 13.1853C56.4711 13.1853 56.4708 13.1853 56.4705 13.1853ZM58.8649 12.4312C58.8634 11.5892 58.8631 10.7634 58.8629 9.94925M58.8649 12.4312L58.8629 9.94925M62.503 2.08899L62.5028 2.08888C62.0039 1.73579 61.5649 1.50869 61.1496 1.41873C60.7572 1.33374 60.3497 1.36279 59.8775 1.59317L62.503 2.08899ZM62.503 2.08899C71.4976 8.4511 80.5019 14.8023 89.5054 21.153C92.2432 23.0841 94.9809 25.0151 97.7182 26.9464C98.9017 27.782 99.2588 28.49 99.248 29.0131C99.2371 29.5403 98.846 30.2448 97.6271 31.0549C95.7129 32.3269 93.7982 33.5983 91.8835 34.8698C87.6998 37.6479 83.5158 40.4262 79.3361 43.2118L79.3358 43.2119M62.503 2.08899L79.3358 43.2119M79.3358 43.2119C78.8702 43.5225 78.4478 43.6817 78.0613 43.7132C77.6866 43.7438 77.2921 43.659 76.8588 43.3889L76.8578 43.3882M79.3358 43.2119L76.8578 43.3882M76.8578 43.3882C76.0922 42.9125 75.8348 42.2582 76.0455 41.6312L76.0462 41.6292M76.8578 43.3882L76.0462 41.6292M76.0462 41.6292C76.2525 41.0094 76.7564 40.3363 77.2994 39.9658C80.992 37.4459 84.7178 34.9763 88.4485 32.5035C89.6217 31.7258 90.7955 30.9478 91.9688 30.1678M76.0462 41.6292L93.7598 28.8904M93.7598 28.8904L92.9012 29.5045C92.7783 29.5924 92.6666 29.6734 92.5626 29.7488C92.3407 29.9097 92.1538 30.0451 91.9688 30.1678M93.7598 28.8904L92.8973 28.2817M93.7598 28.8904L92.8973 28.2817M91.9688 30.1678L91.5543 29.5427L91.9695 30.1673C91.9693 30.1675 91.969 30.1676 91.9688 30.1678ZM92.8973 28.2817C83.2874 21.5006 73.767 14.7835 63.9511 7.85836L62.7665 7.02257M92.8973 28.2817L62.7665 7.02257M62.7665 7.02257L62.7688 8.47238M62.7665 7.02257L62.7688 8.47238M62.7688 8.47238C62.7703 9.4187 62.7726 10.2936 62.7748 11.1346C62.7766 11.8135 62.7784 12.4703 62.7796 13.1249V13.125M62.7688 8.47238L62.7796 13.125M62.7796 13.125C62.7816 14.1836 62.7566 14.9436 62.6637 15.5065C62.5719 16.0633 62.4281 16.3295 62.2693 16.4855C62.1082 16.6437 61.8304 16.7882 61.2547 16.8814C60.6753 16.9752 59.8949 17.0025 58.8127 17.0045H58.8125M62.7796 13.125L58.8125 17.0045M58.8125 17.0045C40.8886 17.0419 22.9647 17.0765 5.038 17.1112L58.8125 17.0045ZM58.8629 9.94925C58.8624 7.90343 58.8618 5.93156 58.8405 3.96291M58.8629 9.94925L58.8405 3.96291M58.8405 3.96291C58.834 3.35192 58.8798 2.86446 59.0312 2.47708M58.8405 3.96291L59.0312 2.47708M59.0312 2.47708C59.1697 2.12291 59.4077 1.82244 59.8774 1.5932L59.0312 2.47708ZM3.62003 13.3265C3.9276 13.2812 4.22714 13.2841 4.58774 13.2875L3.62003 13.3265Z" fill="#152296" stroke="white" stroke-width="1.5"/>
<path d="M4.2764 41.1178L4.2758 41.1178C3.48503 41.1144 2.9215 40.8878 2.56779 40.5692C2.22346 40.2592 2.01151 39.8039 2.01976 39.1889L2.01977 39.1881C2.0268 38.6189 2.24219 38.1701 2.59317 37.8564C2.94996 37.5375 3.49699 37.3152 4.2272 37.3119L4.228 37.3119C9.45688 37.2826 14.6856 37.2693 19.9142 37.2746H19.915C20.6714 37.2746 21.2421 37.508 21.6113 37.8426C21.9744 38.1717 22.1887 38.6379 22.1787 39.2166L22.1787 39.2177C22.1696 39.7872 21.9541 40.2311 21.6036 40.5413C21.2462 40.8575 20.6962 41.0792 19.957 41.0859L19.9569 41.0859C18.1143 41.1028 16.2734 41.1038 14.4288 41.1048C13.6589 41.1052 12.8883 41.1056 12.1167 41.1072C11.3449 41.1087 10.5743 41.1115 9.80432 41.1142C7.95975 41.1207 6.11896 41.1272 4.2764 41.1178Z" fill="#152296" stroke="white" stroke-width="1.5"/>
<path d="M51.1853 125.906V125.797C51.1547 125.811 51.1216 125.825 51.0853 125.841L51.1853 125.906ZM51.1853 125.906C51.1543 125.92 51.1212 125.934 51.0853 125.95L51.1853 125.906ZM65.8154 101.267C65.5738 101.384 65.3321 101.5 65.0905 101.617C63.8574 102.213 62.624 102.808 61.3983 103.418M65.8154 101.267L56.0269 105.21C56.2723 105.329 56.3736 105.462 56.3708 105.749C56.3593 107.227 56.3609 108.706 56.3625 110.185C56.3629 110.57 56.3634 110.956 56.3635 111.341C56.3645 112.034 56.6737 112.228 57.295 111.927C57.6242 111.768 57.953 111.607 58.2818 111.447C59.0875 111.054 59.8935 110.661 60.7059 110.282C61.0762 110.109 61.2286 109.873 61.2249 109.459C61.2085 107.573 61.214 105.685 61.2249 103.799C61.2258 103.668 61.2997 103.467 61.3983 103.418M65.8154 101.267C65.8217 101.264 65.8284 101.261 65.8358 101.26L65.8154 101.267ZM61.3983 103.418L61.4431 103.507C61.427 103.515 61.3958 103.549 61.367 103.617C61.3403 103.68 61.3253 103.749 61.3249 103.799C61.314 105.686 61.3085 107.573 61.3249 109.458C61.3269 109.677 61.2875 109.861 61.1901 110.014C61.0927 110.168 60.9442 110.281 60.7482 110.372L60.7481 110.373C59.9366 110.751 59.1319 111.143 58.3265 111.536C57.9975 111.697 57.6683 111.857 57.3386 112.017C57.0235 112.17 56.7461 112.219 56.5434 112.091C56.3409 111.964 56.264 111.693 56.2635 111.342V111.341C56.2634 110.956 56.2629 110.571 56.2625 110.185C56.2609 108.707 56.2593 107.227 56.2708 105.748L56.2708 105.748C56.2721 105.616 56.2493 105.533 56.2086 105.472C56.1672 105.409 56.0989 105.356 55.9833 105.3M61.3983 103.418L61.4428 103.507C62.668 102.898 63.9008 102.303 65.1338 101.707C65.3678 101.594 65.6018 101.481 65.8358 101.368V101.558C65.8358 102.495 65.8357 103.432 65.8357 104.37C65.8354 109.059 65.8352 113.748 65.8413 118.438L55.9833 105.3M55.9833 105.3C55.4185 105.027 54.8536 104.754 54.2887 104.481C50.1326 102.473 45.9768 100.465 41.8364 98.4232M55.9833 105.3L41.8807 98.3336M41.8364 98.4232L41.8807 98.3336M41.8364 98.4232C41.8364 98.4233 41.8365 98.4233 41.8365 98.4233L41.8807 98.3336M41.8364 98.4232C41.5166 98.2658 41.2428 98.182 40.9742 98.1767C40.7067 98.1714 40.435 98.2437 40.1192 98.4142M41.8807 98.3336C41.2266 98.0115 40.7257 97.9731 40.0717 98.3262M40.1192 98.4142C40.1192 98.4142 40.1192 98.4142 40.1192 98.4142L40.0717 98.3262M40.1192 98.4142C39.1659 98.9291 38.1841 99.3949 37.1919 99.8656C36.8351 100.035 36.4769 100.205 36.1183 100.378M40.1192 98.4142L40.0717 98.3262M40.0717 98.3262L36.1183 100.378M36.1183 100.378C36.1626 100.403 36.2025 100.425 36.244 100.445C37.9475 101.272 39.6513 102.098 41.355 102.924C43.0589 103.75 44.7627 104.576 46.4664 105.403C46.5063 105.422 46.5468 105.442 46.5878 105.461C46.7422 105.535 46.9024 105.611 47.0523 105.702C47.0523 105.702 47.0523 105.702 47.0523 105.702L36.1183 100.378ZM35.3105 101.359C35.3097 101.371 35.3094 101.382 35.3094 101.394C35.3094 102.155 35.3094 102.916 35.3094 103.677C35.3096 108.622 35.3098 113.569 35.3012 118.515C35.3012 118.616 35.3279 118.666 35.3604 118.7C35.3994 118.74 35.4552 118.767 35.542 118.809L35.5422 118.809C37.8037 119.906 40.0651 121.003 42.3266 122.1L42.3935 122.133C44.6327 123.219 46.8719 124.306 49.111 125.392L49.0674 125.482L49.111 125.392C49.3169 125.492 49.5232 125.589 49.7445 125.694C49.8143 125.727 49.8857 125.76 49.959 125.795V125.489V125.467V125.444V125.422V125.4V125.377V125.355V125.333V125.31V125.288V125.265V125.243V125.221V125.198V125.176V125.154V125.131V125.109V125.086V125.064V125.042V125.019V124.997V124.974V124.952V124.93V124.907V124.885V124.863V124.84V124.818V124.795V124.773V124.751V124.728V124.706V124.683V124.661V124.639V124.616V124.594V124.572V124.549V124.527V124.504V124.482V124.46V124.437V124.415V124.393V124.37V124.348V124.325V124.303V124.281V124.258V124.236V124.213V124.191V124.169V124.146V124.124V124.102V124.079V124.057V124.034V124.012V123.99V123.967V123.945V123.922V123.9V123.878V123.855V123.833V123.811V123.788V123.766V123.743V123.721V123.699V123.676V123.654V123.632V123.609V123.587V123.564V123.542V123.52V123.497V123.475V123.452V123.43V123.408V123.385V123.363V123.341V123.318V123.296V123.273V123.251V123.229V123.206V123.184V123.161V123.139V123.117V123.094V123.072V123.05V123.027V123.005V122.982V122.96V122.938V122.915V122.893V122.871V122.848V122.826V122.803V122.781V122.759V122.736V122.714V122.691V122.669V122.647V122.624V122.602V122.58V122.557V122.535V122.512V122.49V122.468V122.445V122.423V122.4V122.378V122.356V122.333V122.311V122.289V122.266V122.244V122.221V122.199V122.177V122.154V122.132V122.11V122.087V122.065V122.042V122.02V121.998V121.975V121.953V121.93V121.908V121.886V121.863V121.841V121.819V121.796V121.774V121.751V121.729V121.707V121.684V121.662V121.639V121.617V121.595V121.572V121.55V121.528V121.505V121.483V121.46V121.438V121.416V121.393V121.371V121.349V121.326V121.304V121.281V121.259V121.237V121.214V121.192V121.169V121.147V121.125V121.102V121.08V121.058V121.035V121.013V120.99V120.968V120.946V120.923V120.901V120.878V120.856V120.834V120.811V120.789V120.767V120.744V120.722V120.699V120.677V120.655V120.632V120.61V120.588V120.565V120.543V120.52V120.498V120.476V120.453V120.431V120.408V120.386V120.364V120.341V120.319V120.297V120.274V120.252V120.229V120.207V120.185V120.162V120.14V120.117V120.095V120.073V120.05V120.028V120.006V119.983V119.961V119.938V119.916V119.894V119.871V119.849V119.827V119.804V119.782V119.759V119.737V119.715V119.692V119.67V119.647V119.625V119.603V119.58V119.558V119.536V119.513V119.491V119.468V119.446V119.424V119.401V119.379V119.356V119.334V119.312V119.289V119.267V119.245V119.222V119.2V119.177V119.155V119.133V119.11V119.088V119.066V119.043V119.021V118.998V118.976V118.954V118.931V118.909V118.886V118.864V118.842V118.819V118.797V118.775V118.752V118.73V118.707V118.685V118.663V118.64V118.618V118.595V118.573V118.551V118.528V118.506V118.484V118.461V118.439V118.416V118.394V118.372V118.349V118.327V118.305V118.282V118.26V118.237V118.215V118.193V118.17V118.148V118.125V118.103V118.081V118.058V118.036V118.014V117.991V117.969V117.946V117.924V117.902V117.879V117.857V117.834V117.812V117.79V117.767V117.745V117.723V117.7V117.678V117.655V117.633V117.611V117.588V117.566V117.544V117.521V117.499V117.476V117.454V117.432V117.409V117.387V117.364V117.342V117.32V117.297V117.275V117.253V117.23V117.208V117.185V117.163V117.141V117.118V117.096V117.074V117.051V117.029V117.006V116.984V116.962V116.939V116.917V116.894V116.872V116.85V116.827V116.805V116.783V116.76V116.738V116.715V116.693V116.671V116.648V116.626V116.603V116.581V116.559V116.536V116.514V116.492V116.469V116.447V116.424V116.402V116.38V116.357V116.335V116.313V116.29V116.268V116.245V116.223V116.201V116.178V116.156V116.133V116.111V116.089V116.066V116.044V116.022V115.999V115.977V115.954V115.932V115.91V115.887V115.865V115.842V115.82V115.798V115.775V115.753V115.731V115.708V115.686V115.663V115.641V115.619V115.596V115.574V115.552V115.529V115.507V115.484V115.462V115.44V115.417V115.395V115.372V115.35V115.328V115.305V115.283V115.261V115.238V115.216V115.193V115.171V115.149V115.126V115.104V115.081V115.059V115.037V115.014V114.992V114.97V114.947V114.925V114.902V114.88V114.858V114.835V114.813V114.791V114.768V114.746V114.723V114.701V114.679V114.656V114.634V114.611V114.589V114.567V114.544V114.522V114.5V114.477V114.455V114.432V114.41V114.388V114.365V114.343V114.32V114.298V114.276V114.253V114.231V114.209V114.186V114.164V114.141V114.119V114.097V114.074V114.052V114.03C49.959 113.613 49.9588 113.196 49.9586 112.779C49.9579 111.423 49.9573 110.067 49.9635 108.711C49.964 108.606 49.9511 108.538 49.9233 108.489C49.8971 108.442 49.8504 108.399 49.7547 108.36C49.4495 108.235 49.154 108.085 48.8634 107.937C48.8195 107.915 48.7758 107.893 48.7321 107.871L48.732 107.871C48.5544 107.78 48.4254 107.649 48.3624 107.495C48.2989 107.339 48.3061 107.166 48.3868 107.006C48.4643 106.851 48.5905 106.744 48.7474 106.701C48.9027 106.659 49.0784 106.681 49.2543 106.762M35.3105 101.359L54.5354 106.728L54.5794 106.818C54.7757 106.722 54.9158 106.581 54.9785 106.415C55.0419 106.246 55.0214 106.063 54.9174 105.898M35.3105 101.359C35.8325 101.612 36.3472 101.862 36.8577 102.11C37.5238 102.433 38.1829 102.753 38.8421 103.072C41.318 104.274 43.7947 105.475 46.2715 106.675L35.3105 101.359ZM49.2543 106.762C49.2815 106.774 49.3088 106.787 49.3361 106.799C49.6598 106.947 49.9888 107.098 50.3039 107.274L50.2551 107.361L50.3039 107.274C50.4046 107.33 50.4888 107.353 50.5693 107.352C50.6507 107.351 50.7377 107.326 50.8437 107.274C51.8406 106.776 52.8456 106.294 53.8495 105.813L54.0368 105.723C54.2157 105.637 54.3877 105.603 54.5425 105.633C54.7001 105.663 54.8277 105.756 54.9174 105.898M49.2543 106.762C49.2542 106.762 49.2542 106.762 49.2541 106.762L49.2124 106.853L49.2543 106.762ZM54.9174 105.898L54.8328 105.951L54.9174 105.898C54.9174 105.898 54.9174 105.898 54.9174 105.898ZM60.0785 104.155C60.0788 104.157 60.0791 104.159 60.0794 104.16C60.0859 104.2 60.0895 104.229 60.0895 104.256V104.256V104.256C60.0913 105.879 60.0932 107.502 60.085 109.125V109.125C60.085 109.164 60.0746 109.218 60.0554 109.267C60.046 109.291 60.0356 109.31 60.0256 109.324C60.015 109.339 60.0085 109.343 60.0088 109.343L60.0545 109.432M60.0785 104.155L60.1895 104.256C60.1913 105.879 60.1932 107.502 60.185 109.125C60.185 109.231 60.1311 109.393 60.0545 109.432M60.0785 104.155C59.9022 104.24 59.7272 104.326 59.5532 104.41C58.9213 104.718 58.3028 105.018 57.6805 105.31C57.5935 105.351 57.5475 105.39 57.5207 105.433C57.4939 105.476 57.4785 105.536 57.4789 105.633M60.0785 104.155L57.4789 105.633M60.0545 109.432C59.3967 109.764 58.7329 110.085 58.0368 110.421C57.855 110.509 57.671 110.598 57.4844 110.688V110.687V110.686V110.684V110.683V110.681V110.679V110.678V110.676V110.675V110.673V110.671V110.67V110.668V110.667V110.665V110.663V110.662V110.66V110.659V110.657V110.655V110.654V110.652V110.651V110.649V110.647V110.646V110.644V110.643V110.641V110.64V110.638V110.636V110.635V110.633V110.632V110.63V110.629V110.627V110.626V110.624V110.622V110.621V110.619V110.618V110.616V110.615V110.613V110.612V110.61V110.608V110.607V110.605V110.604V110.602V110.601V110.599V110.598V110.596V110.595V110.593V110.591V110.59V110.588V110.587V110.585V110.584V110.582V110.581V110.579V110.578V110.577M60.0545 109.432L60.0094 109.343C59.3524 109.675 58.6898 109.995 57.9939 110.331C57.8261 110.412 57.6564 110.494 57.4844 110.577M57.4844 110.577V110.576V110.575V110.573V110.572V110.57V110.569V110.567V110.566V110.564V110.563V110.561V110.56V110.558V110.557V110.555V110.554V110.552V110.551V110.549V110.548V110.546V110.545V110.543V110.542V110.54V110.539V110.537V110.536V110.534V110.533V110.531V110.53V110.528V110.527V110.525V110.524V110.522V110.521V110.519V110.518V110.516V110.515V110.514V110.512V110.511V110.509V110.508V110.506V110.505V110.503V110.502V110.5V110.499V110.497V110.496V110.495V110.493V110.492V110.49V110.489V110.487V110.486V110.484V110.483V110.481V110.48V110.479V110.477V110.476V110.474V110.473V110.471V110.47V110.469V110.467V110.466V110.464V110.463V110.461V110.46V110.458V110.457V110.456V110.454V110.453V110.451V110.45V110.449V110.447V110.446V110.444V110.443V110.441V110.44V110.439V110.437V110.436V110.434V110.433V110.432V110.43V110.429V110.427V110.426V110.425V110.423V110.422V110.42V110.419V110.418V110.416V110.415V110.413V110.412V110.411V110.409V110.408V110.406V110.405V110.404V110.402V110.401V110.399V110.398V110.397V110.395V110.394V110.392V110.391V110.39V110.388V110.387V110.386V110.384V110.383V110.381V110.38V110.379V110.377V110.376V110.375V110.373V110.372V110.37V110.369V110.368V110.366V110.365V110.364V110.362V110.361V110.359V110.358V110.357V110.355V110.354V110.353V110.351V110.35V110.349V110.347V110.346V110.345V110.343V110.342V110.34V110.339V110.338V110.336V110.335V110.334V110.332V110.331V110.33V110.328V110.327V110.326V110.324V110.323V110.322V110.32V110.319V110.318V110.316V110.315V110.314V110.312V110.311V110.31V110.308V110.307V110.306V110.304V110.303V110.302V110.3V110.299V110.298V110.296V110.295V110.294V110.292V110.291V110.29V110.288V110.287V110.286V110.284V110.283V110.282V110.28V110.279V110.278V110.276V110.275V110.274V110.272V110.271V110.27V110.268V110.267V110.266V110.265V110.263V110.262V110.261V110.259V110.258V110.257V110.255V110.254V110.253V110.251V110.25V110.249V110.247V110.246V110.245V110.244V110.242V110.241V110.24V110.238V110.237V110.236V110.234V110.233V110.232V110.231V110.229V110.228V110.227V110.225V110.224V110.223V110.221V110.22V110.219V110.218V110.216V110.215V110.214V110.212V110.211V110.21V110.208V110.207V110.206V110.205V110.203V110.202V110.201V110.199V110.198V110.197V110.196V110.194V110.193V110.192V110.19V110.189V110.188V110.187V110.185V110.184V110.183V110.181V110.18V110.179V110.178V110.176V110.175V110.174V110.172V110.171V110.17V110.169V110.167V110.166V110.165V110.163V110.162V110.161V110.16V110.158V110.157V110.156V110.155V110.153V110.152V110.151V110.149V110.148V110.147V110.146V110.144V110.143V110.142V110.141V110.139V110.138V110.137V110.135V110.134V110.133V110.132V110.13V110.129V110.128V110.127V110.125V110.124V110.123V110.121V110.12V110.119V110.118V110.116V110.115V110.114V110.113V110.111V110.11V110.109V110.108V110.106V110.105V110.104V110.102V110.101V110.1V110.099V110.097V110.096V110.095V110.094V110.092V110.091V110.09V110.089V110.087V110.086V110.085V110.083V110.082V110.081V110.08V110.078V110.077V110.076V110.075V110.073V110.072V110.071V110.07V110.068V110.067V110.066V110.065V110.063V110.062V110.061V110.059V110.058V110.057V110.056V110.054V110.053V110.052V110.051V110.049V110.048V110.047V110.046V110.044V110.043V110.042V110.041V110.039V110.038V110.037V110.036V110.034V110.033V110.032V110.031V110.029V110.028V110.027V110.025V110.024V110.023C57.4844 109.675 57.4846 109.326 57.4849 108.978C57.4857 107.863 57.4865 106.748 57.4789 105.633M57.4844 110.577L57.4789 105.633M50.3116 127.382L50.3366 127.398H50.3664H50.776H50.7769H50.8023L50.8246 127.386C50.8982 127.346 50.9703 127.306 51.0418 127.266C51.1943 127.181 51.344 127.098 51.4995 127.022L52.4413 126.565C57.1191 124.293 61.7972 122.022 66.4801 119.76L66.4801 119.76C66.6797 119.664 66.8298 119.548 66.9283 119.391C67.0268 119.234 67.0666 119.048 67.0666 118.822V118.822C67.0557 112.773 67.0548 106.724 67.0675 100.675C67.068 100.436 67.0269 100.24 66.9234 100.076C66.8199 99.9117 66.6614 99.7908 66.4491 99.6882L66.4491 99.6882C61.5971 97.3463 56.7507 94.9929 51.9046 92.6397L51.0682 92.2335C51.0682 92.2335 51.0681 92.2334 51.068 92.2334C51.0308 92.2151 50.9943 92.1918 50.9547 92.1648C50.9431 92.1569 50.9309 92.1484 50.9183 92.1396C50.89 92.1199 50.8596 92.0988 50.8299 92.0798L50.8052 92.0641H50.776H50.7752H50.7744H50.7736H50.7728H50.772H50.7712H50.7704H50.7696H50.7688H50.768H50.7672H50.7664H50.7656H50.7648H50.764H50.7632H50.7624H50.7616H50.7608H50.76H50.7592H50.7584H50.7576H50.7568H50.756H50.7552H50.7544H50.7536H50.7528H50.752H50.7512H50.7504H50.7496H50.7488H50.748H50.7472H50.7464H50.7456H50.7448H50.744H50.7432H50.7424H50.7416H50.7407H50.7399H50.7391H50.7383H50.7375H50.7367H50.7359H50.7351H50.7343H50.7335H50.7327H50.7319H50.7311H50.7303H50.7295H50.7287H50.7279H50.7271H50.7263H50.7255H50.7247H50.7239H50.7231H50.7223H50.7215H50.7207H50.7199H50.7191H50.7183H50.7175H50.7167H50.7159H50.7151H50.7143H50.7135H50.7127H50.7119H50.7111H50.7103H50.7095H50.7087H50.7079H50.7071H50.7063H50.7055H50.7047H50.7039H50.7031H50.7023H50.7015H50.7007H50.6999H50.6991H50.6983H50.6975H50.6967H50.6959H50.6951H50.6943H50.6935H50.6927H50.6919H50.6911H50.6903H50.6895H50.6887H50.6879H50.6871H50.6863H50.6855H50.6847H50.6839H50.6831H50.6823H50.6815H50.6807H50.6799H50.6791H50.6783H50.6775H50.6767H50.6759H50.6751H50.6743H50.6735H50.6727H50.6719H50.6711H50.6703H50.6695H50.6687H50.6679H50.6671H50.6663H50.6655H50.6647H50.6639H50.6631H50.6623H50.6615H50.6607H50.6599H50.6591H50.6583H50.6575H50.6567H50.6559H50.6551H50.6543H50.6535H50.6527H50.6519H50.6511H50.6503H50.6495H50.6487H50.6479H50.6471H50.6463H50.6455H50.6447H50.6439H50.6431H50.6423H50.6415H50.6407H50.6399H50.6391H50.6383H50.6375H50.6367H50.6359H50.6351H50.6343H50.6335H50.6327H50.6319H50.6311H50.6303H50.6295H50.6287H50.6279H50.6271H50.6264H50.6256H50.6248H50.624H50.6232H50.6224H50.6216H50.6208H50.62H50.6192H50.6184H50.6176H50.6168H50.616H50.6152H50.6144H50.6136H50.6128H50.612H50.6112H50.6104H50.6096H50.6088H50.608H50.6072H50.6064H50.6056H50.6048H50.604H50.6032H50.6024H50.6016H50.6008H50.6H50.5992H50.5984H50.5976H50.5968H50.596H50.5952H50.5944H50.5936H50.5928H50.592H50.5912H50.5904H50.5896H50.5888H50.588H50.5872H50.5864H50.5856H50.5848H50.584H50.5832H50.5824H50.5816H50.5808H50.58H50.5792H50.5784H50.5776H50.5768H50.576H50.5752H50.5744H50.5736H50.5728H50.572H50.5712H50.5704H50.5696H50.5688H50.568H50.5672H50.5664H50.5656H50.5648H50.564H50.5632H50.5624H50.5616H50.5608H50.56H50.5592H50.5584H50.5576H50.5568H50.556H50.5552H50.5544H50.5536H50.5528H50.552H50.5512H50.5504H50.5496H50.5488H50.548H50.5472H50.5464H50.5456H50.5448H50.544H50.5432H50.5424H50.5416H50.5408H50.54H50.5392H50.5384H50.5376H50.5368H50.536H50.5352H50.5344H50.5336H50.5328H50.532H50.5312H50.5305H50.5297H50.5289H50.5281H50.5273H50.5265H50.5257H50.5249H50.5241H50.5233H50.5225H50.5217H50.5209H50.5201H50.5193H50.5185H50.5177H50.5169H50.5161H50.5153H50.5145H50.5137H50.5129H50.5121H50.5113H50.5105H50.5097H50.5089H50.5081H50.5073H50.5065H50.5057H50.5049H50.5041H50.5033H50.5025H50.5017H50.5009H50.5001H50.4993H50.4985H50.4977H50.4969H50.4961H50.4953H50.4945H50.4937H50.4929H50.4921H50.4913H50.4905H50.4897H50.4889H50.4881H50.4873H50.4865H50.4857H50.4849H50.4841H50.4833H50.4825H50.4817H50.4809H50.4801H50.4793H50.4785H50.4777H50.4769H50.4761H50.4753H50.4745H50.4737H50.4729H50.4721H50.4713H50.4705H50.4697H50.4689H50.4681H50.4673H50.4665H50.4657H50.4649H50.4641H50.4633H50.4625H50.4617H50.4609H50.4601H50.4593H50.4585H50.4577H50.4569H50.4561H50.4553H50.4545H50.4537H50.4529H50.4521H50.4513H50.4505H50.4497H50.4489H50.4481H50.4473H50.4465H50.4457H50.4449H50.4441H50.4433H50.4425H50.4417H50.4409H50.4401H50.4393H50.4385H50.4377H50.4369H50.4361H50.4353H50.4345H50.4337H50.4329H50.4321H50.4313H50.4305H50.4297H50.4289H50.4281H50.4273H50.4265H50.4257H50.4249H50.4241H50.4233H50.4225H50.4217H50.4209H50.4201H50.4193H50.4185H50.4177H50.4169H50.4161H50.4153H50.4145H50.4137H50.4129H50.4121H50.4113H50.4105H50.4097H50.4089H50.4081H50.4073H50.4065H50.4057H50.4049H50.4041H50.4033H50.4025H50.4017H50.4009H50.4001H50.3993H50.3985H50.3977H50.3969H50.3961H50.3953H50.3945H50.3937H50.3929H50.3921H50.3913H50.3905H50.3897H50.3888H50.388H50.3872H50.3864H50.3856H50.3848H50.384H50.3832H50.3824H50.3816H50.3808H50.38H50.3792H50.3784H50.3776H50.3768H50.376H50.3752H50.3744H50.3736H50.3728H50.372H50.3712H50.3704H50.3696H50.3688H50.368H50.3672H50.3664H50.3366L50.3116 92.0804C50.2808 92.1006 50.249 92.1231 50.2189 92.1443C50.2031 92.1555 50.1878 92.1663 50.1734 92.1762C50.1294 92.2067 50.0882 92.233 50.0462 92.2535C49.4168 92.5589 48.7875 92.8644 48.1581 93.1699C43.6724 95.347 39.1863 97.5244 34.6952 99.6891L34.6952 99.6891C34.4816 99.7921 34.323 99.913 34.2197 100.077C34.1164 100.241 34.0758 100.436 34.0758 100.674L34.0758 100.674C34.0876 106.712 34.0876 112.749 34.0758 118.787V118.787C34.0758 119.025 34.1164 119.221 34.2195 119.385C34.3226 119.549 34.481 119.67 34.6942 119.773L34.6943 119.773C39.0438 121.869 43.3874 123.977 47.7314 126.085C48.503 126.46 49.2747 126.834 50.0463 127.209L50.0465 127.209C50.0887 127.229 50.1298 127.255 50.1737 127.286C50.1879 127.296 50.2031 127.306 50.2188 127.318C50.2488 127.339 50.2807 127.361 50.3116 127.382ZM46.9895 106.786C47.1196 106.734 47.2224 106.632 47.2879 106.483L46.5732 106.805C46.7174 106.838 46.8616 106.838 46.9895 106.786ZM46.5621 95.3083C46.7897 95.198 47.0157 95.0882 47.2405 94.9791C48.343 94.444 49.4161 93.9231 50.4957 93.4137L50.4963 93.4135C50.5155 93.4043 50.5577 93.4006 50.6249 93.4155C50.6876 93.4293 50.7549 93.4554 50.81 93.4819C55.0055 95.5109 59.1982 97.5453 63.391 99.5797L63.3935 99.5809C63.6947 99.7271 63.9951 99.8732 64.3 100.021C64.541 100.139 64.7849 100.257 65.0341 100.378C65.0095 100.394 64.9871 100.406 64.9624 100.418C64.7547 100.519 64.547 100.62 64.3393 100.721C63.2994 101.226 62.2602 101.731 61.2159 102.226L61.2158 102.226C61.1691 102.248 61.1038 102.264 61.0364 102.267C60.968 102.271 60.9091 102.261 60.8715 102.243C56.1307 99.9554 51.3953 97.658 46.6598 95.3606L46.6161 95.4506L46.66 95.3607C46.6288 95.3455 46.5992 95.3292 46.5621 95.3083ZM42.427 97.3634L42.4261 97.363C42.4181 97.3592 42.4104 97.3553 42.4024 97.3512C42.5679 97.2704 42.7318 97.1901 42.8946 97.1104C43.6239 96.7532 44.3297 96.4075 45.0433 96.0784C45.0791 96.062 45.139 96.0566 45.2155 96.068C45.2894 96.079 45.3657 96.1038 45.4249 96.1325L45.4251 96.1326C47.5328 97.1495 49.6381 98.1718 51.7435 99.1941C52.523 99.5726 53.3025 99.9511 54.0821 100.329L54.0822 100.329C54.9646 100.757 55.847 101.184 56.7293 101.612L56.7382 101.616L56.7402 101.617C57.6249 102.045 58.5095 102.473 59.3942 102.902L59.3945 102.902C59.4615 102.935 59.5255 102.969 59.6062 103.012C59.4603 103.083 59.322 103.151 59.1875 103.216C59.0567 103.28 58.9294 103.342 58.802 103.404L58.8019 103.404C58.6484 103.479 58.4954 103.554 58.3426 103.63C57.904 103.846 57.4667 104.062 57.0229 104.263L57.0229 104.263C56.9765 104.284 56.9115 104.297 56.8433 104.298C56.7747 104.299 56.7131 104.288 56.6716 104.268C52.4282 102.217 48.1884 100.16 43.9483 98.1017C43.4412 97.8556 42.9341 97.6095 42.427 97.3634Z" fill="#152296" stroke="#152296" stroke-width="0.2"/>
<path d="M42.4712 116.214L42.4712 116.214C42.469 116.467 42.3476 116.671 42.1563 116.777C41.9661 116.883 41.7205 116.885 41.4809 116.766C41.4809 116.766 41.4809 116.766 41.4808 116.766L41.5252 116.676L42.4712 116.214ZM42.4712 116.214V116.213M42.4712 116.214V116.213M41.938 115.618C41.2478 115.272 40.5582 114.925 39.8687 114.578C39.0526 114.167 38.2366 113.756 37.4198 113.347M41.938 115.618L38.7097 115.26C38.4818 115.146 38.2535 115.031 38.0253 114.917C37.6637 114.736 37.3022 114.556 36.9418 114.372C36.5572 114.175 36.4258 113.873 36.5767 113.556C36.7315 113.233 37.0304 113.152 37.4198 113.347M41.938 115.618C42.1824 115.741 42.3751 115.896 42.3712 116.212L41.938 115.618ZM37.4198 113.347L37.4198 113.347L37.4198 113.347ZM42.4712 116.213V116.213V116.213Z" fill="#152296" stroke="#152296" stroke-width="0.2"/>
<path d="M39.6795 117.96L39.6432 117.997L39.6422 117.998L39.5707 117.93L39.5353 118.02C39.4658 117.993 39.4046 117.97 39.3493 117.949C39.2382 117.908 39.1514 117.875 39.0704 117.836L39.0701 117.836C38.3418 117.478 37.6145 117.119 36.8891 116.757C36.6867 116.656 36.5392 116.523 36.4661 116.362C36.3916 116.197 36.4009 116.018 36.4852 115.842L36.4854 115.841L36.4854 115.841C36.5701 115.666 36.7028 115.547 36.8759 115.504C37.0458 115.461 37.2388 115.496 37.44 115.594L39.6795 117.96ZM39.6795 117.96C39.7012 117.939 39.7248 117.917 39.7501 117.895C39.7581 117.887 39.7664 117.88 39.7747 117.873C39.8069 117.844 39.8411 117.813 39.8739 117.782C39.956 117.703 40.0413 117.608 40.0872 117.49L40.0872 117.49C40.1533 117.321 40.138 117.161 40.0628 117.025C39.9895 116.892 39.8635 116.788 39.7185 116.717L39.6795 117.96ZM39.7184 116.716C38.9606 116.34 38.2018 115.965 37.44 115.594L39.7184 116.716Z" fill="#152296" stroke="#152296" stroke-width="0.2"/>
<path d="M41.1337 77.8671L41.8821 77.8701C42.5501 77.8728 43.0418 77.8728 43.5295 77.8728M41.1337 77.8671L95.0005 77.9768L95.0022 77.2268L94.9981 77.9768C94.9985 77.9768 94.9988 77.9768 94.9992 77.9768C83.5633 77.9519 72.1275 77.9294 60.6916 77.9069C54.9709 77.8956 49.2503 77.8843 43.5295 77.8728M41.1337 77.8671L41.1351 77.1187M41.1337 77.8671L41.1351 77.1187M43.5295 77.8728C43.5295 77.8728 43.5296 77.8728 43.5296 77.8728H43.5301V77.1228L43.5286 77.8728C43.5289 77.8728 43.5292 77.8728 43.5295 77.8728ZM41.1351 77.1187C41.1366 76.2767 41.1369 75.4509 41.1371 74.6367M41.1351 77.1187L41.1371 74.6367M37.497 66.7765L37.4972 66.7764C37.9961 66.4233 38.4351 66.1962 38.8504 66.1062C39.2428 66.0212 39.6503 66.0503 40.1225 66.2807L37.497 66.7765ZM37.497 66.7765C28.5024 73.1386 19.4981 79.4898 10.4946 85.8405C7.75681 87.7716 5.01913 89.7026 2.2818 91.6339C1.09834 92.4695 0.741226 93.1775 0.752029 93.7006C0.762917 94.2278 1.15399 94.9323 2.37293 95.7424C4.28712 97.0144 6.2018 98.2858 8.11652 99.5573C12.3002 102.335 16.4842 105.114 20.6639 107.899L20.6642 107.899M37.497 66.7765L20.6642 107.899M20.6642 107.899C21.1298 108.21 21.5522 108.369 21.9387 108.401C22.3134 108.431 22.7079 108.347 23.1412 108.076L23.1422 108.076M20.6642 107.899L23.1422 108.076M23.1422 108.076C23.9078 107.6 24.1652 106.946 23.9545 106.319L23.9538 106.317M23.1422 108.076L23.9538 106.317M23.9538 106.317C23.7475 105.697 23.2436 105.024 22.7006 104.653C19.008 102.133 15.2822 99.6638 11.5515 97.191C10.3783 96.4133 9.20454 95.6353 8.03121 94.8553M23.9538 106.317L6.24017 93.5779M6.24017 93.5779L7.09879 94.192C7.22166 94.2799 7.33338 94.3609 7.43739 94.4363C7.65933 94.5972 7.84616 94.7326 8.03121 94.8553M6.24017 93.5779L7.10271 92.9692M6.24017 93.5779L7.10271 92.9692M8.03121 94.8553L8.44571 94.2302L8.03051 94.8548C8.03075 94.855 8.03098 94.8551 8.03121 94.8553ZM7.10271 92.9692C16.7126 86.1881 26.233 79.471 36.0489 72.5459L37.2335 71.7101M7.10271 92.9692L37.2335 71.7101M37.2335 71.7101L37.2312 73.1599M37.2335 71.7101L37.2312 73.1599M37.2312 73.1599C37.2297 74.1062 37.2274 74.9811 37.2252 75.8221C37.2234 76.501 37.2216 77.1578 37.2204 77.8124V77.8125M37.2312 73.1599L37.2204 77.8125M37.2204 77.8125C37.2184 78.8711 37.2434 79.6311 37.3363 80.194C37.4281 80.7508 37.5719 81.017 37.7307 81.173C37.8918 81.3312 38.1696 81.4757 38.7453 81.5689C39.3247 81.6627 40.1051 81.69 41.1873 81.692H41.1875M37.2204 77.8125L41.1875 81.692M41.1875 81.692C59.1114 81.7294 77.0353 81.764 94.962 81.7987L41.1875 81.692ZM41.1371 74.6367C41.1376 72.5909 41.1382 70.6191 41.1595 68.6504M41.1371 74.6367L41.1595 68.6504M41.1595 68.6504C41.166 68.0394 41.1202 67.552 40.9688 67.1646M41.1595 68.6504L40.9688 67.1646M40.9688 67.1646C40.8303 66.8104 40.5923 66.5099 40.1226 66.2807L40.9688 67.1646ZM96.38 78.014C96.0724 77.9687 95.7729 77.9716 95.4123 77.975L96.38 78.014Z" fill="#152296" stroke="white" stroke-width="1.5"/>
<path d="M95.7236 105.805L95.7242 105.805C96.515 105.802 97.0785 105.575 97.4322 105.257C97.7765 104.947 97.9885 104.491 97.9802 103.876L97.9802 103.876C97.9732 103.306 97.7578 102.858 97.4068 102.544C97.05 102.225 96.503 102.003 95.7728 101.999L95.772 101.999C90.5431 101.97 85.3144 101.957 80.0858 101.962H80.085C79.3286 101.962 78.7579 102.196 78.3887 102.53C78.0256 102.859 77.8113 103.325 77.8213 103.904L77.8213 103.905C77.8304 104.475 78.0459 104.919 78.3964 105.229C78.7538 105.545 79.3038 105.767 80.043 105.773L80.0431 105.773C81.8857 105.79 83.7266 105.791 85.5712 105.792C86.3411 105.793 87.1117 105.793 87.8833 105.795C88.6551 105.796 89.4257 105.799 90.1957 105.802C92.0402 105.808 93.881 105.815 95.7236 105.805Z" fill="#152296" stroke="white" stroke-width="1.5"/>
<g clip-path="url(#clip0_4_208)">
<path d="M51.3318 51.3261C51.3318 51.8305 51.2805 52.4215 51.3443 53.0005C51.4379 53.8561 51.0195 54.4663 50.3609 54.8897C49.6443 55.35 48.8746 55.7726 48.0694 56.0548C45.5028 56.9538 42.8244 57.1462 40.1178 57.0484C37.8437 56.9666 35.6126 56.6514 33.5042 55.7726C32.5705 55.3837 31.6915 54.9081 31.172 54.0052C31.0834 53.8513 31.0097 53.6644 31.0088 53.4928C31.0006 48.5716 30.9881 43.6505 31.0254 38.7293C31.0287 38.2995 31.0478 37.8737 31.0155 37.4406C30.9674 36.7991 31.3551 36.3316 31.8224 35.9347C32.7022 35.1873 33.7643 34.7696 34.8703 34.4672C38.6796 33.4248 42.5203 33.4088 46.3801 34.1794C46.4456 34.1922 46.511 34.2066 46.6262 34.2307C46.6353 34.0679 46.6486 33.9292 46.6486 33.7913C46.6502 31.991 46.6436 30.19 46.656 28.3897C46.6577 28.1492 46.7538 27.9102 46.7952 27.6681C46.8076 27.5983 46.7985 27.5165 46.7728 27.4499C46.4795 26.6906 46.7331 26.0643 47.2865 25.5214C47.9708 24.8502 48.8307 24.4573 49.7296 24.1397C52.0833 23.3082 54.5297 23.0572 57.0143 23.0708C59.2884 23.0845 61.5385 23.309 63.685 24.074C64.4655 24.3522 65.2285 24.7291 65.9169 25.179C66.7396 25.7171 67.2615 26.458 66.8324 27.5029C66.8117 27.5534 66.8382 27.6247 66.8498 27.6857C66.892 27.9014 66.9765 28.1163 66.9765 28.332C66.9832 34.8137 66.9707 41.2953 66.9989 47.7762C67.0022 48.4794 66.728 48.9782 66.2467 49.4176C65.5731 50.0319 64.7521 50.4136 63.8905 50.7151C61.4018 51.5859 58.8153 51.8578 56.1933 51.7543C54.5877 51.691 52.9888 51.4761 51.3318 51.3245V51.3261ZM32.5655 50.1586C32.5655 51.0727 32.5895 52.0414 32.5564 53.0093C32.5382 53.5457 32.747 53.9403 33.2183 54.1528C33.8894 54.4551 34.5721 54.775 35.2862 54.937C38.9952 55.7766 42.7308 55.7814 46.458 55.0685C47.3511 54.8977 48.2102 54.5297 49.0577 54.1881C49.5598 53.986 49.8199 53.5722 49.7785 52.9973C49.7404 52.4664 49.7702 51.9307 49.7702 51.3975C49.7702 50.9653 49.7702 50.5339 49.7702 50.161C44.0116 52.367 38.3134 52.367 32.5663 50.1594L32.5655 50.1586ZM49.7511 44.7747C47.0313 46.1283 44.1367 46.4795 41.1766 46.4835C38.2049 46.4867 35.3028 46.1211 32.5647 44.7699C32.5647 45.7891 32.5895 46.7481 32.5547 47.7056C32.5349 48.2581 32.7519 48.6614 33.2399 48.8764C33.925 49.1787 34.6234 49.4954 35.3516 49.659C39.0052 50.4801 42.6868 50.4793 46.3578 49.7969C47.2774 49.6261 48.1679 49.2573 49.0345 48.8948C49.3328 48.7697 49.6981 48.4 49.718 48.121C49.7967 47.0248 49.7503 45.9198 49.7503 44.7739L49.7511 44.7747ZM32.5655 39.5809C32.5655 40.491 32.597 41.4373 32.5539 42.3803C32.5258 42.9889 32.7884 43.4003 33.3161 43.6304C33.978 43.9191 34.6541 44.2174 35.3566 44.3722C39.0383 45.1829 42.7448 45.1973 46.4406 44.4836C47.3453 44.3088 48.2168 43.9359 49.0768 43.5911C49.5647 43.3955 49.8199 42.9873 49.776 42.4308C49.7437 42.0202 49.7694 41.6048 49.7694 41.1919C49.7694 40.6378 49.7694 40.0837 49.7694 39.5769C44.0198 41.7861 38.3242 41.7805 32.5655 39.5801V39.5809ZM65.4074 29.0008C59.6703 31.2044 53.9606 31.2084 48.2102 28.9904C48.2102 29.9133 48.2342 30.8716 48.2011 31.8282C48.1812 32.3992 48.4256 32.7961 48.9227 33.0222C49.5299 33.2981 50.1496 33.5876 50.7975 33.7383C54.6275 34.6276 58.4831 34.6284 62.328 33.8562C63.1896 33.683 64.0156 33.3005 64.8217 32.9381C65.0777 32.8226 65.3668 32.4697 65.3809 32.2115C65.443 31.125 65.4074 30.0328 65.4074 29.0008ZM56.7434 29.1131C58.8294 29.0954 60.8351 28.9591 62.7978 28.4667C63.5997 28.2655 64.3975 28.0337 65.0429 27.4989C65.5532 27.0763 65.5648 26.5735 65.0321 26.183C64.6535 25.9063 64.2161 25.6802 63.7712 25.5174C62.3015 24.9793 60.7548 24.7781 59.1981 24.6666C56.5586 24.4781 53.9316 24.5487 51.3352 25.0996C50.4181 25.2937 49.5092 25.531 48.7305 26.0683C48.0462 26.5406 48.0197 27.138 48.7147 27.5847C49.1886 27.8894 49.7288 28.1291 50.2731 28.2967C52.3973 28.9519 54.5985 29.0842 56.7434 29.1122V29.1131ZM41.1708 35.1641C39.3448 35.1593 37.5247 35.2579 35.7485 35.6797C34.901 35.881 34.0526 36.1632 33.2772 36.5457C32.2938 37.0309 32.3211 37.7774 33.2821 38.3195C33.6831 38.5456 34.1205 38.7253 34.5621 38.8664C36.0517 39.3419 37.5968 39.532 39.1551 39.6234C41.6711 39.7717 44.1814 39.7148 46.6436 39.1567C47.5168 38.9586 48.3825 38.6339 49.1729 38.2241C50.0038 37.7927 49.9806 37.0854 49.1687 36.6067C48.6692 36.3124 48.1124 36.0814 47.5516 35.9179C45.473 35.3108 43.3281 35.1713 41.1699 35.1641H41.1708ZM65.4033 34.2956C59.6678 36.4952 53.9589 36.4984 48.2342 34.2924C48.1224 34.5827 48.2881 34.707 48.5789 34.8538C49.259 35.1962 49.94 35.5554 50.5556 35.9932C51.0808 36.3669 51.4743 36.9355 51.2946 37.585C51.1396 38.1463 51.4271 38.629 51.3335 39.1519C51.4752 39.1888 51.5787 39.224 51.6864 39.2425C55.2704 39.8664 58.8518 39.8856 62.4142 39.1262C63.2103 38.9562 63.9816 38.6298 64.7223 38.2914C65.0081 38.1607 65.3536 37.8071 65.3718 37.5361C65.4455 36.4391 65.4025 35.3341 65.4025 34.2964L65.4033 34.2956ZM51.3691 45.9503V49.744C51.4702 49.7745 51.5348 49.8009 51.6019 49.8122C55.0997 50.4344 58.5975 50.4448 62.0919 49.7929C63.0546 49.6133 64.0098 49.3727 64.8258 48.8194C65.0677 48.6558 65.3635 48.3672 65.3768 48.1226C65.4364 47.024 65.4025 45.9206 65.4025 44.818C60.8459 46.8299 56.1444 46.7995 51.3691 45.9511V45.9503ZM51.3509 44.4435C51.4246 44.466 51.476 44.4844 51.529 44.4973C51.6094 44.5173 51.6897 44.5357 51.7709 44.5502C55.1734 45.142 58.5809 45.1564 61.971 44.5141C62.9162 44.3353 63.8275 43.9472 64.7264 43.5903C65.2119 43.3979 65.482 42.9905 65.4223 42.4308C65.3909 42.1405 65.4165 41.8446 65.4165 41.5519C65.4165 40.8775 65.4165 40.2039 65.4165 39.5231C60.8418 41.5351 56.1411 41.5134 51.3509 40.6546V44.4443V44.4435Z" fill="#152296"/>
</g>
<defs>
<clipPath id="clip0_4_208">
<rect width="36" height="34" fill="white" transform="translate(31 23.0703)"/>
</clipPath>
</defs>
</svg>
