<svg width="110" height="111" viewBox="0 0 110 111" fill="none" xmlns="http://www.w3.org/2000/svg">
<g clip-path="url(#clip0_4_252)">
<path d="M54.9192 94.6387L54.1692 94.7067C40.4485 95.9516 28.4805 92.0803 18.0617 82.9372L17.6167 82.5467L18.039 82.1316C18.4935 81.6848 18.9389 81.2514 19.3767 80.8254C20.3113 79.9161 21.2112 79.0405 22.0919 78.1391C22.484 77.7369 22.6389 77.2905 22.6233 76.9019C22.6079 76.5168 22.4248 76.1476 22.0574 75.8786L22.0571 75.8784C21.7612 75.6614 21.4453 75.5798 21.1373 75.6132C20.8265 75.6469 20.4828 75.8026 20.1507 76.132C19.2283 77.0497 18.3249 77.9866 17.3821 78.9644C16.9849 79.3763 16.5808 79.7954 16.1653 80.2234L15.7549 80.6462L15.3613 80.2077C7.91976 71.9153 3.94393 62.3859 3.31939 51.2454L3.28683 50.6646H3.86853H3.87351H3.87849H3.88347H3.88844H3.89341H3.89839H3.90335H3.90832H3.91329H3.91825H3.92321H3.92817H3.93313H3.93809H3.94305H3.948H3.95295H3.9579H3.96285H3.96779H3.97274H3.97768H3.98262H3.98756H3.9925H3.99743H4.00237H4.0073H4.01223H4.01716H4.02208H4.02701H4.03193H4.03686H4.04177H4.04669H4.05161H4.05652H4.06144H4.06635H4.07126H4.07617H4.08107H4.08598H4.09088H4.09578H4.10068H4.10558H4.11048H4.11537H4.12026H4.12515H4.13004H4.13493H4.13982H4.1447H4.14958H4.15447H4.15935H4.16422H4.1691H4.17397H4.17885H4.18372H4.18859H4.19346H4.19832H4.20319H4.20805H4.21291H4.21777H4.22263H4.22749H4.23235H4.2372H4.24205H4.2469H4.25175H4.2566H4.26144H4.26629H4.27113H4.27597H4.28081H4.28565H4.29049H4.29532H4.30016H4.30499H4.30982H4.31465H4.31948H4.3243H4.32913H4.33395H4.33877H4.34359H4.34841H4.35323H4.35804H4.36285H4.36767H4.37248H4.37729H4.3821H4.3869H4.39171H4.39651H4.40131H4.40611H4.41091H4.41571H4.42051H4.4253H4.43009H4.43489H4.43968H4.44447H4.44925H4.45404H4.45882H4.46361H4.46839H4.47317H4.47795H4.48273H4.4875H4.49228H4.49705H4.50182H4.50659H4.51136H4.51613H4.5209H4.52566H4.53043H4.53519H4.53995H4.54471H4.54947H4.55422H4.55898H4.56373H4.56849H4.57324H4.57799H4.58274H4.58749H4.59223H4.59698H4.60172H4.60646H4.6112H4.61594H4.62068H4.62542H4.63015H4.63489H4.63962H4.64435H4.64909H4.65381H4.65854H4.66327H4.66799H4.67272H4.67744H4.68216H4.68688H4.6916H4.69632H4.70104H4.70575H4.71047H4.71518H4.71989H4.7246H4.72931H4.73402H4.73873H4.74343H4.74814H4.75284H4.75754H4.76224H4.76694H4.77164H4.77634H4.78103H4.78573H4.79042H4.79511H4.79981H4.8045H4.80918H4.81387H4.81856H4.82324H4.82793H4.83261H4.83729H4.84197H4.84665H4.85133H4.85601H4.86069H4.86536H4.87004H4.87471H4.87938H4.88405H4.88872H4.89339H4.89806H4.90272H4.90739H4.91205H4.91672H4.92138H4.92604H4.9307H4.93536H4.94001H4.94467H4.94933H4.95398H4.95863H4.96329H4.96794H4.97259H4.97724H4.98189H4.98653H4.99118H4.99582H5.00047H5.00511H5.00975H5.01439H5.01903H5.02367H5.02831H5.03295H5.03758H5.04222H5.04685H5.05149H5.05612H5.06075H5.06538H5.07001H5.07464H5.07926H5.08389H5.08851H5.09314H5.09776H5.10238H5.107H5.11163H5.11624H5.12086H5.12548H5.1301H5.13471H5.13933H5.14394H5.14856H5.15317H5.15778H5.16239H5.167H5.17161H5.17621H5.18082H5.18543H5.19003H5.19464H5.19924H5.20384H5.20844H5.21304H5.21764H5.22224H5.22684H5.23144H5.23603H5.24063H5.24522H5.24982H5.25441H5.259H5.26359H5.26818H5.27277H5.27736H5.28195H5.28654H5.29112H5.29571H5.30029H5.30488H5.30946H5.31404H5.31862H5.32321H5.32779H5.33237H5.33694H5.34152H5.3461H5.35067H5.35525H5.35982H5.3644H5.36897H5.37354H5.37812H5.38269H5.38726H5.39183H5.3964H5.40096H5.40553H5.4101H5.41466H5.41923H5.42379H5.42836H5.43292H5.43748H5.44204H5.4466H5.45116H5.45572H5.46028H5.46484H5.4694H5.47396H5.47851H5.48307H5.48762H5.49218H5.49673H5.50128H5.50584H5.51039H5.51494H5.51949H5.52404H5.52859H5.53314H5.53768H5.54223H5.54678H5.55132H5.55587H5.56041H5.56496H5.5695H5.57405H5.57859H5.58313H5.58767H5.59221H5.59675H5.60129H5.60583H5.61037H5.61491H5.61944H5.62398H5.62852H5.63305H5.63759H5.64212H5.64666H5.65119H5.65572H5.66026H5.66479H5.66932H5.67385H5.67838H5.68291H5.68744H5.69197H5.6965H5.70103H5.70555H5.71008H5.71461H5.71913H5.72366H5.72818H5.73271H5.73723H5.74175H5.74628H5.7508H5.75532H5.75984H5.76437H5.76889H5.77341H5.77793H5.78245H5.78697H5.79148H5.796H5.80052H5.80504H5.80955H5.81407H5.81859H5.8231H5.82762H5.83213H5.83665H5.84116H5.84568H5.85019H5.8547H5.85922H5.86373H5.86824H5.87275H5.87726H5.88177H5.88628H5.89079H5.8953H5.89981H5.90432H5.90883H5.91334H5.91785H5.92236H5.92686H5.93137H5.93588H5.94038H5.94489H5.9494H5.9539H5.95841H5.96291H5.96742H5.97192H5.97643H5.98093H5.98543H5.98994H5.99444H5.99894H6.00345H6.00795H6.01245H6.01695H6.02145H6.02595H6.03046H6.03496H6.03946H6.04396H6.04846H6.05296H6.05746H6.06196H6.06646H6.07096H6.07545H6.07995H6.08445H6.08895H6.09345H6.09795H6.10244H6.10694H6.11144H6.11593H6.12043H6.12493H6.12943H6.13392H6.13842H6.14291H6.14741H6.15191H6.1564H6.1609H6.16539H6.16989H6.17438H6.17888H6.18337H6.18787H6.19236H6.19686H6.20135H6.20585H6.21034H6.21483H6.21933H6.22382H6.22832H6.23281H6.2373H6.2418H6.24629H6.25078H6.25528C6.58147 50.6646 6.90588 50.6655 7.22934 50.6665C7.87255 50.6684 8.51198 50.6703 9.15412 50.6646L9.15502 50.6646C9.86541 50.6594 10.3709 50.484 10.6846 50.2358C10.9827 50 11.1504 49.6669 11.1451 49.2178C11.1398 48.7674 10.9692 48.4428 10.6707 48.2147C10.3547 47.9731 9.84451 47.8034 9.11487 47.7982C7.99542 47.7924 6.87755 47.7944 5.76344 47.7963C5.20736 47.7972 4.65223 47.7982 4.0983 47.7982H3.56576L3.54859 47.2659C3.43015 43.5941 4.78446 37.8301 6.95073 32.2864C9.11645 26.7442 12.1436 21.2932 15.4566 18.3004L15.8489 17.946L16.2185 18.324C16.6166 18.7312 17.0123 19.1391 17.4074 19.5465C18.3506 20.5191 19.291 21.4887 20.2551 22.438L20.2556 22.4385C20.5421 22.7213 20.8282 22.8479 21.0984 22.8723C21.371 22.8969 21.6848 22.8226 22.0317 22.6017C22.3327 22.4091 22.5011 22.1808 22.5807 21.9433C22.6616 21.7019 22.6651 21.4074 22.5602 21.0654L22.5597 21.0639C22.4752 20.7857 22.2331 20.4735 21.9246 20.1652C20.999 19.2403 20.0561 18.3322 19.0822 17.3943C18.734 17.0588 18.3817 16.7196 18.0249 16.3744L17.5993 15.9627L18.0413 15.5686C26.3707 8.14201 35.9124 4.17187 47.0355 3.56517L47.6155 3.53354V4.11435V4.12135V4.12834V4.13533V4.14231V4.14929V4.15627V4.16325V4.17022V4.17719V4.18416V4.19112V4.19808V4.20504V4.212V4.21895V4.2259V4.23284V4.23978V4.24672V4.25366V4.26059V4.26752V4.27445V4.28138V4.2883V4.29522V4.30213V4.30905V4.31596V4.32287V4.32977V4.33667V4.34357V4.35047V4.35736V4.36425V4.37114V4.37802V4.3849V4.39178V4.39866V4.40553V4.4124V4.41927V4.42613V4.43299V4.43985V4.44671V4.45356V4.46041V4.46726V4.4741V4.48094V4.48778V4.49462V4.50145V4.50829V4.51511V4.52194V4.52876V4.53558V4.5424V4.54921V4.55603V4.56284V4.56964V4.57645V4.58325V4.59005V4.59684V4.60364V4.61043V4.61722V4.624V4.63078V4.63756V4.64434V4.65112V4.65789V4.66466V4.67143V4.67819V4.68495V4.69171V4.69847V4.70522V4.71197V4.71872V4.72547V4.73221V4.73896V4.74569V4.75243V4.75916V4.7659V4.77263V4.77935V4.78608V4.7928V4.79952V4.80623V4.81295V4.81966V4.82637V4.83307V4.83978V4.84648V4.85318V4.85988V4.86657V4.87326V4.87995V4.88664V4.89333V4.90001V4.90669V4.91337V4.92004V4.92671V4.93339V4.94005V4.94672V4.95338V4.96005V4.9667V4.97336V4.98002V4.98667V4.99332V4.99997V5.00661V5.01325V5.01989V5.02653V5.03317V5.0398V5.04643V5.05306V5.05969V5.06632V5.07294V5.07956V5.08618V5.09279V5.09941V5.10602V5.11263V5.11924V5.12584V5.13244V5.13904V5.14564V5.15224V5.15883V5.16543V5.17202V5.1786V5.18519V5.19177V5.19836V5.20494V5.21151V5.21809V5.22466V5.23123V5.2378V5.24437V5.25093V5.2575V5.26406V5.27062V5.27717V5.28373V5.29028V5.29683V5.30338V5.30993V5.31647V5.32301V5.32955V5.33609V5.34263V5.34916V5.3557V5.36223V5.36876V5.37528V5.38181V5.38833V5.39485V5.40137V5.40789V5.41441V5.42092V5.42743V5.43394V5.44045V5.44696V5.45346V5.45996V5.46646V5.47296V5.47946V5.48595V5.49245V5.49894V5.50543V5.51191V5.5184V5.52488V5.53137V5.53785V5.54433V5.5508V5.55728V5.56375V5.57022V5.57669V5.58316V5.58963V5.59609V5.60255V5.60902V5.61548V5.62193V5.62839V5.63484V5.6413V5.64775V5.6542V5.66064V5.66709V5.67353V5.67998V5.68642V5.69286V5.6993V5.70573V5.71217V5.7186V5.72503V5.73146V5.73789V5.74431V5.75074V5.75716V5.76359V5.77001V5.77642V5.78284V5.78926V5.79567V5.80208V5.80849V5.8149V5.82131V5.82772V5.83412V5.84053V5.84693V5.85333V5.85973V5.86612V5.87252V5.87891V5.88531V5.8917V5.89809V5.90448V5.91087V5.91725V5.92364V5.93002V5.9364V5.94278V5.94916V5.95554V5.96191V5.96829V5.97466V5.98103V5.9874V5.99377V6.00014V6.00651V6.01287V6.01924V6.0256V6.03196V6.03832V6.04468V6.05104V6.05739V6.06375V6.0701V6.07645V6.0828V6.08915V6.0955V6.10185V6.1082V6.11454V6.12088V6.12723V6.13357V6.13991V6.14625V6.15258V6.15892V6.16526V6.17159V6.17792V6.18425V6.19058V6.19691V6.20324V6.20957V6.21589V6.22222V6.22854V6.23487V6.24119V6.24751V6.25383V6.26014V6.26646V6.27278V6.27909V6.28541V6.29172V6.29803V6.30434V6.31065V6.31696V6.32327V6.32957V6.33588V6.34218V6.34849V6.35479V6.36109V6.36739V6.37369V6.37999V6.38629V6.39258V6.39888V6.40517V6.41147V6.41776V6.42405V6.43034V6.43663V6.44292V6.44921V6.4555V6.46178V6.46807V6.47435V6.48064V6.48692V6.4932V6.49948V6.50576V6.51204V6.51832V6.5246V6.53088V6.53715V6.54343V6.5497V6.55598V6.56225V6.56852V6.57479V6.58106V6.58733V6.5936V6.59987V6.60614V6.6124V6.61867V6.62494V6.6312V6.63746V6.64373V6.64999V6.65625V6.66251V6.66877V6.67503V6.68129V6.68755V6.69381V6.70006V6.70632V6.71258V6.71883V6.72509V6.73134V6.73759V6.74384V6.7501V6.75635V6.7626V6.76885V6.7751V6.78135V6.7876V6.79384V6.80009V6.80634V6.81258V6.81883V6.82507V6.83132V6.83756V6.84381V6.85005V6.85629V6.86253V6.86877V6.87502V6.88126V6.8875V6.89374V6.89997V6.90621V6.91245V6.91869V6.92493V6.93116V6.9374V6.94364V6.94987V6.95611V6.96234V6.96858V6.97481V6.98104V6.98728V6.99351V6.99974V7.00597V7.01221V7.01844V7.02467V7.0309V7.03713V7.04336V7.04959V7.05582V7.06205V7.06828V7.0745V7.08073V7.08696V7.09319V7.09942V7.10564V7.11187V7.1181V7.12432V7.13055V7.13678V7.143V7.14923V7.15545V7.16168V7.1679V7.17413V7.18035V7.18658V7.1928V7.19902V7.20525V7.21147V7.2177V7.22392V7.23014V7.23636V7.24259V7.24881V7.25503V7.26126V7.26748V7.2737V7.27992V7.28615V7.29237V7.29859V7.30481V7.31103V7.31726V7.32348V7.3297V7.33592V7.34214V7.34837V7.35459V7.36081V7.36703V7.37325V7.37948V7.3857V7.39192V7.39814V7.40436V7.41058V7.41681V7.42303V7.42925C47.6155 7.66797 47.6136 7.9022 47.6117 8.13377C47.6075 8.6511 47.6033 9.15513 47.6209 9.66621L47.6209 9.66641C47.6405 10.2422 47.8157 10.6676 48.0585 10.9413C48.2954 11.2084 48.6258 11.3659 49.0443 11.368C49.4593 11.3701 49.7963 11.2134 50.0381 10.945C50.2842 10.6717 50.4597 10.2495 50.4705 9.686L50.4705 9.68474C50.4908 8.74452 50.4873 7.8104 50.4838 6.86861C50.4818 6.34615 50.4798 5.82132 50.4819 5.29179L50.4819 5.28943C50.4839 5.05314 50.4988 4.80613 50.5149 4.53974C50.5235 4.39703 50.5325 4.24876 50.54 4.0936L50.5666 3.54173L51.1184 3.57086C62.1715 4.15447 71.7044 8.13985 80.0385 15.5568L80.4794 15.9492L80.0569 16.3613C79.6061 16.8011 79.1619 17.2307 78.7235 17.6548C77.7441 18.6021 76.7935 19.5215 75.8621 20.4641L75.8612 20.465C75.5771 20.7512 75.4497 21.0374 75.4243 21.3078C75.3987 21.5807 75.4718 21.8945 75.6893 22.2411C75.8922 22.5613 76.132 22.7342 76.3804 22.8127C76.6345 22.8929 76.9462 22.8893 77.3087 22.7698L54.9192 94.6387ZM54.9192 94.6387L54.6261 93.9449M54.9192 94.6387L54.6261 93.9449M54.6261 93.9449C51.9722 87.6628 50.9523 81.6597 51.7789 76.0415C52.6046 70.4296 55.279 65.1576 60.0892 60.3396C64.9155 55.5055 70.2005 52.8109 75.8111 51.9643C81.4275 51.1169 87.4138 52.115 93.6448 54.7407L94.1998 54.9746M54.6261 93.9449L94.1998 54.9746M94.1998 54.9746L94.3825 54.4006M94.1998 54.9746L94.3825 54.4006M94.3825 54.4006C95.1143 52.1009 95.2329 49.1339 94.898 45.9029C94.5622 42.663 93.766 39.1167 92.6333 35.6362C90.3753 28.6976 86.7457 21.9171 82.6568 18.3486L82.2675 18.0089M94.3825 54.4006L82.2675 18.0089M82.2675 18.0089L81.9041 18.3763M82.2675 18.0089L81.9041 18.3763M81.9041 18.3763C81.5525 18.7317 81.2023 19.0877 80.8523 19.4433M81.9041 18.3763L80.8523 19.4433M80.8523 19.4433C79.977 20.333 79.1033 21.2209 78.2134 22.0958M80.8523 19.4433L78.2134 22.0958M78.2134 22.0958C77.8771 22.426 77.5862 22.6778 77.3091 22.7696L78.2134 22.0958ZM109.447 78.3808V83.0135C109.321 83.6368 109.209 84.2525 109.098 84.8618C108.857 86.1889 108.622 87.4853 108.254 88.7626C104.522 101.67 92.2292 110.38 78.8437 109.519C70.1283 108.958 63.042 105.153 57.6304 98.2844L57.6299 98.2837C57.3268 97.9002 56.9967 97.6176 56.5888 97.4607C56.1846 97.3051 55.7648 97.2969 55.3285 97.3498L55.3278 97.3498C42.4339 98.9292 30.6656 96.0033 20.2485 88.2785C9.14453 80.0432 2.43278 69.0103 0.916948 55.2728C-1.20618 36.0195 5.8829 20.6343 21.5478 9.26927L21.5479 9.26923C28.4963 4.22673 36.4335 1.56713 45.0312 0.8597L45.0313 0.85969C45.2274 0.843511 45.4128 0.805674 45.5755 0.768328C45.6422 0.753001 45.7016 0.738709 45.7575 0.725236C45.8325 0.707192 45.9013 0.690619 45.9737 0.675H45.9776H45.9897H46.0019H46.0141H46.0263H46.0385H46.0507H46.0628H46.075H46.0872H46.0994H46.1116H46.1238H46.1359H46.1481H46.1603H46.1725H46.1847H46.1969H46.209H46.2212H46.2334H46.2456H46.2578H46.27H46.2822H46.2943H46.3065H46.3187H46.3309H46.3431H46.3553H46.3674H46.3796H46.3918H46.404H46.4162H46.4284H46.4405H46.4527H46.4649H46.4771H46.4893H46.5015H46.5137H46.5258H46.538H46.5502H46.5624H46.5746H46.5868H46.5989H46.6111H46.6233H46.6355H46.6477H46.6599H46.672H46.6842H46.6964H46.7086H46.7208H46.733H46.7451H46.7573H46.7695H46.7817H46.7939H46.8061H46.8182H46.8304H46.8426H46.8548H46.867H46.8792H46.8913H46.9035H46.9157H46.9279H46.9401H46.9523H46.9645H46.9766H46.9888H47.001H47.0132H47.0254H47.0376H47.0497H47.0619H47.0741H47.0863H47.0985H47.1107H47.1228H47.135H47.1472H47.1594H47.1716H47.1838H47.1959H47.2081H47.2203H47.2325H47.2447H47.2569H47.269H47.2812H47.2934H47.3056H47.3178H47.33H47.3421H47.3543H47.3665H47.3787H47.3909H47.4031H47.4152H47.4274H47.4396H47.4518H47.464H47.4762H47.4883H47.5005H47.5127H47.5249H47.5371H47.5493H47.5614H47.5736H47.5858H47.598H47.6102H47.6224H47.6345H47.6467H47.6589H47.6711H47.6833H47.6954H47.7076H47.7198H47.732H47.7442H47.7564H47.7685H47.7807H47.7929H47.8051H47.8173H47.8295H47.8416H47.8538H47.866H47.8782H47.8904H47.9026H47.9147H47.9269H47.9391H47.9513H47.9635H47.9757H47.9878H48H48.0122H48.0244H48.0366H48.0487H48.0609H48.0731H48.0853H48.0975H48.1097H48.1218H48.134H48.1462H48.1584H48.1706H48.1827H48.1949H48.2071H48.2193H48.2315H48.2437H48.2558H48.268H48.2802H48.2924H48.3046H48.3167H48.3289H48.3411H48.3533H48.3655H48.3777H48.3898H48.402H48.4142H48.4264H48.4386H48.4507H48.4629H48.4751H48.4873H48.4995H48.5117H48.5238H48.536H48.5482H48.5604H48.5726H48.5847H48.5969H48.6091H48.6213H48.6335H48.6456H48.6578H48.67H48.6822H48.6944H48.7065H48.7187H48.7309H48.7431H48.7553H48.7674H48.7796H48.7918H48.804H48.8162H48.8284H48.8405H48.8527H48.8649H48.8771H48.8893H48.9014H48.9136H48.9258H48.938H48.9502H48.9623H48.9745H48.9867H48.9989H49.0111H49.0232H49.0354H49.0476H49.0598H49.072H49.0841H49.0963H49.1085H49.1207H49.1329H49.145H49.1572H49.1694H49.1816H49.1938H49.2059H49.2181H49.2303H49.2425H49.2547H49.2668H49.279H49.2912H49.3034H49.3155H49.3277H49.3399H49.3521H49.3643H49.3764H49.3886H49.4008H49.413H49.4252H49.4373H49.4495H49.4617H49.4739H49.486H49.4982H49.5104H49.5226H49.5348H49.5469H49.5591H49.5713H49.5835H49.5957H49.6078H49.62H49.6322H49.6444H49.6565H49.6687H49.6809H49.6931H49.7053H49.7174H49.7296H49.7418H49.754H49.7661H49.7783H49.7905H49.8027H49.8149H49.827H49.8392H49.8514H49.8636H49.8757H49.8879H49.9001H49.9123H49.9245H49.9366H49.9488H49.961H49.9732H49.9853H49.9975H50.0097H50.0219H50.034H50.0462H50.0584H50.0706H50.0828H50.0949H50.1071H50.1193H50.1315H50.1436H50.1558H50.168H50.1802H50.1923H50.2045H50.2167H50.2289H50.241H50.2532H50.2654H50.2776H50.2898H50.3019H50.3141H50.3263H50.3385H50.3506H50.3628H50.375H50.3872H50.3993H50.4115H50.4237H50.4359H50.448H50.4602H50.4724H50.4846H50.4967H50.5089H50.5211H50.5333H50.5454H50.5576H50.5698H50.582H50.5941H50.6063H50.6185H50.6307H50.6428H50.655H50.6672H50.6794H50.6915H50.7037H50.7159H50.7281H50.7402H50.7524H50.7646H50.7767H50.7889H50.8011H50.8133H50.8254H50.8376H50.8498H50.862H50.8741H50.8863H50.8985H50.9107H50.9228H50.935H50.9472H50.9594H50.9715H50.9837H50.9959H51.008H51.0202H51.0324H51.0446H51.0567H51.0689H51.0811H51.0933H51.1054H51.1176H51.1298H51.1419H51.1541H51.1663H51.1785H51.1906H51.2028H51.215H51.2271H51.2393H51.2515H51.2637H51.2758H51.288H51.3002H51.3124H51.3245H51.3367H51.3489H51.361H51.3732H51.3854H51.3976H51.4097H51.4219H51.4341H51.4462H51.4584H51.4706H51.4827H51.4949H51.5071H51.5193H51.5314H51.5436H51.5558H51.5679H51.5801H51.5923H51.6045H51.6166H51.6288H51.641H51.6531H51.6653H51.6775H51.6896H51.7018H51.714H51.7262H51.7383H51.7505H51.7627H51.7748H51.787H51.7992H51.8113H51.8235H51.8357H51.8478H51.86H51.8722H51.8843H51.8965H51.9087H51.9209H51.933H51.9452H51.9574H51.9695H51.9817H51.9939H52.006H52.0182H52.0304H52.0425H52.0547H52.0669H52.079H52.0912H52.1034H52.1132C52.7391 0.763633 53.3578 0.840395 53.9712 0.916483C55.3229 1.08418 56.6484 1.2486 57.9654 1.52964L57.9657 1.52971C75.9955 5.36546 88.3041 15.9104 94.8378 33.0963C97.5816 40.3134 98.2313 47.8544 97.2135 55.5393L97.2133 55.5406C97.1683 55.8866 97.1407 56.2717 97.251 56.6551C97.3673 57.0592 97.6173 57.4005 98.0127 57.7038L98.0138 57.7047C103.213 61.674 106.718 66.8064 108.406 73.1258L108.406 73.1259C108.72 74.2999 108.928 75.4854 109.141 76.6976C109.238 77.2526 109.337 77.8132 109.447 78.3808ZM19.8692 22.8299C18.9004 21.8759 17.953 20.8991 17.0078 19.9246C16.6137 19.5182 16.22 19.1122 15.8252 18.7085C9.39165 24.5203 3.86853 40.125 4.0983 47.2482C4.65018 47.2482 5.20429 47.2472 5.75988 47.2463C6.87553 47.2444 7.99717 47.2424 9.1188 47.2482L19.8692 22.8299ZM81.0759 54.5856V54.5771L80.5266 54.5764C66.1006 54.5588 54.417 66.2132 54.4024 80.6377C54.3877 95.0453 66.0537 106.731 80.4816 106.763C94.8624 106.792 106.609 95.0745 106.624 80.6818C106.638 66.4626 95.2525 54.8945 81.0759 54.5856Z" fill="#152296" stroke="white" stroke-width="1.1"/>
<g clip-path="url(#clip1_4_252)">
<path d="M62 73.8121C62.3209 72.8852 63.0187 72.5378 63.9419 72.2964C67.3737 71.3969 70.7801 70.4048 74.1956 69.4452C80.392 67.7033 86.5883 65.9594 92.7856 64.2205C93.9719 63.8874 94.9154 64.4416 95.2191 65.6324C95.4009 66.3434 95.5786 67.0544 95.7645 67.7899C96.061 67.7501 96.3342 67.7165 96.6074 67.6768C97.6576 67.524 98.5798 68.2289 98.7148 69.2893C98.8428 70.2968 98.9677 71.3042 99.0977 72.3361C99.2074 72.3575 99.3141 72.384 99.4217 72.4003C100.258 72.5235 100.716 73.0706 101 73.8121V91.6569C100.627 92.7489 99.8554 93.1288 98.722 93.1258C90.9829 93.0993 83.2448 93.1125 75.5058 93.1125C71.6616 93.1125 67.8175 93.1217 63.9744 93.0983C63.5783 93.0962 63.1568 92.9496 62.7932 92.7743C62.3504 92.5615 62.1767 92.0939 62.001 91.6579V73.8121H62ZM81.5 91.8912C87.3013 91.8912 93.1025 91.8912 98.9048 91.8912C99.6096 91.8912 99.7812 91.72 99.7812 91.0192C99.7812 85.5032 99.7812 79.9872 99.7812 74.4722C99.7812 73.7765 99.5964 73.5901 98.9037 73.5901C87.3002 73.5901 75.6977 73.5901 64.0942 73.5901C63.4026 73.5901 63.2188 73.7775 63.2188 74.4732C63.2188 79.976 63.2188 85.4798 63.2188 90.9825C63.2188 91.7363 63.3752 91.8912 64.1338 91.8912C69.9229 91.8912 75.712 91.8912 81.5 91.8912ZM97.8709 72.3545C97.7439 71.3572 97.6291 70.4007 97.4991 69.4452C97.4433 69.0316 97.1599 68.8289 96.7455 68.888C93.0446 69.4156 89.3437 69.9453 85.6438 70.4761C82.1307 70.9793 78.6177 71.4845 75.1046 71.9888C74.3693 72.0947 73.634 72.2037 72.8987 72.3107C72.9007 72.3259 72.9027 72.3402 72.9048 72.3555H97.8719L97.8709 72.3545ZM73.438 70.9263C73.441 70.9487 73.4441 70.9721 73.4471 70.9946C80.4671 69.9881 87.4871 68.9817 94.5498 67.9692C94.3517 67.1909 94.1811 66.4514 93.9709 65.7251C93.8896 65.4429 93.6398 65.3125 93.3381 65.3502C93.1888 65.3685 93.0416 65.4164 92.8963 65.4572C88.2123 66.7712 83.5292 68.0853 78.8452 69.4004C77.0424 69.9066 75.2397 70.418 73.438 70.9263Z" fill="#152296"/>
<path d="M97.344 77.798C96.5082 77.524 95.9425 77.0085 95.6307 76.2038C95.5941 76.109 95.3747 76.0377 95.2396 76.0367C93.0317 76.0265 90.8237 76.0296 88.6147 76.0296C88.5132 76.0296 88.4116 76.0306 88.31 76.0296C87.8611 76.0214 87.592 75.7902 87.596 75.4184C87.6001 75.0507 87.8733 74.8123 88.3232 74.8113C90.8867 74.8082 93.4501 74.8072 96.0135 74.8113C96.4757 74.8113 96.6849 75.015 96.7336 75.4673C96.8088 76.161 97.2079 76.5593 97.9097 76.6387C98.3627 76.6907 98.5587 76.8995 98.5587 77.3661C98.5607 80.9487 98.5607 84.5323 98.5587 88.1149C98.5587 88.6038 98.384 88.7821 97.8803 88.8452C97.2221 88.9267 96.8047 89.3525 96.7326 90.0147C96.6818 90.4822 96.4878 90.6686 96.0207 90.6697C93.4572 90.6727 90.8938 90.6717 88.3303 90.6697C87.8723 90.6697 87.6042 90.4486 87.594 90.0809C87.5839 89.703 87.8692 89.4524 88.3385 89.4524C90.6226 89.4493 92.9067 89.4463 95.1919 89.4564C95.4651 89.4575 95.6124 89.4065 95.72 89.1213C95.9658 88.4724 96.4604 88.0497 97.0952 87.7736C97.2008 87.7278 97.3308 87.575 97.3308 87.4711C97.343 84.2572 97.341 81.0434 97.341 77.797L97.344 77.798Z" fill="#152296"/>
<path d="M65.6562 77.8151C65.6562 77.917 65.6562 78.0301 65.6562 78.1432C65.6562 81.2052 65.6593 84.2673 65.6511 87.3294C65.6511 87.5891 65.7019 87.7276 65.9741 87.8275C66.6139 88.0618 67.0568 88.5344 67.2995 89.165C67.3909 89.4043 67.5067 89.4573 67.7403 89.4563C69.9736 89.4481 72.208 89.4512 74.4414 89.4512C74.5429 89.4512 74.6445 89.4471 74.7461 89.4532C75.1513 89.4767 75.4194 89.7385 75.4042 90.0919C75.3889 90.4362 75.133 90.6675 74.7339 90.6685C73.5405 90.6736 72.3482 90.6705 71.1548 90.6705C69.7837 90.6705 68.4136 90.6715 67.0425 90.6705C66.4931 90.6705 66.3275 90.5177 66.2625 89.9666C66.1904 89.3575 65.7649 88.9307 65.1464 88.8471C64.5786 88.7707 64.4395 88.6129 64.4385 88.0302C64.4385 84.5107 64.4385 80.9913 64.4385 77.4719C64.4385 76.8749 64.5908 76.7048 65.1738 76.6345C65.7568 76.5653 66.1894 76.1272 66.2615 75.5344C66.3306 74.9721 66.5053 74.8101 67.07 74.8101C69.5826 74.8081 72.0953 74.8081 74.6079 74.8101C75.0995 74.8101 75.3798 75.0189 75.4021 75.3897C75.4255 75.7717 75.1432 76.0284 74.679 76.0284C72.5594 76.0305 70.4398 76.0437 68.3212 76.0203C67.7646 76.0142 67.3401 76.0233 67.1035 76.6783C66.9034 77.2304 66.489 77.4505 65.6562 77.8141V77.8151Z" fill="#152296"/>
</g>
<circle cx="49.5" cy="49.625" r="5.75" stroke="#152296" stroke-width="1.5"/>
<line x1="48.75" y1="17.125" x2="48.75" y2="44.125" stroke="#152296" stroke-width="1.5"/>
<line x1="15.9961" y1="49.5156" x2="42.9958" y2="49.376" stroke="#152296" stroke-width="1.5"/>
</g>
<defs>
<clipPath id="clip0_4_252">
<rect width="110" height="110" fill="white" transform="translate(0 0.125)"/>
</clipPath>
<clipPath id="clip1_4_252">
<rect width="39" height="29" fill="white" transform="translate(62 64.125)"/>
</clipPath>
</defs>
</svg>
