<svg width="76" height="75" viewBox="0 0 76 75" fill="none" xmlns="http://www.w3.org/2000/svg">
<path d="M71.001 23.6579V28.4958C71.001 28.9193 70.7049 29.2876 70.2899 29.3797L66.7983 30.1637C66.6953 30.4399 66.5816 30.7135 66.4547 30.9845L68.3657 33.9941C68.593 34.3518 68.5401 34.8201 68.2388 35.12L64.8001 38.5426C64.4988 38.8425 64.031 38.8951 63.6689 38.6689L60.6424 36.7669C60.3728 36.8905 60.098 37.0036 59.8178 37.1062L59.0301 40.5841C58.9376 40.9971 58.5675 41.2917 58.142 41.2917H56.313C55.8108 41.2917 55.4037 40.8866 55.4037 40.3867C55.4037 39.8869 55.8107 39.4817 56.313 39.4817H57.4125L58.1526 36.2196C58.224 35.9065 58.4566 35.654 58.7632 35.5567C59.2891 35.3883 59.7992 35.1778 60.283 34.9305C60.5711 34.7832 60.912 34.799 61.1843 34.97L64.023 36.7536L66.4335 34.3544L64.6415 31.529C64.4697 31.258 64.4538 30.916 64.6018 30.6293C64.8582 30.1347 65.0697 29.627 65.2336 29.1166C65.3313 28.8115 65.5851 28.58 65.8996 28.509L69.1744 27.7723L69.1797 24.3813L65.9049 23.6446C65.593 23.5736 65.3393 23.3447 65.2415 23.0422C65.0644 22.5029 64.8503 21.9926 64.6098 21.5269C64.4618 21.2402 64.475 20.8982 64.6494 20.6272L66.4414 17.7992L64.0335 15.4026L61.1948 17.1862C60.9226 17.3572 60.579 17.373 60.2909 17.2257C59.794 16.9705 59.2839 16.7601 58.7711 16.597C58.4645 16.4996 58.2319 16.2471 58.1605 15.934L57.4204 12.6746H56.3209C55.8187 12.6746 55.4116 12.2694 55.4116 11.7696C55.4116 11.2697 55.8186 10.8646 56.3209 10.8646H58.1499C58.5755 10.8646 58.9455 11.1592 59.038 11.5722L59.8257 15.0448C60.1032 15.1474 60.3781 15.2605 60.6504 15.3868L63.6742 13.4848C64.0336 13.2585 64.5041 13.3111 64.8054 13.6084L68.2441 17.0257C68.5454 17.3256 68.5983 17.7912 68.371 18.1517L66.46 21.1665C66.5816 21.4322 66.6953 21.7058 66.801 21.9873L70.2926 22.7713C70.7049 22.866 71.001 23.2343 71.001 23.6579ZM56.2312 31.0868C55.7317 31.1368 55.3669 31.5814 55.4172 32.0787C55.4647 32.5469 55.8586 32.8942 56.3211 32.8942C56.3528 32.8942 56.3819 32.8915 56.4136 32.8889C59.9395 32.5364 62.5985 29.6084 62.5985 26.0754C62.5985 22.545 59.9395 19.6171 56.4136 19.2647C55.9167 19.2173 55.4674 19.5777 55.4171 20.0749C55.3669 20.5721 55.7316 21.0167 56.2312 21.0668C58.8241 21.3246 60.7774 23.4791 60.7774 26.0757C60.7774 28.6748 58.8215 30.829 56.2312 31.0868ZM54.3704 9.67806V56.0475C54.3704 57.5207 53.1652 58.723 51.6824 58.723H48.5238C48.5159 58.7466 48.5079 58.7677 48.5 58.7914L46.7846 63.3478V64.7579H47.6648C48.167 64.7579 48.574 65.163 48.574 65.6629V72.0924C48.574 72.5922 48.167 72.9974 47.6648 72.9974L28.737 73C28.2348 73 27.8278 72.5949 27.8278 72.095V65.6655C27.8278 65.1657 28.2348 64.7605 28.737 64.7605H29.6172V62.7243L28.6261 61.6326C27.8199 60.746 27.212 59.7727 26.8023 58.7256L14.6891 58.723C13.2089 58.723 12.001 57.5234 12.001 56.0475V9.6781C12.001 8.20227 13.2062 7 14.6891 7H51.6852C53.1653 7 54.3704 8.20223 54.3704 9.67806ZM13.822 9.67806V12.2378H52.5489V9.67806C52.5489 9.19927 52.1604 8.81252 51.682 8.81252H14.6886C14.2102 8.81252 13.822 9.19924 13.822 9.67806ZM49.4729 44.0618V49.6258H52.5495V14.0507H13.8226V49.6258H26.1869V46.6057C26.1869 44.9273 27.5586 43.562 29.2423 43.562C29.6837 43.562 30.1013 43.6541 30.4793 43.8224V37.9217C30.1701 37.7797 29.874 37.6139 29.5965 37.4298L26.9269 40.0868C27.5401 41.247 27.3578 42.7175 26.3824 43.6883C25.7798 44.2855 24.9895 44.5827 24.1992 44.5827C23.4089 44.5827 22.6213 44.2854 22.0212 43.6883C20.8213 42.494 20.8213 40.5472 22.0186 39.3502C22.9965 38.3769 24.474 38.1954 25.6397 38.8057L28.2406 36.217C27.5798 35.433 27.1093 34.4965 26.882 33.4811H23.4221C23.0336 34.7333 21.86 35.6461 20.4777 35.6461C18.7755 35.6461 17.3931 34.2676 17.3931 32.5761C17.3931 30.8819 18.7781 29.506 20.4777 29.506C21.86 29.506 23.0335 30.4189 23.4221 31.6711H26.7392C26.8132 30.5082 27.1991 29.4271 27.815 28.5116L25.6397 26.3465C25.1904 26.5806 24.6961 26.699 24.1992 26.699C23.4089 26.699 22.6186 26.3991 22.0186 25.802C20.8186 24.6024 20.8186 22.6556 22.0186 21.4613C23.2185 20.267 25.1745 20.267 26.3771 21.4586C27.355 22.432 27.5374 23.9026 26.9242 25.0628L29.0308 27.1595C29.9347 26.4018 31.0502 25.8862 32.274 25.7152V22.8582C31.0158 22.4715 30.0987 21.3035 30.0987 19.9276C30.0987 18.2334 31.4837 16.8575 33.1832 16.8575C34.8854 16.8575 36.2678 18.236 36.2678 19.9276C36.2678 21.3035 35.3506 22.4715 34.0925 22.8582V25.7152C35.3163 25.8888 36.4316 26.4018 37.3356 27.1595L39.4422 25.0628C38.829 23.9026 39.0114 22.4321 39.9867 21.4613C41.192 20.267 43.1479 20.267 44.3479 21.4613C45.5478 22.6556 45.5478 24.6024 44.3505 25.7993C43.7505 26.3965 42.9602 26.6964 42.1699 26.6964C41.6756 26.6964 41.1788 26.578 40.7294 26.3439L38.5568 28.5116C39.1726 29.4271 39.5585 30.5083 39.6325 31.6711H42.9496C43.3381 30.4189 44.5117 29.5061 45.8941 29.5061C47.5962 29.5061 48.9786 30.8846 48.9786 32.5761C48.9786 34.2703 47.5936 35.6462 45.8941 35.6462C44.5117 35.6462 43.3382 34.7333 42.9496 33.4811H39.4924C39.1197 35.1595 38.0862 36.6222 36.5955 37.5429V38.4768C36.9735 38.3111 37.3911 38.2164 37.8299 38.2164C39.0087 38.2164 40.0342 38.8846 40.5443 39.8606C41.0069 39.5817 41.5461 39.4212 42.1249 39.4212C43.4227 39.4212 44.5354 40.2315 44.9768 41.3732C45.405 41.1443 45.8967 41.0154 46.4147 41.0154C48.101 41.0154 49.4729 42.3808 49.4729 44.0618ZM33.5373 31.5946C35.2236 31.5946 36.5954 32.96 36.5954 34.6384V35.2145C37.3751 34.3779 37.8271 33.2678 37.8271 32.0787C37.8271 29.5322 35.747 27.4591 33.1884 27.4591C30.6298 27.4591 28.547 29.5295 28.547 32.0787C28.547 33.594 29.2898 34.9804 30.4818 35.8327V34.6384C30.4818 32.9626 31.851 31.5946 33.5373 31.5946ZM34.4492 19.9275C34.4492 19.2331 33.881 18.67 33.1858 18.67C32.488 18.67 31.9224 19.2356 31.9224 19.9275C31.9224 20.6194 32.4906 21.1824 33.1858 21.1824C33.8836 21.1824 34.4492 20.6194 34.4492 19.9275ZM45.8939 33.8332C46.5917 33.8332 47.1574 33.2676 47.1574 32.5757C47.1574 31.8813 46.5891 31.3183 45.8939 31.3183C45.1988 31.3183 44.6332 31.8839 44.6332 32.5757C44.6332 33.2702 45.1988 33.8332 45.8939 33.8332ZM41.279 24.5233C41.7707 25.0099 42.5716 25.0099 43.0632 24.5206C43.5548 24.0287 43.5548 23.2315 43.0632 22.7423C42.8173 22.4976 42.4949 22.3766 42.1724 22.3766C41.8473 22.3766 41.5222 22.5002 41.2764 22.7449C40.7874 23.2316 40.7874 24.0314 41.279 24.5233ZM25.0951 24.5206C25.5867 24.0287 25.5867 23.2315 25.0951 22.7423C24.8493 22.4976 24.5242 22.3766 24.2018 22.3766C23.8793 22.3766 23.5542 22.4976 23.3084 22.7423C22.8168 23.2316 22.8168 24.0287 23.311 24.5206C23.8 25.0099 24.6008 25.0099 25.0951 24.5206ZM20.4776 31.3159C19.7798 31.3159 19.2142 31.8815 19.2142 32.5734C19.2142 33.2679 19.7824 33.8309 20.4776 33.8309C21.1727 33.8309 21.7384 33.2653 21.7384 32.5734C21.7384 31.8815 21.1727 31.3159 20.4776 31.3159ZM25.0951 40.6286C24.8467 40.3839 24.5242 40.2629 24.2018 40.2629C23.8793 40.2629 23.5568 40.3839 23.311 40.6286C22.8194 41.1205 22.8194 41.9176 23.311 42.4069C23.8026 42.8962 24.6035 42.8962 25.0978 42.4043C25.5841 41.9176 25.5841 41.1205 25.0951 40.6286ZM26.3136 56.9103C26.2317 56.3973 26.1867 55.8711 26.1867 55.3292V51.4384H13.8225V56.05C13.8225 56.5262 14.211 56.9129 14.6894 56.9129L26.3136 56.9103ZM46.7557 66.5704H29.6495V71.19H46.7584L46.7557 66.5704ZM47.6517 44.0619C47.6517 43.3832 47.0966 42.8307 46.4147 42.8307C45.7856 42.8307 45.2676 43.3016 45.1909 43.9067V49.6207C45.1909 50.1205 44.7839 50.5257 44.2816 50.5257C43.7794 50.5257 43.3724 50.1205 43.3724 49.6207V44.1961C43.3644 44.1514 43.3618 44.1067 43.3618 44.0619V42.4703C43.3618 41.7916 42.8067 41.2392 42.1275 41.2392C41.4456 41.2392 40.8905 41.7916 40.8905 42.4703V49.6522C40.8905 50.152 40.4835 50.5572 39.9812 50.5572C39.4738 50.5572 39.064 50.1521 39.064 49.6522V41.2574C39.064 40.5787 38.509 40.0289 37.8297 40.0289C37.1478 40.0289 36.5954 40.5813 36.5954 41.2574V48.7733C36.5954 49.2731 36.1883 49.6783 35.6861 49.6783C35.1839 49.6783 34.7768 49.2732 34.7768 48.7733L34.7742 41.2574V34.6412C34.7742 33.9625 34.2191 33.41 33.5372 33.41C32.8553 33.41 32.3029 33.9625 32.3029 34.6412V54.5582C32.3029 55.0581 31.8959 55.4632 31.3936 55.4632C30.8914 55.4632 30.4844 55.0581 30.4844 54.5582L30.4817 46.6053C30.4817 45.9266 29.9267 45.3741 29.2447 45.3741C28.5628 45.3741 28.0104 45.9266 28.0104 46.6053V55.3287C28.0104 57.2939 28.6553 58.9564 29.9796 60.4139L31.206 61.7634C31.3566 61.9292 31.4412 62.1475 31.4412 62.3711V64.7546H44.966V63.1814C44.966 63.0736 44.9845 62.9657 45.0241 62.8631L46.7976 58.1541C47.3897 56.5836 47.654 55.1393 47.654 53.4636V44.0613L47.6517 44.0619ZM52.5494 56.0476V51.4359H49.4728V53.4641C49.4728 54.6848 49.3486 55.7976 49.0842 56.9078H51.6851C52.1609 56.9104 52.5494 56.5237 52.5494 56.0476Z" fill="#152296"/>
</svg>
