<svg width="85" height="84" viewBox="0 0 85 84" fill="none" xmlns="http://www.w3.org/2000/svg">
<g clip-path="url(#clip0_4_1187)">
<path d="M69.4938 51.8602C68.1249 53.2744 66.8302 54.6063 65.5497 55.9529C65.4328 56.0764 65.3358 56.2969 65.3472 56.4644C65.4784 58.6666 63.8129 60.7717 61.4744 60.8776C61.4316 60.8776 61.3888 60.9158 61.2862 60.9687C61.3575 62.2595 61.0209 63.4502 60.0741 64.394C59.1273 65.3378 57.978 65.6935 56.612 65.5495C56.4979 66.9725 55.9988 68.1956 54.7953 69.0012C53.5861 69.8097 52.2999 69.8068 50.9596 69.3099C50.9139 69.4746 50.8797 69.5863 50.854 69.701C50.2751 72.4676 47.5373 73.8171 45.1189 72.4853C43.7386 71.7238 42.3868 70.9005 41.0493 70.0626C40.5531 69.7539 40.1966 69.6863 39.7717 70.1773C39.3952 70.6124 38.9332 70.9711 38.4941 71.3474C36.1698 73.3438 32.9671 72.3912 32.0146 69.4216C31.9861 69.3305 31.9519 69.2423 31.8977 69.0923C30.5944 69.7333 29.2854 69.8568 27.9992 69.1423C26.7387 68.4426 26.0656 67.3077 25.8517 65.7994C24.5171 66.0464 23.2965 65.7994 22.2669 64.8732C21.2631 63.9706 20.7811 62.8093 20.784 61.448C16.8969 61.1128 15.6963 57.467 17.2961 54.8356C16.7885 54.4299 16.2752 54.0183 15.7248 53.5802C15.4938 53.9506 15.297 54.277 15.0888 54.5945C14.7409 55.1296 14.2475 55.2561 13.7256 54.962C11.8092 53.883 9.90697 52.7775 8.01048 51.6632C7.46863 51.3457 7.44011 50.837 7.57129 50.2549C9.01434 43.8218 10.4431 37.3829 11.8748 30.947C12.351 28.8007 12.8216 26.6544 13.3092 24.511C13.5944 23.2615 14.2589 23.0262 15.2599 23.823C18.9616 26.772 22.6548 29.7356 26.3651 32.6758C26.9868 33.1697 27.5429 33.6401 27.0353 34.6839C29.9299 34.4369 32.6763 34.2223 35.4169 33.9606C36.646 33.843 37.8666 33.649 39.0872 33.449C40.1567 33.2726 41.152 33.502 42.1587 33.8401C42.4924 33.9518 42.9829 33.9694 43.2624 33.793C44.9792 32.7199 46.7217 32.6111 48.584 33.3402C49.9357 33.8695 51.336 34.2605 52.702 34.7486C54.8352 35.513 56.8572 35.2219 58.8763 34.1253C58.5227 33.3079 58.9847 32.8463 59.575 32.3788C63.2853 29.4387 66.9785 26.475 70.6745 23.5202C71.7668 22.647 72.4255 22.8734 72.7364 24.2611C74.6443 32.8198 76.5436 41.3786 78.4544 49.9344C78.6027 50.6018 78.443 51.0693 77.8498 51.4074C76.0445 52.4394 74.2507 53.4978 72.4455 54.5269C71.7126 54.9444 71.2848 54.8209 70.8285 54.0859C70.395 53.3891 69.9843 52.6746 69.4995 51.8631L69.4938 51.8602ZM41.8479 68.1985C43.2681 69.0394 44.6341 69.8774 46.0287 70.6653C47.0069 71.2151 48.0963 70.9094 48.6581 70.0008C49.2228 69.0865 48.9918 67.9868 48.0706 67.293C47.4375 66.8167 46.7816 66.3757 46.1399 65.9111C44.3889 64.6498 42.635 63.3944 40.8925 62.1183C40.3991 61.7567 40.2679 61.2363 40.633 60.7071C40.9923 60.1837 41.4885 60.1396 42.0133 60.4601C42.2585 60.61 42.4981 60.7718 42.7319 60.9364C44.0409 61.8684 45.3471 62.8004 46.6532 63.7383C48.2702 64.8997 49.8787 66.0728 51.5043 67.2195C52.2144 67.7222 52.9787 67.7605 53.7116 67.2724C54.396 66.8167 54.7525 66.0993 54.5187 65.3172C54.3533 64.7615 53.9455 64.1823 53.4863 63.8354C50.5546 61.6273 47.5744 59.484 44.6227 57.3053C44.329 57.0878 43.9639 56.782 43.9069 56.4644C43.847 56.1293 44.021 55.5148 44.2577 55.4089C44.6199 55.2472 45.2273 55.2502 45.5439 55.4707C47.7255 56.9907 49.8587 58.5843 52.0062 60.1602C53.3409 61.1393 54.6584 62.1448 56.0074 63.1003C56.8372 63.6884 57.8782 63.5943 58.5769 62.9386C59.2756 62.2859 59.4923 61.2245 59.0047 60.3984C58.7794 60.0161 58.42 59.6927 58.0635 59.4252C54.4959 56.7438 50.9139 54.0829 47.3377 51.4162C47.2607 51.3574 47.178 51.3074 47.1038 51.2457C46.5876 50.8164 46.4793 50.249 46.8186 49.7698C47.1552 49.2934 47.7084 49.2052 48.2645 49.608C49.8388 50.7429 51.4044 51.8955 52.9644 53.0539C55.3343 54.8121 57.6928 56.585 60.0599 58.3432C61.3774 59.3223 63.1199 58.6255 63.3424 57.0143C63.4678 56.1087 63.0401 55.4413 62.3642 54.8738C57.6044 50.8929 52.8446 46.9149 48.122 42.8869C47.3919 42.2636 46.7901 41.999 45.9773 42.6164C45.7549 42.784 45.464 42.8663 45.1959 42.9692C41.8678 44.257 38.5825 44.404 35.3599 42.5899C34.4786 42.093 33.8911 41.408 33.8997 40.3407C33.9083 39.2735 34.5014 38.5943 35.3998 38.1209C36.8143 37.3771 38.2117 36.5891 39.612 35.8158C39.7631 35.7306 39.9029 35.6218 40.1909 35.4277C39.9228 35.4277 39.8344 35.416 39.7489 35.4277C35.2829 36.1481 30.7883 36.5244 26.2738 36.6861C25.9972 36.6949 25.635 36.9654 25.4781 37.2242C23.3564 40.7347 21.2631 44.2629 19.1613 47.7881C18.3685 49.117 17.5728 50.4489 16.7514 51.8249C17.2705 52.2336 17.7838 52.5893 18.2401 53.0068C18.6166 53.3508 18.8818 53.3655 19.2554 52.9892C19.8856 52.36 20.553 51.7661 21.2374 51.1987C23.4162 49.3964 26.5162 50.2755 27.5087 52.9657C27.58 53.1627 27.6541 53.3567 27.7368 53.5772C29.1884 52.7805 30.6058 52.7099 31.9775 53.5919C33.3236 54.4563 33.9482 55.7794 33.9938 57.3965C35.2287 57.4347 36.2525 57.8022 37.0852 58.6725C37.9094 59.5369 38.2231 60.61 38.2602 61.7743C41.4514 61.9037 43.4534 64.9232 41.8479 68.1985ZM60.0399 36.004C59.9344 35.9776 59.9059 35.9599 59.8887 35.9687C59.5579 36.101 59.2243 36.2275 58.8991 36.3745C56.592 37.4094 54.2649 37.477 51.8893 36.6185C50.3435 36.0599 48.7779 35.5718 47.2208 35.0544C46.4137 34.7839 45.6294 34.8368 44.8765 35.2484C42.0247 36.8067 39.1728 38.3649 36.3266 39.9291C35.7106 40.2672 35.7135 40.4407 36.3266 40.8053C37.8125 41.6814 39.4124 42.0313 41.1178 41.8902C43.0257 41.7343 44.7739 41.0699 46.4222 40.1055C47.0097 39.7615 47.5031 39.7615 48.0478 40.2202C53.5262 44.8391 59.0132 49.4463 64.4146 53.9859C65.7065 52.6599 67.0127 51.3163 68.3502 49.9403C65.5953 45.3243 62.8033 40.6377 60.0399 36.004ZM13.8825 52.7305C17.5813 46.5297 21.2574 40.3642 24.962 34.1488C21.6224 31.4821 18.3285 28.8536 14.9804 26.181C14.8949 26.5103 14.8264 26.7396 14.7751 26.9748C13.9823 30.5265 13.1923 34.0782 12.4024 37.6329C11.5069 41.6638 10.6085 45.6918 9.73586 49.7256C9.69023 49.9403 9.78719 50.3313 9.94404 50.4283C11.2245 51.2163 12.5335 51.9513 13.8796 52.7305H13.8825ZM61.0409 33.7872C64.7483 39.9997 68.4244 46.1563 72.1289 52.363C73.4123 51.6191 74.6414 50.887 75.8934 50.1961C76.3041 49.9697 76.3782 49.7433 76.2698 49.2729C75.035 43.7954 73.8287 38.3091 72.6109 32.8257C72.1004 30.5207 71.5785 28.2156 71.0367 25.8076C67.6686 28.4949 64.3719 31.1263 61.038 33.7872H61.0409ZM25.1587 63.8501C25.3783 63.7384 25.8774 63.5913 26.2339 63.2767C27.9279 61.7861 29.5934 60.2602 31.2475 58.7195C32.1544 57.8757 32.2085 56.7144 31.4385 55.7853C30.6657 54.8503 29.4565 54.718 28.5296 55.5412C26.8043 57.0731 25.1074 58.6343 23.4163 60.2014C22.7546 60.8159 22.6063 61.6626 22.9457 62.477C23.2794 63.2826 24.095 63.8589 25.1587 63.8501ZM27.734 65.4025C27.868 66.3139 28.2273 66.949 28.9346 67.3312C29.6704 67.7281 30.4318 67.6928 31.0678 67.1313C32.6164 65.767 34.1535 64.3822 35.6565 62.9622C36.4607 62.2007 36.4407 60.9511 35.7021 60.1279C34.9863 59.3311 33.817 59.2105 33.0071 59.925C31.4785 61.2775 29.9613 62.6476 28.4869 64.0618C28.1361 64.3969 27.9821 64.9468 27.7368 65.3995L27.734 65.4025ZM25.8945 54.4475C25.7462 53.5067 25.3498 52.8775 24.6112 52.4982C23.8554 52.1101 23.114 52.2248 22.4837 52.7746C21.3629 53.7536 20.2564 54.7562 19.1755 55.7794C18.4112 56.5027 18.3884 57.7493 19.0729 58.5666C19.7944 59.4281 20.9836 59.5839 21.8135 58.8636C22.9571 57.8728 24.0893 56.8643 25.1673 55.797C25.5124 55.456 25.6607 54.9032 25.9002 54.4446L25.8945 54.4475ZM33.7286 68.2221C33.8598 69.0982 34.2077 69.7068 34.8836 70.092C35.588 70.4948 36.3352 70.486 36.9569 69.9685C37.9864 69.11 38.9903 68.2103 39.9428 67.2606C40.6672 66.5403 40.6073 65.3025 39.92 64.5351C39.2213 63.7589 38.072 63.6237 37.2849 64.2999C36.301 65.1437 35.3342 66.0111 34.4244 66.9343C34.0993 67.2665 33.9567 67.7899 33.7314 68.225L33.7286 68.2221Z" fill="#152296"/>
</g>
<defs>
<clipPath id="clip0_4_1187">
<rect width="71" height="50" fill="white" transform="translate(7.5 23)"/>
</clipPath>
</defs>
</svg>
