<svg width="78" height="76" viewBox="0 0 78 76" fill="none" xmlns="http://www.w3.org/2000/svg">
<g clip-path="url(#clip0_4_1191)">
<path d="M35.1061 49.2563C35.8195 47.3882 36.5404 45.52 37.2465 43.647C38.1568 41.2349 39.0573 38.8154 39.9651 36.4008C40.2874 35.5418 40.5851 35.3868 41.5126 35.5074C45.3629 36.0095 48.5243 37.7595 51.0658 40.6835C51.2233 40.8632 51.5997 40.9863 51.8408 40.942C60.1466 39.4209 67.8473 44.4887 69.6556 52.6849C71.4885 61.0042 65.8249 69.4121 57.4084 70.7683C51.9121 71.6544 47.2745 69.9536 43.466 65.9096C43.2692 65.7004 42.8657 65.5897 42.5607 65.5872C31.2041 65.57 19.8475 65.5749 8.49092 65.57C8.20799 65.57 7.90784 65.565 7.64459 65.4764C7.11809 65.2992 7 64.8586 7 64.3418C7.00738 60.5883 6.99262 56.8347 7.00738 53.0837C7.01476 51.0383 6.90897 48.9905 7.35428 46.9599C8.6902 40.8509 14.0339 36.071 20.2534 35.4705C20.9325 35.404 21.2548 35.6231 21.5303 36.3516C23.0483 40.3734 24.5663 44.3952 26.0843 48.417C26.1901 48.7001 26.3057 48.9807 26.5345 49.2612C26.7461 48.1586 26.9626 47.0534 27.1717 45.9508C27.3587 44.9638 27.5629 43.9817 27.7105 42.9898C27.7548 42.6944 27.708 42.3326 27.5703 42.0717C26.7092 40.4202 25.8063 38.7883 24.923 37.1466C24.3572 36.0932 24.7459 35.4163 25.9244 35.4138C29.1424 35.4089 32.3604 35.4089 35.5784 35.4138C36.7667 35.4138 37.1604 36.0858 36.5945 37.1392C35.7014 38.7982 34.7961 40.4522 33.9104 42.1136C33.8095 42.3006 33.7086 42.5443 33.7431 42.7387C34.1367 44.9096 34.5574 47.0756 34.9708 49.244C35.015 49.2489 35.0618 49.2514 35.1061 49.2563ZM41.611 55.8354C41.611 63.089 47.5378 69.0257 54.7906 69.038C62.0755 69.0503 68.0244 63.1086 68.0195 55.8281C68.0146 48.5672 62.1075 42.6427 54.8472 42.6181C47.5845 42.5935 41.611 48.5598 41.6135 55.8354H41.611ZM29.7353 63.5738C26.4263 54.8632 23.1393 46.2067 19.8475 37.5429C19.695 37.5577 19.572 37.5577 19.4539 37.5798C13.3647 38.7514 8.99281 44.026 8.97805 50.2359C8.96575 54.4792 8.97559 58.725 8.97805 62.9683C8.97805 63.1653 8.99774 63.3622 9.01004 63.5738H29.7353ZM41.7439 63.5689C39.4829 59.4659 38.9761 55.2423 40.4891 50.8783C42.0022 46.512 45.0135 43.5018 49.2944 41.6681C47.1983 39.3864 44.6913 38.0007 41.675 37.5257C38.3684 46.2338 35.0864 54.8706 31.7847 63.5689H41.7463H41.7439ZM27.3144 37.4198C28.0722 38.8154 28.766 40.1371 29.5016 41.4318C29.7944 41.9462 29.8583 42.4434 29.7451 43.0169C29.135 46.1526 28.5347 49.2883 27.9615 52.4314C27.895 52.7908 27.9295 53.2141 28.0549 53.5563C28.8521 55.7271 29.6861 57.8833 30.5103 60.0443C30.5718 60.2067 30.6579 60.3569 30.7514 60.5587C30.8203 60.4504 30.8572 60.4037 30.8769 60.3544C31.7749 58.0039 32.6778 55.6533 33.5635 53.2954C33.6373 53.1009 33.625 52.8548 33.5856 52.6431C33.0345 49.6624 32.508 46.6793 31.893 43.711C31.6789 42.6698 31.7281 41.7788 32.3137 40.8558C33.0001 39.7753 33.5512 38.6086 34.1933 37.4174H27.3119L27.3144 37.4198Z" fill="#152296"/>
<path d="M43.4217 20.6832C43.4168 27.666 37.7238 33.3541 30.7465 33.3492C23.779 33.3442 18.081 27.634 18.0859 20.6586C18.0909 13.6832 23.7864 7.99754 30.7686 8C37.7484 8.00246 43.4267 13.6955 43.4193 20.6832H43.4217ZM41.4486 20.6733C41.4486 14.7859 36.6659 9.98383 30.7907 9.97152C24.8837 9.95921 20.0615 14.7662 20.0591 20.6684C20.0566 26.5387 24.8615 31.3604 30.7243 31.3752C36.6265 31.3899 41.4486 26.5781 41.4486 20.6733Z" fill="#152296"/>
<path d="M53.1743 57.7141C55.0318 55.8509 56.8081 54.0664 58.5893 52.2845C58.7493 52.1245 58.9018 51.9546 59.0814 51.8217C59.5218 51.4968 59.9769 51.5214 60.3607 51.9005C60.7445 52.282 60.7593 52.7349 60.4493 53.1828C60.3681 53.2985 60.2599 53.397 60.159 53.5003C58.1465 55.5162 56.134 57.532 54.1166 59.5429C53.3957 60.2641 52.9775 60.2591 52.2492 59.5355C51.3193 58.6101 50.3917 57.6821 49.4691 56.7518C48.8762 56.1561 48.8147 55.5999 49.2772 55.1494C49.7176 54.7212 50.3007 54.7999 50.8813 55.3808C51.6317 56.134 52.3747 56.897 53.1792 57.7141H53.1743Z" fill="#152296"/>
</g>
<defs>
<clipPath id="clip0_4_1191">
<rect width="63" height="63" fill="white" transform="translate(7 8)"/>
</clipPath>
</defs>
</svg>
