<svg width="85" height="85" viewBox="0 0 85 85" fill="none" xmlns="http://www.w3.org/2000/svg">
<mask id="path-1-inside-1_4_1177" fill="white">
<path fill-rule="evenodd" clip-rule="evenodd" d="M26.5711 19.7581H23.2288V23.307H26.5711V19.7581ZM22.1661 17.6552H27.6308C28.217 17.6552 28.6936 18.1244 28.6936 18.7051V24.3569C28.6936 24.9376 28.2169 25.4069 27.6308 25.4069H22.1661C21.5829 25.4069 21.1063 24.9376 21.1063 24.3569V18.7051C21.1063 18.1244 21.583 17.6552 22.1661 17.6552ZM30.9586 20.418C30.3725 20.418 29.8988 19.9458 29.8988 19.3651C29.8988 18.7844 30.3725 18.3152 30.9586 18.3152H43.3122C43.8983 18.3152 44.372 18.7844 44.372 19.3651C44.372 19.9458 43.8983 20.418 43.3122 20.418H30.9586ZM30.9586 24.747V24.7441C30.3725 24.7441 29.8988 24.2748 29.8988 23.6941C29.8988 23.1134 30.3725 22.6442 30.9586 22.6442H46.2193C46.8054 22.6442 47.282 23.1134 47.282 23.6941C47.282 24.2748 46.8054 24.7441 46.2193 24.7441L30.9586 24.747ZM56.8556 34.6167V29.3228C56.8556 28.745 57.3322 28.2728 57.9183 28.2728C61.453 28.2728 64.3215 31.1118 64.3215 34.6167C64.3215 35.1975 63.8449 35.6667 63.2617 35.6667H57.9154C57.3322 35.6667 56.8556 35.1974 56.8556 34.6167ZM58.9782 30.5047V33.5667H62.0687C61.678 32.0621 60.4968 30.8918 58.9782 30.5047ZM53.9338 37.5174V33.4053C52.4418 33.7808 51.2695 34.9246 50.8639 36.394C50.4554 37.8634 50.8758 39.4384 51.9652 40.5178C53.0516 41.5971 54.6413 42.0136 56.1274 41.6088C57.6105 41.207 58.7621 40.0456 59.144 38.5673H54.9906C54.4045 38.5673 53.9309 38.0981 53.9309 37.5174H53.9338ZM56.0564 32.2234L56.0534 32.2204C56.0534 31.6397 55.5798 31.1676 54.9936 31.1676C52.4033 31.1676 50.0677 32.7161 49.076 35.086C48.0842 37.4558 48.6349 40.1864 50.4643 42.0019C52.2968 43.8144 55.0528 44.3599 57.4447 43.3774C59.8366 42.3948 61.3998 40.0808 61.3998 37.5144C61.3998 36.9337 60.9231 36.4645 60.337 36.4645H56.0505V32.2234L56.0564 32.2234ZM27.4243 62.4564H24.9228V67.6038H27.4243V62.4564ZM23.8631 60.3535H28.4871H28.4842C29.0703 60.3535 29.5469 60.8228 29.5469 61.4035V68.6507C29.5469 69.2315 29.0703 69.7036 28.4842 69.7036H23.8601H23.8631C23.2769 69.7036 22.8003 69.2314 22.8003 68.6507V61.4035C22.8003 60.8227 23.277 60.3535 23.8631 60.3535ZM35.6271 60.0221H33.1256V67.601H35.6271V60.0221ZM32.0658 57.9192H36.6899C37.276 57.9192 37.7496 58.3914 37.7496 58.972V68.651C37.7496 69.2318 37.276 69.7039 36.6899 69.7039H32.0658C31.4797 69.7039 31.006 69.2317 31.006 68.651V58.972C31.006 58.3913 31.4797 57.9221 32.0658 57.9221V57.9192ZM43.8298 53.6517H41.3283L41.3313 67.6007H43.8328L43.8298 53.6547V53.6517ZM40.2685 51.5488V51.5517C39.6824 51.5517 39.2088 52.0239 39.2088 52.6017V68.6507C39.2088 69.2315 39.6824 69.7036 40.2685 69.7036H44.8926C45.4787 69.7036 45.9524 69.2314 45.9524 68.6507V52.6047C45.9524 52.024 45.4787 51.5547 44.8926 51.5547L40.2685 51.5488ZM23.1701 56.6755L30.5827 51.2056L33.3358 53.2381C33.7177 53.5167 34.2387 53.5108 34.6147 53.2234L45.6299 45.0964C45.8815 44.9409 46.0562 44.6887 46.1124 44.3983C46.1687 44.1109 46.1006 43.8118 45.923 43.5742C45.7454 43.3395 45.4789 43.187 45.1829 43.1548C44.8869 43.1254 44.5908 43.2193 44.3688 43.4128L33.9659 51.0886L31.2306 49.0737C30.8546 48.7863 30.3336 48.7804 29.9517 49.059L21.9087 54.9894C21.4558 55.3384 21.364 55.9837 21.7074 56.4412C22.0508 56.9017 22.6991 57.0014 23.1698 56.6729L23.1701 56.6755ZM68.2883 57.8692V62.2247L68.6982 62.2247C70.6047 62.2774 72.0922 62.0428 73.9247 61.5295C74.9253 61.2128 75.544 60.9195 75.544 60.723V56.699C73.229 57.5612 70.7601 57.7186 68.2853 57.6277L68.2883 57.8692ZM68.2883 51.4197V55.7751V55.4539C70.1947 55.5067 72.0922 55.5904 73.9247 55.08C74.9282 54.7603 75.541 54.47 75.544 54.2706V50.2465C73.229 51.1117 71.1731 51.5136 68.6982 51.4197L68.2883 51.4197ZM68.2883 44.9702L68.4914 49.3273L68.2853 49.3227C70.1917 49.3755 72.0922 49.1409 73.9247 48.6276C74.9282 48.3079 75.541 48.0175 75.544 47.8181V43.797C73.229 44.6622 70.9662 45.0611 68.4914 44.9702L68.2883 44.9702ZM68.2883 39.8698L68.4914 42.8748C70.3978 42.9276 72.0922 42.6913 73.9247 42.178C74.9253 41.8613 75.544 41.568 75.544 41.3715C75.544 41.175 74.9253 40.8817 73.9247 40.5649C72.0922 40.0517 70.6047 39.817 68.6982 39.8698L68.2883 39.8698ZM66.1657 23.7734V71.9033L18.3981 71.9004V13.1094H56.385V22.7291C56.385 23.3098 56.8586 23.779 57.4447 23.779L66.1657 23.7734ZM64.8306 21.6705L58.5044 14.7693V21.6705H64.8306ZM16.2756 45.7557C14.6297 45.7616 12.9897 45.9933 11.4088 46.445C10.4083 46.7617 9.78956 47.055 9.78956 47.2515C9.78956 47.448 10.4083 47.7413 11.4088 48.0581C12.9896 48.5097 14.6297 48.7414 16.2756 48.7473V45.7557ZM9.78956 53.701C9.78956 53.8976 10.4083 54.1908 11.4088 54.5076C12.9896 54.9593 14.6297 55.191 16.2756 55.1968V50.8473C14.0583 50.8648 11.8588 50.4689 9.78956 49.6799V53.701ZM9.78956 60.1506C9.78956 60.3471 10.4083 60.6403 11.4088 60.9571C12.9896 61.4088 14.6297 61.6405 16.2756 61.6463V57.2997C14.0583 57.3144 11.8588 56.9184 9.78956 56.1294V60.1506ZM16.2756 70.199C14.4136 70.1872 12.5575 69.9203 10.7694 69.4012C8.86006 68.7999 7.66699 67.8174 7.66699 66.6002V47.2512C7.66699 46.0341 8.85999 45.0544 10.7694 44.4502V44.4473C12.5575 43.9311 14.4136 43.6613 16.2756 43.6525V12.0529C16.2756 11.4722 16.7522 11 17.3384 11H57.4449C57.7646 11 58.0695 11.1437 58.2708 11.393L67.9719 21.9723V21.9693C68.1762 22.1688 68.2887 22.4386 68.2887 22.7202V37.7691C70.4083 37.7163 72.5249 37.9862 74.5645 38.5669C76.4739 39.1681 77.667 40.1507 77.667 41.3679V60.7169C77.667 61.934 76.474 62.9136 74.5645 63.5178V63.5208C72.5249 64.1015 70.4082 64.3713 68.2857 64.3185V72.9471C68.2857 73.5278 67.812 74 67.2259 74H17.3386C16.7525 74 16.2759 73.5278 16.2759 72.9471L16.2756 70.199ZM9.78956 66.6031C9.78956 66.8055 10.4023 67.0929 11.4088 67.4126C12.9896 67.8614 14.6297 68.096 16.2756 68.1019V63.7493C14.0583 63.764 11.8588 63.3681 9.78956 62.582V66.6031Z"/>
</mask>
<path fill-rule="evenodd" clip-rule="evenodd" d="M26.5711 19.7581H23.2288V23.307H26.5711V19.7581ZM22.1661 17.6552H27.6308C28.217 17.6552 28.6936 18.1244 28.6936 18.7051V24.3569C28.6936 24.9376 28.2169 25.4069 27.6308 25.4069H22.1661C21.5829 25.4069 21.1063 24.9376 21.1063 24.3569V18.7051C21.1063 18.1244 21.583 17.6552 22.1661 17.6552ZM30.9586 20.418C30.3725 20.418 29.8988 19.9458 29.8988 19.3651C29.8988 18.7844 30.3725 18.3152 30.9586 18.3152H43.3122C43.8983 18.3152 44.372 18.7844 44.372 19.3651C44.372 19.9458 43.8983 20.418 43.3122 20.418H30.9586ZM30.9586 24.747V24.7441C30.3725 24.7441 29.8988 24.2748 29.8988 23.6941C29.8988 23.1134 30.3725 22.6442 30.9586 22.6442H46.2193C46.8054 22.6442 47.282 23.1134 47.282 23.6941C47.282 24.2748 46.8054 24.7441 46.2193 24.7441L30.9586 24.747ZM56.8556 34.6167V29.3228C56.8556 28.745 57.3322 28.2728 57.9183 28.2728C61.453 28.2728 64.3215 31.1118 64.3215 34.6167C64.3215 35.1975 63.8449 35.6667 63.2617 35.6667H57.9154C57.3322 35.6667 56.8556 35.1974 56.8556 34.6167ZM58.9782 30.5047V33.5667H62.0687C61.678 32.0621 60.4968 30.8918 58.9782 30.5047ZM53.9338 37.5174V33.4053C52.4418 33.7808 51.2695 34.9246 50.8639 36.394C50.4554 37.8634 50.8758 39.4384 51.9652 40.5178C53.0516 41.5971 54.6413 42.0136 56.1274 41.6088C57.6105 41.207 58.7621 40.0456 59.144 38.5673H54.9906C54.4045 38.5673 53.9309 38.0981 53.9309 37.5174H53.9338ZM56.0564 32.2234L56.0534 32.2204C56.0534 31.6397 55.5798 31.1676 54.9936 31.1676C52.4033 31.1676 50.0677 32.7161 49.076 35.086C48.0842 37.4558 48.6349 40.1864 50.4643 42.0019C52.2968 43.8144 55.0528 44.3599 57.4447 43.3774C59.8366 42.3948 61.3998 40.0808 61.3998 37.5144C61.3998 36.9337 60.9231 36.4645 60.337 36.4645H56.0505V32.2234L56.0564 32.2234ZM27.4243 62.4564H24.9228V67.6038H27.4243V62.4564ZM23.8631 60.3535H28.4871H28.4842C29.0703 60.3535 29.5469 60.8228 29.5469 61.4035V68.6507C29.5469 69.2315 29.0703 69.7036 28.4842 69.7036H23.8601H23.8631C23.2769 69.7036 22.8003 69.2314 22.8003 68.6507V61.4035C22.8003 60.8227 23.277 60.3535 23.8631 60.3535ZM35.6271 60.0221H33.1256V67.601H35.6271V60.0221ZM32.0658 57.9192H36.6899C37.276 57.9192 37.7496 58.3914 37.7496 58.972V68.651C37.7496 69.2318 37.276 69.7039 36.6899 69.7039H32.0658C31.4797 69.7039 31.006 69.2317 31.006 68.651V58.972C31.006 58.3913 31.4797 57.9221 32.0658 57.9221V57.9192ZM43.8298 53.6517H41.3283L41.3313 67.6007H43.8328L43.8298 53.6547V53.6517ZM40.2685 51.5488V51.5517C39.6824 51.5517 39.2088 52.0239 39.2088 52.6017V68.6507C39.2088 69.2315 39.6824 69.7036 40.2685 69.7036H44.8926C45.4787 69.7036 45.9524 69.2314 45.9524 68.6507V52.6047C45.9524 52.024 45.4787 51.5547 44.8926 51.5547L40.2685 51.5488ZM23.1701 56.6755L30.5827 51.2056L33.3358 53.2381C33.7177 53.5167 34.2387 53.5108 34.6147 53.2234L45.6299 45.0964C45.8815 44.9409 46.0562 44.6887 46.1124 44.3983C46.1687 44.1109 46.1006 43.8118 45.923 43.5742C45.7454 43.3395 45.4789 43.187 45.1829 43.1548C44.8869 43.1254 44.5908 43.2193 44.3688 43.4128L33.9659 51.0886L31.2306 49.0737C30.8546 48.7863 30.3336 48.7804 29.9517 49.059L21.9087 54.9894C21.4558 55.3384 21.364 55.9837 21.7074 56.4412C22.0508 56.9017 22.6991 57.0014 23.1698 56.6729L23.1701 56.6755ZM68.2883 57.8692V62.2247L68.6982 62.2247C70.6047 62.2774 72.0922 62.0428 73.9247 61.5295C74.9253 61.2128 75.544 60.9195 75.544 60.723V56.699C73.229 57.5612 70.7601 57.7186 68.2853 57.6277L68.2883 57.8692ZM68.2883 51.4197V55.7751V55.4539C70.1947 55.5067 72.0922 55.5904 73.9247 55.08C74.9282 54.7603 75.541 54.47 75.544 54.2706V50.2465C73.229 51.1117 71.1731 51.5136 68.6982 51.4197L68.2883 51.4197ZM68.2883 44.9702L68.4914 49.3273L68.2853 49.3227C70.1917 49.3755 72.0922 49.1409 73.9247 48.6276C74.9282 48.3079 75.541 48.0175 75.544 47.8181V43.797C73.229 44.6622 70.9662 45.0611 68.4914 44.9702L68.2883 44.9702ZM68.2883 39.8698L68.4914 42.8748C70.3978 42.9276 72.0922 42.6913 73.9247 42.178C74.9253 41.8613 75.544 41.568 75.544 41.3715C75.544 41.175 74.9253 40.8817 73.9247 40.5649C72.0922 40.0517 70.6047 39.817 68.6982 39.8698L68.2883 39.8698ZM66.1657 23.7734V71.9033L18.3981 71.9004V13.1094H56.385V22.7291C56.385 23.3098 56.8586 23.779 57.4447 23.779L66.1657 23.7734ZM64.8306 21.6705L58.5044 14.7693V21.6705H64.8306ZM16.2756 45.7557C14.6297 45.7616 12.9897 45.9933 11.4088 46.445C10.4083 46.7617 9.78956 47.055 9.78956 47.2515C9.78956 47.448 10.4083 47.7413 11.4088 48.0581C12.9896 48.5097 14.6297 48.7414 16.2756 48.7473V45.7557ZM9.78956 53.701C9.78956 53.8976 10.4083 54.1908 11.4088 54.5076C12.9896 54.9593 14.6297 55.191 16.2756 55.1968V50.8473C14.0583 50.8648 11.8588 50.4689 9.78956 49.6799V53.701ZM9.78956 60.1506C9.78956 60.3471 10.4083 60.6403 11.4088 60.9571C12.9896 61.4088 14.6297 61.6405 16.2756 61.6463V57.2997C14.0583 57.3144 11.8588 56.9184 9.78956 56.1294V60.1506ZM16.2756 70.199C14.4136 70.1872 12.5575 69.9203 10.7694 69.4012C8.86006 68.7999 7.66699 67.8174 7.66699 66.6002V47.2512C7.66699 46.0341 8.85999 45.0544 10.7694 44.4502V44.4473C12.5575 43.9311 14.4136 43.6613 16.2756 43.6525V12.0529C16.2756 11.4722 16.7522 11 17.3384 11H57.4449C57.7646 11 58.0695 11.1437 58.2708 11.393L67.9719 21.9723V21.9693C68.1762 22.1688 68.2887 22.4386 68.2887 22.7202V37.7691C70.4083 37.7163 72.5249 37.9862 74.5645 38.5669C76.4739 39.1681 77.667 40.1507 77.667 41.3679V60.7169C77.667 61.934 76.474 62.9136 74.5645 63.5178V63.5208C72.5249 64.1015 70.4082 64.3713 68.2857 64.3185V72.9471C68.2857 73.5278 67.812 74 67.2259 74H17.3386C16.7525 74 16.2759 73.5278 16.2759 72.9471L16.2756 70.199ZM9.78956 66.6031C9.78956 66.8055 10.4023 67.0929 11.4088 67.4126C12.9896 67.8614 14.6297 68.096 16.2756 68.1019V63.7493C14.0583 63.764 11.8588 63.3681 9.78956 62.582V66.6031Z" fill="#152296" stroke="#ECECFF" stroke-width="0.6" mask="url(#path-1-inside-1_4_1177)"/>
</svg>
