<svg width="84" height="84" viewBox="0 0 84 84" fill="none" xmlns="http://www.w3.org/2000/svg">
<path d="M64.0042 69.4581V15.2887C64.0042 14.665 63.4994 14.1602 62.8757 14.1602H33.5339C33.383 14.1602 33.2357 14.1909 33.0993 14.2479C32.9619 14.3052 32.8382 14.3883 32.7348 14.4921L21.452 25.7749C21.3482 25.8783 21.2651 26.002 21.2078 26.1394C21.1508 26.2759 21.1201 26.4231 21.1201 26.5741V69.4581C21.1201 70.0819 21.6249 70.5867 22.2486 70.5867H62.8757C63.4994 70.5867 64.0042 70.0819 64.0042 69.4581ZM32.4054 18.0131V25.4455H24.973L32.4054 18.0131ZM61.7471 68.3296H23.3772V27.7026H33.5339C34.1577 27.7026 34.6625 27.1977 34.6625 26.5741V16.4173H61.7471V68.3296Z" fill="#152296"/>
<path d="M41.4329 46.5866V61.4174C41.4329 62.0411 41.9377 62.5459 42.5614 62.5459C43.1852 62.5459 43.6899 62.0411 43.6899 61.4174V58.7614H45.7861C46.4099 58.7614 46.9146 58.2567 46.9146 57.6328C46.9146 57.0092 46.4099 56.5044 45.7861 56.5044H43.6899V46.5866C46.7934 46.0487 49.164 43.3425 49.164 40.0878C49.164 36.4476 46.2016 33.4863 42.5614 33.4863C38.9213 33.4863 35.96 36.4476 35.96 40.0878C35.96 43.3425 38.3296 46.0487 41.4329 46.5866ZM42.5614 35.7435C44.9573 35.7435 46.9069 37.6919 46.9069 40.0878C46.9069 42.4837 44.9573 44.4333 42.5614 44.4333C40.1655 44.4333 38.217 42.4837 38.217 40.0878C38.217 37.6919 40.1655 35.7435 42.5614 35.7435Z" fill="#152296"/>
</svg>
