<svg width="84" height="84" viewBox="0 0 84 84" fill="none" xmlns="http://www.w3.org/2000/svg">
<path d="M24.1827 43.6861C25.6389 41.0929 27.0381 38.6421 28.386 36.1657C28.785 35.4305 29.278 35.08 30.1357 35.1285C31.1958 35.1883 32.2587 35.1427 33.4072 35.1427C33.4072 34.6041 33.3958 34.1368 33.4072 33.6694C33.4756 31.0591 35.5274 28.9646 38.1348 28.9218C40.768 28.8791 43.4068 28.8762 46.0399 28.9218C48.6445 28.9674 50.6507 31.0363 50.7562 33.6865C50.7733 34.1339 50.7562 34.5842 50.7562 35.1399C51.651 35.1399 52.4973 35.1712 53.3408 35.1313C54.0789 35.0943 54.5292 35.4077 54.8768 36.0404C56.2618 38.5509 57.6752 41.0473 59.1286 43.6405C59.4135 43.1504 59.6615 42.7286 59.898 42.304C60.864 40.5771 62.3259 39.7051 64.315 39.7136C66.6176 39.725 68.9201 39.7079 71.2227 39.7193C73.6421 39.7336 75.2721 41.375 75.2807 43.8086C75.2949 48.2969 75.2978 52.7824 75.2978 57.2706C75.2978 59.3851 74.953 61.4312 73.9242 63.312C73.0038 64.999 71.6388 66.1361 69.7266 66.5493C69.567 66.5835 69.4103 66.6462 69.265 66.6917C69.2393 66.7544 69.208 66.7943 69.2051 66.8399C69.1196 68.5412 68.98 68.6723 67.2645 68.6723C64.9876 68.6723 62.7106 68.6723 60.3482 68.6723C60.334 68.9516 60.314 69.2023 60.3112 69.4503C60.3112 72.109 60.3112 74.7678 60.3112 77.4266C60.3112 78.6177 59.9293 78.9996 58.7296 78.9996C47.3593 78.9996 35.9862 78.9996 24.6158 78.9996C23.3734 78.9996 23.0257 78.6377 23.0229 77.3667C23.0229 74.7564 23.0229 72.1432 23.0229 69.5329C23.0229 69.2764 23.0229 69.02 23.0229 68.6694H21.4926C19.569 68.6694 17.6455 68.6694 15.7248 68.6694C14.4396 68.6694 14.1631 68.3902 14.1204 67.0793C14.1175 66.9625 14.1004 66.8456 14.0862 66.6861C13.7642 66.6006 13.445 66.5265 13.1316 66.4296C10.6694 65.6659 9.2873 63.8534 8.64612 61.4967C8.26426 60.0947 8.06193 58.6071 8.03629 57.1509C7.96504 52.7368 8.01919 48.3197 8.02774 43.9055C8.03344 41.338 9.63497 39.7307 12.2025 39.7222C14.4111 39.7165 16.6196 39.7421 18.8253 39.7136C20.9283 39.688 22.4729 40.5628 23.4617 42.4208C23.6697 42.8141 23.9006 43.196 24.1798 43.6833L24.1827 43.6861ZM66.0847 60.7957C65.9137 60.468 65.8026 60.24 65.68 60.0177C64.6712 58.2167 63.6283 56.4357 62.6707 54.609C62.306 53.9137 61.9583 53.4948 61.1262 53.8339C60.9381 53.9108 60.7045 53.8823 60.4907 53.8823C57.4045 53.8823 54.3183 53.9051 51.2292 53.8766C49.0976 53.8567 47.593 52.335 47.6186 50.3003C47.6414 48.314 49.1746 46.8493 51.2691 46.835C52.9077 46.8236 54.5463 46.835 56.1848 46.8265C56.4641 46.8265 56.7605 46.8008 57.0226 46.7125C57.7493 46.4674 57.8804 46.0998 57.5128 45.4415C56.125 42.9566 54.7229 40.4802 53.3551 37.9839C53.1129 37.5422 52.8336 37.4139 52.352 37.4139C45.2277 37.4282 38.1063 37.431 30.9821 37.4111C30.452 37.4111 30.1927 37.5934 29.9476 38.0437C28.5912 40.5201 27.1977 42.9737 25.8213 45.4358C25.4252 46.1426 25.5619 46.5045 26.3371 46.7438C26.5793 46.8179 26.85 46.8322 27.1065 46.8322C28.8163 46.8407 30.5261 46.8236 32.2359 46.8436C33.5525 46.8607 34.5613 47.4734 35.2224 48.599C36.6159 50.9671 34.9261 53.8453 32.0935 53.8852C29.0072 53.9279 25.921 53.8994 22.8319 53.8909C22.4786 53.8909 22.1024 53.888 21.7747 53.7741C21.3444 53.6259 21.1478 53.7484 20.9397 54.1274C19.8084 56.1849 18.6486 58.2253 17.5058 60.2742C17.4232 60.4224 17.3748 60.5934 17.295 60.79H66.0818L66.0847 60.7957ZM25.3767 68.7065V76.6543H57.9744V68.7065H25.3767ZM16.4401 66.3298H66.8541V63.1353H16.4401V66.3298ZM72.9753 55.3186C72.9924 55.045 73.0152 54.837 73.0152 54.6318C73.0152 51.0497 73.0209 47.4648 73.0152 43.8827C73.0152 42.6175 72.4082 42.0133 71.1372 42.0105C68.8831 42.0048 66.629 42.0219 64.3749 42.0019C63.2378 41.9905 62.4314 42.4579 61.8928 43.461C61.243 44.6721 60.5591 45.8633 59.8866 47.063C59.0915 48.4822 57.8605 49.1319 56.2532 49.1233C54.6146 49.1148 52.9789 49.1148 51.3403 49.1233C50.437 49.129 49.9212 49.585 49.9155 50.3516C49.9098 51.1181 50.4199 51.594 51.3232 51.5969C54.361 51.6083 57.3988 51.5969 60.4337 51.6054C61.2202 51.6054 61.7902 51.2834 62.2034 50.6223C62.779 49.6961 63.3775 48.7842 63.9674 47.8666C64.5288 46.9946 65.13 46.7524 65.7627 47.1428C66.4295 47.5532 66.4637 48.1915 65.8738 49.1205C65.5176 49.679 65.2184 50.2917 64.7852 50.7847C63.9531 51.7394 64.0728 52.5401 64.657 53.6515C65.3466 54.9624 66.1217 55.4839 67.6093 55.3556C69.3704 55.2046 71.1543 55.3214 72.9724 55.3214L72.9753 55.3186ZM10.316 55.2302C10.4585 55.2701 10.5212 55.3072 10.5868 55.3072C12.8181 55.3129 15.0494 55.3243 17.2807 55.3015C17.483 55.3015 17.7566 55.1077 17.8706 54.9253C18.3209 54.2015 18.7027 53.4349 19.1473 52.7054C19.3581 52.3578 19.3638 52.0984 19.1273 51.7536C18.5004 50.8332 17.9105 49.8871 17.3149 48.9438C16.839 48.1858 16.9331 47.5218 17.5514 47.1485C18.1413 46.7894 18.7569 46.9861 19.2271 47.707C19.8483 48.6617 20.4667 49.6163 21.0651 50.5852C21.504 51.2948 22.1081 51.6282 22.9516 51.6225C25.9182 51.6054 28.8847 51.6225 31.8512 51.614C32.8486 51.614 33.41 51.1381 33.3958 50.3487C33.3815 49.5679 32.8201 49.1319 31.8028 49.1319C30.1899 49.129 28.5741 49.1319 26.9611 49.1319C25.4052 49.1319 24.2197 48.4765 23.4446 47.12C22.7749 45.9459 22.0967 44.7775 21.4726 43.5807C20.9055 42.4949 20.062 41.9962 18.8338 42.0162C16.6509 42.0475 14.4681 42.0247 12.2823 42.0247C10.8774 42.0247 10.3103 42.6004 10.3075 44.0167C10.3075 47.5304 10.3075 51.0412 10.3075 54.5549V55.2359L10.316 55.2302ZM48.4792 35.0572C48.4792 34.7779 48.4792 34.5471 48.4792 34.3163C48.4849 32.1505 47.5303 31.193 45.3645 31.193C43.1133 31.193 40.8591 31.193 38.6079 31.193C38.3258 31.193 38.0351 31.193 37.7615 31.2529C36.14 31.592 35.3649 33.0881 35.7895 35.0544H48.4792V35.0572ZM16.3489 57.6496H10.373C10.222 60.3084 11.5101 63.9959 14.1232 64.2182C14.1232 63.748 14.1631 63.2807 14.1147 62.819C14.0292 62.0011 14.2401 61.3058 14.6818 60.6105C15.2745 59.6815 15.7675 58.6926 16.3489 57.6496ZM69.0826 64.2439C71.4763 63.9646 73.6164 60.032 72.8869 57.6553H67.0051C68.0139 59.7955 69.8748 61.5737 69.0826 64.2439Z" fill="#152296"/>
<path d="M68.0662 25.3438C71.5314 25.3438 74.3697 28.1707 74.384 31.633C74.3954 35.1125 71.5086 37.9936 68.0348 37.9651C64.5582 37.9366 61.7512 35.1068 61.7598 31.6387C61.7683 28.1792 64.6152 25.3409 68.069 25.3438H68.0662ZM68.0491 35.6568C70.2804 35.6625 72.0957 33.8672 72.0985 31.6473C72.0985 29.4445 70.2661 27.6235 68.0519 27.6292C65.8691 27.6349 64.0623 29.4274 64.0452 31.6102C64.0281 33.8302 65.8292 35.6511 68.0491 35.6568Z" fill="#152296"/>
<path d="M15.3532 37.9583C11.9278 38.0467 9.05534 35.2682 8.94705 31.7659C8.84446 28.3862 11.66 25.4225 15.0511 25.3456C18.5705 25.2629 21.48 28.0129 21.5627 31.4981C21.6425 34.9918 18.8783 37.8672 15.3532 37.9583ZM15.2335 35.6529C17.4477 35.6643 19.2801 33.8491 19.2772 31.6434C19.2772 29.4662 17.4819 27.6481 15.3104 27.6253C13.0905 27.5997 11.2639 29.3807 11.2325 31.6035C11.2012 33.8092 13.0136 35.6415 15.2335 35.6529Z" fill="#152296"/>
<path d="M35.7971 21.2527C35.8256 17.7817 38.6867 14.9605 42.132 15.0004C45.6485 15.0432 48.4156 17.8815 48.3785 21.4094C48.3415 24.8718 45.4889 27.6559 42.0094 27.6217C38.5471 27.5875 35.7686 24.7407 35.7971 21.2527ZM38.0826 21.3211C38.0826 23.5552 39.8836 25.3477 42.1092 25.3363C44.3006 25.3249 46.0845 23.5381 46.0931 21.3439C46.1016 19.1068 44.3205 17.3001 42.0978 17.2916C39.875 17.283 38.0826 19.0812 38.0826 21.3211Z" fill="#152296"/>
</svg>
