<svg width="253" height="233" viewBox="0 0 253 233" fill="none" xmlns="http://www.w3.org/2000/svg">
<path d="M1 231L2 232H124.583L125.583 231V100.265L125.29 99.5576L83.926 58.1933L83.2189 57.9004H2L1 58.9004V231Z" fill="white" stroke="white" stroke-width="2" stroke-linejoin="bevel"/>
<path d="M83.2178 99.6612V58.2969L124.884 99.6612H83.2178Z" fill="#152296" stroke="white" stroke-width="2" stroke-linejoin="bevel"/>
<line x1="31.5627" y1="122.18" x2="95.4916" y2="121.226" stroke="#152296" stroke-width="2"/>
<line x1="31.5627" y1="152.713" x2="95.4916" y2="151.759" stroke="#152296" stroke-width="2"/>
<line x1="31.5627" y1="183.244" x2="95.4916" y2="182.29" stroke="#152296" stroke-width="2"/>
<path d="M64.9307 205.234L65.9307 206.234H188.514L189.514 205.234V74.4991L189.221 73.7919L147.857 32.4277L147.15 32.1348H65.9307L64.9307 33.1348V205.234Z" fill="#152296" stroke="white" stroke-width="2" stroke-linejoin="bevel"/>
<line x1="95.4958" y1="96.4181" x2="159.425" y2="95.4639" stroke="white" stroke-width="2"/>
<line x1="95.4958" y1="126.951" x2="159.425" y2="125.997" stroke="white" stroke-width="2"/>
<line x1="95.4958" y1="157.483" x2="159.425" y2="156.528" stroke="white" stroke-width="2"/>
<path d="M147.148 73.8955V32.5312L188.815 73.8955H147.148Z" fill="#152296" stroke="white" stroke-width="2" stroke-linejoin="bevel"/>
<path d="M126.95 174.703L127.95 175.703H250.533L251.533 174.703V43.9678L251.241 43.2607L209.876 1.89641L209.169 1.60352H127.95L126.95 2.60352V174.703Z" fill="#152296" stroke="white" stroke-width="2" stroke-linejoin="bevel"/>
<path d="M209.168 43.3643V2L250.834 43.3643H209.168Z" fill="#152296" stroke="white" stroke-width="2" stroke-linejoin="bevel"/>
<line x1="156.556" y1="66.84" x2="220.485" y2="65.8858" stroke="white" stroke-width="2"/>
<line x1="156.556" y1="97.3732" x2="220.485" y2="96.419" stroke="white" stroke-width="2"/>
<line x1="156.556" y1="127.904" x2="220.485" y2="126.95" stroke="white" stroke-width="2"/>
</svg>
