<svg width="306" height="219" viewBox="0 0 306 219" fill="none" xmlns="http://www.w3.org/2000/svg">
<path d="M209.71 9.97345C209.71 5.01524 205.52 1 200.347 1H10.5761C5.40251 1 1.21289 5.01524 1.21289 9.97345V37.487H209.71V9.97345Z" fill="#152296" stroke="white" stroke-width="1.74985" stroke-miterlimit="10"/>
<path d="M1.21289 37.4902V148.168C1.21289 153.126 5.40251 157.141 10.5761 157.141H200.347C205.52 157.141 209.71 153.126 209.71 148.168V37.4902H1.21289Z" fill="#152296" stroke="white" stroke-width="1.74985" stroke-miterlimit="10"/>
<path d="M87.6221 66.3064H69.975C68.5784 66.3064 67.4358 65.2113 67.4358 63.8729V47.7968C67.4358 46.4583 68.5784 45.3633 69.975 45.3633H87.6221C89.0187 45.3633 90.1613 46.4583 90.1613 47.7968V63.8729C90.1613 65.2113 89.0187 66.3064 87.6221 66.3064ZM118.362 63.8881V47.812C118.362 46.4736 117.219 45.3785 115.823 45.3785H98.1755C96.779 45.3785 95.6364 46.4736 95.6364 47.812V63.8881C95.6364 65.2266 96.779 66.3216 98.1755 66.3216H115.823C117.219 66.3216 118.362 65.2266 118.362 63.8881ZM146.578 63.8881V47.812C146.578 46.4736 145.436 45.3785 144.039 45.3785H126.392C124.995 45.3785 123.853 46.4736 123.853 47.812V63.8881C123.853 65.2266 124.995 66.3216 126.392 66.3216H144.039C145.436 66.3216 146.578 65.2266 146.578 63.8881ZM174.795 63.8881V47.812C174.795 46.4736 173.652 45.3785 172.256 45.3785H154.608C153.212 45.3785 152.069 46.4736 152.069 47.812V63.8881C152.069 65.2266 153.212 66.3216 154.608 66.3216H172.256C173.652 66.3216 174.795 65.2266 174.795 63.8881ZM203.011 63.8881V47.812C203.011 46.4736 201.869 45.3785 200.472 45.3785H182.825C181.428 45.3785 180.286 46.4736 180.286 47.812V63.8881C180.286 65.2266 181.428 66.3216 182.825 66.3216H200.472C201.869 66.3216 203.011 65.2266 203.011 63.8881ZM33.7284 91.0214V74.9453C33.7284 73.6068 32.5858 72.5118 31.1893 72.5118H13.5421C12.1456 72.5118 11.0029 73.6068 11.0029 74.9453V91.0214C11.0029 92.3598 12.1456 93.4549 13.5421 93.4549H31.1893C32.5858 93.4549 33.7284 92.3598 33.7284 91.0214ZM61.9449 91.0214V74.9453C61.9449 73.6068 60.8022 72.5118 59.4057 72.5118H41.7585C40.362 72.5118 39.2194 73.6068 39.2194 74.9453V91.0214C39.2194 92.3598 40.362 93.4549 41.7585 93.4549H59.4057C60.8022 93.4549 61.9449 92.3598 61.9449 91.0214ZM90.1613 91.0214V74.9453C90.1613 73.6068 89.0187 72.5118 87.6221 72.5118H69.975C68.5784 72.5118 67.4358 73.6068 67.4358 74.9453V91.0214C67.4358 92.3598 68.5784 93.4549 69.975 93.4549H87.6221C89.0187 93.4549 90.1613 92.3598 90.1613 91.0214ZM146.578 91.0214V74.9453C146.578 73.6068 145.436 72.5118 144.039 72.5118H126.392C124.995 72.5118 123.853 73.6068 123.853 74.9453V91.0214C123.853 92.3598 124.995 93.4549 126.392 93.4549H144.039C145.436 93.4549 146.578 92.3598 146.578 91.0214ZM174.795 91.0214V74.9453C174.795 73.6068 173.652 72.5118 172.256 72.5118H154.608C153.212 72.5118 152.069 73.6068 152.069 74.9453V91.0214C152.069 92.3598 153.212 93.4549 154.608 93.4549H172.256C173.652 93.4549 174.795 92.3598 174.795 91.0214ZM203.011 91.0214V74.9453C203.011 73.6068 201.869 72.5118 200.472 72.5118H182.825C181.428 72.5118 180.286 73.6068 180.286 74.9453V91.0214C180.286 92.3598 181.428 93.4549 182.825 93.4549H200.472C201.869 93.4549 203.011 92.3598 203.011 91.0214ZM33.7284 118.17V102.094C33.7284 100.755 32.5858 99.6603 31.1893 99.6603H13.5421C12.1456 99.6603 11.0029 100.755 11.0029 102.094V118.17C11.0029 119.508 12.1456 120.603 13.5421 120.603H31.1893C32.5858 120.603 33.7284 119.508 33.7284 118.17ZM61.9449 118.17V102.094C61.9449 100.755 60.8022 99.6603 59.4057 99.6603H41.7585C40.362 99.6603 39.2194 100.755 39.2194 102.094V118.17C39.2194 119.508 40.362 120.603 41.7585 120.603H59.4057C60.8022 120.603 61.9449 119.508 61.9449 118.17ZM90.1613 118.17V102.094C90.1613 100.755 89.0187 99.6603 87.6221 99.6603H69.975C68.5784 99.6603 67.4358 100.755 67.4358 102.094V118.17C67.4358 119.508 68.5784 120.603 69.975 120.603H87.6221C89.0187 120.603 90.1613 119.508 90.1613 118.17ZM118.362 118.17V102.094C118.362 100.755 117.219 99.6603 115.823 99.6603H98.1755C96.779 99.6603 95.6364 100.755 95.6364 102.094V118.17C95.6364 119.508 96.779 120.603 98.1755 120.603H115.823C117.219 120.603 118.362 119.508 118.362 118.17ZM146.578 118.17V102.094C146.578 100.755 145.436 99.6603 144.039 99.6603H126.392C124.995 99.6603 123.853 100.755 123.853 102.094V118.17C123.853 119.508 124.995 120.603 126.392 120.603H144.039C145.436 120.603 146.578 119.508 146.578 118.17ZM174.795 118.17V102.094C174.795 100.755 173.652 99.6603 172.256 99.6603H154.608C153.212 99.6603 152.069 100.755 152.069 102.094V118.17C152.069 119.508 153.212 120.603 154.608 120.603H172.256C173.652 120.603 174.795 119.508 174.795 118.17ZM203.011 118.17V102.094C203.011 100.755 201.869 99.6603 200.472 99.6603H182.825C181.428 99.6603 180.286 100.755 180.286 102.094V118.17C180.286 119.508 181.428 120.603 182.825 120.603H200.472C201.869 120.603 203.011 119.508 203.011 118.17ZM33.7284 145.318V129.242C33.7284 127.904 32.5858 126.809 31.1893 126.809H13.5421C12.1456 126.809 11.0029 127.904 11.0029 129.242V145.318C11.0029 146.657 12.1456 147.752 13.5421 147.752H31.1893C32.5858 147.752 33.7284 146.657 33.7284 145.318ZM61.9449 145.318V129.242C61.9449 127.904 60.8022 126.809 59.4057 126.809H41.7585C40.362 126.809 39.2194 127.904 39.2194 129.242V145.318C39.2194 146.657 40.362 147.752 41.7585 147.752H59.4057C60.8022 147.752 61.9449 146.657 61.9449 145.318ZM90.1613 145.318V129.242C90.1613 127.904 89.0187 126.809 87.6221 126.809H69.975C68.5784 126.809 67.4358 127.904 67.4358 129.242V145.318C67.4358 146.657 68.5784 147.752 69.975 147.752H87.6221C89.0187 147.752 90.1613 146.657 90.1613 145.318ZM118.362 145.318V129.242C118.362 127.904 117.219 126.809 115.823 126.809H98.1755C96.779 126.809 95.6364 127.904 95.6364 129.242V145.318C95.6364 146.657 96.779 147.752 98.1755 147.752H115.823C117.219 147.752 118.362 146.657 118.362 145.318Z" fill="#152296" stroke="white" stroke-width="1.74985" stroke-miterlimit="10"/>
<path d="M118.381 91.014V74.953C118.381 73.609 117.244 72.5195 115.842 72.5195H98.2104C96.8081 72.5195 95.6712 73.609 95.6712 74.953V91.014C95.6712 92.358 96.8081 93.4475 98.2104 93.4475H115.842C117.244 93.4475 118.381 92.358 118.381 91.014Z" fill="white" stroke="white" stroke-width="1.74985" stroke-miterlimit="10"/>
<path d="M295.914 112.556L241.069 50.9863L112.665 156.219L167.51 217.789L295.914 112.556Z" fill="#152296" stroke="white" stroke-width="1.74985" stroke-miterlimit="10"/>
<path d="M288.85 104.635L234.005 43.0645L105.6 148.297L160.445 209.867L288.85 104.635Z" fill="#152296" stroke="white" stroke-width="1.74985" stroke-miterlimit="10"/>
<path d="M237.166 52.0325L280.098 100.228C277.759 102.145 277.458 105.488 279.424 107.696L165.092 201.394C163.125 199.187 159.635 198.951 157.296 200.868L114.364 152.672C116.703 150.755 117.005 147.412 115.038 145.204L229.361 51.5136C231.327 53.7213 234.818 53.9571 237.157 52.0404L237.166 52.0325Z" fill="white" stroke="white" stroke-width="1.74985" stroke-miterlimit="10"/>
<path d="M175.13 144.577C185.393 156.099 203.607 157.33 215.813 147.326C228.018 137.322 229.593 119.871 219.33 108.348C209.068 96.8253 190.854 95.5944 178.648 105.599C166.443 115.603 164.868 133.054 175.13 144.577Z" fill="#152296" stroke="white" stroke-width="1.74985" stroke-miterlimit="10"/>
<path d="M190.937 106.002C191.731 107.107 192.304 108.3 193.23 109.184C196.097 112.057 199.669 112.809 203.55 112.057C204.829 111.792 206.02 111.217 207.255 110.775C207.519 110.687 207.74 110.599 207.96 110.864C210.959 113.869 213.958 116.875 216.957 119.88C217.001 119.925 217.001 119.969 217.001 120.057C216.692 120.19 216.384 120.322 216.075 120.455C212.988 122.046 211.356 124.654 210.783 128.013C210.298 130.842 210.827 133.582 212.106 136.146C212.238 136.455 212.37 136.676 212.062 136.985C209.063 139.947 206.064 142.952 203.109 145.914C203.065 145.958 203.021 145.958 202.977 146.002C202.933 145.914 202.844 145.825 202.8 145.737C201.257 142.157 198.39 140.344 194.686 139.726C191.907 139.284 189.305 139.858 186.836 141.14C186.527 141.273 186.35 141.361 186.042 141.096C183.087 138.046 180.088 135.041 177.089 132.035C177.045 131.991 177.045 131.947 177.001 131.903C177.53 131.637 178.148 131.372 178.633 131.063C181.764 129.03 183.175 126.024 183.396 122.4C183.528 120.057 182.955 117.847 181.896 115.77C181.764 115.461 181.676 115.284 181.984 114.974C184.939 112.013 187.894 109.052 190.849 106.09C190.893 106.046 190.981 106.002 190.937 106.002ZM210.209 135.306C203.374 128.809 202.624 121.118 206.24 112.853C199.846 119.571 192.26 120.322 184.013 116.786C190.761 123.372 191.422 131.063 187.718 139.372C192.436 133.317 201.786 131.019 210.209 135.306Z" fill="white"/>
<path d="M290.615 108.174L163.222 212.461" stroke="white" stroke-width="1.74985" stroke-miterlimit="10"/>
<path d="M292.38 111.443L164.986 215.731" stroke="white" stroke-width="1.74985" stroke-miterlimit="10"/>
</svg>
