<svg width="230" height="257" viewBox="0 0 230 257" fill="none" xmlns="http://www.w3.org/2000/svg">
<path d="M120.979 31.9668H109.231V103.382H120.979V31.9668Z" fill="#152296" stroke="white" stroke-width="2" stroke-miterlimit="10"/>
<path d="M105.378 19.5277L25.1992 65.623L31.073 75.7536L111.252 29.6583L105.378 19.5277Z" fill="#152296" stroke="white" stroke-width="2" stroke-miterlimit="10"/>
<path d="M34.0866 75.1702L28.2129 85.3008L90.3233 121.009L96.197 110.878L34.0866 75.1702Z" fill="#152296" stroke="white" stroke-width="2" stroke-miterlimit="10"/>
<path d="M27.2182 82.4023H15.4707V174.593H27.2182V82.4023Z" fill="#152296" stroke="white" stroke-width="2" stroke-miterlimit="10"/>
<path d="M90.3233 135.991L28.2129 171.699L34.0866 181.83L96.197 146.122L90.3233 135.991Z" fill="#152296" stroke="white" stroke-width="2" stroke-miterlimit="10"/>
<path d="M31.073 181.242L25.1992 191.373L105.378 237.468L111.252 227.338L31.073 181.242Z" fill="#152296" stroke="white" stroke-width="2" stroke-miterlimit="10"/>
<path d="M120.979 153.617H109.231V225.033H120.979V153.617Z" fill="#152296" stroke="white" stroke-width="2" stroke-miterlimit="10"/>
<path d="M199.142 181.239L118.964 227.334L124.838 237.465L205.016 191.369L199.142 181.239Z" fill="#152296" stroke="white" stroke-width="2" stroke-miterlimit="10"/>
<path d="M139.891 135.992L134.017 146.123L196.128 181.831L202.001 171.7L139.891 135.992Z" fill="#152296" stroke="white" stroke-width="2" stroke-miterlimit="10"/>
<path d="M214.742 82.4043H202.995V174.595H214.742V82.4043Z" fill="#152296" stroke="white" stroke-width="2" stroke-miterlimit="10"/>
<path d="M196.128 75.1691L134.017 110.877L139.891 121.008L202.001 85.2997L196.128 75.1691Z" fill="#152296" stroke="white" stroke-width="2" stroke-miterlimit="10"/>
<path d="M124.836 19.5296L118.962 29.6602L199.14 75.7555L205.014 65.6249L124.836 19.5296Z" fill="#152296" stroke="white" stroke-width="2" stroke-miterlimit="10"/>
<path d="M115 189C148.689 189 176 161.689 176 128C176 94.3106 148.689 67 115 67C81.3106 67 54 94.3106 54 128C54 161.689 81.3106 189 115 189Z" fill="white" stroke="white" stroke-width="2" stroke-miterlimit="10"/>
<path d="M114 158C130.569 158 144 144.569 144 128C144 111.431 130.569 98 114 98C97.4315 98 84 111.431 84 128C84 144.569 97.4315 158 114 158Z" fill="#152296" stroke="white" stroke-width="2" stroke-miterlimit="10"/>
<path d="M129.799 116.018C129.718 116.148 129.66 116.245 129.599 116.336C128.921 117.339 128.248 118.344 127.558 119.338C127.386 119.589 127.382 119.788 127.513 120.07C127.856 120.809 128.169 121.565 128.451 122.329C128.556 122.613 128.679 122.77 128.991 122.826C130.169 123.037 131.341 123.284 132.52 123.49C132.885 123.555 133.002 123.708 133 124.075C132.985 126.019 132.983 127.962 133 129.906C133.003 130.291 132.878 130.449 132.496 130.515C131.372 130.706 130.257 130.951 129.133 131.145C128.754 131.209 128.563 131.361 128.433 131.742C128.174 132.499 127.848 133.235 127.511 133.962C127.389 134.227 127.382 134.413 127.55 134.653C128.24 135.647 128.904 136.661 129.599 137.652C129.794 137.929 129.767 138.1 129.532 138.332C128.15 139.696 126.772 141.067 125.414 142.456C125.111 142.768 124.897 142.81 124.535 142.549C123.586 141.866 122.602 141.234 121.647 140.563C121.405 140.394 121.217 140.396 120.953 140.512C120.17 140.862 119.376 141.187 118.578 141.498C118.341 141.591 118.219 141.708 118.173 141.966C117.967 143.129 117.727 144.287 117.521 145.452C117.451 145.848 117.294 146.007 116.859 146C114.93 145.973 112.999 145.978 111.07 145.996C110.694 146 110.549 145.866 110.486 145.513C110.275 144.321 110.05 143.131 109.8 141.948C109.764 141.782 109.59 141.589 109.433 141.517C108.638 141.16 107.821 140.852 107.023 140.499C106.773 140.387 106.595 140.391 106.367 140.55C105.351 141.258 104.316 141.941 103.298 142.646C103.085 142.793 102.944 142.795 102.757 142.605C101.309 141.146 99.8532 139.694 98.3939 138.247C98.1978 138.053 98.235 137.9 98.3736 137.698C99.0517 136.712 99.7061 135.71 100.398 134.732C100.619 134.421 100.601 134.185 100.445 133.853C100.105 133.128 99.8093 132.381 99.5303 131.63C99.4288 131.358 99.2952 131.218 99.0078 131.167C97.8444 130.956 96.686 130.712 95.5209 130.509C95.1523 130.445 94.995 130.318 95.0001 129.916C95.0187 127.958 95.017 126.001 95.0001 124.043C94.9967 123.688 95.1219 123.55 95.4634 123.489C96.6421 123.281 97.8139 123.036 98.9925 122.824C99.2952 122.77 99.4356 122.632 99.5438 122.341C99.8313 121.563 100.149 120.796 100.496 120.042C100.621 119.771 100.609 119.584 100.448 119.349C99.7535 118.341 99.0788 117.318 98.3787 116.316C98.2028 116.064 98.235 115.912 98.443 115.705C99.8735 114.289 101.297 112.865 102.711 111.43C102.938 111.2 103.1 111.2 103.354 111.378C104.346 112.073 105.354 112.742 106.348 113.432C106.566 113.582 106.746 113.616 107.004 113.499C107.774 113.153 108.557 112.833 109.345 112.532C109.625 112.426 109.776 112.289 109.83 111.978C110.035 110.813 110.278 109.657 110.488 108.492C110.55 108.147 110.677 107.997 111.061 108C113.019 108.02 114.977 108.02 116.936 108C117.321 107.997 117.446 108.147 117.509 108.492C117.722 109.682 117.947 110.872 118.197 112.056C118.231 112.218 118.41 112.407 118.569 112.478C119.366 112.833 120.184 113.138 120.98 113.491C121.234 113.602 121.415 113.596 121.638 113.44C122.633 112.749 123.644 112.083 124.633 111.384C124.905 111.192 125.073 111.207 125.308 111.445C126.709 112.87 128.128 114.28 129.54 115.697C129.635 115.792 129.713 115.905 129.799 116.011V116.018ZM127.049 137.743C126.975 137.616 126.917 137.505 126.848 137.402C126.288 136.573 125.746 135.732 125.157 134.925C124.887 134.555 124.853 134.269 125.11 133.872C125.898 132.656 126.444 131.331 126.74 129.911C126.813 129.561 126.982 129.39 127.342 129.329C128.382 129.15 129.417 128.937 130.455 128.746C130.707 128.701 130.869 128.609 130.866 128.315C130.857 127.441 130.859 126.569 130.866 125.695C130.868 125.416 130.734 125.296 130.469 125.249C129.429 125.063 128.394 124.85 127.352 124.675C126.992 124.616 126.816 124.454 126.742 124.101C126.434 122.638 125.849 121.284 125.046 120.028C124.843 119.712 124.882 119.486 125.084 119.196C125.7 118.321 126.283 117.423 126.895 116.546C127.046 116.329 127.038 116.189 126.848 116.005C126.251 115.427 125.656 114.845 125.09 114.238C124.834 113.964 124.635 113.951 124.335 114.162C123.485 114.764 122.607 115.327 121.762 115.934C121.471 116.143 121.259 116.13 120.97 115.944C119.704 115.127 118.331 114.556 116.854 114.24C116.533 114.17 116.386 114.017 116.329 113.689C116.148 112.634 115.923 111.587 115.742 110.532C115.684 110.199 115.541 110.093 115.211 110.1C114.408 110.12 113.604 110.128 112.801 110.096C112.409 110.081 112.292 110.247 112.233 110.593C112.055 111.619 111.836 112.639 111.663 113.667C111.606 114.015 111.443 114.167 111.112 114.24C109.625 114.569 108.242 115.153 106.964 115.979C106.714 116.142 106.526 116.135 106.281 115.962C105.418 115.354 104.534 114.776 103.671 114.167C103.381 113.963 103.178 113.942 102.916 114.225C102.38 114.803 101.818 115.359 101.245 115.9C100.986 116.145 100.934 116.323 101.162 116.639C101.781 117.494 102.349 118.385 102.951 119.254C103.112 119.486 103.168 119.682 103.002 119.942C102.168 121.247 101.558 122.649 101.238 124.167C101.179 124.446 101.039 124.599 100.743 124.652C99.6892 124.838 98.6408 125.054 97.5856 125.235C97.2576 125.291 97.1257 125.431 97.1308 125.762C97.1426 126.565 97.1477 127.368 97.1257 128.171C97.1155 128.538 97.2474 128.697 97.6127 128.76C98.6391 128.934 99.6588 129.15 100.685 129.335C101 129.39 101.177 129.527 101.245 129.855C101.553 131.348 102.146 132.726 102.963 134.007C103.144 134.291 103.13 134.502 102.943 134.77C102.337 135.635 101.757 136.519 101.152 137.383C100.968 137.647 100.947 137.826 101.203 138.066C101.788 138.616 102.358 139.182 102.904 139.77C103.157 140.044 103.349 140.064 103.653 139.85C104.524 139.229 105.41 138.629 106.308 138.046C106.451 137.953 106.736 137.906 106.862 137.985C108.224 138.84 109.681 139.456 111.249 139.806C111.521 139.867 111.601 140.034 111.644 140.277C111.842 141.358 112.06 142.434 112.253 143.516C112.304 143.805 112.424 143.919 112.725 143.912C113.571 143.895 114.416 143.895 115.261 143.912C115.559 143.917 115.683 143.819 115.735 143.521C115.921 142.453 116.143 141.391 116.33 140.323C116.386 140 116.528 139.841 116.854 139.772C118.356 139.449 119.751 138.857 121.038 138.02C121.295 137.853 121.479 137.878 121.719 138.048C122.619 138.676 123.535 139.282 124.44 139.905C124.648 140.049 124.804 140.064 124.991 139.872C125.6 139.246 126.222 138.632 126.836 138.012C126.912 137.936 126.973 137.843 127.049 137.745V137.743Z" fill="white"/>
<path d="M123 126.982C123.004 131.946 119.008 135.996 114.097 136C109.021 136.004 105.01 132.046 105 127.022C104.99 122.066 109 118 113.901 118C118.97 118 122.994 121.972 123 126.984V126.982ZM120.371 127.051C120.38 123.505 117.532 120.605 114.022 120.591C110.581 120.576 107.698 123.461 107.608 126.851C107.518 130.214 110.301 133.389 113.976 133.401C117.48 133.412 120.363 130.556 120.371 127.053V127.051Z" fill="white"/>
<path d="M115.106 40.3813C126.027 40.3813 134.881 31.5655 134.881 20.6906C134.881 9.8158 126.027 1 115.106 1C104.185 1 95.332 9.8158 95.332 20.6906C95.332 31.5655 104.185 40.3813 115.106 40.3813Z" fill="#152296" stroke="white" stroke-width="2" stroke-miterlimit="10"/>
<path d="M21.3436 94.2836C32.2646 94.2836 41.1179 85.4678 41.1179 74.593C41.1179 63.7181 32.2646 54.9023 21.3436 54.9023C10.4226 54.9023 1.56934 63.7181 1.56934 74.593C1.56934 85.4678 10.4226 94.2836 21.3436 94.2836Z" fill="#152296" stroke="white" stroke-width="2" stroke-miterlimit="10"/>
<path d="M21.3436 202.094C32.2646 202.094 41.1179 193.278 41.1179 182.404C41.1179 171.529 32.2646 162.713 21.3436 162.713C10.4226 162.713 1.56934 171.529 1.56934 182.404C1.56934 193.278 10.4226 202.094 21.3436 202.094Z" fill="#152296" stroke="white" stroke-width="2" stroke-miterlimit="10"/>
<path d="M115.106 256C126.027 256 134.881 247.185 134.881 236.31C134.881 225.435 126.027 216.619 115.106 216.619C104.185 216.619 95.332 225.435 95.332 236.31C95.332 247.185 104.185 256 115.106 256Z" fill="#152296" stroke="white" stroke-width="2" stroke-miterlimit="10"/>
<path d="M208.868 202.094C219.789 202.094 228.642 193.278 228.642 182.404C228.642 171.529 219.789 162.713 208.868 162.713C197.947 162.713 189.093 171.529 189.093 182.404C189.093 193.278 197.947 202.094 208.868 202.094Z" fill="#152296" stroke="white" stroke-width="2" stroke-miterlimit="10"/>
<path d="M208.868 94.2836C219.789 94.2836 228.642 85.4678 228.642 74.593C228.642 63.7181 219.789 54.9023 208.868 54.9023C197.947 54.9023 189.093 63.7181 189.093 74.593C189.093 85.4678 197.947 94.2836 208.868 94.2836Z" fill="#152296" stroke="white" stroke-width="2" stroke-miterlimit="10"/>
</svg>
