<svg width="209" height="189" viewBox="0 0 209 189" fill="none" xmlns="http://www.w3.org/2000/svg">
<g clip-path="url(#clip0_4_130)">
<path d="M75.9844 10.1016H185.219C192.599 10.1016 198.666 16.7866 198.773 25.1355C198.773 25.2523 198.773 25.3788 198.773 25.5053V128.943V130.704C198.773 141.924 206.543 146.546 206.543 146.546H97.3081C89.928 146.546 83.8605 139.861 83.7535 131.512C83.7535 131.395 83.7535 131.269 83.7535 131.142V27.7045V25.9432C83.7535 14.7237 75.9844 10.1016 75.9844 10.1016Z" fill="#152296" stroke="white" stroke-width="1.71784" stroke-miterlimit="10"/>
<path d="M184.392 10.0957C184.392 10.0957 177.798 14.7203 177.798 25.9399V149.656C177.691 158.015 171.623 164.69 164.243 164.69H55.0088C55.0088 164.69 62.7779 160.068 62.7779 148.849V147.087V25.502C62.7779 25.3755 62.7779 25.2587 62.7779 25.1419C62.8751 16.7832 68.9426 10.0982 76.3228 10.0982H185.548L184.392 10.0957Z" fill="#152296" stroke="white" stroke-width="1.71784" stroke-miterlimit="10"/>
<path d="M32.08 0.482422H141.314C148.695 0.482422 154.762 7.16743 154.869 15.5164C154.869 15.6332 154.869 15.7597 154.869 15.8862V147.086V148.847C154.869 160.066 162.638 164.689 162.638 164.689H53.3941C46.0139 164.689 39.9464 158.004 39.8394 149.655C39.8394 149.538 39.8394 149.411 39.8394 149.285V18.0853V16.3241C39.8394 5.10452 32.0703 0.482422 32.0703 0.482422H32.08Z" fill="#152296" stroke="white" stroke-width="1.71784" stroke-miterlimit="10"/>
<path d="M137.766 0.482422C137.766 0.482422 129.112 5.10452 129.112 16.3241V182.184L128.319 183.117L123.462 188.247L118.173 182.184H118.104L112.815 188.247L107.525 182.184H107.457L102.168 188.247L96.878 182.184H96.8099L91.5203 188.247L86.2307 182.184H86.1529L80.8633 188.247L75.5737 182.184H75.4959L70.2063 188.247L64.9166 182.184H64.8486L59.559 188.247L54.2693 182.184H54.1916L48.9019 188.247L43.6123 182.184H43.5345L38.2449 188.247L32.9553 182.184H32.8775L27.5879 188.247L22.2983 182.184H22.2205L16.9309 188.247L11.6413 182.184H11.5635L6.27386 188.247L0.984249 182.184H0.955078V15.5164C1.09121 7.16743 7.84908 0.482422 16.0752 0.482422H137.766Z" fill="white" stroke="white" stroke-width="1.71784" stroke-miterlimit="10"/>
<circle cx="63.0334" cy="153.037" r="18.0373" fill="#152296"/>
<path d="M78.1987 152.303C78.0615 144.311 71.3974 137.905 63.1396 137.922L63.1395 137.922C54.9032 137.939 48.2207 144.536 48.2439 152.594L78.1987 152.303ZM78.1987 152.303L78.1995 152.501C78.2291 160.519 71.5238 167.115 63.2661 167.143C55.0062 167.171 48.2684 160.625 48.2439 152.594L78.1987 152.303ZM62.9029 136.026L62.9014 136.026C53.646 136.215 46.1898 143.6 46.3263 152.776L46.3263 152.776C46.4628 161.929 54.1497 169.219 63.5749 169.033L63.5749 169.033C72.8869 168.848 80.2849 161.377 80.1184 152.223C79.9532 143.145 72.2641 135.868 62.9029 136.026Z" fill="#152296" stroke="#152296" stroke-width="0.858921"/>
<path d="M56.1602 151.326L62.8363 156.48L71.6207 147.891" stroke="white" stroke-width="2.57676" stroke-linejoin="round"/>
<path d="M112.291 28.8292H18.0699C16.6503 28.8292 15.5029 27.681 15.5029 26.2603C15.5029 24.8396 16.6503 23.6914 18.0699 23.6914H112.291C113.711 23.6914 114.858 24.8396 114.858 26.2603C114.858 27.681 113.711 28.8292 112.291 28.8292ZM114.858 44.8752C114.858 43.4545 113.711 42.3063 112.291 42.3063H18.0699C16.6503 42.3063 15.5029 43.4545 15.5029 44.8752C15.5029 46.2959 16.6503 47.4441 18.0699 47.4441H112.291C113.711 47.4441 114.858 46.2959 114.858 44.8752ZM114.858 63.4804C114.858 62.0597 113.711 60.9115 112.291 60.9115H18.0699C16.6503 60.9115 15.5029 62.0597 15.5029 63.4804C15.5029 64.9011 16.6503 66.0493 18.0699 66.0493H112.291C113.711 66.0493 114.858 64.9011 114.858 63.4804ZM114.858 82.0953C114.858 80.6746 113.711 79.5263 112.291 79.5263H18.0699C16.6503 79.5263 15.5029 80.6746 15.5029 82.0953C15.5029 83.5159 16.6503 84.6642 18.0699 84.6642H112.291C113.711 84.6642 114.858 83.5159 114.858 82.0953ZM114.858 100.71C114.858 99.2895 113.711 98.1412 112.291 98.1412H18.0699C16.6503 98.1412 15.5029 99.2895 15.5029 100.71C15.5029 102.131 16.6503 103.279 18.0699 103.279H112.291C113.711 103.279 114.858 102.131 114.858 100.71ZM114.858 119.325C114.858 117.904 113.711 116.756 112.291 116.756H18.0699C16.6503 116.756 15.5029 117.904 15.5029 119.325C15.5029 120.746 16.6503 121.894 18.0699 121.894H112.291C113.711 121.894 114.858 120.746 114.858 119.325Z" fill="#152296" stroke="white" stroke-width="1.71784" stroke-miterlimit="10"/>
</g>
<defs>
<clipPath id="clip0_4_130">
<rect width="207.822" height="189" fill="white" transform="translate(0.488281)"/>
</clipPath>
</defs>
</svg>
