<svg width="187" height="186" viewBox="0 0 187 186" fill="none" xmlns="http://www.w3.org/2000/svg">
<circle cx="93.3552" cy="92.8552" r="91.9821" fill="#152296" stroke="white" stroke-width="1.74613"/>
<path d="M19.7168 21.3125L50.4913 52.087" stroke="white" stroke-width="1.74613"/>
<path d="M167.2 21.3125L136.426 52.087" stroke="white" stroke-width="1.74613"/>
<path d="M166.736 163.486L136.425 133.175" stroke="white" stroke-width="1.74613"/>
<path d="M19.7168 163.957L50.4913 133.183" stroke="white" stroke-width="1.74613"/>
<circle cx="93.3173" cy="92.6376" r="58.3017" fill="white" stroke="white" stroke-width="1.74613"/>
<path d="M25.4973 9.2793L36.986 16.3998V29.8442L25.5956 36.6576L13.7402 29.8442V16.3998L25.4973 9.2793Z" fill="#152296"/>
<path d="M13.7402 16.3998L25.5956 22.3955M13.7402 16.3998L25.4973 9.2793L36.986 16.3998M13.7402 16.3998V29.8442L25.5956 36.6576M25.5956 22.3955L36.986 16.3998M25.5956 22.3955L25.5956 36.6576M36.986 16.3998V29.8442L25.5956 36.6576" stroke="white" stroke-width="1.74613" stroke-linecap="square"/>
<path d="M25.4973 147.762L36.986 154.882V168.327L25.5956 175.14L13.7402 168.327V154.882L25.4973 147.762Z" fill="#152296"/>
<path d="M13.7402 154.882L25.5956 160.878M13.7402 154.882L25.4973 147.762L36.986 154.882M13.7402 154.882V168.327L25.5956 175.14M25.5956 160.878L36.986 154.882M25.5956 160.878L25.5956 175.14M36.986 154.882V168.327L25.5956 175.14" stroke="white" stroke-width="1.74613" stroke-linecap="square"/>
<path d="M161.85 9.2793L173.338 16.3998V29.8442L161.948 36.6576L150.093 29.8442V16.3998L161.85 9.2793Z" fill="#152296"/>
<path d="M150.093 16.3998L161.948 22.3955M150.093 16.3998L161.85 9.2793L173.338 16.3998M150.093 16.3998V29.8442L161.948 36.6576M161.948 22.3955L173.338 16.3998M161.948 22.3955L161.948 36.6576M173.338 16.3998V29.8442L161.948 36.6576" stroke="white" stroke-width="1.74613" stroke-linecap="square"/>
<path d="M161.85 147.762L173.338 154.882V168.327L161.948 175.14L150.093 168.327V154.882L161.85 147.762Z" fill="#152296"/>
<path d="M150.093 154.882L161.948 160.878M150.093 154.882L161.85 147.762L173.338 154.882M150.093 154.882V168.327L161.948 175.14M161.948 160.878L173.338 154.882M161.948 160.878L161.948 175.14M173.338 154.882V168.327L161.948 175.14" stroke="white" stroke-width="1.74613" stroke-linecap="square"/>
<path d="M79.28 47.1465C81.0819 49.6547 82.3834 52.3637 84.4857 54.3703C90.9927 60.8917 99.1016 62.5974 107.911 60.8917C110.814 60.2898 113.517 58.9855 116.32 57.9822C116.921 57.7815 117.422 57.5808 117.922 58.1828C124.73 65.0053 131.537 71.8277 138.344 78.6502C138.444 78.7505 138.444 78.8509 138.444 79.0515C137.744 79.3525 137.043 79.6535 136.342 79.9545C129.335 83.5664 125.63 89.4859 124.329 97.111C123.228 103.532 124.429 109.753 127.332 115.572C127.633 116.274 127.933 116.776 127.232 117.478C120.425 124.2 113.617 131.023 106.91 137.745C106.81 137.845 106.71 137.845 106.61 137.945C106.51 137.745 106.309 137.544 106.209 137.343C102.706 129.217 96.1984 125.103 87.7893 123.699C81.4824 122.695 75.5759 124 69.9698 126.909C69.2691 127.21 68.8686 127.411 68.1679 126.809C61.4606 119.886 54.6531 113.064 47.8457 106.241C47.7456 106.141 47.7456 106.04 47.6455 105.94C48.8468 105.338 50.2483 104.736 51.3495 104.034C58.4573 99.4186 61.6608 92.5961 62.1613 84.369C62.4617 79.0515 61.1602 74.035 58.7576 69.3195C58.4573 68.6172 58.2571 68.2159 58.9578 67.5135C65.6651 60.7914 72.3725 54.0693 79.0798 47.3471C79.1799 47.2468 79.3801 47.1465 79.28 47.1465ZM123.028 113.665C107.511 98.9169 105.809 81.4595 114.018 62.6977C99.502 77.9479 82.2833 79.6535 63.5629 71.6271C78.8795 86.5763 80.3812 104.034 71.972 122.896C82.6837 109.151 103.907 103.933 123.028 113.665Z" fill="#152296"/>
</svg>
